<svg xmlns="http://www.w3.org/2000/svg" xmlns:xlink="http://www.w3.org/1999/xlink" width="400" height="300" viewBox="0 0 1600 1200">
<defs>
  <clipPath id="clip050">
    <rect x="0" y="0" width="1600" height="1200"></rect>
  </clipPath>
</defs>
<path clip-path="url(#clip050)" d="M0 1200 L1600 1200 L1600 0 L0 0  Z" fill="#ffffff" fill-rule="evenodd" fill-opacity="1"></path>
<defs>
  <clipPath id="clip051">
    <rect x="320" y="0" width="1121" height="1121"></rect>
  </clipPath>
</defs>
<path clip-path="url(#clip050)" d="M247.482 1016.92 L1552.76 1016.92 L1552.76 47.2441 L247.482 47.2441  Z" fill="#ffffff" fill-rule="evenodd" fill-opacity="1"></path>
<defs>
  <clipPath id="clip052">
    <rect x="247" y="47" width="1306" height="971"></rect>
  </clipPath>
</defs>
<polyline clip-path="url(#clip052)" style="stroke:#000000; stroke-linecap:round; stroke-linejoin:round; stroke-width:2; stroke-opacity:0.1; fill:none" points="284.424,1016.92 284.424,47.2441 "></polyline>
<polyline clip-path="url(#clip052)" style="stroke:#000000; stroke-linecap:round; stroke-linejoin:round; stroke-width:2; stroke-opacity:0.1; fill:none" points="592.271,1016.92 592.271,47.2441 "></polyline>
<polyline clip-path="url(#clip052)" style="stroke:#000000; stroke-linecap:round; stroke-linejoin:round; stroke-width:2; stroke-opacity:0.1; fill:none" points="900.119,1016.92 900.119,47.2441 "></polyline>
<polyline clip-path="url(#clip052)" style="stroke:#000000; stroke-linecap:round; stroke-linejoin:round; stroke-width:2; stroke-opacity:0.1; fill:none" points="1207.97,1016.92 1207.97,47.2441 "></polyline>
<polyline clip-path="url(#clip052)" style="stroke:#000000; stroke-linecap:round; stroke-linejoin:round; stroke-width:2; stroke-opacity:0.1; fill:none" points="1515.81,1016.92 1515.81,47.2441 "></polyline>
<polyline clip-path="url(#clip050)" style="stroke:#000000; stroke-linecap:round; stroke-linejoin:round; stroke-width:4; stroke-opacity:1; fill:none" points="247.482,1016.92 1552.76,1016.92 "></polyline>
<polyline clip-path="url(#clip050)" style="stroke:#000000; stroke-linecap:round; stroke-linejoin:round; stroke-width:4; stroke-opacity:1; fill:none" points="284.424,1016.92 284.424,998.022 "></polyline>
<polyline clip-path="url(#clip050)" style="stroke:#000000; stroke-linecap:round; stroke-linejoin:round; stroke-width:4; stroke-opacity:1; fill:none" points="592.271,1016.92 592.271,998.022 "></polyline>
<polyline clip-path="url(#clip050)" style="stroke:#000000; stroke-linecap:round; stroke-linejoin:round; stroke-width:4; stroke-opacity:1; fill:none" points="900.119,1016.92 900.119,998.022 "></polyline>
<polyline clip-path="url(#clip050)" style="stroke:#000000; stroke-linecap:round; stroke-linejoin:round; stroke-width:4; stroke-opacity:1; fill:none" points="1207.97,1016.92 1207.97,998.022 "></polyline>
<polyline clip-path="url(#clip050)" style="stroke:#000000; stroke-linecap:round; stroke-linejoin:round; stroke-width:4; stroke-opacity:1; fill:none" points="1515.81,1016.92 1515.81,998.022 "></polyline>
<path clip-path="url(#clip050)" d="M282.225 1046.99 L272.85 1059.61 L282.711 1072.92 L277.688 1072.92 L270.141 1062.73 L262.595 1072.92 L257.572 1072.92 L267.641 1059.36 L258.429 1046.99 L263.452 1046.99 L270.327 1056.23 L277.202 1046.99 L282.225 1046.99 Z" fill="#000000" fill-rule="nonzero" fill-opacity="1"></path><path clip-path="url(#clip050)" d="M299.331 1041.44 Q295.72 1041.44 293.891 1045 Q292.086 1048.54 292.086 1055.67 Q292.086 1062.78 293.891 1066.35 Q295.72 1069.89 299.331 1069.89 Q302.965 1069.89 304.771 1066.35 Q306.6 1062.78 306.6 1055.67 Q306.6 1048.54 304.771 1045 Q302.965 1041.44 299.331 1041.44 M299.331 1037.73 Q305.141 1037.73 308.197 1042.34 Q311.275 1046.92 311.275 1055.67 Q311.275 1064.4 308.197 1069.01 Q305.141 1073.59 299.331 1073.59 Q293.521 1073.59 290.442 1069.01 Q287.387 1064.4 287.387 1055.67 Q287.387 1046.92 290.442 1042.34 Q293.521 1037.73 299.331 1037.73 Z" fill="#000000" fill-rule="nonzero" fill-opacity="1"></path><path clip-path="url(#clip050)" d="M567.954 1046.99 L558.579 1059.61 L568.44 1072.92 L563.417 1072.92 L555.871 1062.73 L548.325 1072.92 L543.302 1072.92 L553.371 1059.36 L544.158 1046.99 L549.181 1046.99 L556.056 1056.23 L562.931 1046.99 L567.954 1046.99 Z" fill="#000000" fill-rule="nonzero" fill-opacity="1"></path><path clip-path="url(#clip050)" d="M585.061 1041.44 Q581.45 1041.44 579.621 1045 Q577.815 1048.54 577.815 1055.67 Q577.815 1062.78 579.621 1066.35 Q581.45 1069.89 585.061 1069.89 Q588.695 1069.89 590.501 1066.35 Q592.329 1062.78 592.329 1055.67 Q592.329 1048.54 590.501 1045 Q588.695 1041.44 585.061 1041.44 M585.061 1037.73 Q590.871 1037.73 593.926 1042.34 Q597.005 1046.92 597.005 1055.67 Q597.005 1064.4 593.926 1069.01 Q590.871 1073.59 585.061 1073.59 Q579.251 1073.59 576.172 1069.01 Q573.116 1064.4 573.116 1055.67 Q573.116 1046.92 576.172 1042.34 Q579.251 1037.73 585.061 1037.73 Z" fill="#000000" fill-rule="nonzero" fill-opacity="1"></path><path clip-path="url(#clip050)" d="M605.223 1067.04 L610.107 1067.04 L610.107 1072.92 L605.223 1072.92 L605.223 1067.04 Z" fill="#000000" fill-rule="nonzero" fill-opacity="1"></path><path clip-path="url(#clip050)" d="M620.338 1038.36 L638.695 1038.36 L638.695 1042.3 L624.621 1042.3 L624.621 1050.77 Q625.639 1050.42 626.658 1050.26 Q627.676 1050.07 628.695 1050.07 Q634.482 1050.07 637.861 1053.24 Q641.241 1056.42 641.241 1061.83 Q641.241 1067.41 637.769 1070.51 Q634.297 1073.59 627.977 1073.59 Q625.801 1073.59 623.533 1073.22 Q621.287 1072.85 618.88 1072.11 L618.88 1067.41 Q620.963 1068.54 623.186 1069.1 Q625.408 1069.66 627.885 1069.66 Q631.889 1069.66 634.227 1067.55 Q636.565 1065.44 636.565 1061.83 Q636.565 1058.22 634.227 1056.11 Q631.889 1054.01 627.885 1054.01 Q626.01 1054.01 624.135 1054.42 Q622.283 1054.84 620.338 1055.72 L620.338 1038.36 Z" fill="#000000" fill-rule="nonzero" fill-opacity="1"></path><path clip-path="url(#clip050)" d="M898.533 1046.99 L889.158 1059.61 L899.019 1072.92 L893.996 1072.92 L886.45 1062.73 L878.904 1072.92 L873.881 1072.92 L883.95 1059.36 L874.737 1046.99 L879.76 1046.99 L886.635 1056.23 L893.51 1046.99 L898.533 1046.99 Z" fill="#000000" fill-rule="nonzero" fill-opacity="1"></path><path clip-path="url(#clip050)" d="M906.45 1068.98 L914.089 1068.98 L914.089 1042.62 L905.779 1044.29 L905.779 1040.03 L914.043 1038.36 L918.718 1038.36 L918.718 1068.98 L926.357 1068.98 L926.357 1072.92 L906.45 1072.92 L906.45 1068.98 Z" fill="#000000" fill-rule="nonzero" fill-opacity="1"></path><path clip-path="url(#clip050)" d="M1183.65 1046.99 L1174.27 1059.61 L1184.14 1072.92 L1179.11 1072.92 L1171.57 1062.73 L1164.02 1072.92 L1159 1072.92 L1169.07 1059.36 L1159.85 1046.99 L1164.88 1046.99 L1171.75 1056.23 L1178.63 1046.99 L1183.65 1046.99 Z" fill="#000000" fill-rule="nonzero" fill-opacity="1"></path><path clip-path="url(#clip050)" d="M1191.57 1068.98 L1199.21 1068.98 L1199.21 1042.62 L1190.89 1044.29 L1190.89 1040.03 L1199.16 1038.36 L1203.83 1038.36 L1203.83 1068.98 L1211.47 1068.98 L1211.47 1072.92 L1191.57 1072.92 L1191.57 1068.98 Z" fill="#000000" fill-rule="nonzero" fill-opacity="1"></path><path clip-path="url(#clip050)" d="M1220.92 1067.04 L1225.8 1067.04 L1225.8 1072.92 L1220.92 1072.92 L1220.92 1067.04 Z" fill="#000000" fill-rule="nonzero" fill-opacity="1"></path><path clip-path="url(#clip050)" d="M1236.03 1038.36 L1254.39 1038.36 L1254.39 1042.3 L1240.32 1042.3 L1240.32 1050.77 Q1241.33 1050.42 1242.35 1050.26 Q1243.37 1050.07 1244.39 1050.07 Q1250.18 1050.07 1253.56 1053.24 Q1256.94 1056.42 1256.94 1061.83 Q1256.94 1067.41 1253.46 1070.51 Q1249.99 1073.59 1243.67 1073.59 Q1241.5 1073.59 1239.23 1073.22 Q1236.98 1072.85 1234.58 1072.11 L1234.58 1067.41 Q1236.66 1068.54 1238.88 1069.1 Q1241.1 1069.66 1243.58 1069.66 Q1247.58 1069.66 1249.92 1067.55 Q1252.26 1065.44 1252.26 1061.83 Q1252.26 1058.22 1249.92 1056.11 Q1247.58 1054.01 1243.58 1054.01 Q1241.7 1054.01 1239.83 1054.42 Q1237.98 1054.84 1236.03 1055.72 L1236.03 1038.36 Z" fill="#000000" fill-rule="nonzero" fill-opacity="1"></path><path clip-path="url(#clip050)" d="M1514.41 1046.99 L1505.04 1059.61 L1514.9 1072.92 L1509.88 1072.92 L1502.33 1062.73 L1494.78 1072.92 L1489.76 1072.92 L1499.83 1059.36 L1490.62 1046.99 L1495.64 1046.99 L1502.52 1056.23 L1509.39 1046.99 L1514.41 1046.99 Z" fill="#000000" fill-rule="nonzero" fill-opacity="1"></path><path clip-path="url(#clip050)" d="M1525.55 1068.98 L1541.87 1068.98 L1541.87 1072.92 L1519.92 1072.92 L1519.92 1068.98 Q1522.58 1066.23 1527.17 1061.6 Q1531.77 1056.95 1532.96 1055.61 Q1535.2 1053.08 1536.08 1051.35 Q1536.98 1049.59 1536.98 1047.9 Q1536.98 1045.14 1535.04 1043.41 Q1533.12 1041.67 1530.02 1041.67 Q1527.82 1041.67 1525.36 1042.43 Q1522.93 1043.2 1520.15 1044.75 L1520.15 1040.03 Q1522.98 1038.89 1525.43 1038.31 Q1527.89 1037.73 1529.92 1037.73 Q1535.29 1037.73 1538.49 1040.42 Q1541.68 1043.11 1541.68 1047.6 Q1541.68 1049.73 1540.87 1051.65 Q1540.08 1053.54 1537.98 1056.14 Q1537.4 1056.81 1534.3 1060.03 Q1531.2 1063.22 1525.55 1068.98 Z" fill="#000000" fill-rule="nonzero" fill-opacity="1"></path><path clip-path="url(#clip050)" d="M608.331 1144.44 L608.331 1163.34 L602.443 1163.34 L602.443 1114.14 L608.331 1114.14 L608.331 1119.55 Q610.177 1116.36 612.978 1114.84 Q615.811 1113.28 619.726 1113.28 Q626.219 1113.28 630.261 1118.43 Q634.335 1123.59 634.335 1131.99 Q634.335 1140.39 630.261 1145.55 Q626.219 1150.71 619.726 1150.71 Q615.811 1150.71 612.978 1149.18 Q610.177 1147.62 608.331 1144.44 M628.256 1131.99 Q628.256 1125.53 625.582 1121.87 Q622.94 1118.18 618.293 1118.18 Q613.646 1118.18 610.973 1121.87 Q608.331 1125.53 608.331 1131.99 Q608.331 1138.45 610.973 1142.14 Q613.646 1145.81 618.293 1145.81 Q622.94 1145.81 625.582 1142.14 Q628.256 1138.45 628.256 1131.99 Z" fill="#000000" fill-rule="nonzero" fill-opacity="1"></path><path clip-path="url(#clip050)" d="M660.243 1131.86 Q653.145 1131.86 650.408 1133.49 Q647.671 1135.11 647.671 1139.03 Q647.671 1142.14 649.708 1143.99 Q651.777 1145.81 655.31 1145.81 Q660.18 1145.81 663.108 1142.37 Q666.068 1138.9 666.068 1133.17 L666.068 1131.86 L660.243 1131.86 M671.924 1129.45 L671.924 1149.78 L666.068 1149.78 L666.068 1144.37 Q664.063 1147.62 661.071 1149.18 Q658.079 1150.71 653.75 1150.71 Q648.276 1150.71 645.029 1147.65 Q641.815 1144.56 641.815 1139.41 Q641.815 1133.39 645.825 1130.34 Q649.867 1127.28 657.856 1127.28 L666.068 1127.28 L666.068 1126.71 Q666.068 1122.67 663.394 1120.47 Q660.752 1118.24 655.946 1118.24 Q652.891 1118.24 649.994 1118.97 Q647.098 1119.71 644.424 1121.17 L644.424 1115.76 Q647.639 1114.52 650.663 1113.91 Q653.687 1113.28 656.551 1113.28 Q664.285 1113.28 668.105 1117.29 Q671.924 1121.3 671.924 1129.45 Z" fill="#000000" fill-rule="nonzero" fill-opacity="1"></path><path clip-path="url(#clip050)" d="M704.644 1119.61 Q703.657 1119.04 702.48 1118.78 Q701.334 1118.5 699.933 1118.5 Q694.968 1118.5 692.295 1121.74 Q689.653 1124.96 689.653 1131.01 L689.653 1149.78 L683.765 1149.78 L683.765 1114.14 L689.653 1114.14 L689.653 1119.67 Q691.499 1116.43 694.459 1114.87 Q697.419 1113.28 701.652 1113.28 Q702.257 1113.28 702.989 1113.37 Q703.721 1113.44 704.612 1113.59 L704.644 1119.61 Z" fill="#000000" fill-rule="nonzero" fill-opacity="1"></path><path clip-path="url(#clip050)" d="M726.988 1131.86 Q719.89 1131.86 717.153 1133.49 Q714.415 1135.11 714.415 1139.03 Q714.415 1142.14 716.452 1143.99 Q718.521 1145.81 722.054 1145.81 Q726.924 1145.81 729.852 1142.37 Q732.812 1138.9 732.812 1133.17 L732.812 1131.86 L726.988 1131.86 M738.669 1129.45 L738.669 1149.78 L732.812 1149.78 L732.812 1144.37 Q730.807 1147.62 727.815 1149.18 Q724.823 1150.71 720.495 1150.71 Q715.02 1150.71 711.774 1147.65 Q708.559 1144.56 708.559 1139.41 Q708.559 1133.39 712.569 1130.34 Q716.612 1127.28 724.601 1127.28 L732.812 1127.28 L732.812 1126.71 Q732.812 1122.67 730.139 1120.47 Q727.497 1118.24 722.691 1118.24 Q719.635 1118.24 716.739 1118.97 Q713.842 1119.71 711.169 1121.17 L711.169 1115.76 Q714.384 1114.52 717.407 1113.91 Q720.431 1113.28 723.296 1113.28 Q731.03 1113.28 734.849 1117.29 Q738.669 1121.3 738.669 1129.45 Z" fill="#000000" fill-rule="nonzero" fill-opacity="1"></path><path clip-path="url(#clip050)" d="M778.486 1120.98 Q780.682 1117.03 783.738 1115.15 Q786.793 1113.28 790.931 1113.28 Q796.501 1113.28 799.525 1117.19 Q802.549 1121.07 802.549 1128.27 L802.549 1149.78 L796.66 1149.78 L796.66 1128.46 Q796.66 1123.33 794.846 1120.85 Q793.032 1118.37 789.308 1118.37 Q784.756 1118.37 782.115 1121.39 Q779.473 1124.42 779.473 1129.64 L779.473 1149.78 L773.585 1149.78 L773.585 1128.46 Q773.585 1123.3 771.77 1120.85 Q769.956 1118.37 766.169 1118.37 Q761.681 1118.37 759.039 1121.42 Q756.397 1124.45 756.397 1129.64 L756.397 1149.78 L750.509 1149.78 L750.509 1114.14 L756.397 1114.14 L756.397 1119.67 Q758.402 1116.4 761.203 1114.84 Q764.004 1113.28 767.855 1113.28 Q771.739 1113.28 774.444 1115.25 Q777.181 1117.22 778.486 1120.98 Z" fill="#000000" fill-rule="nonzero" fill-opacity="1"></path><path clip-path="url(#clip050)" d="M844.721 1130.5 L844.721 1133.36 L817.794 1133.36 Q818.176 1139.41 821.423 1142.59 Q824.701 1145.74 830.526 1145.74 Q833.9 1145.74 837.051 1144.91 Q840.234 1144.09 843.353 1142.43 L843.353 1147.97 Q840.202 1149.31 836.892 1150.01 Q833.581 1150.71 830.176 1150.71 Q821.646 1150.71 816.649 1145.74 Q811.683 1140.78 811.683 1132.31 Q811.683 1123.56 816.394 1118.43 Q821.136 1113.28 829.157 1113.28 Q836.351 1113.28 840.52 1117.92 Q844.721 1122.54 844.721 1130.5 M838.865 1128.78 Q838.801 1123.97 836.16 1121.11 Q833.55 1118.24 829.221 1118.24 Q824.319 1118.24 821.359 1121.01 Q818.431 1123.78 817.985 1128.81 L838.865 1128.78 Z" fill="#000000" fill-rule="nonzero" fill-opacity="1"></path><path clip-path="url(#clip050)" d="M860.126 1104.01 L860.126 1114.14 L872.189 1114.14 L872.189 1118.69 L860.126 1118.69 L860.126 1138.04 Q860.126 1142.4 861.304 1143.64 Q862.514 1144.88 866.174 1144.88 L872.189 1144.88 L872.189 1149.78 L866.174 1149.78 Q859.394 1149.78 856.816 1147.27 Q854.238 1144.72 854.238 1138.04 L854.238 1118.69 L849.941 1118.69 L849.941 1114.14 L854.238 1114.14 L854.238 1104.01 L860.126 1104.01 Z" fill="#000000" fill-rule="nonzero" fill-opacity="1"></path><path clip-path="url(#clip050)" d="M910.384 1130.5 L910.384 1133.36 L883.457 1133.36 Q883.839 1139.41 887.085 1142.59 Q890.364 1145.74 896.188 1145.74 Q899.562 1145.74 902.713 1144.91 Q905.896 1144.09 909.015 1142.43 L909.015 1147.97 Q905.864 1149.31 902.554 1150.01 Q899.244 1150.71 895.838 1150.71 Q887.308 1150.71 882.311 1145.74 Q877.346 1140.78 877.346 1132.31 Q877.346 1123.56 882.056 1118.43 Q886.799 1113.28 894.82 1113.28 Q902.013 1113.28 906.182 1117.92 Q910.384 1122.54 910.384 1130.5 M904.527 1128.78 Q904.464 1123.97 901.822 1121.11 Q899.212 1118.24 894.883 1118.24 Q889.982 1118.24 887.022 1121.01 Q884.093 1123.78 883.648 1128.81 L904.527 1128.78 Z" fill="#000000" fill-rule="nonzero" fill-opacity="1"></path><path clip-path="url(#clip050)" d="M940.653 1119.61 Q939.666 1119.04 938.488 1118.78 Q937.342 1118.5 935.942 1118.5 Q930.977 1118.5 928.303 1121.74 Q925.661 1124.96 925.661 1131.01 L925.661 1149.78 L919.773 1149.78 L919.773 1114.14 L925.661 1114.14 L925.661 1119.67 Q927.507 1116.43 930.467 1114.87 Q933.428 1113.28 937.661 1113.28 Q938.265 1113.28 938.998 1113.37 Q939.73 1113.44 940.621 1113.59 L940.653 1119.61 Z" fill="#000000" fill-rule="nonzero" fill-opacity="1"></path><path clip-path="url(#clip050)" d="M993.17 1115.5 L993.17 1120.98 Q990.687 1119.61 988.173 1118.94 Q985.69 1118.24 983.144 1118.24 Q977.446 1118.24 974.295 1121.87 Q971.144 1125.47 971.144 1131.99 Q971.144 1138.52 974.295 1142.14 Q977.446 1145.74 983.144 1145.74 Q985.69 1145.74 988.173 1145.07 Q990.687 1144.37 993.17 1143 L993.17 1148.42 Q990.719 1149.56 988.077 1150.13 Q985.467 1150.71 982.507 1150.71 Q974.455 1150.71 969.712 1145.65 Q964.97 1140.59 964.97 1131.99 Q964.97 1123.27 969.744 1118.27 Q974.55 1113.28 982.889 1113.28 Q985.594 1113.28 988.173 1113.85 Q990.751 1114.39 993.17 1115.5 Z" fill="#000000" fill-rule="nonzero" fill-opacity="1"></path><path clip-path="url(#clip050)" d="M1032.99 1128.27 L1032.99 1149.78 L1027.13 1149.78 L1027.13 1128.46 Q1027.13 1123.4 1025.16 1120.88 Q1023.18 1118.37 1019.24 1118.37 Q1014.49 1118.37 1011.76 1121.39 Q1009.02 1124.42 1009.02 1129.64 L1009.02 1149.78 L1003.13 1149.78 L1003.13 1100.26 L1009.02 1100.26 L1009.02 1119.67 Q1011.12 1116.46 1013.95 1114.87 Q1016.82 1113.28 1020.54 1113.28 Q1026.69 1113.28 1029.84 1117.1 Q1032.99 1120.88 1032.99 1128.27 Z" fill="#000000" fill-rule="nonzero" fill-opacity="1"></path><path clip-path="url(#clip050)" d="M1060.87 1131.86 Q1053.77 1131.86 1051.03 1133.49 Q1048.3 1135.11 1048.3 1139.03 Q1048.3 1142.14 1050.33 1143.99 Q1052.4 1145.81 1055.94 1145.81 Q1060.81 1145.81 1063.73 1142.37 Q1066.69 1138.9 1066.69 1133.17 L1066.69 1131.86 L1060.87 1131.86 M1072.55 1129.45 L1072.55 1149.78 L1066.69 1149.78 L1066.69 1144.37 Q1064.69 1147.62 1061.7 1149.18 Q1058.7 1150.71 1054.38 1150.71 Q1048.9 1150.71 1045.65 1147.65 Q1042.44 1144.56 1042.44 1139.41 Q1042.44 1133.39 1046.45 1130.34 Q1050.49 1127.28 1058.48 1127.28 L1066.69 1127.28 L1066.69 1126.71 Q1066.69 1122.67 1064.02 1120.47 Q1061.38 1118.24 1056.57 1118.24 Q1053.52 1118.24 1050.62 1118.97 Q1047.72 1119.71 1045.05 1121.17 L1045.05 1115.76 Q1048.26 1114.52 1051.29 1113.91 Q1054.31 1113.28 1057.18 1113.28 Q1064.91 1113.28 1068.73 1117.29 Q1072.55 1121.3 1072.55 1129.45 Z" fill="#000000" fill-rule="nonzero" fill-opacity="1"></path><path clip-path="url(#clip050)" d="M1114.25 1128.27 L1114.25 1149.78 L1108.39 1149.78 L1108.39 1128.46 Q1108.39 1123.4 1106.42 1120.88 Q1104.44 1118.37 1100.5 1118.37 Q1095.75 1118.37 1093.02 1121.39 Q1090.28 1124.42 1090.28 1129.64 L1090.28 1149.78 L1084.39 1149.78 L1084.39 1114.14 L1090.28 1114.14 L1090.28 1119.67 Q1092.38 1116.46 1095.21 1114.87 Q1098.08 1113.28 1101.8 1113.28 Q1107.94 1113.28 1111.09 1117.1 Q1114.25 1120.88 1114.25 1128.27 Z" fill="#000000" fill-rule="nonzero" fill-opacity="1"></path><path clip-path="url(#clip050)" d="M1149.38 1131.55 Q1149.38 1125.18 1146.74 1121.68 Q1144.13 1118.18 1139.39 1118.18 Q1134.68 1118.18 1132.04 1121.68 Q1129.43 1125.18 1129.43 1131.55 Q1129.43 1137.88 1132.04 1141.38 Q1134.68 1144.88 1139.39 1144.88 Q1144.13 1144.88 1146.74 1141.38 Q1149.38 1137.88 1149.38 1131.55 M1155.24 1145.36 Q1155.24 1154.46 1151.2 1158.89 Q1147.16 1163.34 1138.82 1163.34 Q1135.73 1163.34 1132.99 1162.87 Q1130.26 1162.42 1127.68 1161.46 L1127.68 1155.77 Q1130.26 1157.17 1132.77 1157.84 Q1135.28 1158.5 1137.89 1158.5 Q1143.65 1158.5 1146.52 1155.48 Q1149.38 1152.49 1149.38 1146.41 L1149.38 1143.51 Q1147.57 1146.66 1144.74 1148.22 Q1141.9 1149.78 1137.96 1149.78 Q1131.4 1149.78 1127.39 1144.79 Q1123.38 1139.79 1123.38 1131.55 Q1123.38 1123.27 1127.39 1118.27 Q1131.4 1113.28 1137.96 1113.28 Q1141.9 1113.28 1144.74 1114.84 Q1147.57 1116.4 1149.38 1119.55 L1149.38 1114.14 L1155.24 1114.14 L1155.24 1145.36 Z" fill="#000000" fill-rule="nonzero" fill-opacity="1"></path><path clip-path="url(#clip050)" d="M1197.8 1130.5 L1197.8 1133.36 L1170.87 1133.36 Q1171.25 1139.41 1174.5 1142.59 Q1177.78 1145.74 1183.6 1145.74 Q1186.97 1145.74 1190.12 1144.91 Q1193.31 1144.09 1196.43 1142.43 L1196.43 1147.97 Q1193.28 1149.31 1189.97 1150.01 Q1186.66 1150.71 1183.25 1150.71 Q1174.72 1150.71 1169.72 1145.74 Q1164.76 1140.78 1164.76 1132.31 Q1164.76 1123.56 1169.47 1118.43 Q1174.21 1113.28 1182.23 1113.28 Q1189.42 1113.28 1193.59 1117.92 Q1197.8 1122.54 1197.8 1130.5 M1191.94 1128.78 Q1191.88 1123.97 1189.23 1121.11 Q1186.62 1118.24 1182.29 1118.24 Q1177.39 1118.24 1174.43 1121.01 Q1171.5 1123.78 1171.06 1128.81 L1191.94 1128.78 Z" fill="#000000" fill-rule="nonzero" fill-opacity="1"></path><polyline clip-path="url(#clip052)" style="stroke:#000000; stroke-linecap:round; stroke-linejoin:round; stroke-width:2; stroke-opacity:0.1; fill:none" points="247.482,989.476 1552.76,989.476 "></polyline>
<polyline clip-path="url(#clip052)" style="stroke:#000000; stroke-linecap:round; stroke-linejoin:round; stroke-width:2; stroke-opacity:0.1; fill:none" points="247.482,760.779 1552.76,760.779 "></polyline>
<polyline clip-path="url(#clip052)" style="stroke:#000000; stroke-linecap:round; stroke-linejoin:round; stroke-width:2; stroke-opacity:0.1; fill:none" points="247.482,532.082 1552.76,532.082 "></polyline>
<polyline clip-path="url(#clip052)" style="stroke:#000000; stroke-linecap:round; stroke-linejoin:round; stroke-width:2; stroke-opacity:0.1; fill:none" points="247.482,303.385 1552.76,303.385 "></polyline>
<polyline clip-path="url(#clip052)" style="stroke:#000000; stroke-linecap:round; stroke-linejoin:round; stroke-width:2; stroke-opacity:0.1; fill:none" points="247.482,74.6877 1552.76,74.6877 "></polyline>
<polyline clip-path="url(#clip050)" style="stroke:#000000; stroke-linecap:round; stroke-linejoin:round; stroke-width:4; stroke-opacity:1; fill:none" points="247.482,1016.92 247.482,47.2441 "></polyline>
<polyline clip-path="url(#clip050)" style="stroke:#000000; stroke-linecap:round; stroke-linejoin:round; stroke-width:4; stroke-opacity:1; fill:none" points="247.482,989.476 266.38,989.476 "></polyline>
<polyline clip-path="url(#clip050)" style="stroke:#000000; stroke-linecap:round; stroke-linejoin:round; stroke-width:4; stroke-opacity:1; fill:none" points="247.482,760.779 266.38,760.779 "></polyline>
<polyline clip-path="url(#clip050)" style="stroke:#000000; stroke-linecap:round; stroke-linejoin:round; stroke-width:4; stroke-opacity:1; fill:none" points="247.482,532.082 266.38,532.082 "></polyline>
<polyline clip-path="url(#clip050)" style="stroke:#000000; stroke-linecap:round; stroke-linejoin:round; stroke-width:4; stroke-opacity:1; fill:none" points="247.482,303.385 266.38,303.385 "></polyline>
<polyline clip-path="url(#clip050)" style="stroke:#000000; stroke-linecap:round; stroke-linejoin:round; stroke-width:4; stroke-opacity:1; fill:none" points="247.482,74.6877 266.38,74.6877 "></polyline>
<path clip-path="url(#clip050)" d="M136.145 975.275 Q132.533 975.275 130.705 978.84 Q128.899 982.381 128.899 989.511 Q128.899 996.617 130.705 1000.18 Q132.533 1003.72 136.145 1003.72 Q139.779 1003.72 141.584 1000.18 Q143.413 996.617 143.413 989.511 Q143.413 982.381 141.584 978.84 Q139.779 975.275 136.145 975.275 M136.145 971.571 Q141.955 971.571 145.01 976.178 Q148.089 980.761 148.089 989.511 Q148.089 998.238 145.01 1002.84 Q141.955 1007.43 136.145 1007.43 Q130.334 1007.43 127.256 1002.84 Q124.2 998.238 124.2 989.511 Q124.2 980.761 127.256 976.178 Q130.334 971.571 136.145 971.571 Z" fill="#000000" fill-rule="nonzero" fill-opacity="1"></path><path clip-path="url(#clip050)" d="M156.306 1000.88 L161.191 1000.88 L161.191 1006.76 L156.306 1006.76 L156.306 1000.88 Z" fill="#000000" fill-rule="nonzero" fill-opacity="1"></path><path clip-path="url(#clip050)" d="M181.376 975.275 Q177.765 975.275 175.936 978.84 Q174.13 982.381 174.13 989.511 Q174.13 996.617 175.936 1000.18 Q177.765 1003.72 181.376 1003.72 Q185.01 1003.72 186.816 1000.18 Q188.644 996.617 188.644 989.511 Q188.644 982.381 186.816 978.84 Q185.01 975.275 181.376 975.275 M181.376 971.571 Q187.186 971.571 190.241 976.178 Q193.32 980.761 193.32 989.511 Q193.32 998.238 190.241 1002.84 Q187.186 1007.43 181.376 1007.43 Q175.566 1007.43 172.487 1002.84 Q169.431 998.238 169.431 989.511 Q169.431 980.761 172.487 976.178 Q175.566 971.571 181.376 971.571 Z" fill="#000000" fill-rule="nonzero" fill-opacity="1"></path><path clip-path="url(#clip050)" d="M211.538 975.275 Q207.927 975.275 206.098 978.84 Q204.292 982.381 204.292 989.511 Q204.292 996.617 206.098 1000.18 Q207.927 1003.72 211.538 1003.72 Q215.172 1003.72 216.977 1000.18 Q218.806 996.617 218.806 989.511 Q218.806 982.381 216.977 978.84 Q215.172 975.275 211.538 975.275 M211.538 971.571 Q217.348 971.571 220.403 976.178 Q223.482 980.761 223.482 989.511 Q223.482 998.238 220.403 1002.84 Q217.348 1007.43 211.538 1007.43 Q205.727 1007.43 202.649 1002.84 Q199.593 998.238 199.593 989.511 Q199.593 980.761 202.649 976.178 Q205.727 971.571 211.538 971.571 Z" fill="#000000" fill-rule="nonzero" fill-opacity="1"></path><path clip-path="url(#clip050)" d="M137.14 746.578 Q133.529 746.578 131.7 750.143 Q129.895 753.684 129.895 760.814 Q129.895 767.92 131.7 771.485 Q133.529 775.027 137.14 775.027 Q140.774 775.027 142.58 771.485 Q144.408 767.92 144.408 760.814 Q144.408 753.684 142.58 750.143 Q140.774 746.578 137.14 746.578 M137.14 742.874 Q142.95 742.874 146.006 747.481 Q149.084 752.064 149.084 760.814 Q149.084 769.541 146.006 774.147 Q142.95 778.73 137.14 778.73 Q131.33 778.73 128.251 774.147 Q125.196 769.541 125.196 760.814 Q125.196 752.064 128.251 747.481 Q131.33 742.874 137.14 742.874 Z" fill="#000000" fill-rule="nonzero" fill-opacity="1"></path><path clip-path="url(#clip050)" d="M157.302 772.179 L162.186 772.179 L162.186 778.059 L157.302 778.059 L157.302 772.179 Z" fill="#000000" fill-rule="nonzero" fill-opacity="1"></path><path clip-path="url(#clip050)" d="M176.399 774.124 L192.718 774.124 L192.718 778.059 L170.774 778.059 L170.774 774.124 Q173.436 771.369 178.019 766.74 Q182.626 762.087 183.806 760.744 Q186.052 758.221 186.931 756.485 Q187.834 754.726 187.834 753.036 Q187.834 750.281 185.89 748.545 Q183.968 746.809 180.867 746.809 Q178.667 746.809 176.214 747.573 Q173.783 748.337 171.005 749.888 L171.005 745.166 Q173.83 744.031 176.283 743.453 Q178.737 742.874 180.774 742.874 Q186.144 742.874 189.339 745.559 Q192.533 748.244 192.533 752.735 Q192.533 754.865 191.723 756.786 Q190.936 758.684 188.829 761.277 Q188.251 761.948 185.149 765.166 Q182.047 768.36 176.399 774.124 Z" fill="#000000" fill-rule="nonzero" fill-opacity="1"></path><path clip-path="url(#clip050)" d="M202.579 743.499 L220.936 743.499 L220.936 747.434 L206.862 747.434 L206.862 755.906 Q207.88 755.559 208.899 755.397 Q209.917 755.212 210.936 755.212 Q216.723 755.212 220.102 758.383 Q223.482 761.555 223.482 766.971 Q223.482 772.55 220.01 775.652 Q216.538 778.73 210.218 778.73 Q208.042 778.73 205.774 778.36 Q203.528 777.99 201.121 777.249 L201.121 772.55 Q203.204 773.684 205.427 774.24 Q207.649 774.795 210.126 774.795 Q214.13 774.795 216.468 772.689 Q218.806 770.582 218.806 766.971 Q218.806 763.36 216.468 761.254 Q214.13 759.147 210.126 759.147 Q208.251 759.147 206.376 759.564 Q204.524 759.98 202.579 760.86 L202.579 743.499 Z" fill="#000000" fill-rule="nonzero" fill-opacity="1"></path><path clip-path="url(#clip050)" d="M136.145 517.881 Q132.533 517.881 130.705 521.445 Q128.899 524.987 128.899 532.117 Q128.899 539.223 130.705 542.788 Q132.533 546.33 136.145 546.33 Q139.779 546.33 141.584 542.788 Q143.413 539.223 143.413 532.117 Q143.413 524.987 141.584 521.445 Q139.779 517.881 136.145 517.881 M136.145 514.177 Q141.955 514.177 145.01 518.783 Q148.089 523.367 148.089 532.117 Q148.089 540.843 145.01 545.45 Q141.955 550.033 136.145 550.033 Q130.334 550.033 127.256 545.45 Q124.2 540.843 124.2 532.117 Q124.2 523.367 127.256 518.783 Q130.334 514.177 136.145 514.177 Z" fill="#000000" fill-rule="nonzero" fill-opacity="1"></path><path clip-path="url(#clip050)" d="M156.306 543.482 L161.191 543.482 L161.191 549.362 L156.306 549.362 L156.306 543.482 Z" fill="#000000" fill-rule="nonzero" fill-opacity="1"></path><path clip-path="url(#clip050)" d="M171.422 514.802 L189.779 514.802 L189.779 518.737 L175.705 518.737 L175.705 527.209 Q176.723 526.862 177.742 526.7 Q178.76 526.515 179.779 526.515 Q185.566 526.515 188.945 529.686 Q192.325 532.857 192.325 538.274 Q192.325 543.853 188.853 546.955 Q185.38 550.033 179.061 550.033 Q176.885 550.033 174.617 549.663 Q172.371 549.293 169.964 548.552 L169.964 543.853 Q172.047 544.987 174.269 545.543 Q176.492 546.098 178.968 546.098 Q182.973 546.098 185.311 543.992 Q187.649 541.885 187.649 538.274 Q187.649 534.663 185.311 532.557 Q182.973 530.45 178.968 530.45 Q177.093 530.45 175.218 530.867 Q173.367 531.283 171.422 532.163 L171.422 514.802 Z" fill="#000000" fill-rule="nonzero" fill-opacity="1"></path><path clip-path="url(#clip050)" d="M211.538 517.881 Q207.927 517.881 206.098 521.445 Q204.292 524.987 204.292 532.117 Q204.292 539.223 206.098 542.788 Q207.927 546.33 211.538 546.33 Q215.172 546.33 216.977 542.788 Q218.806 539.223 218.806 532.117 Q218.806 524.987 216.977 521.445 Q215.172 517.881 211.538 517.881 M211.538 514.177 Q217.348 514.177 220.403 518.783 Q223.482 523.367 223.482 532.117 Q223.482 540.843 220.403 545.45 Q217.348 550.033 211.538 550.033 Q205.727 550.033 202.649 545.45 Q199.593 540.843 199.593 532.117 Q199.593 523.367 202.649 518.783 Q205.727 514.177 211.538 514.177 Z" fill="#000000" fill-rule="nonzero" fill-opacity="1"></path><path clip-path="url(#clip050)" d="M137.14 289.184 Q133.529 289.184 131.7 292.748 Q129.895 296.29 129.895 303.42 Q129.895 310.526 131.7 314.091 Q133.529 317.632 137.14 317.632 Q140.774 317.632 142.58 314.091 Q144.408 310.526 144.408 303.42 Q144.408 296.29 142.58 292.748 Q140.774 289.184 137.14 289.184 M137.14 285.48 Q142.95 285.48 146.006 290.086 Q149.084 294.67 149.084 303.42 Q149.084 312.146 146.006 316.753 Q142.95 321.336 137.14 321.336 Q131.33 321.336 128.251 316.753 Q125.196 312.146 125.196 303.42 Q125.196 294.67 128.251 290.086 Q131.33 285.48 137.14 285.48 Z" fill="#000000" fill-rule="nonzero" fill-opacity="1"></path><path clip-path="url(#clip050)" d="M157.302 314.785 L162.186 314.785 L162.186 320.665 L157.302 320.665 L157.302 314.785 Z" fill="#000000" fill-rule="nonzero" fill-opacity="1"></path><path clip-path="url(#clip050)" d="M171.191 286.105 L193.413 286.105 L193.413 288.096 L180.867 320.665 L175.982 320.665 L187.788 290.04 L171.191 290.04 L171.191 286.105 Z" fill="#000000" fill-rule="nonzero" fill-opacity="1"></path><path clip-path="url(#clip050)" d="M202.579 286.105 L220.936 286.105 L220.936 290.04 L206.862 290.04 L206.862 298.512 Q207.88 298.165 208.899 298.003 Q209.917 297.818 210.936 297.818 Q216.723 297.818 220.102 300.989 Q223.482 304.16 223.482 309.577 Q223.482 315.156 220.01 318.257 Q216.538 321.336 210.218 321.336 Q208.042 321.336 205.774 320.966 Q203.528 320.595 201.121 319.855 L201.121 315.156 Q203.204 316.29 205.427 316.845 Q207.649 317.401 210.126 317.401 Q214.13 317.401 216.468 315.295 Q218.806 313.188 218.806 309.577 Q218.806 305.966 216.468 303.859 Q214.13 301.753 210.126 301.753 Q208.251 301.753 206.376 302.17 Q204.524 302.586 202.579 303.466 L202.579 286.105 Z" fill="#000000" fill-rule="nonzero" fill-opacity="1"></path><path clip-path="url(#clip050)" d="M126.955 88.0326 L134.594 88.0326 L134.594 61.667 L126.283 63.3336 L126.283 59.0744 L134.547 57.4077 L139.223 57.4077 L139.223 88.0326 L146.862 88.0326 L146.862 91.9677 L126.955 91.9677 L126.955 88.0326 Z" fill="#000000" fill-rule="nonzero" fill-opacity="1"></path><path clip-path="url(#clip050)" d="M156.306 86.0881 L161.191 86.0881 L161.191 91.9677 L156.306 91.9677 L156.306 86.0881 Z" fill="#000000" fill-rule="nonzero" fill-opacity="1"></path><path clip-path="url(#clip050)" d="M181.376 60.4864 Q177.765 60.4864 175.936 64.0512 Q174.13 67.5929 174.13 74.7225 Q174.13 81.8289 175.936 85.3937 Q177.765 88.9354 181.376 88.9354 Q185.01 88.9354 186.816 85.3937 Q188.644 81.8289 188.644 74.7225 Q188.644 67.5929 186.816 64.0512 Q185.01 60.4864 181.376 60.4864 M181.376 56.7828 Q187.186 56.7828 190.241 61.3892 Q193.32 65.9725 193.32 74.7225 Q193.32 83.4493 190.241 88.0557 Q187.186 92.639 181.376 92.639 Q175.566 92.639 172.487 88.0557 Q169.431 83.4493 169.431 74.7225 Q169.431 65.9725 172.487 61.3892 Q175.566 56.7828 181.376 56.7828 Z" fill="#000000" fill-rule="nonzero" fill-opacity="1"></path><path clip-path="url(#clip050)" d="M211.538 60.4864 Q207.927 60.4864 206.098 64.0512 Q204.292 67.5929 204.292 74.7225 Q204.292 81.8289 206.098 85.3937 Q207.927 88.9354 211.538 88.9354 Q215.172 88.9354 216.977 85.3937 Q218.806 81.8289 218.806 74.7225 Q218.806 67.5929 216.977 64.0512 Q215.172 60.4864 211.538 60.4864 M211.538 56.7828 Q217.348 56.7828 220.403 61.3892 Q223.482 65.9725 223.482 74.7225 Q223.482 83.4493 220.403 88.0557 Q217.348 92.639 211.538 92.639 Q205.727 92.639 202.649 88.0557 Q199.593 83.4493 199.593 74.7225 Q199.593 65.9725 202.649 61.3892 Q205.727 56.7828 211.538 56.7828 Z" fill="#000000" fill-rule="nonzero" fill-opacity="1"></path><path clip-path="url(#clip050)" d="M54.4021 655.227 Q54.4021 659.937 58.0942 662.674 Q61.7545 665.412 68.152 665.412 Q74.5495 665.412 78.2417 662.706 Q81.9019 659.969 81.9019 655.227 Q81.9019 650.548 78.2098 647.811 Q74.5177 645.073 68.152 645.073 Q61.8181 645.073 58.126 647.811 Q54.4021 650.548 54.4021 655.227 M49.4368 655.227 Q49.4368 647.588 54.4021 643.227 Q59.3673 638.867 68.152 638.867 Q76.9049 638.867 81.9019 643.227 Q86.8672 647.588 86.8672 655.227 Q86.8672 662.897 81.9019 667.258 Q76.9049 671.586 68.152 671.586 Q59.3673 671.586 54.4021 667.258 Q49.4368 662.897 49.4368 655.227 Z" fill="#000000" fill-rule="nonzero" fill-opacity="1"></path><path clip-path="url(#clip050)" d="M71.8759 629.764 L50.2962 629.764 L50.2962 623.907 L71.6531 623.907 Q76.7139 623.907 79.2602 621.934 Q81.7746 619.961 81.7746 616.014 Q81.7746 611.271 78.7509 608.534 Q75.7272 605.765 70.5073 605.765 L50.2962 605.765 L50.2962 599.909 L85.9442 599.909 L85.9442 605.765 L80.4696 605.765 Q83.7162 607.898 85.3076 610.73 Q86.8672 613.531 86.8672 617.255 Q86.8672 623.398 83.0478 626.581 Q79.2283 629.764 71.8759 629.764 M49.4368 615.027 L49.4368 615.027 Z" fill="#000000" fill-rule="nonzero" fill-opacity="1"></path><path clip-path="url(#clip050)" d="M40.1747 582.053 L50.2962 582.053 L50.2962 569.99 L54.8477 569.99 L54.8477 582.053 L74.1994 582.053 Q78.5599 582.053 79.8013 580.875 Q81.0426 579.666 81.0426 576.005 L81.0426 569.99 L85.9442 569.99 L85.9442 576.005 Q85.9442 582.785 83.4297 585.363 Q80.8834 587.941 74.1994 587.941 L54.8477 587.941 L54.8477 592.238 L50.2962 592.238 L50.2962 587.941 L40.1747 587.941 L40.1747 582.053 Z" fill="#000000" fill-rule="nonzero" fill-opacity="1"></path><path clip-path="url(#clip050)" d="M51.6648 536.633 L57.1393 536.633 Q55.7707 539.116 55.1023 541.631 Q54.4021 544.113 54.4021 546.659 Q54.4021 552.357 58.0305 555.508 Q61.6272 558.659 68.152 558.659 Q74.6769 558.659 78.3053 555.508 Q81.9019 552.357 81.9019 546.659 Q81.9019 544.113 81.2335 541.631 Q80.5333 539.116 79.1647 536.633 L84.5755 536.633 Q85.7214 539.084 86.2943 541.726 Q86.8672 544.336 86.8672 547.296 Q86.8672 555.349 81.8064 560.091 Q76.7457 564.834 68.152 564.834 Q59.431 564.834 54.4339 560.059 Q49.4368 555.253 49.4368 546.914 Q49.4368 544.209 50.0097 541.631 Q50.5508 539.052 51.6648 536.633 Z" fill="#000000" fill-rule="nonzero" fill-opacity="1"></path><path clip-path="url(#clip050)" d="M54.4021 512.635 Q54.4021 517.345 58.0942 520.083 Q61.7545 522.82 68.152 522.82 Q74.5495 522.82 78.2417 520.114 Q81.9019 517.377 81.9019 512.635 Q81.9019 507.956 78.2098 505.219 Q74.5177 502.481 68.152 502.481 Q61.8181 502.481 58.126 505.219 Q54.4021 507.956 54.4021 512.635 M49.4368 512.635 Q49.4368 504.996 54.4021 500.635 Q59.3673 496.275 68.152 496.275 Q76.9049 496.275 81.9019 500.635 Q86.8672 504.996 86.8672 512.635 Q86.8672 520.305 81.9019 524.666 Q76.9049 528.995 68.152 528.995 Q59.3673 528.995 54.4021 524.666 Q49.4368 520.305 49.4368 512.635 Z" fill="#000000" fill-rule="nonzero" fill-opacity="1"></path><path clip-path="url(#clip050)" d="M57.1393 458.813 Q53.1926 456.617 51.3147 453.561 Q49.4368 450.505 49.4368 446.368 Q49.4368 440.798 53.3517 437.774 Q57.2348 434.75 64.4281 434.75 L85.9442 434.75 L85.9442 440.639 L64.619 440.639 Q59.4946 440.639 57.012 442.453 Q54.5294 444.267 54.5294 447.991 Q54.5294 452.542 57.5531 455.184 Q60.5768 457.826 65.7967 457.826 L85.9442 457.826 L85.9442 463.714 L64.619 463.714 Q59.4628 463.714 57.012 465.529 Q54.5294 467.343 54.5294 471.13 Q54.5294 475.618 57.5849 478.26 Q60.6086 480.902 65.7967 480.902 L85.9442 480.902 L85.9442 486.79 L50.2962 486.79 L50.2962 480.902 L55.8344 480.902 Q52.556 478.896 50.9964 476.096 Q49.4368 473.295 49.4368 469.443 Q49.4368 465.56 51.4102 462.855 Q53.3836 460.118 57.1393 458.813 Z" fill="#000000" fill-rule="nonzero" fill-opacity="1"></path><path clip-path="url(#clip050)" d="M66.6561 392.578 L69.5206 392.578 L69.5206 419.504 Q75.5681 419.123 78.7509 415.876 Q81.9019 412.598 81.9019 406.773 Q81.9019 403.399 81.0744 400.248 Q80.2469 397.065 78.5918 393.946 L84.1299 393.946 Q85.4667 397.097 86.167 400.407 Q86.8672 403.717 86.8672 407.123 Q86.8672 415.653 81.9019 420.65 Q76.9367 425.616 68.4703 425.616 Q59.7174 425.616 54.5931 420.905 Q49.4368 416.162 49.4368 408.142 Q49.4368 400.948 54.0838 396.779 Q58.6989 392.578 66.6561 392.578 M64.9373 398.434 Q60.1312 398.498 57.2666 401.139 Q54.4021 403.749 54.4021 408.078 Q54.4021 412.98 57.1712 415.94 Q59.9402 418.868 64.9692 419.313 L64.9373 398.434 Z" fill="#000000" fill-rule="nonzero" fill-opacity="1"></path><polyline clip-path="url(#clip052)" style="stroke:#009af9; stroke-linecap:round; stroke-linejoin:round; stroke-width:8; stroke-opacity:1; fill:none" points="284.424,989.476 592.271,975.878 900.119,976.372 1207.97,976.77 1515.81,977.765 "></polyline>
<polyline clip-path="url(#clip052)" style="stroke:#e26f46; stroke-linecap:round; stroke-linejoin:round; stroke-width:8; stroke-opacity:1; fill:none" points="284.424,989.476 592.271,794.388 900.119,798.161 1207.97,806.682 1515.81,807.936 "></polyline>
<polyline clip-path="url(#clip052)" style="stroke:#3da44d; stroke-linecap:round; stroke-linejoin:round; stroke-width:8; stroke-opacity:1; fill:none" points="284.424,74.6877 592.271,332.286 900.119,339.242 1207.97,345.701 1515.81,348.052 "></polyline>
<polyline clip-path="url(#clip052)" style="stroke:#c271d2; stroke-linecap:round; stroke-linejoin:round; stroke-width:8; stroke-opacity:1; fill:none" points="284.424,74.6877 592.271,280.174 900.119,284.38 1207.97,290.801 1515.81,291.047 "></polyline>
<polyline clip-path="url(#clip052)" style="stroke:#ac8d18; stroke-linecap:round; stroke-linejoin:round; stroke-width:8; stroke-opacity:1; fill:none" points="284.424,74.6877 592.271,242.834 900.119,244.817 1207.97,252.734 1515.81,253.181 "></polyline>
<path clip-path="url(#clip050)" d="M529.429 694.004 L1270.81 694.004 L1270.81 382.964 L529.429 382.964  Z" fill="#ffffff" fill-rule="evenodd" fill-opacity="1"></path>
<polyline clip-path="url(#clip050)" style="stroke:#000000; stroke-linecap:round; stroke-linejoin:round; stroke-width:4; stroke-opacity:1; fill:none" points="529.429,694.004 1270.81,694.004 1270.81,382.964 529.429,382.964 529.429,694.004 "></polyline>
<polyline clip-path="url(#clip050)" style="stroke:#009af9; stroke-linecap:round; stroke-linejoin:round; stroke-width:8; stroke-opacity:1; fill:none" points="543.932,434.804 630.95,434.804 "></polyline>
<path clip-path="url(#clip050)" d="M649.735 448.196 L649.735 461.946 L645.453 461.946 L645.453 426.159 L649.735 426.159 L649.735 430.094 Q651.078 427.779 653.115 426.668 Q655.175 425.534 658.022 425.534 Q662.745 425.534 665.684 429.284 Q668.647 433.034 668.647 439.145 Q668.647 445.256 665.684 449.006 Q662.745 452.756 658.022 452.756 Q655.175 452.756 653.115 451.645 Q651.078 450.51 649.735 448.196 M664.226 439.145 Q664.226 434.446 662.282 431.784 Q660.36 429.099 656.981 429.099 Q653.601 429.099 651.657 431.784 Q649.735 434.446 649.735 439.145 Q649.735 443.844 651.657 446.529 Q653.601 449.191 656.981 449.191 Q660.36 449.191 662.282 446.529 Q664.226 443.844 664.226 439.145 Z" fill="#000000" fill-rule="nonzero" fill-opacity="1"></path><path clip-path="url(#clip050)" d="M690.731 430.14 Q690.013 429.724 689.156 429.538 Q688.323 429.33 687.305 429.33 Q683.694 429.33 681.749 431.691 Q679.828 434.029 679.828 438.427 L679.828 452.084 L675.545 452.084 L675.545 426.159 L679.828 426.159 L679.828 430.186 Q681.17 427.825 683.323 426.691 Q685.476 425.534 688.555 425.534 Q688.994 425.534 689.527 425.603 Q690.059 425.649 690.707 425.765 L690.731 430.14 Z" fill="#000000" fill-rule="nonzero" fill-opacity="1"></path><path clip-path="url(#clip050)" d="M716.332 438.057 L716.332 440.14 L696.749 440.14 Q697.027 444.538 699.388 446.853 Q701.772 449.145 706.008 449.145 Q708.462 449.145 710.754 448.543 Q713.068 447.941 715.337 446.737 L715.337 450.765 Q713.045 451.737 710.638 452.247 Q708.23 452.756 705.754 452.756 Q699.55 452.756 695.916 449.145 Q692.305 445.534 692.305 439.376 Q692.305 433.011 695.731 429.284 Q699.18 425.534 705.013 425.534 Q710.244 425.534 713.277 428.913 Q716.332 432.27 716.332 438.057 M712.073 436.807 Q712.027 433.311 710.105 431.228 Q708.207 429.145 705.059 429.145 Q701.494 429.145 699.342 431.159 Q697.212 433.173 696.888 436.83 L712.073 436.807 Z" fill="#000000" fill-rule="nonzero" fill-opacity="1"></path><path clip-path="url(#clip050)" d="M720.267 426.159 L724.781 426.159 L732.883 447.918 L740.985 426.159 L745.499 426.159 L735.777 452.084 L729.99 452.084 L720.267 426.159 Z" fill="#000000" fill-rule="nonzero" fill-opacity="1"></path><path clip-path="url(#clip050)" d="M763.161 439.052 Q757.999 439.052 756.008 440.233 Q754.017 441.413 754.017 444.26 Q754.017 446.529 755.499 447.872 Q757.003 449.191 759.573 449.191 Q763.114 449.191 765.244 446.691 Q767.397 444.168 767.397 440.001 L767.397 439.052 L763.161 439.052 M771.656 437.293 L771.656 452.084 L767.397 452.084 L767.397 448.149 Q765.938 450.51 763.763 451.645 Q761.587 452.756 758.439 452.756 Q754.457 452.756 752.096 450.534 Q749.758 448.288 749.758 444.538 Q749.758 440.163 752.675 437.941 Q755.614 435.719 761.425 435.719 L767.397 435.719 L767.397 435.302 Q767.397 432.362 765.452 430.765 Q763.531 429.145 760.036 429.145 Q757.814 429.145 755.707 429.677 Q753.601 430.21 751.656 431.274 L751.656 427.339 Q753.994 426.436 756.193 425.997 Q758.392 425.534 760.476 425.534 Q766.101 425.534 768.878 428.45 Q771.656 431.367 771.656 437.293 Z" fill="#000000" fill-rule="nonzero" fill-opacity="1"></path><path clip-path="url(#clip050)" d="M780.429 416.066 L784.688 416.066 L784.688 452.084 L780.429 452.084 L780.429 416.066 Z" fill="#000000" fill-rule="nonzero" fill-opacity="1"></path><path clip-path="url(#clip050)" d="M815.776 438.057 L815.776 440.14 L796.193 440.14 Q796.471 444.538 798.832 446.853 Q801.216 449.145 805.452 449.145 Q807.906 449.145 810.198 448.543 Q812.512 447.941 814.781 446.737 L814.781 450.765 Q812.489 451.737 810.082 452.247 Q807.674 452.756 805.198 452.756 Q798.994 452.756 795.36 449.145 Q791.749 445.534 791.749 439.376 Q791.749 433.011 795.174 429.284 Q798.623 425.534 804.457 425.534 Q809.688 425.534 812.721 428.913 Q815.776 432.27 815.776 438.057 M811.517 436.807 Q811.471 433.311 809.549 431.228 Q807.651 429.145 804.503 429.145 Q800.938 429.145 798.786 431.159 Q796.656 433.173 796.332 436.83 L811.517 436.807 Z" fill="#000000" fill-rule="nonzero" fill-opacity="1"></path><path clip-path="url(#clip050)" d="M844.318 436.436 L844.318 452.084 L840.058 452.084 L840.058 436.575 Q840.058 432.895 838.623 431.066 Q837.188 429.237 834.318 429.237 Q830.869 429.237 828.878 431.436 Q826.887 433.636 826.887 437.432 L826.887 452.084 L822.605 452.084 L822.605 426.159 L826.887 426.159 L826.887 430.186 Q828.415 427.849 830.475 426.691 Q832.558 425.534 835.267 425.534 Q839.734 425.534 842.026 428.311 Q844.318 431.066 844.318 436.436 Z" fill="#000000" fill-rule="nonzero" fill-opacity="1"></path><path clip-path="url(#clip050)" d="M871.47 427.154 L871.47 431.136 Q869.665 430.14 867.836 429.654 Q866.031 429.145 864.179 429.145 Q860.035 429.145 857.744 431.784 Q855.452 434.399 855.452 439.145 Q855.452 443.89 857.744 446.529 Q860.035 449.145 864.179 449.145 Q866.031 449.145 867.836 448.659 Q869.665 448.149 871.47 447.154 L871.47 451.089 Q869.688 451.922 867.767 452.339 Q865.869 452.756 863.716 452.756 Q857.859 452.756 854.41 449.075 Q850.961 445.395 850.961 439.145 Q850.961 432.802 854.433 429.168 Q857.929 425.534 863.994 425.534 Q865.961 425.534 867.836 425.95 Q869.711 426.344 871.47 427.154 Z" fill="#000000" fill-rule="nonzero" fill-opacity="1"></path><path clip-path="url(#clip050)" d="M901.053 438.057 L901.053 440.14 L881.47 440.14 Q881.748 444.538 884.109 446.853 Q886.493 449.145 890.729 449.145 Q893.183 449.145 895.475 448.543 Q897.79 447.941 900.058 446.737 L900.058 450.765 Q897.766 451.737 895.359 452.247 Q892.952 452.756 890.475 452.756 Q884.271 452.756 880.637 449.145 Q877.026 445.534 877.026 439.376 Q877.026 433.011 880.452 429.284 Q883.901 425.534 889.734 425.534 Q894.966 425.534 897.998 428.913 Q901.053 432.27 901.053 438.057 M896.794 436.807 Q896.748 433.311 894.827 431.228 Q892.929 429.145 889.78 429.145 Q886.216 429.145 884.063 431.159 Q881.933 433.173 881.609 436.83 L896.794 436.807 Z" fill="#000000" fill-rule="nonzero" fill-opacity="1"></path><polyline clip-path="url(#clip050)" style="stroke:#e26f46; stroke-linecap:round; stroke-linejoin:round; stroke-width:8; stroke-opacity:1; fill:none" points="543.932,486.644 630.95,486.644 "></polyline>
<path clip-path="url(#clip050)" d="M645.453 467.906 L649.712 467.906 L649.712 503.924 L645.453 503.924 L645.453 467.906 Z" fill="#000000" fill-rule="nonzero" fill-opacity="1"></path><path clip-path="url(#clip050)" d="M658.624 477.999 L662.883 477.999 L662.883 503.924 L658.624 503.924 L658.624 477.999 M658.624 467.906 L662.883 467.906 L662.883 473.3 L658.624 473.3 L658.624 467.906 Z" fill="#000000" fill-rule="nonzero" fill-opacity="1"></path><path clip-path="url(#clip050)" d="M684.92 467.906 L684.92 471.448 L680.846 471.448 Q678.555 471.448 677.652 472.374 Q676.772 473.3 676.772 475.707 L676.772 477.999 L683.786 477.999 L683.786 481.309 L676.772 481.309 L676.772 503.924 L672.49 503.924 L672.49 481.309 L668.416 481.309 L668.416 477.999 L672.49 477.999 L672.49 476.193 Q672.49 471.864 674.504 469.897 Q676.518 467.906 680.893 467.906 L684.92 467.906 Z" fill="#000000" fill-rule="nonzero" fill-opacity="1"></path><path clip-path="url(#clip050)" d="M710.661 489.897 L710.661 491.98 L691.078 491.98 Q691.356 496.378 693.717 498.693 Q696.101 500.985 700.337 500.985 Q702.791 500.985 705.082 500.383 Q707.397 499.781 709.666 498.577 L709.666 502.605 Q707.374 503.577 704.967 504.087 Q702.559 504.596 700.082 504.596 Q693.879 504.596 690.244 500.985 Q686.633 497.374 686.633 491.216 Q686.633 484.851 690.059 481.124 Q693.508 477.374 699.342 477.374 Q704.573 477.374 707.605 480.753 Q710.661 484.11 710.661 489.897 M706.402 488.647 Q706.355 485.151 704.434 483.068 Q702.536 480.985 699.388 480.985 Q695.823 480.985 693.67 482.999 Q691.541 485.013 691.217 488.67 L706.402 488.647 Z" fill="#000000" fill-rule="nonzero" fill-opacity="1"></path><path clip-path="url(#clip050)" d="M721.865 470.638 L721.865 477.999 L730.638 477.999 L730.638 481.309 L721.865 481.309 L721.865 495.383 Q721.865 498.554 722.721 499.457 Q723.601 500.36 726.263 500.36 L730.638 500.36 L730.638 503.924 L726.263 503.924 Q721.332 503.924 719.457 502.096 Q717.582 500.244 717.582 495.383 L717.582 481.309 L714.457 481.309 L714.457 477.999 L717.582 477.999 L717.582 470.638 L721.865 470.638 Z" fill="#000000" fill-rule="nonzero" fill-opacity="1"></path><path clip-path="url(#clip050)" d="M736.24 477.999 L740.499 477.999 L740.499 503.924 L736.24 503.924 L736.24 477.999 M736.24 467.906 L740.499 467.906 L740.499 473.3 L736.24 473.3 L736.24 467.906 Z" fill="#000000" fill-rule="nonzero" fill-opacity="1"></path><path clip-path="url(#clip050)" d="M769.596 482.976 Q771.193 480.105 773.415 478.739 Q775.638 477.374 778.647 477.374 Q782.698 477.374 784.897 480.221 Q787.096 483.045 787.096 488.276 L787.096 503.924 L782.813 503.924 L782.813 488.415 Q782.813 484.688 781.494 482.883 Q780.175 481.077 777.466 481.077 Q774.156 481.077 772.235 483.276 Q770.313 485.476 770.313 489.272 L770.313 503.924 L766.031 503.924 L766.031 488.415 Q766.031 484.665 764.712 482.883 Q763.392 481.077 760.638 481.077 Q757.374 481.077 755.452 483.3 Q753.531 485.499 753.531 489.272 L753.531 503.924 L749.249 503.924 L749.249 477.999 L753.531 477.999 L753.531 482.026 Q754.989 479.642 757.026 478.508 Q759.064 477.374 761.864 477.374 Q764.688 477.374 766.656 478.809 Q768.647 480.244 769.596 482.976 Z" fill="#000000" fill-rule="nonzero" fill-opacity="1"></path><path clip-path="url(#clip050)" d="M817.767 489.897 L817.767 491.98 L798.184 491.98 Q798.461 496.378 800.823 498.693 Q803.207 500.985 807.443 500.985 Q809.897 500.985 812.188 500.383 Q814.503 499.781 816.772 498.577 L816.772 502.605 Q814.48 503.577 812.072 504.087 Q809.665 504.596 807.188 504.596 Q800.985 504.596 797.35 500.985 Q793.739 497.374 793.739 491.216 Q793.739 484.851 797.165 481.124 Q800.614 477.374 806.448 477.374 Q811.679 477.374 814.711 480.753 Q817.767 484.11 817.767 489.897 M813.508 488.647 Q813.461 485.151 811.54 483.068 Q809.642 480.985 806.494 480.985 Q802.929 480.985 800.776 482.999 Q798.647 485.013 798.323 488.67 L813.508 488.647 Z" fill="#000000" fill-rule="nonzero" fill-opacity="1"></path><path clip-path="url(#clip050)" d="M843.947 500.036 L843.947 513.786 L839.665 513.786 L839.665 477.999 L843.947 477.999 L843.947 481.934 Q845.29 479.619 847.327 478.508 Q849.387 477.374 852.234 477.374 Q856.957 477.374 859.896 481.124 Q862.859 484.874 862.859 490.985 Q862.859 497.096 859.896 500.846 Q856.957 504.596 852.234 504.596 Q849.387 504.596 847.327 503.485 Q845.29 502.35 843.947 500.036 M858.438 490.985 Q858.438 486.286 856.494 483.624 Q854.572 480.939 851.193 480.939 Q847.813 480.939 845.869 483.624 Q843.947 486.286 843.947 490.985 Q843.947 495.684 845.869 498.369 Q847.813 501.031 851.193 501.031 Q854.572 501.031 856.494 498.369 Q858.438 495.684 858.438 490.985 Z" fill="#000000" fill-rule="nonzero" fill-opacity="1"></path><path clip-path="url(#clip050)" d="M884.942 481.98 Q884.225 481.564 883.368 481.378 Q882.535 481.17 881.517 481.17 Q877.905 481.17 875.961 483.531 Q874.04 485.869 874.04 490.267 L874.04 503.924 L869.757 503.924 L869.757 477.999 L874.04 477.999 L874.04 482.026 Q875.382 479.665 877.535 478.531 Q879.688 477.374 882.767 477.374 Q883.206 477.374 883.739 477.443 Q884.271 477.489 884.919 477.605 L884.942 481.98 Z" fill="#000000" fill-rule="nonzero" fill-opacity="1"></path><path clip-path="url(#clip050)" d="M910.544 489.897 L910.544 491.98 L890.961 491.98 Q891.239 496.378 893.6 498.693 Q895.984 500.985 900.22 500.985 Q902.674 500.985 904.966 500.383 Q907.28 499.781 909.549 498.577 L909.549 502.605 Q907.257 503.577 904.85 504.087 Q902.442 504.596 899.966 504.596 Q893.762 504.596 890.128 500.985 Q886.517 497.374 886.517 491.216 Q886.517 484.851 889.942 481.124 Q893.392 477.374 899.225 477.374 Q904.456 477.374 907.489 480.753 Q910.544 484.11 910.544 489.897 M906.285 488.647 Q906.239 485.151 904.317 483.068 Q902.419 480.985 899.271 480.985 Q895.706 480.985 893.554 482.999 Q891.424 485.013 891.1 488.67 L906.285 488.647 Z" fill="#000000" fill-rule="nonzero" fill-opacity="1"></path><path clip-path="url(#clip050)" d="M914.479 477.999 L918.993 477.999 L927.095 499.758 L935.197 477.999 L939.711 477.999 L929.989 503.924 L924.202 503.924 L914.479 477.999 Z" fill="#000000" fill-rule="nonzero" fill-opacity="1"></path><path clip-path="url(#clip050)" d="M957.373 490.892 Q952.211 490.892 950.22 492.073 Q948.229 493.253 948.229 496.1 Q948.229 498.369 949.711 499.712 Q951.215 501.031 953.785 501.031 Q957.326 501.031 959.456 498.531 Q961.609 496.008 961.609 491.841 L961.609 490.892 L957.373 490.892 M965.868 489.133 L965.868 503.924 L961.609 503.924 L961.609 499.989 Q960.15 502.35 957.974 503.485 Q955.799 504.596 952.65 504.596 Q948.669 504.596 946.308 502.374 Q943.97 500.128 943.97 496.378 Q943.97 492.003 946.887 489.781 Q949.826 487.559 955.637 487.559 L961.609 487.559 L961.609 487.142 Q961.609 484.202 959.664 482.605 Q957.743 480.985 954.248 480.985 Q952.025 480.985 949.919 481.517 Q947.813 482.05 945.868 483.114 L945.868 479.179 Q948.206 478.276 950.405 477.837 Q952.604 477.374 954.687 477.374 Q960.312 477.374 963.09 480.29 Q965.868 483.207 965.868 489.133 Z" fill="#000000" fill-rule="nonzero" fill-opacity="1"></path><path clip-path="url(#clip050)" d="M974.641 467.906 L978.9 467.906 L978.9 503.924 L974.641 503.924 L974.641 467.906 Z" fill="#000000" fill-rule="nonzero" fill-opacity="1"></path><path clip-path="url(#clip050)" d="M1009.99 489.897 L1009.99 491.98 L990.405 491.98 Q990.683 496.378 993.044 498.693 Q995.428 500.985 999.664 500.985 Q1002.12 500.985 1004.41 500.383 Q1006.72 499.781 1008.99 498.577 L1008.99 502.605 Q1006.7 503.577 1004.29 504.087 Q1001.89 504.596 999.409 504.596 Q993.206 504.596 989.572 500.985 Q985.96 497.374 985.96 491.216 Q985.96 484.851 989.386 481.124 Q992.835 477.374 998.669 477.374 Q1003.9 477.374 1006.93 480.753 Q1009.99 484.11 1009.99 489.897 M1005.73 488.647 Q1005.68 485.151 1003.76 483.068 Q1001.86 480.985 998.715 480.985 Q995.15 480.985 992.997 482.999 Q990.868 485.013 990.544 488.67 L1005.73 488.647 Z" fill="#000000" fill-rule="nonzero" fill-opacity="1"></path><path clip-path="url(#clip050)" d="M1038.53 488.276 L1038.53 503.924 L1034.27 503.924 L1034.27 488.415 Q1034.27 484.735 1032.84 482.906 Q1031.4 481.077 1028.53 481.077 Q1025.08 481.077 1023.09 483.276 Q1021.1 485.476 1021.1 489.272 L1021.1 503.924 L1016.82 503.924 L1016.82 477.999 L1021.1 477.999 L1021.1 482.026 Q1022.63 479.689 1024.69 478.531 Q1026.77 477.374 1029.48 477.374 Q1033.95 477.374 1036.24 480.151 Q1038.53 482.906 1038.53 488.276 Z" fill="#000000" fill-rule="nonzero" fill-opacity="1"></path><path clip-path="url(#clip050)" d="M1065.68 478.994 L1065.68 482.976 Q1063.88 481.98 1062.05 481.494 Q1060.24 480.985 1058.39 480.985 Q1054.25 480.985 1051.96 483.624 Q1049.66 486.239 1049.66 490.985 Q1049.66 495.73 1051.96 498.369 Q1054.25 500.985 1058.39 500.985 Q1060.24 500.985 1062.05 500.499 Q1063.88 499.989 1065.68 498.994 L1065.68 502.929 Q1063.9 503.762 1061.98 504.179 Q1060.08 504.596 1057.93 504.596 Q1052.07 504.596 1048.62 500.915 Q1045.17 497.235 1045.17 490.985 Q1045.17 484.642 1048.65 481.008 Q1052.14 477.374 1058.21 477.374 Q1060.17 477.374 1062.05 477.79 Q1063.92 478.184 1065.68 478.994 Z" fill="#000000" fill-rule="nonzero" fill-opacity="1"></path><path clip-path="url(#clip050)" d="M1095.27 489.897 L1095.27 491.98 L1075.68 491.98 Q1075.96 496.378 1078.32 498.693 Q1080.71 500.985 1084.94 500.985 Q1087.4 500.985 1089.69 500.383 Q1092 499.781 1094.27 498.577 L1094.27 502.605 Q1091.98 503.577 1089.57 504.087 Q1087.16 504.596 1084.69 504.596 Q1078.48 504.596 1074.85 500.985 Q1071.24 497.374 1071.24 491.216 Q1071.24 484.851 1074.66 481.124 Q1078.11 477.374 1083.95 477.374 Q1089.18 477.374 1092.21 480.753 Q1095.27 484.11 1095.27 489.897 M1091.01 488.647 Q1090.96 485.151 1089.04 483.068 Q1087.14 480.985 1083.99 480.985 Q1080.43 480.985 1078.27 482.999 Q1076.15 485.013 1075.82 488.67 L1091.01 488.647 Z" fill="#000000" fill-rule="nonzero" fill-opacity="1"></path><polyline clip-path="url(#clip050)" style="stroke:#3da44d; stroke-linecap:round; stroke-linejoin:round; stroke-width:8; stroke-opacity:1; fill:none" points="543.932,538.484 630.95,538.484 "></polyline>
<path clip-path="url(#clip050)" d="M649.735 551.876 L649.735 565.626 L645.453 565.626 L645.453 529.839 L649.735 529.839 L649.735 533.774 Q651.078 531.459 653.115 530.348 Q655.175 529.214 658.022 529.214 Q662.745 529.214 665.684 532.964 Q668.647 536.714 668.647 542.825 Q668.647 548.936 665.684 552.686 Q662.745 556.436 658.022 556.436 Q655.175 556.436 653.115 555.325 Q651.078 554.19 649.735 551.876 M664.226 542.825 Q664.226 538.126 662.282 535.464 Q660.36 532.779 656.981 532.779 Q653.601 532.779 651.657 535.464 Q649.735 538.126 649.735 542.825 Q649.735 547.524 651.657 550.209 Q653.601 552.871 656.981 552.871 Q660.36 552.871 662.282 550.209 Q664.226 547.524 664.226 542.825 Z" fill="#000000" fill-rule="nonzero" fill-opacity="1"></path><path clip-path="url(#clip050)" d="M690.731 533.82 Q690.013 533.404 689.156 533.218 Q688.323 533.01 687.305 533.01 Q683.694 533.01 681.749 535.371 Q679.828 537.709 679.828 542.107 L679.828 555.764 L675.545 555.764 L675.545 529.839 L679.828 529.839 L679.828 533.866 Q681.17 531.505 683.323 530.371 Q685.476 529.214 688.555 529.214 Q688.994 529.214 689.527 529.283 Q690.059 529.329 690.707 529.445 L690.731 533.82 Z" fill="#000000" fill-rule="nonzero" fill-opacity="1"></path><path clip-path="url(#clip050)" d="M704.203 532.825 Q700.777 532.825 698.786 535.51 Q696.795 538.172 696.795 542.825 Q696.795 547.478 698.763 550.163 Q700.754 552.825 704.203 552.825 Q707.605 552.825 709.596 550.14 Q711.587 547.454 711.587 542.825 Q711.587 538.218 709.596 535.533 Q707.605 532.825 704.203 532.825 M704.203 529.214 Q709.758 529.214 712.93 532.825 Q716.101 536.436 716.101 542.825 Q716.101 549.19 712.93 552.825 Q709.758 556.436 704.203 556.436 Q698.624 556.436 695.453 552.825 Q692.305 549.19 692.305 542.825 Q692.305 536.436 695.453 532.825 Q698.624 529.214 704.203 529.214 Z" fill="#000000" fill-rule="nonzero" fill-opacity="1"></path><path clip-path="url(#clip050)" d="M741.772 542.825 Q741.772 538.126 739.828 535.464 Q737.906 532.779 734.527 532.779 Q731.147 532.779 729.203 535.464 Q727.281 538.126 727.281 542.825 Q727.281 547.524 729.203 550.209 Q731.147 552.871 734.527 552.871 Q737.906 552.871 739.828 550.209 Q741.772 547.524 741.772 542.825 M727.281 533.774 Q728.624 531.459 730.661 530.348 Q732.721 529.214 735.568 529.214 Q740.29 529.214 743.23 532.964 Q746.193 536.714 746.193 542.825 Q746.193 548.936 743.23 552.686 Q740.29 556.436 735.568 556.436 Q732.721 556.436 730.661 555.325 Q728.624 554.19 727.281 551.876 L727.281 555.764 L722.999 555.764 L722.999 519.746 L727.281 519.746 L727.281 533.774 Z" fill="#000000" fill-rule="nonzero" fill-opacity="1"></path><path clip-path="url(#clip050)" d="M753.855 549.885 L758.739 549.885 L758.739 555.764 L753.855 555.764 L753.855 549.885 Z" fill="#000000" fill-rule="nonzero" fill-opacity="1"></path><path clip-path="url(#clip050)" d="M803.577 534.816 Q805.174 531.945 807.397 530.579 Q809.619 529.214 812.628 529.214 Q816.679 529.214 818.878 532.061 Q821.077 534.885 821.077 540.116 L821.077 555.764 L816.795 555.764 L816.795 540.255 Q816.795 536.528 815.475 534.723 Q814.156 532.917 811.447 532.917 Q808.137 532.917 806.216 535.116 Q804.295 537.316 804.295 541.112 L804.295 555.764 L800.012 555.764 L800.012 540.255 Q800.012 536.505 798.693 534.723 Q797.373 532.917 794.619 532.917 Q791.355 532.917 789.434 535.14 Q787.512 537.339 787.512 541.112 L787.512 555.764 L783.23 555.764 L783.23 529.839 L787.512 529.839 L787.512 533.866 Q788.971 531.482 791.008 530.348 Q793.045 529.214 795.846 529.214 Q798.67 529.214 800.637 530.649 Q802.628 532.084 803.577 534.816 Z" fill="#000000" fill-rule="nonzero" fill-opacity="1"></path><path clip-path="url(#clip050)" d="M839.619 532.825 Q836.193 532.825 834.202 535.51 Q832.211 538.172 832.211 542.825 Q832.211 547.478 834.179 550.163 Q836.17 552.825 839.619 552.825 Q843.021 552.825 845.012 550.14 Q847.003 547.454 847.003 542.825 Q847.003 538.218 845.012 535.533 Q843.021 532.825 839.619 532.825 M839.619 529.214 Q845.174 529.214 848.345 532.825 Q851.517 536.436 851.517 542.825 Q851.517 549.19 848.345 552.825 Q845.174 556.436 839.619 556.436 Q834.04 556.436 830.869 552.825 Q827.721 549.19 827.721 542.825 Q827.721 536.436 830.869 532.825 Q834.04 529.214 839.619 529.214 Z" fill="#000000" fill-rule="nonzero" fill-opacity="1"></path><path clip-path="url(#clip050)" d="M873.6 533.82 Q872.882 533.404 872.026 533.218 Q871.193 533.01 870.174 533.01 Q866.563 533.01 864.619 535.371 Q862.697 537.709 862.697 542.107 L862.697 555.764 L858.415 555.764 L858.415 529.839 L862.697 529.839 L862.697 533.866 Q864.04 531.505 866.193 530.371 Q868.345 529.214 871.424 529.214 Q871.864 529.214 872.396 529.283 Q872.929 529.329 873.577 529.445 L873.6 533.82 Z" fill="#000000" fill-rule="nonzero" fill-opacity="1"></path><path clip-path="url(#clip050)" d="M899.202 541.737 L899.202 543.82 L879.618 543.82 Q879.896 548.218 882.257 550.533 Q884.642 552.825 888.878 552.825 Q891.331 552.825 893.623 552.223 Q895.938 551.621 898.206 550.417 L898.206 554.445 Q895.915 555.417 893.507 555.927 Q891.1 556.436 888.623 556.436 Q882.419 556.436 878.785 552.825 Q875.174 549.214 875.174 543.056 Q875.174 536.691 878.6 532.964 Q882.049 529.214 887.882 529.214 Q893.114 529.214 896.146 532.593 Q899.202 535.95 899.202 541.737 M894.942 540.487 Q894.896 536.991 892.975 534.908 Q891.077 532.825 887.929 532.825 Q884.364 532.825 882.211 534.839 Q880.081 536.853 879.757 540.51 L894.942 540.487 Z" fill="#000000" fill-rule="nonzero" fill-opacity="1"></path><path clip-path="url(#clip050)" d="M943.438 541.737 L943.438 543.82 L923.854 543.82 Q924.132 548.218 926.493 550.533 Q928.877 552.825 933.114 552.825 Q935.567 552.825 937.859 552.223 Q940.174 551.621 942.442 550.417 L942.442 554.445 Q940.151 555.417 937.743 555.927 Q935.336 556.436 932.859 556.436 Q926.655 556.436 923.021 552.825 Q919.41 549.214 919.41 543.056 Q919.41 536.691 922.836 532.964 Q926.285 529.214 932.118 529.214 Q937.35 529.214 940.382 532.593 Q943.438 535.95 943.438 541.737 M939.178 540.487 Q939.132 536.991 937.211 534.908 Q935.313 532.825 932.164 532.825 Q928.6 532.825 926.447 534.839 Q924.317 536.853 923.993 540.51 L939.178 540.487 Z" fill="#000000" fill-rule="nonzero" fill-opacity="1"></path><path clip-path="url(#clip050)" d="M954.549 551.876 L954.549 565.626 L950.266 565.626 L950.266 529.839 L954.549 529.839 L954.549 533.774 Q955.891 531.459 957.928 530.348 Q959.988 529.214 962.836 529.214 Q967.558 529.214 970.498 532.964 Q973.461 536.714 973.461 542.825 Q973.461 548.936 970.498 552.686 Q967.558 556.436 962.836 556.436 Q959.988 556.436 957.928 555.325 Q955.891 554.19 954.549 551.876 M969.039 542.825 Q969.039 538.126 967.095 535.464 Q965.174 532.779 961.794 532.779 Q958.414 532.779 956.47 535.464 Q954.549 538.126 954.549 542.825 Q954.549 547.524 956.47 550.209 Q958.414 552.871 961.794 552.871 Q965.174 552.871 967.095 550.209 Q969.039 547.524 969.039 542.825 Z" fill="#000000" fill-rule="nonzero" fill-opacity="1"></path><path clip-path="url(#clip050)" d="M981.123 549.885 L986.007 549.885 L986.007 555.764 L981.123 555.764 L981.123 549.885 Z" fill="#000000" fill-rule="nonzero" fill-opacity="1"></path><path clip-path="url(#clip050)" d="M1022.44 542.732 Q1017.28 542.732 1015.29 543.913 Q1013.3 545.093 1013.3 547.94 Q1013.3 550.209 1014.78 551.552 Q1016.28 552.871 1018.85 552.871 Q1022.4 552.871 1024.53 550.371 Q1026.68 547.848 1026.68 543.681 L1026.68 542.732 L1022.44 542.732 M1030.94 540.973 L1030.94 555.764 L1026.68 555.764 L1026.68 551.829 Q1025.22 554.19 1023.04 555.325 Q1020.87 556.436 1017.72 556.436 Q1013.74 556.436 1011.38 554.214 Q1009.04 551.968 1009.04 548.218 Q1009.04 543.843 1011.96 541.621 Q1014.9 539.399 1020.71 539.399 L1026.68 539.399 L1026.68 538.982 Q1026.68 536.042 1024.73 534.445 Q1022.81 532.825 1019.32 532.825 Q1017.09 532.825 1014.99 533.357 Q1012.88 533.89 1010.94 534.954 L1010.94 531.019 Q1013.28 530.116 1015.47 529.677 Q1017.67 529.214 1019.76 529.214 Q1025.38 529.214 1028.16 532.13 Q1030.94 535.047 1030.94 540.973 Z" fill="#000000" fill-rule="nonzero" fill-opacity="1"></path><path clip-path="url(#clip050)" d="M1052.84 519.746 L1052.84 523.288 L1048.76 523.288 Q1046.47 523.288 1045.57 524.214 Q1044.69 525.14 1044.69 527.547 L1044.69 529.839 L1051.7 529.839 L1051.7 533.149 L1044.69 533.149 L1044.69 555.764 L1040.4 555.764 L1040.4 533.149 L1036.33 533.149 L1036.33 529.839 L1040.4 529.839 L1040.4 528.033 Q1040.4 523.704 1042.42 521.737 Q1044.43 519.746 1048.81 519.746 L1052.84 519.746 Z" fill="#000000" fill-rule="nonzero" fill-opacity="1"></path><path clip-path="url(#clip050)" d="M1059.78 522.478 L1059.78 529.839 L1068.55 529.839 L1068.55 533.149 L1059.78 533.149 L1059.78 547.223 Q1059.78 550.394 1060.64 551.297 Q1061.52 552.2 1064.18 552.2 L1068.55 552.2 L1068.55 555.764 L1064.18 555.764 Q1059.25 555.764 1057.37 553.936 Q1055.5 552.084 1055.5 547.223 L1055.5 533.149 L1052.37 533.149 L1052.37 529.839 L1055.5 529.839 L1055.5 522.478 L1059.78 522.478 Z" fill="#000000" fill-rule="nonzero" fill-opacity="1"></path><path clip-path="url(#clip050)" d="M1096.33 541.737 L1096.33 543.82 L1076.75 543.82 Q1077.02 548.218 1079.39 550.533 Q1081.77 552.825 1086.01 552.825 Q1088.46 552.825 1090.75 552.223 Q1093.07 551.621 1095.33 550.417 L1095.33 554.445 Q1093.04 555.417 1090.64 555.927 Q1088.23 556.436 1085.75 556.436 Q1079.55 556.436 1075.91 552.825 Q1072.3 549.214 1072.3 543.056 Q1072.3 536.691 1075.73 532.964 Q1079.18 529.214 1085.01 529.214 Q1090.24 529.214 1093.27 532.593 Q1096.33 535.95 1096.33 541.737 M1092.07 540.487 Q1092.02 536.991 1090.1 534.908 Q1088.21 532.825 1085.06 532.825 Q1081.49 532.825 1079.34 534.839 Q1077.21 536.853 1076.89 540.51 L1092.07 540.487 Z" fill="#000000" fill-rule="nonzero" fill-opacity="1"></path><path clip-path="url(#clip050)" d="M1118.34 533.82 Q1117.63 533.404 1116.77 533.218 Q1115.94 533.01 1114.92 533.01 Q1111.31 533.01 1109.36 535.371 Q1107.44 537.709 1107.44 542.107 L1107.44 555.764 L1103.16 555.764 L1103.16 529.839 L1107.44 529.839 L1107.44 533.866 Q1108.78 531.505 1110.94 530.371 Q1113.09 529.214 1116.17 529.214 Q1116.61 529.214 1117.14 529.283 Q1117.67 529.329 1118.32 529.445 L1118.34 533.82 Z" fill="#000000" fill-rule="nonzero" fill-opacity="1"></path><path clip-path="url(#clip050)" d="M1147.93 532.825 Q1144.5 532.825 1142.51 535.51 Q1140.52 538.172 1140.52 542.825 Q1140.52 547.478 1142.49 550.163 Q1144.48 552.825 1147.93 552.825 Q1151.33 552.825 1153.32 550.14 Q1155.31 547.454 1155.31 542.825 Q1155.31 538.218 1153.32 535.533 Q1151.33 532.825 1147.93 532.825 M1147.93 529.214 Q1153.48 529.214 1156.65 532.825 Q1159.83 536.436 1159.83 542.825 Q1159.83 549.19 1156.65 552.825 Q1153.48 556.436 1147.93 556.436 Q1142.35 556.436 1139.18 552.825 Q1136.03 549.19 1136.03 542.825 Q1136.03 536.436 1139.18 532.825 Q1142.35 529.214 1147.93 529.214 Z" fill="#000000" fill-rule="nonzero" fill-opacity="1"></path><path clip-path="url(#clip050)" d="M1188.44 540.116 L1188.44 555.764 L1184.18 555.764 L1184.18 540.255 Q1184.18 536.575 1182.74 534.746 Q1181.31 532.917 1178.44 532.917 Q1174.99 532.917 1173 535.116 Q1171.01 537.316 1171.01 541.112 L1171.01 555.764 L1166.72 555.764 L1166.72 529.839 L1171.01 529.839 L1171.01 533.866 Q1172.53 531.529 1174.59 530.371 Q1176.68 529.214 1179.39 529.214 Q1183.85 529.214 1186.14 531.991 Q1188.44 534.746 1188.44 540.116 Z" fill="#000000" fill-rule="nonzero" fill-opacity="1"></path><path clip-path="url(#clip050)" d="M1219.11 541.737 L1219.11 543.82 L1199.52 543.82 Q1199.8 548.218 1202.16 550.533 Q1204.55 552.825 1208.78 552.825 Q1211.24 552.825 1213.53 552.223 Q1215.84 551.621 1218.11 550.417 L1218.11 554.445 Q1215.82 555.417 1213.41 555.927 Q1211.01 556.436 1208.53 556.436 Q1202.33 556.436 1198.69 552.825 Q1195.08 549.214 1195.08 543.056 Q1195.08 536.691 1198.51 532.964 Q1201.95 529.214 1207.79 529.214 Q1213.02 529.214 1216.05 532.593 Q1219.11 535.95 1219.11 541.737 M1214.85 540.487 Q1214.8 536.991 1212.88 534.908 Q1210.98 532.825 1207.83 532.825 Q1204.27 532.825 1202.12 534.839 Q1199.99 536.853 1199.66 540.51 L1214.85 540.487 Z" fill="#000000" fill-rule="nonzero" fill-opacity="1"></path><polyline clip-path="url(#clip050)" style="stroke:#c271d2; stroke-linecap:round; stroke-linejoin:round; stroke-width:8; stroke-opacity:1; fill:none" points="543.932,590.324 630.95,590.324 "></polyline>
<path clip-path="url(#clip050)" d="M649.735 603.716 L649.735 617.466 L645.453 617.466 L645.453 581.679 L649.735 581.679 L649.735 585.614 Q651.078 583.299 653.115 582.188 Q655.175 581.054 658.022 581.054 Q662.745 581.054 665.684 584.804 Q668.647 588.554 668.647 594.665 Q668.647 600.776 665.684 604.526 Q662.745 608.276 658.022 608.276 Q655.175 608.276 653.115 607.165 Q651.078 606.03 649.735 603.716 M664.226 594.665 Q664.226 589.966 662.282 587.304 Q660.36 584.619 656.981 584.619 Q653.601 584.619 651.657 587.304 Q649.735 589.966 649.735 594.665 Q649.735 599.364 651.657 602.049 Q653.601 604.711 656.981 604.711 Q660.36 604.711 662.282 602.049 Q664.226 599.364 664.226 594.665 Z" fill="#000000" fill-rule="nonzero" fill-opacity="1"></path><path clip-path="url(#clip050)" d="M690.731 585.66 Q690.013 585.244 689.156 585.058 Q688.323 584.85 687.305 584.85 Q683.694 584.85 681.749 587.211 Q679.828 589.549 679.828 593.947 L679.828 607.604 L675.545 607.604 L675.545 581.679 L679.828 581.679 L679.828 585.706 Q681.17 583.345 683.323 582.211 Q685.476 581.054 688.555 581.054 Q688.994 581.054 689.527 581.123 Q690.059 581.169 690.707 581.285 L690.731 585.66 Z" fill="#000000" fill-rule="nonzero" fill-opacity="1"></path><path clip-path="url(#clip050)" d="M704.203 584.665 Q700.777 584.665 698.786 587.35 Q696.795 590.012 696.795 594.665 Q696.795 599.318 698.763 602.003 Q700.754 604.665 704.203 604.665 Q707.605 604.665 709.596 601.98 Q711.587 599.294 711.587 594.665 Q711.587 590.058 709.596 587.373 Q707.605 584.665 704.203 584.665 M704.203 581.054 Q709.758 581.054 712.93 584.665 Q716.101 588.276 716.101 594.665 Q716.101 601.03 712.93 604.665 Q709.758 608.276 704.203 608.276 Q698.624 608.276 695.453 604.665 Q692.305 601.03 692.305 594.665 Q692.305 588.276 695.453 584.665 Q698.624 581.054 704.203 581.054 Z" fill="#000000" fill-rule="nonzero" fill-opacity="1"></path><path clip-path="url(#clip050)" d="M741.772 594.665 Q741.772 589.966 739.828 587.304 Q737.906 584.619 734.527 584.619 Q731.147 584.619 729.203 587.304 Q727.281 589.966 727.281 594.665 Q727.281 599.364 729.203 602.049 Q731.147 604.711 734.527 604.711 Q737.906 604.711 739.828 602.049 Q741.772 599.364 741.772 594.665 M727.281 585.614 Q728.624 583.299 730.661 582.188 Q732.721 581.054 735.568 581.054 Q740.29 581.054 743.23 584.804 Q746.193 588.554 746.193 594.665 Q746.193 600.776 743.23 604.526 Q740.29 608.276 735.568 608.276 Q732.721 608.276 730.661 607.165 Q728.624 606.03 727.281 603.716 L727.281 607.604 L722.999 607.604 L722.999 571.586 L727.281 571.586 L727.281 585.614 Z" fill="#000000" fill-rule="nonzero" fill-opacity="1"></path><path clip-path="url(#clip050)" d="M753.855 601.725 L758.739 601.725 L758.739 607.604 L753.855 607.604 L753.855 601.725 Z" fill="#000000" fill-rule="nonzero" fill-opacity="1"></path><path clip-path="url(#clip050)" d="M803.577 586.656 Q805.174 583.785 807.397 582.419 Q809.619 581.054 812.628 581.054 Q816.679 581.054 818.878 583.901 Q821.077 586.725 821.077 591.956 L821.077 607.604 L816.795 607.604 L816.795 592.095 Q816.795 588.368 815.475 586.563 Q814.156 584.757 811.447 584.757 Q808.137 584.757 806.216 586.956 Q804.295 589.156 804.295 592.952 L804.295 607.604 L800.012 607.604 L800.012 592.095 Q800.012 588.345 798.693 586.563 Q797.373 584.757 794.619 584.757 Q791.355 584.757 789.434 586.98 Q787.512 589.179 787.512 592.952 L787.512 607.604 L783.23 607.604 L783.23 581.679 L787.512 581.679 L787.512 585.706 Q788.971 583.322 791.008 582.188 Q793.045 581.054 795.846 581.054 Q798.67 581.054 800.637 582.489 Q802.628 583.924 803.577 586.656 Z" fill="#000000" fill-rule="nonzero" fill-opacity="1"></path><path clip-path="url(#clip050)" d="M839.619 584.665 Q836.193 584.665 834.202 587.35 Q832.211 590.012 832.211 594.665 Q832.211 599.318 834.179 602.003 Q836.17 604.665 839.619 604.665 Q843.021 604.665 845.012 601.98 Q847.003 599.294 847.003 594.665 Q847.003 590.058 845.012 587.373 Q843.021 584.665 839.619 584.665 M839.619 581.054 Q845.174 581.054 848.345 584.665 Q851.517 588.276 851.517 594.665 Q851.517 601.03 848.345 604.665 Q845.174 608.276 839.619 608.276 Q834.04 608.276 830.869 604.665 Q827.721 601.03 827.721 594.665 Q827.721 588.276 830.869 584.665 Q834.04 581.054 839.619 581.054 Z" fill="#000000" fill-rule="nonzero" fill-opacity="1"></path><path clip-path="url(#clip050)" d="M873.6 585.66 Q872.882 585.244 872.026 585.058 Q871.193 584.85 870.174 584.85 Q866.563 584.85 864.619 587.211 Q862.697 589.549 862.697 593.947 L862.697 607.604 L858.415 607.604 L858.415 581.679 L862.697 581.679 L862.697 585.706 Q864.04 583.345 866.193 582.211 Q868.345 581.054 871.424 581.054 Q871.864 581.054 872.396 581.123 Q872.929 581.169 873.577 581.285 L873.6 585.66 Z" fill="#000000" fill-rule="nonzero" fill-opacity="1"></path><path clip-path="url(#clip050)" d="M899.202 593.577 L899.202 595.66 L879.618 595.66 Q879.896 600.058 882.257 602.373 Q884.642 604.665 888.878 604.665 Q891.331 604.665 893.623 604.063 Q895.938 603.461 898.206 602.257 L898.206 606.285 Q895.915 607.257 893.507 607.767 Q891.1 608.276 888.623 608.276 Q882.419 608.276 878.785 604.665 Q875.174 601.054 875.174 594.896 Q875.174 588.531 878.6 584.804 Q882.049 581.054 887.882 581.054 Q893.114 581.054 896.146 584.433 Q899.202 587.79 899.202 593.577 M894.942 592.327 Q894.896 588.831 892.975 586.748 Q891.077 584.665 887.929 584.665 Q884.364 584.665 882.211 586.679 Q880.081 588.693 879.757 592.35 L894.942 592.327 Z" fill="#000000" fill-rule="nonzero" fill-opacity="1"></path><path clip-path="url(#clip050)" d="M943.438 593.577 L943.438 595.66 L923.854 595.66 Q924.132 600.058 926.493 602.373 Q928.877 604.665 933.114 604.665 Q935.567 604.665 937.859 604.063 Q940.174 603.461 942.442 602.257 L942.442 606.285 Q940.151 607.257 937.743 607.767 Q935.336 608.276 932.859 608.276 Q926.655 608.276 923.021 604.665 Q919.41 601.054 919.41 594.896 Q919.41 588.531 922.836 584.804 Q926.285 581.054 932.118 581.054 Q937.35 581.054 940.382 584.433 Q943.438 587.79 943.438 593.577 M939.178 592.327 Q939.132 588.831 937.211 586.748 Q935.313 584.665 932.164 584.665 Q928.6 584.665 926.447 586.679 Q924.317 588.693 923.993 592.35 L939.178 592.327 Z" fill="#000000" fill-rule="nonzero" fill-opacity="1"></path><path clip-path="url(#clip050)" d="M954.549 603.716 L954.549 617.466 L950.266 617.466 L950.266 581.679 L954.549 581.679 L954.549 585.614 Q955.891 583.299 957.928 582.188 Q959.988 581.054 962.836 581.054 Q967.558 581.054 970.498 584.804 Q973.461 588.554 973.461 594.665 Q973.461 600.776 970.498 604.526 Q967.558 608.276 962.836 608.276 Q959.988 608.276 957.928 607.165 Q955.891 606.03 954.549 603.716 M969.039 594.665 Q969.039 589.966 967.095 587.304 Q965.174 584.619 961.794 584.619 Q958.414 584.619 956.47 587.304 Q954.549 589.966 954.549 594.665 Q954.549 599.364 956.47 602.049 Q958.414 604.711 961.794 604.711 Q965.174 604.711 967.095 602.049 Q969.039 599.364 969.039 594.665 Z" fill="#000000" fill-rule="nonzero" fill-opacity="1"></path><path clip-path="url(#clip050)" d="M981.123 601.725 L986.007 601.725 L986.007 607.604 L981.123 607.604 L981.123 601.725 Z" fill="#000000" fill-rule="nonzero" fill-opacity="1"></path><path clip-path="url(#clip050)" d="M1022.44 594.572 Q1017.28 594.572 1015.29 595.753 Q1013.3 596.933 1013.3 599.78 Q1013.3 602.049 1014.78 603.392 Q1016.28 604.711 1018.85 604.711 Q1022.4 604.711 1024.53 602.211 Q1026.68 599.688 1026.68 595.521 L1026.68 594.572 L1022.44 594.572 M1030.94 592.813 L1030.94 607.604 L1026.68 607.604 L1026.68 603.669 Q1025.22 606.03 1023.04 607.165 Q1020.87 608.276 1017.72 608.276 Q1013.74 608.276 1011.38 606.054 Q1009.04 603.808 1009.04 600.058 Q1009.04 595.683 1011.96 593.461 Q1014.9 591.239 1020.71 591.239 L1026.68 591.239 L1026.68 590.822 Q1026.68 587.882 1024.73 586.285 Q1022.81 584.665 1019.32 584.665 Q1017.09 584.665 1014.99 585.197 Q1012.88 585.73 1010.94 586.794 L1010.94 582.859 Q1013.28 581.956 1015.47 581.517 Q1017.67 581.054 1019.76 581.054 Q1025.38 581.054 1028.16 583.97 Q1030.94 586.887 1030.94 592.813 Z" fill="#000000" fill-rule="nonzero" fill-opacity="1"></path><path clip-path="url(#clip050)" d="M1052.84 571.586 L1052.84 575.128 L1048.76 575.128 Q1046.47 575.128 1045.57 576.054 Q1044.69 576.98 1044.69 579.387 L1044.69 581.679 L1051.7 581.679 L1051.7 584.989 L1044.69 584.989 L1044.69 607.604 L1040.4 607.604 L1040.4 584.989 L1036.33 584.989 L1036.33 581.679 L1040.4 581.679 L1040.4 579.873 Q1040.4 575.544 1042.42 573.577 Q1044.43 571.586 1048.81 571.586 L1052.84 571.586 Z" fill="#000000" fill-rule="nonzero" fill-opacity="1"></path><path clip-path="url(#clip050)" d="M1059.78 574.318 L1059.78 581.679 L1068.55 581.679 L1068.55 584.989 L1059.78 584.989 L1059.78 599.063 Q1059.78 602.234 1060.64 603.137 Q1061.52 604.04 1064.18 604.04 L1068.55 604.04 L1068.55 607.604 L1064.18 607.604 Q1059.25 607.604 1057.37 605.776 Q1055.5 603.924 1055.5 599.063 L1055.5 584.989 L1052.37 584.989 L1052.37 581.679 L1055.5 581.679 L1055.5 574.318 L1059.78 574.318 Z" fill="#000000" fill-rule="nonzero" fill-opacity="1"></path><path clip-path="url(#clip050)" d="M1096.33 593.577 L1096.33 595.66 L1076.75 595.66 Q1077.02 600.058 1079.39 602.373 Q1081.77 604.665 1086.01 604.665 Q1088.46 604.665 1090.75 604.063 Q1093.07 603.461 1095.33 602.257 L1095.33 606.285 Q1093.04 607.257 1090.64 607.767 Q1088.23 608.276 1085.75 608.276 Q1079.55 608.276 1075.91 604.665 Q1072.3 601.054 1072.3 594.896 Q1072.3 588.531 1075.73 584.804 Q1079.18 581.054 1085.01 581.054 Q1090.24 581.054 1093.27 584.433 Q1096.33 587.79 1096.33 593.577 M1092.07 592.327 Q1092.02 588.831 1090.1 586.748 Q1088.21 584.665 1085.06 584.665 Q1081.49 584.665 1079.34 586.679 Q1077.21 588.693 1076.89 592.35 L1092.07 592.327 Z" fill="#000000" fill-rule="nonzero" fill-opacity="1"></path><path clip-path="url(#clip050)" d="M1118.34 585.66 Q1117.63 585.244 1116.77 585.058 Q1115.94 584.85 1114.92 584.85 Q1111.31 584.85 1109.36 587.211 Q1107.44 589.549 1107.44 593.947 L1107.44 607.604 L1103.16 607.604 L1103.16 581.679 L1107.44 581.679 L1107.44 585.706 Q1108.78 583.345 1110.94 582.211 Q1113.09 581.054 1116.17 581.054 Q1116.61 581.054 1117.14 581.123 Q1117.67 581.169 1118.32 581.285 L1118.34 585.66 Z" fill="#000000" fill-rule="nonzero" fill-opacity="1"></path><path clip-path="url(#clip050)" d="M1142.09 574.318 L1142.09 581.679 L1150.87 581.679 L1150.87 584.989 L1142.09 584.989 L1142.09 599.063 Q1142.09 602.234 1142.95 603.137 Q1143.83 604.04 1146.49 604.04 L1150.87 604.04 L1150.87 607.604 L1146.49 607.604 Q1141.56 607.604 1139.69 605.776 Q1137.81 603.924 1137.81 599.063 L1137.81 584.989 L1134.69 584.989 L1134.69 581.679 L1137.81 581.679 L1137.81 574.318 L1142.09 574.318 Z" fill="#000000" fill-rule="nonzero" fill-opacity="1"></path><path clip-path="url(#clip050)" d="M1153.99 581.679 L1158.25 581.679 L1163.58 601.91 L1168.88 581.679 L1173.9 581.679 L1179.22 601.91 L1184.52 581.679 L1188.78 581.679 L1182 607.604 L1176.98 607.604 L1171.4 586.355 L1165.8 607.604 L1160.77 607.604 L1153.99 581.679 Z" fill="#000000" fill-rule="nonzero" fill-opacity="1"></path><path clip-path="url(#clip050)" d="M1205.29 584.665 Q1201.86 584.665 1199.87 587.35 Q1197.88 590.012 1197.88 594.665 Q1197.88 599.318 1199.85 602.003 Q1201.84 604.665 1205.29 604.665 Q1208.69 604.665 1210.68 601.98 Q1212.67 599.294 1212.67 594.665 Q1212.67 590.058 1210.68 587.373 Q1208.69 584.665 1205.29 584.665 M1205.29 581.054 Q1210.84 581.054 1214.01 584.665 Q1217.19 588.276 1217.19 594.665 Q1217.19 601.03 1214.01 604.665 Q1210.84 608.276 1205.29 608.276 Q1199.71 608.276 1196.54 604.665 Q1193.39 601.03 1193.39 594.665 Q1193.39 588.276 1196.54 584.665 Q1199.71 581.054 1205.29 581.054 Z" fill="#000000" fill-rule="nonzero" fill-opacity="1"></path><polyline clip-path="url(#clip050)" style="stroke:#ac8d18; stroke-linecap:round; stroke-linejoin:round; stroke-width:8; stroke-opacity:1; fill:none" points="543.932,642.164 630.95,642.164 "></polyline>
<path clip-path="url(#clip050)" d="M649.735 655.556 L649.735 669.306 L645.453 669.306 L645.453 633.519 L649.735 633.519 L649.735 637.454 Q651.078 635.139 653.115 634.028 Q655.175 632.894 658.022 632.894 Q662.745 632.894 665.684 636.644 Q668.647 640.394 668.647 646.505 Q668.647 652.616 665.684 656.366 Q662.745 660.116 658.022 660.116 Q655.175 660.116 653.115 659.005 Q651.078 657.87 649.735 655.556 M664.226 646.505 Q664.226 641.806 662.282 639.144 Q660.36 636.459 656.981 636.459 Q653.601 636.459 651.657 639.144 Q649.735 641.806 649.735 646.505 Q649.735 651.204 651.657 653.889 Q653.601 656.551 656.981 656.551 Q660.36 656.551 662.282 653.889 Q664.226 651.204 664.226 646.505 Z" fill="#000000" fill-rule="nonzero" fill-opacity="1"></path><path clip-path="url(#clip050)" d="M690.731 637.5 Q690.013 637.084 689.156 636.898 Q688.323 636.69 687.305 636.69 Q683.694 636.69 681.749 639.051 Q679.828 641.389 679.828 645.787 L679.828 659.444 L675.545 659.444 L675.545 633.519 L679.828 633.519 L679.828 637.546 Q681.17 635.185 683.323 634.051 Q685.476 632.894 688.555 632.894 Q688.994 632.894 689.527 632.963 Q690.059 633.009 690.707 633.125 L690.731 637.5 Z" fill="#000000" fill-rule="nonzero" fill-opacity="1"></path><path clip-path="url(#clip050)" d="M704.203 636.505 Q700.777 636.505 698.786 639.19 Q696.795 641.852 696.795 646.505 Q696.795 651.158 698.763 653.843 Q700.754 656.505 704.203 656.505 Q707.605 656.505 709.596 653.82 Q711.587 651.134 711.587 646.505 Q711.587 641.898 709.596 639.213 Q707.605 636.505 704.203 636.505 M704.203 632.894 Q709.758 632.894 712.93 636.505 Q716.101 640.116 716.101 646.505 Q716.101 652.87 712.93 656.505 Q709.758 660.116 704.203 660.116 Q698.624 660.116 695.453 656.505 Q692.305 652.87 692.305 646.505 Q692.305 640.116 695.453 636.505 Q698.624 632.894 704.203 632.894 Z" fill="#000000" fill-rule="nonzero" fill-opacity="1"></path><path clip-path="url(#clip050)" d="M741.772 646.505 Q741.772 641.806 739.828 639.144 Q737.906 636.459 734.527 636.459 Q731.147 636.459 729.203 639.144 Q727.281 641.806 727.281 646.505 Q727.281 651.204 729.203 653.889 Q731.147 656.551 734.527 656.551 Q737.906 656.551 739.828 653.889 Q741.772 651.204 741.772 646.505 M727.281 637.454 Q728.624 635.139 730.661 634.028 Q732.721 632.894 735.568 632.894 Q740.29 632.894 743.23 636.644 Q746.193 640.394 746.193 646.505 Q746.193 652.616 743.23 656.366 Q740.29 660.116 735.568 660.116 Q732.721 660.116 730.661 659.005 Q728.624 657.87 727.281 655.556 L727.281 659.444 L722.999 659.444 L722.999 623.426 L727.281 623.426 L727.281 637.454 Z" fill="#000000" fill-rule="nonzero" fill-opacity="1"></path><path clip-path="url(#clip050)" d="M753.855 653.565 L758.739 653.565 L758.739 659.444 L753.855 659.444 L753.855 653.565 Z" fill="#000000" fill-rule="nonzero" fill-opacity="1"></path><path clip-path="url(#clip050)" d="M803.577 638.496 Q805.174 635.625 807.397 634.259 Q809.619 632.894 812.628 632.894 Q816.679 632.894 818.878 635.741 Q821.077 638.565 821.077 643.796 L821.077 659.444 L816.795 659.444 L816.795 643.935 Q816.795 640.208 815.475 638.403 Q814.156 636.597 811.447 636.597 Q808.137 636.597 806.216 638.796 Q804.295 640.996 804.295 644.792 L804.295 659.444 L800.012 659.444 L800.012 643.935 Q800.012 640.185 798.693 638.403 Q797.373 636.597 794.619 636.597 Q791.355 636.597 789.434 638.82 Q787.512 641.019 787.512 644.792 L787.512 659.444 L783.23 659.444 L783.23 633.519 L787.512 633.519 L787.512 637.546 Q788.971 635.162 791.008 634.028 Q793.045 632.894 795.846 632.894 Q798.67 632.894 800.637 634.329 Q802.628 635.764 803.577 638.496 Z" fill="#000000" fill-rule="nonzero" fill-opacity="1"></path><path clip-path="url(#clip050)" d="M839.619 636.505 Q836.193 636.505 834.202 639.19 Q832.211 641.852 832.211 646.505 Q832.211 651.158 834.179 653.843 Q836.17 656.505 839.619 656.505 Q843.021 656.505 845.012 653.82 Q847.003 651.134 847.003 646.505 Q847.003 641.898 845.012 639.213 Q843.021 636.505 839.619 636.505 M839.619 632.894 Q845.174 632.894 848.345 636.505 Q851.517 640.116 851.517 646.505 Q851.517 652.87 848.345 656.505 Q845.174 660.116 839.619 660.116 Q834.04 660.116 830.869 656.505 Q827.721 652.87 827.721 646.505 Q827.721 640.116 830.869 636.505 Q834.04 632.894 839.619 632.894 Z" fill="#000000" fill-rule="nonzero" fill-opacity="1"></path><path clip-path="url(#clip050)" d="M873.6 637.5 Q872.882 637.084 872.026 636.898 Q871.193 636.69 870.174 636.69 Q866.563 636.69 864.619 639.051 Q862.697 641.389 862.697 645.787 L862.697 659.444 L858.415 659.444 L858.415 633.519 L862.697 633.519 L862.697 637.546 Q864.04 635.185 866.193 634.051 Q868.345 632.894 871.424 632.894 Q871.864 632.894 872.396 632.963 Q872.929 633.009 873.577 633.125 L873.6 637.5 Z" fill="#000000" fill-rule="nonzero" fill-opacity="1"></path><path clip-path="url(#clip050)" d="M899.202 645.417 L899.202 647.5 L879.618 647.5 Q879.896 651.898 882.257 654.213 Q884.642 656.505 888.878 656.505 Q891.331 656.505 893.623 655.903 Q895.938 655.301 898.206 654.097 L898.206 658.125 Q895.915 659.097 893.507 659.607 Q891.1 660.116 888.623 660.116 Q882.419 660.116 878.785 656.505 Q875.174 652.894 875.174 646.736 Q875.174 640.371 878.6 636.644 Q882.049 632.894 887.882 632.894 Q893.114 632.894 896.146 636.273 Q899.202 639.63 899.202 645.417 M894.942 644.167 Q894.896 640.671 892.975 638.588 Q891.077 636.505 887.929 636.505 Q884.364 636.505 882.211 638.519 Q880.081 640.533 879.757 644.19 L894.942 644.167 Z" fill="#000000" fill-rule="nonzero" fill-opacity="1"></path><path clip-path="url(#clip050)" d="M943.438 645.417 L943.438 647.5 L923.854 647.5 Q924.132 651.898 926.493 654.213 Q928.877 656.505 933.114 656.505 Q935.567 656.505 937.859 655.903 Q940.174 655.301 942.442 654.097 L942.442 658.125 Q940.151 659.097 937.743 659.607 Q935.336 660.116 932.859 660.116 Q926.655 660.116 923.021 656.505 Q919.41 652.894 919.41 646.736 Q919.41 640.371 922.836 636.644 Q926.285 632.894 932.118 632.894 Q937.35 632.894 940.382 636.273 Q943.438 639.63 943.438 645.417 M939.178 644.167 Q939.132 640.671 937.211 638.588 Q935.313 636.505 932.164 636.505 Q928.6 636.505 926.447 638.519 Q924.317 640.533 923.993 644.19 L939.178 644.167 Z" fill="#000000" fill-rule="nonzero" fill-opacity="1"></path><path clip-path="url(#clip050)" d="M954.549 655.556 L954.549 669.306 L950.266 669.306 L950.266 633.519 L954.549 633.519 L954.549 637.454 Q955.891 635.139 957.928 634.028 Q959.988 632.894 962.836 632.894 Q967.558 632.894 970.498 636.644 Q973.461 640.394 973.461 646.505 Q973.461 652.616 970.498 656.366 Q967.558 660.116 962.836 660.116 Q959.988 660.116 957.928 659.005 Q955.891 657.87 954.549 655.556 M969.039 646.505 Q969.039 641.806 967.095 639.144 Q965.174 636.459 961.794 636.459 Q958.414 636.459 956.47 639.144 Q954.549 641.806 954.549 646.505 Q954.549 651.204 956.47 653.889 Q958.414 656.551 961.794 656.551 Q965.174 656.551 967.095 653.889 Q969.039 651.204 969.039 646.505 Z" fill="#000000" fill-rule="nonzero" fill-opacity="1"></path><path clip-path="url(#clip050)" d="M981.123 653.565 L986.007 653.565 L986.007 659.444 L981.123 659.444 L981.123 653.565 Z" fill="#000000" fill-rule="nonzero" fill-opacity="1"></path><path clip-path="url(#clip050)" d="M1022.44 646.412 Q1017.28 646.412 1015.29 647.593 Q1013.3 648.773 1013.3 651.62 Q1013.3 653.889 1014.78 655.232 Q1016.28 656.551 1018.85 656.551 Q1022.4 656.551 1024.53 654.051 Q1026.68 651.528 1026.68 647.361 L1026.68 646.412 L1022.44 646.412 M1030.94 644.653 L1030.94 659.444 L1026.68 659.444 L1026.68 655.509 Q1025.22 657.87 1023.04 659.005 Q1020.87 660.116 1017.72 660.116 Q1013.74 660.116 1011.38 657.894 Q1009.04 655.648 1009.04 651.898 Q1009.04 647.523 1011.96 645.301 Q1014.9 643.079 1020.71 643.079 L1026.68 643.079 L1026.68 642.662 Q1026.68 639.722 1024.73 638.125 Q1022.81 636.505 1019.32 636.505 Q1017.09 636.505 1014.99 637.037 Q1012.88 637.57 1010.94 638.634 L1010.94 634.699 Q1013.28 633.796 1015.47 633.357 Q1017.67 632.894 1019.76 632.894 Q1025.38 632.894 1028.16 635.81 Q1030.94 638.727 1030.94 644.653 Z" fill="#000000" fill-rule="nonzero" fill-opacity="1"></path><path clip-path="url(#clip050)" d="M1052.84 623.426 L1052.84 626.968 L1048.76 626.968 Q1046.47 626.968 1045.57 627.894 Q1044.69 628.82 1044.69 631.227 L1044.69 633.519 L1051.7 633.519 L1051.7 636.829 L1044.69 636.829 L1044.69 659.444 L1040.4 659.444 L1040.4 636.829 L1036.33 636.829 L1036.33 633.519 L1040.4 633.519 L1040.4 631.713 Q1040.4 627.384 1042.42 625.417 Q1044.43 623.426 1048.81 623.426 L1052.84 623.426 Z" fill="#000000" fill-rule="nonzero" fill-opacity="1"></path><path clip-path="url(#clip050)" d="M1059.78 626.158 L1059.78 633.519 L1068.55 633.519 L1068.55 636.829 L1059.78 636.829 L1059.78 650.903 Q1059.78 654.074 1060.64 654.977 Q1061.52 655.88 1064.18 655.88 L1068.55 655.88 L1068.55 659.444 L1064.18 659.444 Q1059.25 659.444 1057.37 657.616 Q1055.5 655.764 1055.5 650.903 L1055.5 636.829 L1052.37 636.829 L1052.37 633.519 L1055.5 633.519 L1055.5 626.158 L1059.78 626.158 Z" fill="#000000" fill-rule="nonzero" fill-opacity="1"></path><path clip-path="url(#clip050)" d="M1096.33 645.417 L1096.33 647.5 L1076.75 647.5 Q1077.02 651.898 1079.39 654.213 Q1081.77 656.505 1086.01 656.505 Q1088.46 656.505 1090.75 655.903 Q1093.07 655.301 1095.33 654.097 L1095.33 658.125 Q1093.04 659.097 1090.64 659.607 Q1088.23 660.116 1085.75 660.116 Q1079.55 660.116 1075.91 656.505 Q1072.3 652.894 1072.3 646.736 Q1072.3 640.371 1075.73 636.644 Q1079.18 632.894 1085.01 632.894 Q1090.24 632.894 1093.27 636.273 Q1096.33 639.63 1096.33 645.417 M1092.07 644.167 Q1092.02 640.671 1090.1 638.588 Q1088.21 636.505 1085.06 636.505 Q1081.49 636.505 1079.34 638.519 Q1077.21 640.533 1076.89 644.19 L1092.07 644.167 Z" fill="#000000" fill-rule="nonzero" fill-opacity="1"></path><path clip-path="url(#clip050)" d="M1118.34 637.5 Q1117.63 637.084 1116.77 636.898 Q1115.94 636.69 1114.92 636.69 Q1111.31 636.69 1109.36 639.051 Q1107.44 641.389 1107.44 645.787 L1107.44 659.444 L1103.16 659.444 L1103.16 633.519 L1107.44 633.519 L1107.44 637.546 Q1108.78 635.185 1110.94 634.051 Q1113.09 632.894 1116.17 632.894 Q1116.61 632.894 1117.14 632.963 Q1117.67 633.009 1118.32 633.125 L1118.34 637.5 Z" fill="#000000" fill-rule="nonzero" fill-opacity="1"></path><path clip-path="url(#clip050)" d="M1142.09 626.158 L1142.09 633.519 L1150.87 633.519 L1150.87 636.829 L1142.09 636.829 L1142.09 650.903 Q1142.09 654.074 1142.95 654.977 Q1143.83 655.88 1146.49 655.88 L1150.87 655.88 L1150.87 659.444 L1146.49 659.444 Q1141.56 659.444 1139.69 657.616 Q1137.81 655.764 1137.81 650.903 L1137.81 636.829 L1134.69 636.829 L1134.69 633.519 L1137.81 633.519 L1137.81 626.158 L1142.09 626.158 Z" fill="#000000" fill-rule="nonzero" fill-opacity="1"></path><path clip-path="url(#clip050)" d="M1178.02 643.796 L1178.02 659.444 L1173.76 659.444 L1173.76 643.935 Q1173.76 640.255 1172.33 638.426 Q1170.89 636.597 1168.02 636.597 Q1164.57 636.597 1162.58 638.796 Q1160.59 640.996 1160.59 644.792 L1160.59 659.444 L1156.31 659.444 L1156.31 623.426 L1160.59 623.426 L1160.59 637.546 Q1162.12 635.209 1164.18 634.051 Q1166.26 632.894 1168.97 632.894 Q1173.44 632.894 1175.73 635.671 Q1178.02 638.426 1178.02 643.796 Z" fill="#000000" fill-rule="nonzero" fill-opacity="1"></path><path clip-path="url(#clip050)" d="M1201.54 637.5 Q1200.82 637.084 1199.96 636.898 Q1199.13 636.69 1198.11 636.69 Q1194.5 636.69 1192.56 639.051 Q1190.64 641.389 1190.64 645.787 L1190.64 659.444 L1186.35 659.444 L1186.35 633.519 L1190.64 633.519 L1190.64 637.546 Q1191.98 635.185 1194.13 634.051 Q1196.28 632.894 1199.36 632.894 Q1199.8 632.894 1200.33 632.963 Q1200.87 633.009 1201.51 633.125 L1201.54 637.5 Z" fill="#000000" fill-rule="nonzero" fill-opacity="1"></path><path clip-path="url(#clip050)" d="M1227.14 645.417 L1227.14 647.5 L1207.56 647.5 Q1207.83 651.898 1210.2 654.213 Q1212.58 656.505 1216.82 656.505 Q1219.27 656.505 1221.56 655.903 Q1223.88 655.301 1226.14 654.097 L1226.14 658.125 Q1223.85 659.097 1221.45 659.607 Q1219.04 660.116 1216.56 660.116 Q1210.36 660.116 1206.72 656.505 Q1203.11 652.894 1203.11 646.736 Q1203.11 640.371 1206.54 636.644 Q1209.99 632.894 1215.82 632.894 Q1221.05 632.894 1224.08 636.273 Q1227.14 639.63 1227.14 645.417 M1222.88 644.167 Q1222.83 640.671 1220.91 638.588 Q1219.01 636.505 1215.87 636.505 Q1212.3 636.505 1210.15 638.519 Q1208.02 640.533 1207.7 644.19 L1222.88 644.167 Z" fill="#000000" fill-rule="nonzero" fill-opacity="1"></path><path clip-path="url(#clip050)" d="M1256.31 645.417 L1256.31 647.5 L1236.72 647.5 Q1237 651.898 1239.36 654.213 Q1241.75 656.505 1245.98 656.505 Q1248.44 656.505 1250.73 655.903 Q1253.04 655.301 1255.31 654.097 L1255.31 658.125 Q1253.02 659.097 1250.61 659.607 Q1248.2 660.116 1245.73 660.116 Q1239.52 660.116 1235.89 656.505 Q1232.28 652.894 1232.28 646.736 Q1232.28 640.371 1235.7 636.644 Q1239.15 632.894 1244.99 632.894 Q1250.22 632.894 1253.25 636.273 Q1256.31 639.63 1256.31 645.417 M1252.05 644.167 Q1252 640.671 1250.08 638.588 Q1248.18 636.505 1245.03 636.505 Q1241.47 636.505 1239.32 638.519 Q1237.19 640.533 1236.86 644.19 L1252.05 644.167 Z" fill="#000000" fill-rule="nonzero" fill-opacity="1"></path></svg>