<svg xmlns="http://www.w3.org/2000/svg" xmlns:xlink="http://www.w3.org/1999/xlink" width="600" height="400" viewBox="0 0 2400 1600">
<defs>
  <clipPath id="clip450">
    <rect x="0" y="0" width="2400" height="1600"></rect>
  </clipPath>
</defs>
<path clip-path="url(#clip450)" d="M0 1600 L2400 1600 L2400 0 L0 0  Z" fill="#ffffff" fill-rule="evenodd" fill-opacity="1"></path>
<defs>
  <clipPath id="clip451">
    <rect x="480" y="0" width="1681" height="1600"></rect>
  </clipPath>
</defs>
<path clip-path="url(#clip450)" d="M156.598 1486.45 L2352.76 1486.45 L2352.76 47.2441 L156.598 47.2441  Z" fill="#ffffff" fill-rule="evenodd" fill-opacity="1"></path>
<defs>
  <clipPath id="clip452">
    <rect x="156" y="47" width="2197" height="1440"></rect>
  </clipPath>
</defs>
<polyline clip-path="url(#clip452)" style="stroke:#000000; stroke-linecap:round; stroke-linejoin:round; stroke-width:2; stroke-opacity:0.1; fill:none" points="156.598,1486.45 156.598,47.2441 "></polyline>
<polyline clip-path="url(#clip452)" style="stroke:#000000; stroke-linecap:round; stroke-linejoin:round; stroke-width:2; stroke-opacity:0.1; fill:none" points="595.83,1486.45 595.83,47.2441 "></polyline>
<polyline clip-path="url(#clip452)" style="stroke:#000000; stroke-linecap:round; stroke-linejoin:round; stroke-width:2; stroke-opacity:0.1; fill:none" points="1035.06,1486.45 1035.06,47.2441 "></polyline>
<polyline clip-path="url(#clip452)" style="stroke:#000000; stroke-linecap:round; stroke-linejoin:round; stroke-width:2; stroke-opacity:0.1; fill:none" points="1474.29,1486.45 1474.29,47.2441 "></polyline>
<polyline clip-path="url(#clip452)" style="stroke:#000000; stroke-linecap:round; stroke-linejoin:round; stroke-width:2; stroke-opacity:0.1; fill:none" points="1913.52,1486.45 1913.52,47.2441 "></polyline>
<polyline clip-path="url(#clip452)" style="stroke:#000000; stroke-linecap:round; stroke-linejoin:round; stroke-width:2; stroke-opacity:0.1; fill:none" points="2352.76,1486.45 2352.76,47.2441 "></polyline>
<polyline clip-path="url(#clip450)" style="stroke:#000000; stroke-linecap:round; stroke-linejoin:round; stroke-width:4; stroke-opacity:1; fill:none" points="156.598,1486.45 2352.76,1486.45 "></polyline>
<polyline clip-path="url(#clip450)" style="stroke:#000000; stroke-linecap:round; stroke-linejoin:round; stroke-width:4; stroke-opacity:1; fill:none" points="156.598,1486.45 156.598,1467.55 "></polyline>
<polyline clip-path="url(#clip450)" style="stroke:#000000; stroke-linecap:round; stroke-linejoin:round; stroke-width:4; stroke-opacity:1; fill:none" points="595.83,1486.45 595.83,1467.55 "></polyline>
<polyline clip-path="url(#clip450)" style="stroke:#000000; stroke-linecap:round; stroke-linejoin:round; stroke-width:4; stroke-opacity:1; fill:none" points="1035.06,1486.45 1035.06,1467.55 "></polyline>
<polyline clip-path="url(#clip450)" style="stroke:#000000; stroke-linecap:round; stroke-linejoin:round; stroke-width:4; stroke-opacity:1; fill:none" points="1474.29,1486.45 1474.29,1467.55 "></polyline>
<polyline clip-path="url(#clip450)" style="stroke:#000000; stroke-linecap:round; stroke-linejoin:round; stroke-width:4; stroke-opacity:1; fill:none" points="1913.52,1486.45 1913.52,1467.55 "></polyline>
<polyline clip-path="url(#clip450)" style="stroke:#000000; stroke-linecap:round; stroke-linejoin:round; stroke-width:4; stroke-opacity:1; fill:none" points="2352.76,1486.45 2352.76,1467.55 "></polyline>
<path clip-path="url(#clip450)" d="M156.598 1517.37 Q152.987 1517.37 151.158 1520.93 Q149.353 1524.47 149.353 1531.6 Q149.353 1538.71 151.158 1542.27 Q152.987 1545.82 156.598 1545.82 Q160.232 1545.82 162.038 1542.27 Q163.867 1538.71 163.867 1531.6 Q163.867 1524.47 162.038 1520.93 Q160.232 1517.37 156.598 1517.37 M156.598 1513.66 Q162.408 1513.66 165.464 1518.27 Q168.543 1522.85 168.543 1531.6 Q168.543 1540.33 165.464 1544.94 Q162.408 1549.52 156.598 1549.52 Q150.788 1549.52 147.709 1544.94 Q144.654 1540.33 144.654 1531.6 Q144.654 1522.85 147.709 1518.27 Q150.788 1513.66 156.598 1513.66 Z" fill="#000000" fill-rule="nonzero" fill-opacity="1"></path><path clip-path="url(#clip450)" d="M590.483 1544.91 L606.802 1544.91 L606.802 1548.85 L584.858 1548.85 L584.858 1544.91 Q587.52 1542.16 592.103 1537.53 Q596.709 1532.88 597.89 1531.53 Q600.135 1529.01 601.015 1527.27 Q601.918 1525.51 601.918 1523.82 Q601.918 1521.07 599.973 1519.33 Q598.052 1517.6 594.95 1517.6 Q592.751 1517.6 590.297 1518.36 Q587.867 1519.13 585.089 1520.68 L585.089 1515.95 Q587.913 1514.82 590.367 1514.24 Q592.821 1513.66 594.858 1513.66 Q600.228 1513.66 603.422 1516.35 Q606.617 1519.03 606.617 1523.52 Q606.617 1525.65 605.807 1527.57 Q605.02 1529.47 602.913 1532.07 Q602.334 1532.74 599.233 1535.95 Q596.131 1539.15 590.483 1544.91 Z" fill="#000000" fill-rule="nonzero" fill-opacity="1"></path><path clip-path="url(#clip450)" d="M1038.07 1518.36 L1026.27 1536.81 L1038.07 1536.81 L1038.07 1518.36 M1036.84 1514.29 L1042.72 1514.29 L1042.72 1536.81 L1047.65 1536.81 L1047.65 1540.7 L1042.72 1540.7 L1042.72 1548.85 L1038.07 1548.85 L1038.07 1540.7 L1022.47 1540.7 L1022.47 1536.19 L1036.84 1514.29 Z" fill="#000000" fill-rule="nonzero" fill-opacity="1"></path><path clip-path="url(#clip450)" d="M1474.7 1529.7 Q1471.55 1529.7 1469.7 1531.86 Q1467.87 1534.01 1467.87 1537.76 Q1467.87 1541.49 1469.7 1543.66 Q1471.55 1545.82 1474.7 1545.82 Q1477.85 1545.82 1479.67 1543.66 Q1481.53 1541.49 1481.53 1537.76 Q1481.53 1534.01 1479.67 1531.86 Q1477.85 1529.7 1474.7 1529.7 M1483.98 1515.05 L1483.98 1519.31 Q1482.22 1518.48 1480.42 1518.04 Q1478.63 1517.6 1476.87 1517.6 Q1472.24 1517.6 1469.79 1520.72 Q1467.36 1523.85 1467.01 1530.17 Q1468.38 1528.15 1470.44 1527.09 Q1472.5 1526 1474.98 1526 Q1480.18 1526 1483.19 1529.17 Q1486.23 1532.32 1486.23 1537.76 Q1486.23 1543.08 1483.08 1546.3 Q1479.93 1549.52 1474.7 1549.52 Q1468.7 1549.52 1465.53 1544.94 Q1462.36 1540.33 1462.36 1531.6 Q1462.36 1523.41 1466.25 1518.55 Q1470.14 1513.66 1476.69 1513.66 Q1478.45 1513.66 1480.23 1514.01 Q1482.04 1514.36 1483.98 1515.05 Z" fill="#000000" fill-rule="nonzero" fill-opacity="1"></path><path clip-path="url(#clip450)" d="M1913.52 1532.44 Q1910.19 1532.44 1908.27 1534.22 Q1906.37 1536 1906.37 1539.13 Q1906.37 1542.25 1908.27 1544.03 Q1910.19 1545.82 1913.52 1545.82 Q1916.86 1545.82 1918.78 1544.03 Q1920.7 1542.23 1920.7 1539.13 Q1920.7 1536 1918.78 1534.22 Q1916.88 1532.44 1913.52 1532.44 M1908.85 1530.45 Q1905.84 1529.7 1904.15 1527.64 Q1902.48 1525.58 1902.48 1522.62 Q1902.48 1518.48 1905.42 1516.07 Q1908.39 1513.66 1913.52 1513.66 Q1918.69 1513.66 1921.63 1516.07 Q1924.57 1518.48 1924.57 1522.62 Q1924.57 1525.58 1922.88 1527.64 Q1921.21 1529.7 1918.22 1530.45 Q1921.6 1531.23 1923.48 1533.52 Q1925.38 1535.82 1925.38 1539.13 Q1925.38 1544.15 1922.3 1546.83 Q1919.24 1549.52 1913.52 1549.52 Q1907.81 1549.52 1904.73 1546.83 Q1901.67 1544.15 1901.67 1539.13 Q1901.67 1535.82 1903.57 1533.52 Q1905.47 1531.23 1908.85 1530.45 M1907.14 1523.06 Q1907.14 1525.75 1908.8 1527.25 Q1910.49 1528.76 1913.52 1528.76 Q1916.53 1528.76 1918.22 1527.25 Q1919.94 1525.75 1919.94 1523.06 Q1919.94 1520.38 1918.22 1518.87 Q1916.53 1517.37 1913.52 1517.37 Q1910.49 1517.37 1908.8 1518.87 Q1907.14 1520.38 1907.14 1523.06 Z" fill="#000000" fill-rule="nonzero" fill-opacity="1"></path><path clip-path="url(#clip450)" d="M2327.44 1544.91 L2335.08 1544.91 L2335.08 1518.55 L2326.77 1520.21 L2326.77 1515.95 L2335.04 1514.29 L2339.71 1514.29 L2339.71 1544.91 L2347.35 1544.91 L2347.35 1548.85 L2327.44 1548.85 L2327.44 1544.91 Z" fill="#000000" fill-rule="nonzero" fill-opacity="1"></path><path clip-path="url(#clip450)" d="M2366.8 1517.37 Q2363.18 1517.37 2361.36 1520.93 Q2359.55 1524.47 2359.55 1531.6 Q2359.55 1538.71 2361.36 1542.27 Q2363.18 1545.82 2366.8 1545.82 Q2370.43 1545.82 2372.23 1542.27 Q2374.06 1538.71 2374.06 1531.6 Q2374.06 1524.47 2372.23 1520.93 Q2370.43 1517.37 2366.8 1517.37 M2366.8 1513.66 Q2372.61 1513.66 2375.66 1518.27 Q2378.74 1522.85 2378.74 1531.6 Q2378.74 1540.33 2375.66 1544.94 Q2372.61 1549.52 2366.8 1549.52 Q2360.99 1549.52 2357.91 1544.94 Q2354.85 1540.33 2354.85 1531.6 Q2354.85 1522.85 2357.91 1518.27 Q2360.99 1513.66 2366.8 1513.66 Z" fill="#000000" fill-rule="nonzero" fill-opacity="1"></path><polyline clip-path="url(#clip452)" style="stroke:#000000; stroke-linecap:round; stroke-linejoin:round; stroke-width:2; stroke-opacity:0.1; fill:none" points="156.598,1486.45 2352.76,1486.45 "></polyline>
<polyline clip-path="url(#clip452)" style="stroke:#000000; stroke-linecap:round; stroke-linejoin:round; stroke-width:2; stroke-opacity:0.1; fill:none" points="156.598,1245.17 2352.76,1245.17 "></polyline>
<polyline clip-path="url(#clip452)" style="stroke:#000000; stroke-linecap:round; stroke-linejoin:round; stroke-width:2; stroke-opacity:0.1; fill:none" points="156.598,1003.89 2352.76,1003.89 "></polyline>
<polyline clip-path="url(#clip452)" style="stroke:#000000; stroke-linecap:round; stroke-linejoin:round; stroke-width:2; stroke-opacity:0.1; fill:none" points="156.598,762.613 2352.76,762.613 "></polyline>
<polyline clip-path="url(#clip452)" style="stroke:#000000; stroke-linecap:round; stroke-linejoin:round; stroke-width:2; stroke-opacity:0.1; fill:none" points="156.598,521.335 2352.76,521.335 "></polyline>
<polyline clip-path="url(#clip452)" style="stroke:#000000; stroke-linecap:round; stroke-linejoin:round; stroke-width:2; stroke-opacity:0.1; fill:none" points="156.598,280.056 2352.76,280.056 "></polyline>
<polyline clip-path="url(#clip450)" style="stroke:#000000; stroke-linecap:round; stroke-linejoin:round; stroke-width:4; stroke-opacity:1; fill:none" points="156.598,1486.45 156.598,47.2441 "></polyline>
<polyline clip-path="url(#clip450)" style="stroke:#000000; stroke-linecap:round; stroke-linejoin:round; stroke-width:4; stroke-opacity:1; fill:none" points="156.598,1486.45 175.496,1486.45 "></polyline>
<polyline clip-path="url(#clip450)" style="stroke:#000000; stroke-linecap:round; stroke-linejoin:round; stroke-width:4; stroke-opacity:1; fill:none" points="156.598,1245.17 175.496,1245.17 "></polyline>
<polyline clip-path="url(#clip450)" style="stroke:#000000; stroke-linecap:round; stroke-linejoin:round; stroke-width:4; stroke-opacity:1; fill:none" points="156.598,1003.89 175.496,1003.89 "></polyline>
<polyline clip-path="url(#clip450)" style="stroke:#000000; stroke-linecap:round; stroke-linejoin:round; stroke-width:4; stroke-opacity:1; fill:none" points="156.598,762.613 175.496,762.613 "></polyline>
<polyline clip-path="url(#clip450)" style="stroke:#000000; stroke-linecap:round; stroke-linejoin:round; stroke-width:4; stroke-opacity:1; fill:none" points="156.598,521.335 175.496,521.335 "></polyline>
<polyline clip-path="url(#clip450)" style="stroke:#000000; stroke-linecap:round; stroke-linejoin:round; stroke-width:4; stroke-opacity:1; fill:none" points="156.598,280.056 175.496,280.056 "></polyline>
<path clip-path="url(#clip450)" d="M63.4226 1472.25 Q59.8115 1472.25 57.9828 1475.81 Q56.1773 1479.35 56.1773 1486.48 Q56.1773 1493.59 57.9828 1497.15 Q59.8115 1500.7 63.4226 1500.7 Q67.0569 1500.7 68.8624 1497.15 Q70.6911 1493.59 70.6911 1486.48 Q70.6911 1479.35 68.8624 1475.81 Q67.0569 1472.25 63.4226 1472.25 M63.4226 1468.54 Q69.2328 1468.54 72.2883 1473.15 Q75.367 1477.73 75.367 1486.48 Q75.367 1495.21 72.2883 1499.82 Q69.2328 1504.4 63.4226 1504.4 Q57.6125 1504.4 54.5338 1499.82 Q51.4782 1495.21 51.4782 1486.48 Q51.4782 1477.73 54.5338 1473.15 Q57.6125 1468.54 63.4226 1468.54 Z" fill="#000000" fill-rule="nonzero" fill-opacity="1"></path><path clip-path="url(#clip450)" d="M83.5845 1497.85 L88.4688 1497.85 L88.4688 1503.73 L83.5845 1503.73 L83.5845 1497.85 Z" fill="#000000" fill-rule="nonzero" fill-opacity="1"></path><path clip-path="url(#clip450)" d="M108.654 1472.25 Q105.043 1472.25 103.214 1475.81 Q101.409 1479.35 101.409 1486.48 Q101.409 1493.59 103.214 1497.15 Q105.043 1500.7 108.654 1500.7 Q112.288 1500.7 114.094 1497.15 Q115.922 1493.59 115.922 1486.48 Q115.922 1479.35 114.094 1475.81 Q112.288 1472.25 108.654 1472.25 M108.654 1468.54 Q114.464 1468.54 117.52 1473.15 Q120.598 1477.73 120.598 1486.48 Q120.598 1495.21 117.52 1499.82 Q114.464 1504.4 108.654 1504.4 Q102.844 1504.4 99.765 1499.82 Q96.7095 1495.21 96.7095 1486.48 Q96.7095 1477.73 99.765 1473.15 Q102.844 1468.54 108.654 1468.54 Z" fill="#000000" fill-rule="nonzero" fill-opacity="1"></path><path clip-path="url(#clip450)" d="M64.6495 1230.97 Q61.0384 1230.97 59.2097 1234.53 Q57.4041 1238.07 57.4041 1245.2 Q57.4041 1252.31 59.2097 1255.88 Q61.0384 1259.42 64.6495 1259.42 Q68.2837 1259.42 70.0892 1255.88 Q71.9179 1252.31 71.9179 1245.2 Q71.9179 1238.07 70.0892 1234.53 Q68.2837 1230.97 64.6495 1230.97 M64.6495 1227.26 Q70.4596 1227.26 73.5152 1231.87 Q76.5938 1236.45 76.5938 1245.2 Q76.5938 1253.93 73.5152 1258.54 Q70.4596 1263.12 64.6495 1263.12 Q58.8393 1263.12 55.7606 1258.54 Q52.7051 1253.93 52.7051 1245.2 Q52.7051 1236.45 55.7606 1231.87 Q58.8393 1227.26 64.6495 1227.26 Z" fill="#000000" fill-rule="nonzero" fill-opacity="1"></path><path clip-path="url(#clip450)" d="M84.8114 1256.57 L89.6956 1256.57 L89.6956 1262.45 L84.8114 1262.45 L84.8114 1256.57 Z" fill="#000000" fill-rule="nonzero" fill-opacity="1"></path><path clip-path="url(#clip450)" d="M100.691 1258.51 L108.33 1258.51 L108.33 1232.15 L100.02 1233.82 L100.02 1229.56 L108.283 1227.89 L112.959 1227.89 L112.959 1258.51 L120.598 1258.51 L120.598 1262.45 L100.691 1262.45 L100.691 1258.51 Z" fill="#000000" fill-rule="nonzero" fill-opacity="1"></path><path clip-path="url(#clip450)" d="M65.0198 989.69 Q61.4087 989.69 59.58 993.255 Q57.7745 996.796 57.7745 1003.93 Q57.7745 1011.03 59.58 1014.6 Q61.4087 1018.14 65.0198 1018.14 Q68.6541 1018.14 70.4596 1014.6 Q72.2883 1011.03 72.2883 1003.93 Q72.2883 996.796 70.4596 993.255 Q68.6541 989.69 65.0198 989.69 M65.0198 985.986 Q70.83 985.986 73.8855 990.593 Q76.9642 995.176 76.9642 1003.93 Q76.9642 1012.65 73.8855 1017.26 Q70.83 1021.84 65.0198 1021.84 Q59.2097 1021.84 56.131 1017.26 Q53.0754 1012.65 53.0754 1003.93 Q53.0754 995.176 56.131 990.593 Q59.2097 985.986 65.0198 985.986 Z" fill="#000000" fill-rule="nonzero" fill-opacity="1"></path><path clip-path="url(#clip450)" d="M85.1818 1015.29 L90.066 1015.29 L90.066 1021.17 L85.1818 1021.17 L85.1818 1015.29 Z" fill="#000000" fill-rule="nonzero" fill-opacity="1"></path><path clip-path="url(#clip450)" d="M104.279 1017.24 L120.598 1017.24 L120.598 1021.17 L98.6539 1021.17 L98.6539 1017.24 Q101.316 1014.48 105.899 1009.85 Q110.506 1005.2 111.686 1003.86 Q113.932 1001.33 114.811 999.597 Q115.714 997.838 115.714 996.148 Q115.714 993.394 113.77 991.658 Q111.848 989.921 108.746 989.921 Q106.547 989.921 104.094 990.685 Q101.663 991.449 98.8854 993 L98.8854 988.278 Q101.709 987.144 104.163 986.565 Q106.617 985.986 108.654 985.986 Q114.024 985.986 117.219 988.671 Q120.413 991.357 120.413 995.847 Q120.413 997.977 119.603 999.898 Q118.816 1001.8 116.709 1004.39 Q116.131 1005.06 113.029 1008.28 Q109.927 1011.47 104.279 1017.24 Z" fill="#000000" fill-rule="nonzero" fill-opacity="1"></path><path clip-path="url(#clip450)" d="M64.0708 748.412 Q60.4597 748.412 58.631 751.977 Q56.8254 755.518 56.8254 762.648 Q56.8254 769.754 58.631 773.319 Q60.4597 776.861 64.0708 776.861 Q67.705 776.861 69.5105 773.319 Q71.3392 769.754 71.3392 762.648 Q71.3392 755.518 69.5105 751.977 Q67.705 748.412 64.0708 748.412 M64.0708 744.708 Q69.8809 744.708 72.9365 749.314 Q76.0151 753.898 76.0151 762.648 Q76.0151 771.375 72.9365 775.981 Q69.8809 780.564 64.0708 780.564 Q58.2606 780.564 55.1819 775.981 Q52.1264 771.375 52.1264 762.648 Q52.1264 753.898 55.1819 749.314 Q58.2606 744.708 64.0708 744.708 Z" fill="#000000" fill-rule="nonzero" fill-opacity="1"></path><path clip-path="url(#clip450)" d="M84.2327 774.013 L89.1169 774.013 L89.1169 779.893 L84.2327 779.893 L84.2327 774.013 Z" fill="#000000" fill-rule="nonzero" fill-opacity="1"></path><path clip-path="url(#clip450)" d="M113.469 761.259 Q116.825 761.976 118.7 764.245 Q120.598 766.513 120.598 769.847 Q120.598 774.963 117.08 777.763 Q113.561 780.564 107.08 780.564 Q104.904 780.564 102.589 780.125 Q100.297 779.708 97.8437 778.851 L97.8437 774.338 Q99.7882 775.472 102.103 776.05 Q104.418 776.629 106.941 776.629 Q111.339 776.629 113.631 774.893 Q115.945 773.157 115.945 769.847 Q115.945 766.791 113.793 765.078 Q111.663 763.342 107.844 763.342 L103.816 763.342 L103.816 759.5 L108.029 759.5 Q111.478 759.5 113.307 758.134 Q115.135 756.745 115.135 754.152 Q115.135 751.49 113.237 750.078 Q111.362 748.643 107.844 748.643 Q105.922 748.643 103.723 749.06 Q101.524 749.477 98.8854 750.356 L98.8854 746.19 Q101.547 745.449 103.862 745.078 Q106.2 744.708 108.26 744.708 Q113.584 744.708 116.686 747.139 Q119.788 749.546 119.788 753.666 Q119.788 756.537 118.145 758.527 Q116.501 760.495 113.469 761.259 Z" fill="#000000" fill-rule="nonzero" fill-opacity="1"></path><path clip-path="url(#clip450)" d="M62.9365 507.133 Q59.3254 507.133 57.4967 510.698 Q55.6912 514.24 55.6912 521.369 Q55.6912 528.476 57.4967 532.041 Q59.3254 535.582 62.9365 535.582 Q66.5707 535.582 68.3763 532.041 Q70.205 528.476 70.205 521.369 Q70.205 514.24 68.3763 510.698 Q66.5707 507.133 62.9365 507.133 M62.9365 503.43 Q68.7467 503.43 71.8022 508.036 Q74.8809 512.62 74.8809 521.369 Q74.8809 530.096 71.8022 534.703 Q68.7467 539.286 62.9365 539.286 Q57.1264 539.286 54.0477 534.703 Q50.9921 530.096 50.9921 521.369 Q50.9921 512.62 54.0477 508.036 Q57.1264 503.43 62.9365 503.43 Z" fill="#000000" fill-rule="nonzero" fill-opacity="1"></path><path clip-path="url(#clip450)" d="M83.0984 532.735 L87.9827 532.735 L87.9827 538.615 L83.0984 538.615 L83.0984 532.735 Z" fill="#000000" fill-rule="nonzero" fill-opacity="1"></path><path clip-path="url(#clip450)" d="M111.015 508.129 L99.2095 526.578 L111.015 526.578 L111.015 508.129 M109.788 504.055 L115.668 504.055 L115.668 526.578 L120.598 526.578 L120.598 530.467 L115.668 530.467 L115.668 538.615 L111.015 538.615 L111.015 530.467 L95.4132 530.467 L95.4132 525.953 L109.788 504.055 Z" fill="#000000" fill-rule="nonzero" fill-opacity="1"></path><path clip-path="url(#clip450)" d="M64.418 265.855 Q60.8069 265.855 58.9782 269.42 Q57.1726 272.962 57.1726 280.091 Q57.1726 287.198 58.9782 290.762 Q60.8069 294.304 64.418 294.304 Q68.0522 294.304 69.8578 290.762 Q71.6865 287.198 71.6865 280.091 Q71.6865 272.962 69.8578 269.42 Q68.0522 265.855 64.418 265.855 M64.418 262.151 Q70.2281 262.151 73.2837 266.758 Q76.3624 271.341 76.3624 280.091 Q76.3624 288.818 73.2837 293.424 Q70.2281 298.008 64.418 298.008 Q58.6078 298.008 55.5291 293.424 Q52.4736 288.818 52.4736 280.091 Q52.4736 271.341 55.5291 266.758 Q58.6078 262.151 64.418 262.151 Z" fill="#000000" fill-rule="nonzero" fill-opacity="1"></path><path clip-path="url(#clip450)" d="M84.5799 291.457 L89.4641 291.457 L89.4641 297.336 L84.5799 297.336 L84.5799 291.457 Z" fill="#000000" fill-rule="nonzero" fill-opacity="1"></path><path clip-path="url(#clip450)" d="M99.6956 262.776 L118.052 262.776 L118.052 266.712 L103.978 266.712 L103.978 275.184 Q104.996 274.837 106.015 274.675 Q107.033 274.489 108.052 274.489 Q113.839 274.489 117.219 277.661 Q120.598 280.832 120.598 286.249 Q120.598 291.827 117.126 294.929 Q113.654 298.008 107.334 298.008 Q105.159 298.008 102.89 297.637 Q100.645 297.267 98.2372 296.526 L98.2372 291.827 Q100.321 292.961 102.543 293.517 Q104.765 294.073 107.242 294.073 Q111.246 294.073 113.584 291.966 Q115.922 289.86 115.922 286.249 Q115.922 282.637 113.584 280.531 Q111.246 278.425 107.242 278.425 Q105.367 278.425 103.492 278.841 Q101.64 279.258 99.6956 280.137 L99.6956 262.776 Z" fill="#000000" fill-rule="nonzero" fill-opacity="1"></path><path clip-path="url(#clip452)" d="M1364.48 978.494 L1364.48 1486.45 L1474.29 1486.45 L1474.29 978.494 L1364.48 978.494 L1364.48 978.494  Z" fill="#009af9" fill-rule="evenodd" fill-opacity="1"></path>
<polyline clip-path="url(#clip452)" style="stroke:#000000; stroke-linecap:round; stroke-linejoin:round; stroke-width:4; stroke-opacity:1; fill:none" points="1364.48,978.494 1364.48,1486.45 1474.29,1486.45 1474.29,978.494 1364.48,978.494 "></polyline>
<path clip-path="url(#clip452)" d="M1474.29 47.2441 L1474.29 1486.45 L1584.1 1486.45 L1584.1 47.2441 L1474.29 47.2441 L1474.29 47.2441  Z" fill="#009af9" fill-rule="evenodd" fill-opacity="1"></path>
<polyline clip-path="url(#clip452)" style="stroke:#000000; stroke-linecap:round; stroke-linejoin:round; stroke-width:4; stroke-opacity:1; fill:none" points="1474.29,47.2441 1474.29,1486.45 1584.1,1486.45 1584.1,47.2441 1474.29,47.2441 "></polyline>
<path clip-path="url(#clip452)" d="M1584.1 1317.13 L1584.1 1486.45 L1693.91 1486.45 L1693.91 1317.13 L1584.1 1317.13 L1584.1 1317.13  Z" fill="#009af9" fill-rule="evenodd" fill-opacity="1"></path>
<polyline clip-path="url(#clip452)" style="stroke:#000000; stroke-linecap:round; stroke-linejoin:round; stroke-width:4; stroke-opacity:1; fill:none" points="1584.1,1317.13 1584.1,1486.45 1693.91,1486.45 1693.91,1317.13 1584.1,1317.13 "></polyline>
<path clip-path="url(#clip452)" d="M1693.91 1486.45 L1693.91 1486.45 L1803.72 1486.45 L1803.72 1486.45 L1693.91 1486.45 L1693.91 1486.45  Z" fill="#009af9" fill-rule="evenodd" fill-opacity="1"></path>
<polyline clip-path="url(#clip452)" style="stroke:#000000; stroke-linecap:round; stroke-linejoin:round; stroke-width:4; stroke-opacity:1; fill:none" points="1693.91,1486.45 1693.91,1486.45 1803.72,1486.45 1693.91,1486.45 "></polyline>
<path clip-path="url(#clip452)" d="M1803.72 1486.45 L1803.72 1486.45 L1913.52 1486.45 L1913.52 1486.45 L1803.72 1486.45 L1803.72 1486.45  Z" fill="#009af9" fill-rule="evenodd" fill-opacity="1"></path>
<polyline clip-path="url(#clip452)" style="stroke:#000000; stroke-linecap:round; stroke-linejoin:round; stroke-width:4; stroke-opacity:1; fill:none" points="1803.72,1486.45 1803.72,1486.45 1913.52,1486.45 1803.72,1486.45 "></polyline>
<path clip-path="url(#clip452)" d="M1913.52 1063.15 L1913.52 1486.45 L2023.33 1486.45 L2023.33 1063.15 L1913.52 1063.15 L1913.52 1063.15  Z" fill="#009af9" fill-rule="evenodd" fill-opacity="1"></path>
<polyline clip-path="url(#clip452)" style="stroke:#000000; stroke-linecap:round; stroke-linejoin:round; stroke-width:4; stroke-opacity:1; fill:none" points="1913.52,1063.15 1913.52,1486.45 2023.33,1486.45 2023.33,1063.15 1913.52,1063.15 "></polyline>
<path clip-path="url(#clip452)" d="M2023.33 639.857 L2023.33 1486.45 L2133.14 1486.45 L2133.14 639.857 L2023.33 639.857 L2023.33 639.857  Z" fill="#009af9" fill-rule="evenodd" fill-opacity="1"></path>
<polyline clip-path="url(#clip452)" style="stroke:#000000; stroke-linecap:round; stroke-linejoin:round; stroke-width:4; stroke-opacity:1; fill:none" points="2023.33,639.857 2023.33,1486.45 2133.14,1486.45 2133.14,639.857 2023.33,639.857 "></polyline>
<path clip-path="url(#clip452)" d="M2133.14 1232.47 L2133.14 1486.45 L2242.95 1486.45 L2242.95 1232.47 L2133.14 1232.47 L2133.14 1232.47  Z" fill="#009af9" fill-rule="evenodd" fill-opacity="1"></path>
<polyline clip-path="url(#clip452)" style="stroke:#000000; stroke-linecap:round; stroke-linejoin:round; stroke-width:4; stroke-opacity:1; fill:none" points="2133.14,1232.47 2133.14,1486.45 2242.95,1486.45 2242.95,1232.47 2133.14,1232.47 "></polyline>
<path clip-path="url(#clip452)" d="M2242.95 301.221 L2242.95 1486.45 L2352.76 1486.45 L2352.76 301.221 L2242.95 301.221 L2242.95 301.221  Z" fill="#009af9" fill-rule="evenodd" fill-opacity="1"></path>
<polyline clip-path="url(#clip452)" style="stroke:#000000; stroke-linecap:round; stroke-linejoin:round; stroke-width:4; stroke-opacity:1; fill:none" points="2242.95,301.221 2242.95,1486.45 2352.76,1486.45 2352.76,301.221 2242.95,301.221 "></polyline>
<circle clip-path="url(#clip452)" style="fill:#009af9; stroke:none; fill-opacity:0" cx="1419.39" cy="978.494" r="2"></circle>
<circle clip-path="url(#clip452)" style="fill:#009af9; stroke:none; fill-opacity:0" cx="1529.2" cy="47.2441" r="2"></circle>
<circle clip-path="url(#clip452)" style="fill:#009af9; stroke:none; fill-opacity:0" cx="1639" cy="1317.13" r="2"></circle>
<circle clip-path="url(#clip452)" style="fill:#009af9; stroke:none; fill-opacity:0" cx="1748.81" cy="1486.45" r="2"></circle>
<circle clip-path="url(#clip452)" style="fill:#009af9; stroke:none; fill-opacity:0" cx="1858.62" cy="1486.45" r="2"></circle>
<circle clip-path="url(#clip452)" style="fill:#009af9; stroke:none; fill-opacity:0" cx="1968.43" cy="1063.15" r="2"></circle>
<circle clip-path="url(#clip452)" style="fill:#009af9; stroke:none; fill-opacity:0" cx="2078.24" cy="639.857" r="2"></circle>
<circle clip-path="url(#clip452)" style="fill:#009af9; stroke:none; fill-opacity:0" cx="2188.04" cy="1232.47" r="2"></circle>
<circle clip-path="url(#clip452)" style="fill:#009af9; stroke:none; fill-opacity:0" cx="2297.85" cy="301.221" r="2"></circle>
<path clip-path="url(#clip450)" d="M229.803 198.898 L725.066 198.898 L725.066 95.2176 L229.803 95.2176  Z" fill="#ffffff" fill-rule="evenodd" fill-opacity="1"></path>
<polyline clip-path="url(#clip450)" style="stroke:#000000; stroke-linecap:round; stroke-linejoin:round; stroke-width:4; stroke-opacity:1; fill:none" points="229.803,198.898 725.066,198.898 725.066,95.2176 229.803,95.2176 229.803,198.898 "></polyline>
<path clip-path="url(#clip450)" d="M254.205 167.794 L400.616 167.794 L400.616 126.322 L254.205 126.322 L254.205 167.794  Z" fill="#009af9" fill-rule="evenodd" fill-opacity="1"></path>
<polyline clip-path="url(#clip450)" style="stroke:#000000; stroke-linecap:round; stroke-linejoin:round; stroke-width:4; stroke-opacity:1; fill:none" points="254.205,167.794 400.616,167.794 400.616,126.322 254.205,126.322 254.205,167.794 "></polyline>
<path clip-path="url(#clip450)" d="M429.3 160.449 L429.3 174.199 L425.018 174.199 L425.018 138.412 L429.3 138.412 L429.3 142.347 Q430.642 140.032 432.68 138.921 Q434.74 137.787 437.587 137.787 Q442.309 137.787 445.249 141.537 Q448.212 145.287 448.212 151.398 Q448.212 157.509 445.249 161.259 Q442.309 165.009 437.587 165.009 Q434.74 165.009 432.68 163.898 Q430.642 162.763 429.3 160.449 M443.791 151.398 Q443.791 146.699 441.846 144.037 Q439.925 141.352 436.545 141.352 Q433.166 141.352 431.221 144.037 Q429.3 146.699 429.3 151.398 Q429.3 156.097 431.221 158.782 Q433.166 161.444 436.545 161.444 Q439.925 161.444 441.846 158.782 Q443.791 156.097 443.791 151.398 Z" fill="#000000" fill-rule="nonzero" fill-opacity="1"></path><path clip-path="url(#clip450)" d="M465.318 141.398 Q461.892 141.398 459.902 144.083 Q457.911 146.745 457.911 151.398 Q457.911 156.051 459.878 158.736 Q461.869 161.398 465.318 161.398 Q468.721 161.398 470.712 158.713 Q472.702 156.027 472.702 151.398 Q472.702 146.791 470.712 144.106 Q468.721 141.398 465.318 141.398 M465.318 137.787 Q470.874 137.787 474.045 141.398 Q477.216 145.009 477.216 151.398 Q477.216 157.764 474.045 161.398 Q470.874 165.009 465.318 165.009 Q459.74 165.009 456.568 161.398 Q453.42 157.764 453.42 151.398 Q453.42 145.009 456.568 141.398 Q459.74 137.787 465.318 137.787 Z" fill="#000000" fill-rule="nonzero" fill-opacity="1"></path><path clip-path="url(#clip450)" d="M500.804 139.176 L500.804 143.203 Q498.999 142.277 497.054 141.815 Q495.11 141.352 493.026 141.352 Q489.855 141.352 488.258 142.324 Q486.684 143.296 486.684 145.24 Q486.684 146.722 487.818 147.578 Q488.952 148.412 492.378 149.176 L493.837 149.5 Q498.374 150.472 500.272 152.254 Q502.193 154.014 502.193 157.185 Q502.193 160.796 499.323 162.902 Q496.475 165.009 491.475 165.009 Q489.392 165.009 487.124 164.592 Q484.878 164.199 482.378 163.388 L482.378 158.99 Q484.739 160.217 487.031 160.842 Q489.323 161.444 491.568 161.444 Q494.577 161.444 496.198 160.426 Q497.818 159.384 497.818 157.509 Q497.818 155.773 496.637 154.847 Q495.48 153.921 491.522 153.064 L490.04 152.717 Q486.082 151.884 484.323 150.171 Q482.563 148.435 482.563 145.426 Q482.563 141.768 485.156 139.778 Q487.749 137.787 492.517 137.787 Q494.878 137.787 496.962 138.134 Q499.045 138.481 500.804 139.176 Z" fill="#000000" fill-rule="nonzero" fill-opacity="1"></path><path clip-path="url(#clip450)" d="M513.188 131.051 L513.188 138.412 L521.961 138.412 L521.961 141.722 L513.188 141.722 L513.188 155.796 Q513.188 158.967 514.045 159.87 Q514.924 160.773 517.586 160.773 L521.961 160.773 L521.961 164.338 L517.586 164.338 Q512.656 164.338 510.781 162.509 Q508.906 160.657 508.906 155.796 L508.906 141.722 L505.781 141.722 L505.781 138.412 L508.906 138.412 L508.906 131.051 L513.188 131.051 Z" fill="#000000" fill-rule="nonzero" fill-opacity="1"></path><path clip-path="url(#clip450)" d="M549.739 150.31 L549.739 152.393 L530.156 152.393 Q530.434 156.791 532.795 159.106 Q535.179 161.398 539.415 161.398 Q541.869 161.398 544.16 160.796 Q546.475 160.194 548.744 158.99 L548.744 163.018 Q546.452 163.99 544.045 164.5 Q541.637 165.009 539.16 165.009 Q532.957 165.009 529.323 161.398 Q525.711 157.787 525.711 151.629 Q525.711 145.264 529.137 141.537 Q532.586 137.787 538.42 137.787 Q543.651 137.787 546.684 141.166 Q549.739 144.523 549.739 150.31 M545.48 149.06 Q545.434 145.565 543.512 143.481 Q541.614 141.398 538.466 141.398 Q534.901 141.398 532.748 143.412 Q530.619 145.426 530.295 149.083 L545.48 149.06 Z" fill="#000000" fill-rule="nonzero" fill-opacity="1"></path><path clip-path="url(#clip450)" d="M571.753 142.393 Q571.035 141.977 570.179 141.791 Q569.345 141.583 568.327 141.583 Q564.716 141.583 562.771 143.944 Q560.85 146.282 560.85 150.68 L560.85 164.338 L556.568 164.338 L556.568 138.412 L560.85 138.412 L560.85 142.44 Q562.193 140.078 564.345 138.944 Q566.498 137.787 569.577 137.787 Q570.017 137.787 570.549 137.856 Q571.082 137.903 571.73 138.018 L571.753 142.393 Z" fill="#000000" fill-rule="nonzero" fill-opacity="1"></path><path clip-path="url(#clip450)" d="M576.22 138.412 L580.48 138.412 L580.48 164.338 L576.22 164.338 L576.22 138.412 M576.22 128.319 L580.48 128.319 L580.48 133.713 L576.22 133.713 L576.22 128.319 Z" fill="#000000" fill-rule="nonzero" fill-opacity="1"></path><path clip-path="url(#clip450)" d="M599.438 141.398 Q596.012 141.398 594.021 144.083 Q592.03 146.745 592.03 151.398 Q592.03 156.051 593.998 158.736 Q595.989 161.398 599.438 161.398 Q602.841 161.398 604.831 158.713 Q606.822 156.027 606.822 151.398 Q606.822 146.791 604.831 144.106 Q602.841 141.398 599.438 141.398 M599.438 137.787 Q604.993 137.787 608.165 141.398 Q611.336 145.009 611.336 151.398 Q611.336 157.764 608.165 161.398 Q604.993 165.009 599.438 165.009 Q593.859 165.009 590.688 161.398 Q587.54 157.764 587.54 151.398 Q587.54 145.009 590.688 141.398 Q593.859 137.787 599.438 137.787 Z" fill="#000000" fill-rule="nonzero" fill-opacity="1"></path><path clip-path="url(#clip450)" d="M633.419 142.393 Q632.702 141.977 631.845 141.791 Q631.012 141.583 629.993 141.583 Q626.382 141.583 624.438 143.944 Q622.516 146.282 622.516 150.68 L622.516 164.338 L618.234 164.338 L618.234 138.412 L622.516 138.412 L622.516 142.44 Q623.859 140.078 626.012 138.944 Q628.165 137.787 631.243 137.787 Q631.683 137.787 632.215 137.856 Q632.748 137.903 633.396 138.018 L633.419 142.393 Z" fill="#000000" fill-rule="nonzero" fill-opacity="1"></path><path clip-path="url(#clip450)" d="M664.738 151.305 Q659.576 151.305 657.586 152.486 Q655.595 153.666 655.595 156.514 Q655.595 158.782 657.076 160.125 Q658.581 161.444 661.15 161.444 Q664.692 161.444 666.822 158.944 Q668.975 156.421 668.975 152.254 L668.975 151.305 L664.738 151.305 M673.234 149.546 L673.234 164.338 L668.975 164.338 L668.975 160.402 Q667.516 162.763 665.34 163.898 Q663.164 165.009 660.016 165.009 Q656.035 165.009 653.674 162.787 Q651.336 160.541 651.336 156.791 Q651.336 152.416 654.252 150.194 Q657.192 147.972 663.002 147.972 L668.975 147.972 L668.975 147.555 Q668.975 144.615 667.03 143.018 Q665.109 141.398 661.613 141.398 Q659.391 141.398 657.285 141.93 Q655.178 142.463 653.234 143.527 L653.234 139.592 Q655.572 138.69 657.771 138.25 Q659.97 137.787 662.053 137.787 Q667.678 137.787 670.456 140.703 Q673.234 143.62 673.234 149.546 Z" fill="#000000" fill-rule="nonzero" fill-opacity="1"></path><path clip-path="url(#clip450)" d="M700.664 139.407 L700.664 143.389 Q698.859 142.393 697.03 141.907 Q695.224 141.398 693.373 141.398 Q689.229 141.398 686.937 144.037 Q684.646 146.652 684.646 151.398 Q684.646 156.143 686.937 158.782 Q689.229 161.398 693.373 161.398 Q695.224 161.398 697.03 160.912 Q698.859 160.402 700.664 159.407 L700.664 163.342 Q698.882 164.176 696.96 164.592 Q695.062 165.009 692.91 165.009 Q687.053 165.009 683.604 161.328 Q680.155 157.648 680.155 151.398 Q680.155 145.055 683.627 141.421 Q687.123 137.787 693.187 137.787 Q695.155 137.787 697.03 138.203 Q698.905 138.597 700.664 139.407 Z" fill="#000000" fill-rule="nonzero" fill-opacity="1"></path></svg>