<svg xmlns="http://www.w3.org/2000/svg" xmlns:xlink="http://www.w3.org/1999/xlink" width="600" height="400" viewBox="0 0 2400 1600">
<defs>
  <clipPath id="clip610">
    <rect x="0" y="0" width="2400" height="1600"></rect>
  </clipPath>
</defs>
<path clip-path="url(#clip610)" d="M0 1600 L2400 1600 L2400 0 L0 0  Z" fill="#ffffff" fill-rule="evenodd" fill-opacity="1"></path>
<defs>
  <clipPath id="clip611">
    <rect x="480" y="0" width="1681" height="1600"></rect>
  </clipPath>
</defs>
<path clip-path="url(#clip610)" d="M156.598 1486.45 L2352.76 1486.45 L2352.76 47.2441 L156.598 47.2441  Z" fill="#ffffff" fill-rule="evenodd" fill-opacity="1"></path>
<defs>
  <clipPath id="clip612">
    <rect x="156" y="47" width="2197" height="1440"></rect>
  </clipPath>
</defs>
<polyline clip-path="url(#clip612)" style="stroke:#000000; stroke-linecap:round; stroke-linejoin:round; stroke-width:2; stroke-opacity:0.1; fill:none" points="156.598,1486.45 156.598,47.2441 "></polyline>
<polyline clip-path="url(#clip612)" style="stroke:#000000; stroke-linecap:round; stroke-linejoin:round; stroke-width:2; stroke-opacity:0.1; fill:none" points="595.83,1486.45 595.83,47.2441 "></polyline>
<polyline clip-path="url(#clip612)" style="stroke:#000000; stroke-linecap:round; stroke-linejoin:round; stroke-width:2; stroke-opacity:0.1; fill:none" points="1035.06,1486.45 1035.06,47.2441 "></polyline>
<polyline clip-path="url(#clip612)" style="stroke:#000000; stroke-linecap:round; stroke-linejoin:round; stroke-width:2; stroke-opacity:0.1; fill:none" points="1474.29,1486.45 1474.29,47.2441 "></polyline>
<polyline clip-path="url(#clip612)" style="stroke:#000000; stroke-linecap:round; stroke-linejoin:round; stroke-width:2; stroke-opacity:0.1; fill:none" points="1913.52,1486.45 1913.52,47.2441 "></polyline>
<polyline clip-path="url(#clip612)" style="stroke:#000000; stroke-linecap:round; stroke-linejoin:round; stroke-width:2; stroke-opacity:0.1; fill:none" points="2352.76,1486.45 2352.76,47.2441 "></polyline>
<polyline clip-path="url(#clip610)" style="stroke:#000000; stroke-linecap:round; stroke-linejoin:round; stroke-width:4; stroke-opacity:1; fill:none" points="156.598,1486.45 2352.76,1486.45 "></polyline>
<polyline clip-path="url(#clip610)" style="stroke:#000000; stroke-linecap:round; stroke-linejoin:round; stroke-width:4; stroke-opacity:1; fill:none" points="156.598,1486.45 156.598,1467.55 "></polyline>
<polyline clip-path="url(#clip610)" style="stroke:#000000; stroke-linecap:round; stroke-linejoin:round; stroke-width:4; stroke-opacity:1; fill:none" points="595.83,1486.45 595.83,1467.55 "></polyline>
<polyline clip-path="url(#clip610)" style="stroke:#000000; stroke-linecap:round; stroke-linejoin:round; stroke-width:4; stroke-opacity:1; fill:none" points="1035.06,1486.45 1035.06,1467.55 "></polyline>
<polyline clip-path="url(#clip610)" style="stroke:#000000; stroke-linecap:round; stroke-linejoin:round; stroke-width:4; stroke-opacity:1; fill:none" points="1474.29,1486.45 1474.29,1467.55 "></polyline>
<polyline clip-path="url(#clip610)" style="stroke:#000000; stroke-linecap:round; stroke-linejoin:round; stroke-width:4; stroke-opacity:1; fill:none" points="1913.52,1486.45 1913.52,1467.55 "></polyline>
<polyline clip-path="url(#clip610)" style="stroke:#000000; stroke-linecap:round; stroke-linejoin:round; stroke-width:4; stroke-opacity:1; fill:none" points="2352.76,1486.45 2352.76,1467.55 "></polyline>
<path clip-path="url(#clip610)" d="M156.598 1517.37 Q152.987 1517.37 151.158 1520.93 Q149.353 1524.47 149.353 1531.6 Q149.353 1538.71 151.158 1542.27 Q152.987 1545.82 156.598 1545.82 Q160.232 1545.82 162.038 1542.27 Q163.867 1538.71 163.867 1531.6 Q163.867 1524.47 162.038 1520.93 Q160.232 1517.37 156.598 1517.37 M156.598 1513.66 Q162.408 1513.66 165.464 1518.27 Q168.543 1522.85 168.543 1531.6 Q168.543 1540.33 165.464 1544.94 Q162.408 1549.52 156.598 1549.52 Q150.788 1549.52 147.709 1544.94 Q144.654 1540.33 144.654 1531.6 Q144.654 1522.85 147.709 1518.27 Q150.788 1513.66 156.598 1513.66 Z" fill="#000000" fill-rule="nonzero" fill-opacity="1"></path><path clip-path="url(#clip610)" d="M590.483 1544.91 L606.802 1544.91 L606.802 1548.85 L584.858 1548.85 L584.858 1544.91 Q587.52 1542.16 592.103 1537.53 Q596.709 1532.88 597.89 1531.53 Q600.135 1529.01 601.015 1527.27 Q601.918 1525.51 601.918 1523.82 Q601.918 1521.07 599.973 1519.33 Q598.052 1517.6 594.95 1517.6 Q592.751 1517.6 590.297 1518.36 Q587.867 1519.13 585.089 1520.68 L585.089 1515.95 Q587.913 1514.82 590.367 1514.24 Q592.821 1513.66 594.858 1513.66 Q600.228 1513.66 603.422 1516.35 Q606.617 1519.03 606.617 1523.52 Q606.617 1525.65 605.807 1527.57 Q605.02 1529.47 602.913 1532.07 Q602.334 1532.74 599.233 1535.95 Q596.131 1539.15 590.483 1544.91 Z" fill="#000000" fill-rule="nonzero" fill-opacity="1"></path><path clip-path="url(#clip610)" d="M1038.07 1518.36 L1026.27 1536.81 L1038.07 1536.81 L1038.07 1518.36 M1036.84 1514.29 L1042.72 1514.29 L1042.72 1536.81 L1047.65 1536.81 L1047.65 1540.7 L1042.72 1540.7 L1042.72 1548.85 L1038.07 1548.85 L1038.07 1540.7 L1022.47 1540.7 L1022.47 1536.19 L1036.84 1514.29 Z" fill="#000000" fill-rule="nonzero" fill-opacity="1"></path><path clip-path="url(#clip610)" d="M1474.7 1529.7 Q1471.55 1529.7 1469.7 1531.86 Q1467.87 1534.01 1467.87 1537.76 Q1467.87 1541.49 1469.7 1543.66 Q1471.55 1545.82 1474.7 1545.82 Q1477.85 1545.82 1479.67 1543.66 Q1481.53 1541.49 1481.53 1537.76 Q1481.53 1534.01 1479.67 1531.86 Q1477.85 1529.7 1474.7 1529.7 M1483.98 1515.05 L1483.98 1519.31 Q1482.22 1518.48 1480.42 1518.04 Q1478.63 1517.6 1476.87 1517.6 Q1472.24 1517.6 1469.79 1520.72 Q1467.36 1523.85 1467.01 1530.17 Q1468.38 1528.15 1470.44 1527.09 Q1472.5 1526 1474.98 1526 Q1480.18 1526 1483.19 1529.17 Q1486.23 1532.32 1486.23 1537.76 Q1486.23 1543.08 1483.08 1546.3 Q1479.93 1549.52 1474.7 1549.52 Q1468.7 1549.52 1465.53 1544.94 Q1462.36 1540.33 1462.36 1531.6 Q1462.36 1523.41 1466.25 1518.55 Q1470.14 1513.66 1476.69 1513.66 Q1478.45 1513.66 1480.23 1514.01 Q1482.04 1514.36 1483.98 1515.05 Z" fill="#000000" fill-rule="nonzero" fill-opacity="1"></path><path clip-path="url(#clip610)" d="M1913.52 1532.44 Q1910.19 1532.44 1908.27 1534.22 Q1906.37 1536 1906.37 1539.13 Q1906.37 1542.25 1908.27 1544.03 Q1910.19 1545.82 1913.52 1545.82 Q1916.86 1545.82 1918.78 1544.03 Q1920.7 1542.23 1920.7 1539.13 Q1920.7 1536 1918.78 1534.22 Q1916.88 1532.44 1913.52 1532.44 M1908.85 1530.45 Q1905.84 1529.7 1904.15 1527.64 Q1902.48 1525.58 1902.48 1522.62 Q1902.48 1518.48 1905.42 1516.07 Q1908.39 1513.66 1913.52 1513.66 Q1918.69 1513.66 1921.63 1516.07 Q1924.57 1518.48 1924.57 1522.62 Q1924.57 1525.58 1922.88 1527.64 Q1921.21 1529.7 1918.22 1530.45 Q1921.6 1531.23 1923.48 1533.52 Q1925.38 1535.82 1925.38 1539.13 Q1925.38 1544.15 1922.3 1546.83 Q1919.24 1549.52 1913.52 1549.52 Q1907.81 1549.52 1904.73 1546.83 Q1901.67 1544.15 1901.67 1539.13 Q1901.67 1535.82 1903.57 1533.52 Q1905.47 1531.23 1908.85 1530.45 M1907.14 1523.06 Q1907.14 1525.75 1908.8 1527.25 Q1910.49 1528.76 1913.52 1528.76 Q1916.53 1528.76 1918.22 1527.25 Q1919.94 1525.75 1919.94 1523.06 Q1919.94 1520.38 1918.22 1518.87 Q1916.53 1517.37 1913.52 1517.37 Q1910.49 1517.37 1908.8 1518.87 Q1907.14 1520.38 1907.14 1523.06 Z" fill="#000000" fill-rule="nonzero" fill-opacity="1"></path><path clip-path="url(#clip610)" d="M2327.44 1544.91 L2335.08 1544.91 L2335.08 1518.55 L2326.77 1520.21 L2326.77 1515.95 L2335.04 1514.29 L2339.71 1514.29 L2339.71 1544.91 L2347.35 1544.91 L2347.35 1548.85 L2327.44 1548.85 L2327.44 1544.91 Z" fill="#000000" fill-rule="nonzero" fill-opacity="1"></path><path clip-path="url(#clip610)" d="M2366.8 1517.37 Q2363.18 1517.37 2361.36 1520.93 Q2359.55 1524.47 2359.55 1531.6 Q2359.55 1538.71 2361.36 1542.27 Q2363.18 1545.82 2366.8 1545.82 Q2370.43 1545.82 2372.23 1542.27 Q2374.06 1538.71 2374.06 1531.6 Q2374.06 1524.47 2372.23 1520.93 Q2370.43 1517.37 2366.8 1517.37 M2366.8 1513.66 Q2372.61 1513.66 2375.66 1518.27 Q2378.74 1522.85 2378.74 1531.6 Q2378.74 1540.33 2375.66 1544.94 Q2372.61 1549.52 2366.8 1549.52 Q2360.99 1549.52 2357.91 1544.94 Q2354.85 1540.33 2354.85 1531.6 Q2354.85 1522.85 2357.91 1518.27 Q2360.99 1513.66 2366.8 1513.66 Z" fill="#000000" fill-rule="nonzero" fill-opacity="1"></path><polyline clip-path="url(#clip612)" style="stroke:#000000; stroke-linecap:round; stroke-linejoin:round; stroke-width:2; stroke-opacity:0.1; fill:none" points="156.598,1486.45 2352.76,1486.45 "></polyline>
<polyline clip-path="url(#clip612)" style="stroke:#000000; stroke-linecap:round; stroke-linejoin:round; stroke-width:2; stroke-opacity:0.1; fill:none" points="156.598,1076.27 2352.76,1076.27 "></polyline>
<polyline clip-path="url(#clip612)" style="stroke:#000000; stroke-linecap:round; stroke-linejoin:round; stroke-width:2; stroke-opacity:0.1; fill:none" points="156.598,666.102 2352.76,666.102 "></polyline>
<polyline clip-path="url(#clip612)" style="stroke:#000000; stroke-linecap:round; stroke-linejoin:round; stroke-width:2; stroke-opacity:0.1; fill:none" points="156.598,255.929 2352.76,255.929 "></polyline>
<polyline clip-path="url(#clip610)" style="stroke:#000000; stroke-linecap:round; stroke-linejoin:round; stroke-width:4; stroke-opacity:1; fill:none" points="156.598,1486.45 156.598,47.2441 "></polyline>
<polyline clip-path="url(#clip610)" style="stroke:#000000; stroke-linecap:round; stroke-linejoin:round; stroke-width:4; stroke-opacity:1; fill:none" points="156.598,1486.45 175.496,1486.45 "></polyline>
<polyline clip-path="url(#clip610)" style="stroke:#000000; stroke-linecap:round; stroke-linejoin:round; stroke-width:4; stroke-opacity:1; fill:none" points="156.598,1076.27 175.496,1076.27 "></polyline>
<polyline clip-path="url(#clip610)" style="stroke:#000000; stroke-linecap:round; stroke-linejoin:round; stroke-width:4; stroke-opacity:1; fill:none" points="156.598,666.102 175.496,666.102 "></polyline>
<polyline clip-path="url(#clip610)" style="stroke:#000000; stroke-linecap:round; stroke-linejoin:round; stroke-width:4; stroke-opacity:1; fill:none" points="156.598,255.929 175.496,255.929 "></polyline>
<path clip-path="url(#clip610)" d="M63.4226 1472.25 Q59.8115 1472.25 57.9828 1475.81 Q56.1773 1479.35 56.1773 1486.48 Q56.1773 1493.59 57.9828 1497.15 Q59.8115 1500.7 63.4226 1500.7 Q67.0569 1500.7 68.8624 1497.15 Q70.6911 1493.59 70.6911 1486.48 Q70.6911 1479.35 68.8624 1475.81 Q67.0569 1472.25 63.4226 1472.25 M63.4226 1468.54 Q69.2328 1468.54 72.2883 1473.15 Q75.367 1477.73 75.367 1486.48 Q75.367 1495.21 72.2883 1499.82 Q69.2328 1504.4 63.4226 1504.4 Q57.6125 1504.4 54.5338 1499.82 Q51.4782 1495.21 51.4782 1486.48 Q51.4782 1477.73 54.5338 1473.15 Q57.6125 1468.54 63.4226 1468.54 Z" fill="#000000" fill-rule="nonzero" fill-opacity="1"></path><path clip-path="url(#clip610)" d="M83.5845 1497.85 L88.4688 1497.85 L88.4688 1503.73 L83.5845 1503.73 L83.5845 1497.85 Z" fill="#000000" fill-rule="nonzero" fill-opacity="1"></path><path clip-path="url(#clip610)" d="M108.654 1472.25 Q105.043 1472.25 103.214 1475.81 Q101.409 1479.35 101.409 1486.48 Q101.409 1493.59 103.214 1497.15 Q105.043 1500.7 108.654 1500.7 Q112.288 1500.7 114.094 1497.15 Q115.922 1493.59 115.922 1486.48 Q115.922 1479.35 114.094 1475.81 Q112.288 1472.25 108.654 1472.25 M108.654 1468.54 Q114.464 1468.54 117.52 1473.15 Q120.598 1477.73 120.598 1486.48 Q120.598 1495.21 117.52 1499.82 Q114.464 1504.4 108.654 1504.4 Q102.844 1504.4 99.765 1499.82 Q96.7095 1495.21 96.7095 1486.48 Q96.7095 1477.73 99.765 1473.15 Q102.844 1468.54 108.654 1468.54 Z" fill="#000000" fill-rule="nonzero" fill-opacity="1"></path><path clip-path="url(#clip610)" d="M65.0198 1062.07 Q61.4087 1062.07 59.58 1065.64 Q57.7745 1069.18 57.7745 1076.31 Q57.7745 1083.42 59.58 1086.98 Q61.4087 1090.52 65.0198 1090.52 Q68.6541 1090.52 70.4596 1086.98 Q72.2883 1083.42 72.2883 1076.31 Q72.2883 1069.18 70.4596 1065.64 Q68.6541 1062.07 65.0198 1062.07 M65.0198 1058.37 Q70.83 1058.37 73.8855 1062.98 Q76.9642 1067.56 76.9642 1076.31 Q76.9642 1085.04 73.8855 1089.64 Q70.83 1094.23 65.0198 1094.23 Q59.2097 1094.23 56.131 1089.64 Q53.0754 1085.04 53.0754 1076.31 Q53.0754 1067.56 56.131 1062.98 Q59.2097 1058.37 65.0198 1058.37 Z" fill="#000000" fill-rule="nonzero" fill-opacity="1"></path><path clip-path="url(#clip610)" d="M85.1818 1087.68 L90.066 1087.68 L90.066 1093.55 L85.1818 1093.55 L85.1818 1087.68 Z" fill="#000000" fill-rule="nonzero" fill-opacity="1"></path><path clip-path="url(#clip610)" d="M104.279 1089.62 L120.598 1089.62 L120.598 1093.55 L98.6539 1093.55 L98.6539 1089.62 Q101.316 1086.87 105.899 1082.24 Q110.506 1077.58 111.686 1076.24 Q113.932 1073.72 114.811 1071.98 Q115.714 1070.22 115.714 1068.53 Q115.714 1065.78 113.77 1064.04 Q111.848 1062.3 108.746 1062.3 Q106.547 1062.3 104.094 1063.07 Q101.663 1063.83 98.8854 1065.38 L98.8854 1060.66 Q101.709 1059.53 104.163 1058.95 Q106.617 1058.37 108.654 1058.37 Q114.024 1058.37 117.219 1061.05 Q120.413 1063.74 120.413 1068.23 Q120.413 1070.36 119.603 1072.28 Q118.816 1074.18 116.709 1076.77 Q116.131 1077.44 113.029 1080.66 Q109.927 1083.86 104.279 1089.62 Z" fill="#000000" fill-rule="nonzero" fill-opacity="1"></path><path clip-path="url(#clip610)" d="M62.9365 651.9 Q59.3254 651.9 57.4967 655.465 Q55.6912 659.007 55.6912 666.136 Q55.6912 673.243 57.4967 676.808 Q59.3254 680.349 62.9365 680.349 Q66.5707 680.349 68.3763 676.808 Q70.205 673.243 70.205 666.136 Q70.205 659.007 68.3763 655.465 Q66.5707 651.9 62.9365 651.9 M62.9365 648.197 Q68.7467 648.197 71.8022 652.803 Q74.8809 657.386 74.8809 666.136 Q74.8809 674.863 71.8022 679.47 Q68.7467 684.053 62.9365 684.053 Q57.1264 684.053 54.0477 679.47 Q50.9921 674.863 50.9921 666.136 Q50.9921 657.386 54.0477 652.803 Q57.1264 648.197 62.9365 648.197 Z" fill="#000000" fill-rule="nonzero" fill-opacity="1"></path><path clip-path="url(#clip610)" d="M83.0984 677.502 L87.9827 677.502 L87.9827 683.382 L83.0984 683.382 L83.0984 677.502 Z" fill="#000000" fill-rule="nonzero" fill-opacity="1"></path><path clip-path="url(#clip610)" d="M111.015 652.896 L99.2095 671.345 L111.015 671.345 L111.015 652.896 M109.788 648.822 L115.668 648.822 L115.668 671.345 L120.598 671.345 L120.598 675.234 L115.668 675.234 L115.668 683.382 L111.015 683.382 L111.015 675.234 L95.4132 675.234 L95.4132 670.72 L109.788 648.822 Z" fill="#000000" fill-rule="nonzero" fill-opacity="1"></path><path clip-path="url(#clip610)" d="M63.2606 241.727 Q59.6495 241.727 57.8208 245.292 Q56.0152 248.834 56.0152 255.963 Q56.0152 263.07 57.8208 266.635 Q59.6495 270.176 63.2606 270.176 Q66.8948 270.176 68.7004 266.635 Q70.5291 263.07 70.5291 255.963 Q70.5291 248.834 68.7004 245.292 Q66.8948 241.727 63.2606 241.727 M63.2606 238.024 Q69.0707 238.024 72.1263 242.63 Q75.205 247.213 75.205 255.963 Q75.205 264.69 72.1263 269.297 Q69.0707 273.88 63.2606 273.88 Q57.4504 273.88 54.3717 269.297 Q51.3162 264.69 51.3162 255.963 Q51.3162 247.213 54.3717 242.63 Q57.4504 238.024 63.2606 238.024 Z" fill="#000000" fill-rule="nonzero" fill-opacity="1"></path><path clip-path="url(#clip610)" d="M83.4225 267.329 L88.3067 267.329 L88.3067 273.209 L83.4225 273.209 L83.4225 267.329 Z" fill="#000000" fill-rule="nonzero" fill-opacity="1"></path><path clip-path="url(#clip610)" d="M109.071 254.065 Q105.922 254.065 104.071 256.218 Q102.242 258.371 102.242 262.121 Q102.242 265.848 104.071 268.023 Q105.922 270.176 109.071 270.176 Q112.219 270.176 114.047 268.023 Q115.899 265.848 115.899 262.121 Q115.899 258.371 114.047 256.218 Q112.219 254.065 109.071 254.065 M118.353 239.413 L118.353 243.672 Q116.594 242.838 114.788 242.399 Q113.006 241.959 111.246 241.959 Q106.617 241.959 104.163 245.084 Q101.733 248.209 101.385 254.528 Q102.751 252.514 104.811 251.449 Q106.871 250.362 109.348 250.362 Q114.557 250.362 117.566 253.533 Q120.598 256.681 120.598 262.121 Q120.598 267.445 117.45 270.662 Q114.302 273.88 109.071 273.88 Q103.075 273.88 99.9039 269.297 Q96.7326 264.69 96.7326 255.963 Q96.7326 247.769 100.621 242.908 Q104.51 238.024 111.061 238.024 Q112.82 238.024 114.603 238.371 Q116.408 238.718 118.353 239.413 Z" fill="#000000" fill-rule="nonzero" fill-opacity="1"></path><path clip-path="url(#clip612)" d="M705.638 1270.57 L705.638 1486.45 L815.446 1486.45 L815.446 1270.57 L705.638 1270.57 L705.638 1270.57  Z" fill="#009af9" fill-rule="evenodd" fill-opacity="1"></path>
<polyline clip-path="url(#clip612)" style="stroke:#000000; stroke-linecap:round; stroke-linejoin:round; stroke-width:4; stroke-opacity:1; fill:none" points="705.638,1270.57 705.638,1486.45 815.446,1486.45 815.446,1270.57 705.638,1270.57 "></polyline>
<path clip-path="url(#clip612)" d="M815.446 47.2441 L815.446 1486.45 L925.253 1486.45 L925.253 47.2441 L815.446 47.2441 L815.446 47.2441  Z" fill="#009af9" fill-rule="evenodd" fill-opacity="1"></path>
<polyline clip-path="url(#clip612)" style="stroke:#000000; stroke-linecap:round; stroke-linejoin:round; stroke-width:4; stroke-opacity:1; fill:none" points="815.446,47.2441 815.446,1486.45 925.253,1486.45 925.253,47.2441 815.446,47.2441 "></polyline>
<path clip-path="url(#clip612)" d="M925.253 191.164 L925.253 1486.45 L1035.06 1486.45 L1035.06 191.164 L925.253 191.164 L925.253 191.164  Z" fill="#009af9" fill-rule="evenodd" fill-opacity="1"></path>
<polyline clip-path="url(#clip612)" style="stroke:#000000; stroke-linecap:round; stroke-linejoin:round; stroke-width:4; stroke-opacity:1; fill:none" points="925.253,191.164 925.253,1486.45 1035.06,1486.45 1035.06,191.164 925.253,191.164 "></polyline>
<path clip-path="url(#clip612)" d="M1035.06 1342.53 L1035.06 1486.45 L1144.87 1486.45 L1144.87 1342.53 L1035.06 1342.53 L1035.06 1342.53  Z" fill="#009af9" fill-rule="evenodd" fill-opacity="1"></path>
<polyline clip-path="url(#clip612)" style="stroke:#000000; stroke-linecap:round; stroke-linejoin:round; stroke-width:4; stroke-opacity:1; fill:none" points="1035.06,1342.53 1035.06,1486.45 1144.87,1486.45 1144.87,1342.53 1035.06,1342.53 "></polyline>
<path clip-path="url(#clip612)" d="M1144.87 1486.45 L1144.87 1486.45 L1254.68 1486.45 L1254.68 1486.45 L1144.87 1486.45 L1144.87 1486.45  Z" fill="#009af9" fill-rule="evenodd" fill-opacity="1"></path>
<polyline clip-path="url(#clip612)" style="stroke:#000000; stroke-linecap:round; stroke-linejoin:round; stroke-width:4; stroke-opacity:1; fill:none" points="1144.87,1486.45 1144.87,1486.45 1254.68,1486.45 1144.87,1486.45 "></polyline>
<path clip-path="url(#clip612)" d="M1254.68 1126.65 L1254.68 1486.45 L1364.48 1486.45 L1364.48 1126.65 L1254.68 1126.65 L1254.68 1126.65  Z" fill="#009af9" fill-rule="evenodd" fill-opacity="1"></path>
<polyline clip-path="url(#clip612)" style="stroke:#000000; stroke-linecap:round; stroke-linejoin:round; stroke-width:4; stroke-opacity:1; fill:none" points="1254.68,1126.65 1254.68,1486.45 1364.48,1486.45 1364.48,1126.65 1254.68,1126.65 "></polyline>
<path clip-path="url(#clip612)" d="M1364.48 1486.45 L1364.48 1486.45 L1474.29 1486.45 L1474.29 1486.45 L1364.48 1486.45 L1364.48 1486.45  Z" fill="#009af9" fill-rule="evenodd" fill-opacity="1"></path>
<polyline clip-path="url(#clip612)" style="stroke:#000000; stroke-linecap:round; stroke-linejoin:round; stroke-width:4; stroke-opacity:1; fill:none" points="1364.48,1486.45 1364.48,1486.45 1474.29,1486.45 1364.48,1486.45 "></polyline>
<path clip-path="url(#clip612)" d="M1474.29 1486.45 L1474.29 1486.45 L1584.1 1486.45 L1584.1 1486.45 L1474.29 1486.45 L1474.29 1486.45  Z" fill="#009af9" fill-rule="evenodd" fill-opacity="1"></path>
<polyline clip-path="url(#clip612)" style="stroke:#000000; stroke-linecap:round; stroke-linejoin:round; stroke-width:4; stroke-opacity:1; fill:none" points="1474.29,1486.45 1474.29,1486.45 1584.1,1486.45 1474.29,1486.45 "></polyline>
<path clip-path="url(#clip612)" d="M1584.1 1486.45 L1584.1 1486.45 L1693.91 1486.45 L1693.91 1486.45 L1584.1 1486.45 L1584.1 1486.45  Z" fill="#009af9" fill-rule="evenodd" fill-opacity="1"></path>
<polyline clip-path="url(#clip612)" style="stroke:#000000; stroke-linecap:round; stroke-linejoin:round; stroke-width:4; stroke-opacity:1; fill:none" points="1584.1,1486.45 1584.1,1486.45 1693.91,1486.45 1584.1,1486.45 "></polyline>
<path clip-path="url(#clip612)" d="M1693.91 838.806 L1693.91 1486.45 L1803.72 1486.45 L1803.72 838.806 L1693.91 838.806 L1693.91 838.806  Z" fill="#009af9" fill-rule="evenodd" fill-opacity="1"></path>
<polyline clip-path="url(#clip612)" style="stroke:#000000; stroke-linecap:round; stroke-linejoin:round; stroke-width:4; stroke-opacity:1; fill:none" points="1693.91,838.806 1693.91,1486.45 1803.72,1486.45 1803.72,838.806 1693.91,838.806 "></polyline>
<circle clip-path="url(#clip612)" style="fill:#009af9; stroke:none; fill-opacity:0" cx="760.542" cy="1270.57" r="2"></circle>
<circle clip-path="url(#clip612)" style="fill:#009af9; stroke:none; fill-opacity:0" cx="870.349" cy="47.2441" r="2"></circle>
<circle clip-path="url(#clip612)" style="fill:#009af9; stroke:none; fill-opacity:0" cx="980.157" cy="191.164" r="2"></circle>
<circle clip-path="url(#clip612)" style="fill:#009af9; stroke:none; fill-opacity:0" cx="1089.97" cy="1342.53" r="2"></circle>
<circle clip-path="url(#clip612)" style="fill:#009af9; stroke:none; fill-opacity:0" cx="1199.77" cy="1486.45" r="2"></circle>
<circle clip-path="url(#clip612)" style="fill:#009af9; stroke:none; fill-opacity:0" cx="1309.58" cy="1126.65" r="2"></circle>
<circle clip-path="url(#clip612)" style="fill:#009af9; stroke:none; fill-opacity:0" cx="1419.39" cy="1486.45" r="2"></circle>
<circle clip-path="url(#clip612)" style="fill:#009af9; stroke:none; fill-opacity:0" cx="1529.2" cy="1486.45" r="2"></circle>
<circle clip-path="url(#clip612)" style="fill:#009af9; stroke:none; fill-opacity:0" cx="1639" cy="1486.45" r="2"></circle>
<circle clip-path="url(#clip612)" style="fill:#009af9; stroke:none; fill-opacity:0" cx="1748.81" cy="838.806" r="2"></circle>
<path clip-path="url(#clip610)" d="M1808.96 198.898 L2279.55 198.898 L2279.55 95.2176 L1808.96 95.2176  Z" fill="#ffffff" fill-rule="evenodd" fill-opacity="1"></path>
<polyline clip-path="url(#clip610)" style="stroke:#000000; stroke-linecap:round; stroke-linejoin:round; stroke-width:4; stroke-opacity:1; fill:none" points="1808.96,198.898 2279.55,198.898 2279.55,95.2176 1808.96,95.2176 1808.96,198.898 "></polyline>
<path clip-path="url(#clip610)" d="M1833.37 167.794 L1979.78 167.794 L1979.78 126.322 L1833.37 126.322 L1833.37 167.794  Z" fill="#009af9" fill-rule="evenodd" fill-opacity="1"></path>
<polyline clip-path="url(#clip610)" style="stroke:#000000; stroke-linecap:round; stroke-linejoin:round; stroke-width:4; stroke-opacity:1; fill:none" points="1833.37,167.794 1979.78,167.794 1979.78,126.322 1833.37,126.322 1833.37,167.794 "></polyline>
<path clip-path="url(#clip610)" d="M2008.46 160.449 L2008.46 174.199 L2004.18 174.199 L2004.18 138.412 L2008.46 138.412 L2008.46 142.347 Q2009.8 140.032 2011.84 138.921 Q2013.9 137.787 2016.75 137.787 Q2021.47 137.787 2024.41 141.537 Q2027.37 145.287 2027.37 151.398 Q2027.37 157.509 2024.41 161.259 Q2021.47 165.009 2016.75 165.009 Q2013.9 165.009 2011.84 163.898 Q2009.8 162.763 2008.46 160.449 M2022.95 151.398 Q2022.95 146.699 2021.01 144.037 Q2019.09 141.352 2015.71 141.352 Q2012.33 141.352 2010.38 144.037 Q2008.46 146.699 2008.46 151.398 Q2008.46 156.097 2010.38 158.782 Q2012.33 161.444 2015.71 161.444 Q2019.09 161.444 2021.01 158.782 Q2022.95 156.097 2022.95 151.398 Z" fill="#000000" fill-rule="nonzero" fill-opacity="1"></path><path clip-path="url(#clip610)" d="M2044.48 141.398 Q2041.05 141.398 2039.06 144.083 Q2037.07 146.745 2037.07 151.398 Q2037.07 156.051 2039.04 158.736 Q2041.03 161.398 2044.48 161.398 Q2047.88 161.398 2049.87 158.713 Q2051.86 156.027 2051.86 151.398 Q2051.86 146.791 2049.87 144.106 Q2047.88 141.398 2044.48 141.398 M2044.48 137.787 Q2050.03 137.787 2053.21 141.398 Q2056.38 145.009 2056.38 151.398 Q2056.38 157.764 2053.21 161.398 Q2050.03 165.009 2044.48 165.009 Q2038.9 165.009 2035.73 161.398 Q2032.58 157.764 2032.58 151.398 Q2032.58 145.009 2035.73 141.398 Q2038.9 137.787 2044.48 137.787 Z" fill="#000000" fill-rule="nonzero" fill-opacity="1"></path><path clip-path="url(#clip610)" d="M2079.96 139.176 L2079.96 143.203 Q2078.16 142.277 2076.21 141.815 Q2074.27 141.352 2072.19 141.352 Q2069.02 141.352 2067.42 142.324 Q2065.84 143.296 2065.84 145.24 Q2065.84 146.722 2066.98 147.578 Q2068.11 148.412 2071.54 149.176 L2073 149.5 Q2077.53 150.472 2079.43 152.254 Q2081.35 154.014 2081.35 157.185 Q2081.35 160.796 2078.48 162.902 Q2075.64 165.009 2070.64 165.009 Q2068.55 165.009 2066.28 164.592 Q2064.04 164.199 2061.54 163.388 L2061.54 158.99 Q2063.9 160.217 2066.19 160.842 Q2068.48 161.444 2070.73 161.444 Q2073.74 161.444 2075.36 160.426 Q2076.98 159.384 2076.98 157.509 Q2076.98 155.773 2075.8 154.847 Q2074.64 153.921 2070.68 153.064 L2069.2 152.717 Q2065.24 151.884 2063.48 150.171 Q2061.72 148.435 2061.72 145.426 Q2061.72 141.768 2064.32 139.778 Q2066.91 137.787 2071.68 137.787 Q2074.04 137.787 2076.12 138.134 Q2078.21 138.481 2079.96 139.176 Z" fill="#000000" fill-rule="nonzero" fill-opacity="1"></path><path clip-path="url(#clip610)" d="M2092.35 131.051 L2092.35 138.412 L2101.12 138.412 L2101.12 141.722 L2092.35 141.722 L2092.35 155.796 Q2092.35 158.967 2093.21 159.87 Q2094.08 160.773 2096.75 160.773 L2101.12 160.773 L2101.12 164.338 L2096.75 164.338 Q2091.82 164.338 2089.94 162.509 Q2088.07 160.657 2088.07 155.796 L2088.07 141.722 L2084.94 141.722 L2084.94 138.412 L2088.07 138.412 L2088.07 131.051 L2092.35 131.051 Z" fill="#000000" fill-rule="nonzero" fill-opacity="1"></path><path clip-path="url(#clip610)" d="M2128.9 150.31 L2128.9 152.393 L2109.32 152.393 Q2109.59 156.791 2111.96 159.106 Q2114.34 161.398 2118.58 161.398 Q2121.03 161.398 2123.32 160.796 Q2125.64 160.194 2127.9 158.99 L2127.9 163.018 Q2125.61 163.99 2123.21 164.5 Q2120.8 165.009 2118.32 165.009 Q2112.12 165.009 2108.48 161.398 Q2104.87 157.787 2104.87 151.629 Q2104.87 145.264 2108.3 141.537 Q2111.75 137.787 2117.58 137.787 Q2122.81 137.787 2125.84 141.166 Q2128.9 144.523 2128.9 150.31 M2124.64 149.06 Q2124.59 145.565 2122.67 143.481 Q2120.77 141.398 2117.63 141.398 Q2114.06 141.398 2111.91 143.412 Q2109.78 145.426 2109.46 149.083 L2124.64 149.06 Z" fill="#000000" fill-rule="nonzero" fill-opacity="1"></path><path clip-path="url(#clip610)" d="M2150.91 142.393 Q2150.2 141.977 2149.34 141.791 Q2148.51 141.583 2147.49 141.583 Q2143.88 141.583 2141.93 143.944 Q2140.01 146.282 2140.01 150.68 L2140.01 164.338 L2135.73 164.338 L2135.73 138.412 L2140.01 138.412 L2140.01 142.44 Q2141.35 140.078 2143.51 138.944 Q2145.66 137.787 2148.74 137.787 Q2149.18 137.787 2149.71 137.856 Q2150.24 137.903 2150.89 138.018 L2150.91 142.393 Z" fill="#000000" fill-rule="nonzero" fill-opacity="1"></path><path clip-path="url(#clip610)" d="M2155.38 138.412 L2159.64 138.412 L2159.64 164.338 L2155.38 164.338 L2155.38 138.412 M2155.38 128.319 L2159.64 128.319 L2159.64 133.713 L2155.38 133.713 L2155.38 128.319 Z" fill="#000000" fill-rule="nonzero" fill-opacity="1"></path><path clip-path="url(#clip610)" d="M2178.6 141.398 Q2175.17 141.398 2173.18 144.083 Q2171.19 146.745 2171.19 151.398 Q2171.19 156.051 2173.16 158.736 Q2175.15 161.398 2178.6 161.398 Q2182 161.398 2183.99 158.713 Q2185.98 156.027 2185.98 151.398 Q2185.98 146.791 2183.99 144.106 Q2182 141.398 2178.6 141.398 M2178.6 137.787 Q2184.15 137.787 2187.33 141.398 Q2190.5 145.009 2190.5 151.398 Q2190.5 157.764 2187.33 161.398 Q2184.15 165.009 2178.6 165.009 Q2173.02 165.009 2169.85 161.398 Q2166.7 157.764 2166.7 151.398 Q2166.7 145.009 2169.85 141.398 Q2173.02 137.787 2178.6 137.787 Z" fill="#000000" fill-rule="nonzero" fill-opacity="1"></path><path clip-path="url(#clip610)" d="M2212.58 142.393 Q2211.86 141.977 2211.01 141.791 Q2210.17 141.583 2209.15 141.583 Q2205.54 141.583 2203.6 143.944 Q2201.68 146.282 2201.68 150.68 L2201.68 164.338 L2197.39 164.338 L2197.39 138.412 L2201.68 138.412 L2201.68 142.44 Q2203.02 140.078 2205.17 138.944 Q2207.33 137.787 2210.4 137.787 Q2210.84 137.787 2211.38 137.856 Q2211.91 137.903 2212.56 138.018 L2212.58 142.393 Z" fill="#000000" fill-rule="nonzero" fill-opacity="1"></path><path clip-path="url(#clip610)" d="M2250.73 151.398 Q2250.73 146.699 2248.78 144.037 Q2246.86 141.352 2243.48 141.352 Q2240.1 141.352 2238.16 144.037 Q2236.24 146.699 2236.24 151.398 Q2236.24 156.097 2238.16 158.782 Q2240.1 161.444 2243.48 161.444 Q2246.86 161.444 2248.78 158.782 Q2250.73 156.097 2250.73 151.398 M2236.24 142.347 Q2237.58 140.032 2239.62 138.921 Q2241.68 137.787 2244.52 137.787 Q2249.25 137.787 2252.19 141.537 Q2255.15 145.287 2255.15 151.398 Q2255.15 157.509 2252.19 161.259 Q2249.25 165.009 2244.52 165.009 Q2241.68 165.009 2239.62 163.898 Q2237.58 162.763 2236.24 160.449 L2236.24 164.338 L2231.95 164.338 L2231.95 128.319 L2236.24 128.319 L2236.24 142.347 Z" fill="#000000" fill-rule="nonzero" fill-opacity="1"></path></svg>