<svg xmlns="http://www.w3.org/2000/svg" xmlns:xlink="http://www.w3.org/1999/xlink" width="600" height="400" viewBox="0 0 2400 1600">
<defs>
  <clipPath id="clip490">
    <rect x="0" y="0" width="2400" height="1600"></rect>
  </clipPath>
</defs>
<path clip-path="url(#clip490)" d="M0 1600 L2400 1600 L2400 0 L0 0  Z" fill="#ffffff" fill-rule="evenodd" fill-opacity="1"></path>
<defs>
  <clipPath id="clip491">
    <rect x="480" y="0" width="1681" height="1600"></rect>
  </clipPath>
</defs>
<path clip-path="url(#clip490)" d="M156.598 1486.45 L2352.76 1486.45 L2352.76 47.2441 L156.598 47.2441  Z" fill="#ffffff" fill-rule="evenodd" fill-opacity="1"></path>
<defs>
  <clipPath id="clip492">
    <rect x="156" y="47" width="2197" height="1440"></rect>
  </clipPath>
</defs>
<polyline clip-path="url(#clip492)" style="stroke:#000000; stroke-linecap:round; stroke-linejoin:round; stroke-width:2; stroke-opacity:0.1; fill:none" points="156.598,1486.45 156.598,47.2441 "></polyline>
<polyline clip-path="url(#clip492)" style="stroke:#000000; stroke-linecap:round; stroke-linejoin:round; stroke-width:2; stroke-opacity:0.1; fill:none" points="595.83,1486.45 595.83,47.2441 "></polyline>
<polyline clip-path="url(#clip492)" style="stroke:#000000; stroke-linecap:round; stroke-linejoin:round; stroke-width:2; stroke-opacity:0.1; fill:none" points="1035.06,1486.45 1035.06,47.2441 "></polyline>
<polyline clip-path="url(#clip492)" style="stroke:#000000; stroke-linecap:round; stroke-linejoin:round; stroke-width:2; stroke-opacity:0.1; fill:none" points="1474.29,1486.45 1474.29,47.2441 "></polyline>
<polyline clip-path="url(#clip492)" style="stroke:#000000; stroke-linecap:round; stroke-linejoin:round; stroke-width:2; stroke-opacity:0.1; fill:none" points="1913.52,1486.45 1913.52,47.2441 "></polyline>
<polyline clip-path="url(#clip492)" style="stroke:#000000; stroke-linecap:round; stroke-linejoin:round; stroke-width:2; stroke-opacity:0.1; fill:none" points="2352.76,1486.45 2352.76,47.2441 "></polyline>
<polyline clip-path="url(#clip490)" style="stroke:#000000; stroke-linecap:round; stroke-linejoin:round; stroke-width:4; stroke-opacity:1; fill:none" points="156.598,1486.45 2352.76,1486.45 "></polyline>
<polyline clip-path="url(#clip490)" style="stroke:#000000; stroke-linecap:round; stroke-linejoin:round; stroke-width:4; stroke-opacity:1; fill:none" points="156.598,1486.45 156.598,1467.55 "></polyline>
<polyline clip-path="url(#clip490)" style="stroke:#000000; stroke-linecap:round; stroke-linejoin:round; stroke-width:4; stroke-opacity:1; fill:none" points="595.83,1486.45 595.83,1467.55 "></polyline>
<polyline clip-path="url(#clip490)" style="stroke:#000000; stroke-linecap:round; stroke-linejoin:round; stroke-width:4; stroke-opacity:1; fill:none" points="1035.06,1486.45 1035.06,1467.55 "></polyline>
<polyline clip-path="url(#clip490)" style="stroke:#000000; stroke-linecap:round; stroke-linejoin:round; stroke-width:4; stroke-opacity:1; fill:none" points="1474.29,1486.45 1474.29,1467.55 "></polyline>
<polyline clip-path="url(#clip490)" style="stroke:#000000; stroke-linecap:round; stroke-linejoin:round; stroke-width:4; stroke-opacity:1; fill:none" points="1913.52,1486.45 1913.52,1467.55 "></polyline>
<polyline clip-path="url(#clip490)" style="stroke:#000000; stroke-linecap:round; stroke-linejoin:round; stroke-width:4; stroke-opacity:1; fill:none" points="2352.76,1486.45 2352.76,1467.55 "></polyline>
<path clip-path="url(#clip490)" d="M156.598 1517.37 Q152.987 1517.37 151.158 1520.93 Q149.353 1524.47 149.353 1531.6 Q149.353 1538.71 151.158 1542.27 Q152.987 1545.82 156.598 1545.82 Q160.232 1545.82 162.038 1542.27 Q163.867 1538.71 163.867 1531.6 Q163.867 1524.47 162.038 1520.93 Q160.232 1517.37 156.598 1517.37 M156.598 1513.66 Q162.408 1513.66 165.464 1518.27 Q168.543 1522.85 168.543 1531.6 Q168.543 1540.33 165.464 1544.94 Q162.408 1549.52 156.598 1549.52 Q150.788 1549.52 147.709 1544.94 Q144.654 1540.33 144.654 1531.6 Q144.654 1522.85 147.709 1518.27 Q150.788 1513.66 156.598 1513.66 Z" fill="#000000" fill-rule="nonzero" fill-opacity="1"></path><path clip-path="url(#clip490)" d="M590.483 1544.91 L606.802 1544.91 L606.802 1548.85 L584.858 1548.85 L584.858 1544.91 Q587.52 1542.16 592.103 1537.53 Q596.709 1532.88 597.89 1531.53 Q600.135 1529.01 601.015 1527.27 Q601.918 1525.51 601.918 1523.82 Q601.918 1521.07 599.973 1519.33 Q598.052 1517.6 594.95 1517.6 Q592.751 1517.6 590.297 1518.36 Q587.867 1519.13 585.089 1520.68 L585.089 1515.95 Q587.913 1514.82 590.367 1514.24 Q592.821 1513.66 594.858 1513.66 Q600.228 1513.66 603.422 1516.35 Q606.617 1519.03 606.617 1523.52 Q606.617 1525.65 605.807 1527.57 Q605.02 1529.47 602.913 1532.07 Q602.334 1532.74 599.233 1535.95 Q596.131 1539.15 590.483 1544.91 Z" fill="#000000" fill-rule="nonzero" fill-opacity="1"></path><path clip-path="url(#clip490)" d="M1038.07 1518.36 L1026.27 1536.81 L1038.07 1536.81 L1038.07 1518.36 M1036.84 1514.29 L1042.72 1514.29 L1042.72 1536.81 L1047.65 1536.81 L1047.65 1540.7 L1042.72 1540.7 L1042.72 1548.85 L1038.07 1548.85 L1038.07 1540.7 L1022.47 1540.7 L1022.47 1536.19 L1036.84 1514.29 Z" fill="#000000" fill-rule="nonzero" fill-opacity="1"></path><path clip-path="url(#clip490)" d="M1474.7 1529.7 Q1471.55 1529.7 1469.7 1531.86 Q1467.87 1534.01 1467.87 1537.76 Q1467.87 1541.49 1469.7 1543.66 Q1471.55 1545.82 1474.7 1545.82 Q1477.85 1545.82 1479.67 1543.66 Q1481.53 1541.49 1481.53 1537.76 Q1481.53 1534.01 1479.67 1531.86 Q1477.85 1529.7 1474.7 1529.7 M1483.98 1515.05 L1483.98 1519.31 Q1482.22 1518.48 1480.42 1518.04 Q1478.63 1517.6 1476.87 1517.6 Q1472.24 1517.6 1469.79 1520.72 Q1467.36 1523.85 1467.01 1530.17 Q1468.38 1528.15 1470.44 1527.09 Q1472.5 1526 1474.98 1526 Q1480.18 1526 1483.19 1529.17 Q1486.23 1532.32 1486.23 1537.76 Q1486.23 1543.08 1483.08 1546.3 Q1479.93 1549.52 1474.7 1549.52 Q1468.7 1549.52 1465.53 1544.94 Q1462.36 1540.33 1462.36 1531.6 Q1462.36 1523.41 1466.25 1518.55 Q1470.14 1513.66 1476.69 1513.66 Q1478.45 1513.66 1480.23 1514.01 Q1482.04 1514.36 1483.98 1515.05 Z" fill="#000000" fill-rule="nonzero" fill-opacity="1"></path><path clip-path="url(#clip490)" d="M1913.52 1532.44 Q1910.19 1532.44 1908.27 1534.22 Q1906.37 1536 1906.37 1539.13 Q1906.37 1542.25 1908.27 1544.03 Q1910.19 1545.82 1913.52 1545.82 Q1916.86 1545.82 1918.78 1544.03 Q1920.7 1542.23 1920.7 1539.13 Q1920.7 1536 1918.78 1534.22 Q1916.88 1532.44 1913.52 1532.44 M1908.85 1530.45 Q1905.84 1529.7 1904.15 1527.64 Q1902.48 1525.58 1902.48 1522.62 Q1902.48 1518.48 1905.42 1516.07 Q1908.39 1513.66 1913.52 1513.66 Q1918.69 1513.66 1921.63 1516.07 Q1924.57 1518.48 1924.57 1522.62 Q1924.57 1525.58 1922.88 1527.64 Q1921.21 1529.7 1918.22 1530.45 Q1921.6 1531.23 1923.48 1533.52 Q1925.38 1535.82 1925.38 1539.13 Q1925.38 1544.15 1922.3 1546.83 Q1919.24 1549.52 1913.52 1549.52 Q1907.81 1549.52 1904.73 1546.83 Q1901.67 1544.15 1901.67 1539.13 Q1901.67 1535.82 1903.57 1533.52 Q1905.47 1531.23 1908.85 1530.45 M1907.14 1523.06 Q1907.14 1525.75 1908.8 1527.25 Q1910.49 1528.76 1913.52 1528.76 Q1916.53 1528.76 1918.22 1527.25 Q1919.94 1525.75 1919.94 1523.06 Q1919.94 1520.38 1918.22 1518.87 Q1916.53 1517.37 1913.52 1517.37 Q1910.49 1517.37 1908.8 1518.87 Q1907.14 1520.38 1907.14 1523.06 Z" fill="#000000" fill-rule="nonzero" fill-opacity="1"></path><path clip-path="url(#clip490)" d="M2327.44 1544.91 L2335.08 1544.91 L2335.08 1518.55 L2326.77 1520.21 L2326.77 1515.95 L2335.04 1514.29 L2339.71 1514.29 L2339.71 1544.91 L2347.35 1544.91 L2347.35 1548.85 L2327.44 1548.85 L2327.44 1544.91 Z" fill="#000000" fill-rule="nonzero" fill-opacity="1"></path><path clip-path="url(#clip490)" d="M2366.8 1517.37 Q2363.18 1517.37 2361.36 1520.93 Q2359.55 1524.47 2359.55 1531.6 Q2359.55 1538.71 2361.36 1542.27 Q2363.18 1545.82 2366.8 1545.82 Q2370.43 1545.82 2372.23 1542.27 Q2374.06 1538.71 2374.06 1531.6 Q2374.06 1524.47 2372.23 1520.93 Q2370.43 1517.37 2366.8 1517.37 M2366.8 1513.66 Q2372.61 1513.66 2375.66 1518.27 Q2378.74 1522.85 2378.74 1531.6 Q2378.74 1540.33 2375.66 1544.94 Q2372.61 1549.52 2366.8 1549.52 Q2360.99 1549.52 2357.91 1544.94 Q2354.85 1540.33 2354.85 1531.6 Q2354.85 1522.85 2357.91 1518.27 Q2360.99 1513.66 2366.8 1513.66 Z" fill="#000000" fill-rule="nonzero" fill-opacity="1"></path><polyline clip-path="url(#clip492)" style="stroke:#000000; stroke-linecap:round; stroke-linejoin:round; stroke-width:2; stroke-opacity:0.1; fill:none" points="156.598,1486.45 2352.76,1486.45 "></polyline>
<polyline clip-path="url(#clip492)" style="stroke:#000000; stroke-linecap:round; stroke-linejoin:round; stroke-width:2; stroke-opacity:0.1; fill:none" points="156.598,1258.57 2352.76,1258.57 "></polyline>
<polyline clip-path="url(#clip492)" style="stroke:#000000; stroke-linecap:round; stroke-linejoin:round; stroke-width:2; stroke-opacity:0.1; fill:none" points="156.598,1030.7 2352.76,1030.7 "></polyline>
<polyline clip-path="url(#clip492)" style="stroke:#000000; stroke-linecap:round; stroke-linejoin:round; stroke-width:2; stroke-opacity:0.1; fill:none" points="156.598,802.826 2352.76,802.826 "></polyline>
<polyline clip-path="url(#clip492)" style="stroke:#000000; stroke-linecap:round; stroke-linejoin:round; stroke-width:2; stroke-opacity:0.1; fill:none" points="156.598,574.952 2352.76,574.952 "></polyline>
<polyline clip-path="url(#clip492)" style="stroke:#000000; stroke-linecap:round; stroke-linejoin:round; stroke-width:2; stroke-opacity:0.1; fill:none" points="156.598,347.078 2352.76,347.078 "></polyline>
<polyline clip-path="url(#clip492)" style="stroke:#000000; stroke-linecap:round; stroke-linejoin:round; stroke-width:2; stroke-opacity:0.1; fill:none" points="156.598,119.204 2352.76,119.204 "></polyline>
<polyline clip-path="url(#clip490)" style="stroke:#000000; stroke-linecap:round; stroke-linejoin:round; stroke-width:4; stroke-opacity:1; fill:none" points="156.598,1486.45 156.598,47.2441 "></polyline>
<polyline clip-path="url(#clip490)" style="stroke:#000000; stroke-linecap:round; stroke-linejoin:round; stroke-width:4; stroke-opacity:1; fill:none" points="156.598,1486.45 175.496,1486.45 "></polyline>
<polyline clip-path="url(#clip490)" style="stroke:#000000; stroke-linecap:round; stroke-linejoin:round; stroke-width:4; stroke-opacity:1; fill:none" points="156.598,1258.57 175.496,1258.57 "></polyline>
<polyline clip-path="url(#clip490)" style="stroke:#000000; stroke-linecap:round; stroke-linejoin:round; stroke-width:4; stroke-opacity:1; fill:none" points="156.598,1030.7 175.496,1030.7 "></polyline>
<polyline clip-path="url(#clip490)" style="stroke:#000000; stroke-linecap:round; stroke-linejoin:round; stroke-width:4; stroke-opacity:1; fill:none" points="156.598,802.826 175.496,802.826 "></polyline>
<polyline clip-path="url(#clip490)" style="stroke:#000000; stroke-linecap:round; stroke-linejoin:round; stroke-width:4; stroke-opacity:1; fill:none" points="156.598,574.952 175.496,574.952 "></polyline>
<polyline clip-path="url(#clip490)" style="stroke:#000000; stroke-linecap:round; stroke-linejoin:round; stroke-width:4; stroke-opacity:1; fill:none" points="156.598,347.078 175.496,347.078 "></polyline>
<polyline clip-path="url(#clip490)" style="stroke:#000000; stroke-linecap:round; stroke-linejoin:round; stroke-width:4; stroke-opacity:1; fill:none" points="156.598,119.204 175.496,119.204 "></polyline>
<path clip-path="url(#clip490)" d="M63.4226 1472.25 Q59.8115 1472.25 57.9828 1475.81 Q56.1773 1479.35 56.1773 1486.48 Q56.1773 1493.59 57.9828 1497.15 Q59.8115 1500.7 63.4226 1500.7 Q67.0569 1500.7 68.8624 1497.15 Q70.6911 1493.59 70.6911 1486.48 Q70.6911 1479.35 68.8624 1475.81 Q67.0569 1472.25 63.4226 1472.25 M63.4226 1468.54 Q69.2328 1468.54 72.2883 1473.15 Q75.367 1477.73 75.367 1486.48 Q75.367 1495.21 72.2883 1499.82 Q69.2328 1504.4 63.4226 1504.4 Q57.6125 1504.4 54.5338 1499.82 Q51.4782 1495.21 51.4782 1486.48 Q51.4782 1477.73 54.5338 1473.15 Q57.6125 1468.54 63.4226 1468.54 Z" fill="#000000" fill-rule="nonzero" fill-opacity="1"></path><path clip-path="url(#clip490)" d="M83.5845 1497.85 L88.4688 1497.85 L88.4688 1503.73 L83.5845 1503.73 L83.5845 1497.85 Z" fill="#000000" fill-rule="nonzero" fill-opacity="1"></path><path clip-path="url(#clip490)" d="M108.654 1472.25 Q105.043 1472.25 103.214 1475.81 Q101.409 1479.35 101.409 1486.48 Q101.409 1493.59 103.214 1497.15 Q105.043 1500.7 108.654 1500.7 Q112.288 1500.7 114.094 1497.15 Q115.922 1493.59 115.922 1486.48 Q115.922 1479.35 114.094 1475.81 Q112.288 1472.25 108.654 1472.25 M108.654 1468.54 Q114.464 1468.54 117.52 1473.15 Q120.598 1477.73 120.598 1486.48 Q120.598 1495.21 117.52 1499.82 Q114.464 1504.4 108.654 1504.4 Q102.844 1504.4 99.765 1499.82 Q96.7095 1495.21 96.7095 1486.48 Q96.7095 1477.73 99.765 1473.15 Q102.844 1468.54 108.654 1468.54 Z" fill="#000000" fill-rule="nonzero" fill-opacity="1"></path><path clip-path="url(#clip490)" d="M64.6495 1244.37 Q61.0384 1244.37 59.2097 1247.94 Q57.4041 1251.48 57.4041 1258.61 Q57.4041 1265.72 59.2097 1269.28 Q61.0384 1272.82 64.6495 1272.82 Q68.2837 1272.82 70.0892 1269.28 Q71.9179 1265.72 71.9179 1258.61 Q71.9179 1251.48 70.0892 1247.94 Q68.2837 1244.37 64.6495 1244.37 M64.6495 1240.67 Q70.4596 1240.67 73.5152 1245.28 Q76.5938 1249.86 76.5938 1258.61 Q76.5938 1267.34 73.5152 1271.94 Q70.4596 1276.53 64.6495 1276.53 Q58.8393 1276.53 55.7606 1271.94 Q52.7051 1267.34 52.7051 1258.61 Q52.7051 1249.86 55.7606 1245.28 Q58.8393 1240.67 64.6495 1240.67 Z" fill="#000000" fill-rule="nonzero" fill-opacity="1"></path><path clip-path="url(#clip490)" d="M84.8114 1269.97 L89.6956 1269.97 L89.6956 1275.85 L84.8114 1275.85 L84.8114 1269.97 Z" fill="#000000" fill-rule="nonzero" fill-opacity="1"></path><path clip-path="url(#clip490)" d="M100.691 1271.92 L108.33 1271.92 L108.33 1245.55 L100.02 1247.22 L100.02 1242.96 L108.283 1241.29 L112.959 1241.29 L112.959 1271.92 L120.598 1271.92 L120.598 1275.85 L100.691 1275.85 L100.691 1271.92 Z" fill="#000000" fill-rule="nonzero" fill-opacity="1"></path><path clip-path="url(#clip490)" d="M65.0198 1016.5 Q61.4087 1016.5 59.58 1020.06 Q57.7745 1023.61 57.7745 1030.73 Q57.7745 1037.84 59.58 1041.41 Q61.4087 1044.95 65.0198 1044.95 Q68.6541 1044.95 70.4596 1041.41 Q72.2883 1037.84 72.2883 1030.73 Q72.2883 1023.61 70.4596 1020.06 Q68.6541 1016.5 65.0198 1016.5 M65.0198 1012.8 Q70.83 1012.8 73.8855 1017.4 Q76.9642 1021.98 76.9642 1030.73 Q76.9642 1039.46 73.8855 1044.07 Q70.83 1048.65 65.0198 1048.65 Q59.2097 1048.65 56.131 1044.07 Q53.0754 1039.46 53.0754 1030.73 Q53.0754 1021.98 56.131 1017.4 Q59.2097 1012.8 65.0198 1012.8 Z" fill="#000000" fill-rule="nonzero" fill-opacity="1"></path><path clip-path="url(#clip490)" d="M85.1818 1042.1 L90.066 1042.1 L90.066 1047.98 L85.1818 1047.98 L85.1818 1042.1 Z" fill="#000000" fill-rule="nonzero" fill-opacity="1"></path><path clip-path="url(#clip490)" d="M104.279 1044.04 L120.598 1044.04 L120.598 1047.98 L98.6539 1047.98 L98.6539 1044.04 Q101.316 1041.29 105.899 1036.66 Q110.506 1032.01 111.686 1030.67 Q113.932 1028.14 114.811 1026.41 Q115.714 1024.65 115.714 1022.96 Q115.714 1020.2 113.77 1018.47 Q111.848 1016.73 108.746 1016.73 Q106.547 1016.73 104.094 1017.49 Q101.663 1018.26 98.8854 1019.81 L98.8854 1015.09 Q101.709 1013.95 104.163 1013.37 Q106.617 1012.8 108.654 1012.8 Q114.024 1012.8 117.219 1015.48 Q120.413 1018.17 120.413 1022.66 Q120.413 1024.79 119.603 1026.71 Q118.816 1028.61 116.709 1031.2 Q116.131 1031.87 113.029 1035.09 Q109.927 1038.28 104.279 1044.04 Z" fill="#000000" fill-rule="nonzero" fill-opacity="1"></path><path clip-path="url(#clip490)" d="M64.0708 788.625 Q60.4597 788.625 58.631 792.19 Q56.8254 795.731 56.8254 802.861 Q56.8254 809.967 58.631 813.532 Q60.4597 817.074 64.0708 817.074 Q67.705 817.074 69.5105 813.532 Q71.3392 809.967 71.3392 802.861 Q71.3392 795.731 69.5105 792.19 Q67.705 788.625 64.0708 788.625 M64.0708 784.921 Q69.8809 784.921 72.9365 789.528 Q76.0151 794.111 76.0151 802.861 Q76.0151 811.588 72.9365 816.194 Q69.8809 820.777 64.0708 820.777 Q58.2606 820.777 55.1819 816.194 Q52.1264 811.588 52.1264 802.861 Q52.1264 794.111 55.1819 789.528 Q58.2606 784.921 64.0708 784.921 Z" fill="#000000" fill-rule="nonzero" fill-opacity="1"></path><path clip-path="url(#clip490)" d="M84.2327 814.226 L89.1169 814.226 L89.1169 820.106 L84.2327 820.106 L84.2327 814.226 Z" fill="#000000" fill-rule="nonzero" fill-opacity="1"></path><path clip-path="url(#clip490)" d="M113.469 801.472 Q116.825 802.19 118.7 804.458 Q120.598 806.727 120.598 810.06 Q120.598 815.176 117.08 817.976 Q113.561 820.777 107.08 820.777 Q104.904 820.777 102.589 820.338 Q100.297 819.921 97.8437 819.064 L97.8437 814.551 Q99.7882 815.685 102.103 816.264 Q104.418 816.842 106.941 816.842 Q111.339 816.842 113.631 815.106 Q115.945 813.37 115.945 810.06 Q115.945 807.004 113.793 805.291 Q111.663 803.555 107.844 803.555 L103.816 803.555 L103.816 799.713 L108.029 799.713 Q111.478 799.713 113.307 798.347 Q115.135 796.958 115.135 794.365 Q115.135 791.703 113.237 790.291 Q111.362 788.856 107.844 788.856 Q105.922 788.856 103.723 789.273 Q101.524 789.69 98.8854 790.569 L98.8854 786.403 Q101.547 785.662 103.862 785.291 Q106.2 784.921 108.26 784.921 Q113.584 784.921 116.686 787.352 Q119.788 789.759 119.788 793.879 Q119.788 796.75 118.145 798.74 Q116.501 800.708 113.469 801.472 Z" fill="#000000" fill-rule="nonzero" fill-opacity="1"></path><path clip-path="url(#clip490)" d="M62.9365 560.751 Q59.3254 560.751 57.4967 564.316 Q55.6912 567.857 55.6912 574.987 Q55.6912 582.093 57.4967 585.658 Q59.3254 589.2 62.9365 589.2 Q66.5707 589.2 68.3763 585.658 Q70.205 582.093 70.205 574.987 Q70.205 567.857 68.3763 564.316 Q66.5707 560.751 62.9365 560.751 M62.9365 557.047 Q68.7467 557.047 71.8022 561.654 Q74.8809 566.237 74.8809 574.987 Q74.8809 583.714 71.8022 588.32 Q68.7467 592.903 62.9365 592.903 Q57.1264 592.903 54.0477 588.32 Q50.9921 583.714 50.9921 574.987 Q50.9921 566.237 54.0477 561.654 Q57.1264 557.047 62.9365 557.047 Z" fill="#000000" fill-rule="nonzero" fill-opacity="1"></path><path clip-path="url(#clip490)" d="M83.0984 586.353 L87.9827 586.353 L87.9827 592.232 L83.0984 592.232 L83.0984 586.353 Z" fill="#000000" fill-rule="nonzero" fill-opacity="1"></path><path clip-path="url(#clip490)" d="M111.015 561.746 L99.2095 580.195 L111.015 580.195 L111.015 561.746 M109.788 557.672 L115.668 557.672 L115.668 580.195 L120.598 580.195 L120.598 584.084 L115.668 584.084 L115.668 592.232 L111.015 592.232 L111.015 584.084 L95.4132 584.084 L95.4132 579.57 L109.788 557.672 Z" fill="#000000" fill-rule="nonzero" fill-opacity="1"></path><path clip-path="url(#clip490)" d="M64.418 332.877 Q60.8069 332.877 58.9782 336.442 Q57.1726 339.983 57.1726 347.113 Q57.1726 354.219 58.9782 357.784 Q60.8069 361.326 64.418 361.326 Q68.0522 361.326 69.8578 357.784 Q71.6865 354.219 71.6865 347.113 Q71.6865 339.983 69.8578 336.442 Q68.0522 332.877 64.418 332.877 M64.418 329.173 Q70.2281 329.173 73.2837 333.78 Q76.3624 338.363 76.3624 347.113 Q76.3624 355.84 73.2837 360.446 Q70.2281 365.03 64.418 365.03 Q58.6078 365.03 55.5291 360.446 Q52.4736 355.84 52.4736 347.113 Q52.4736 338.363 55.5291 333.78 Q58.6078 329.173 64.418 329.173 Z" fill="#000000" fill-rule="nonzero" fill-opacity="1"></path><path clip-path="url(#clip490)" d="M84.5799 358.479 L89.4641 358.479 L89.4641 364.358 L84.5799 364.358 L84.5799 358.479 Z" fill="#000000" fill-rule="nonzero" fill-opacity="1"></path><path clip-path="url(#clip490)" d="M99.6956 329.798 L118.052 329.798 L118.052 333.733 L103.978 333.733 L103.978 342.206 Q104.996 341.858 106.015 341.696 Q107.033 341.511 108.052 341.511 Q113.839 341.511 117.219 344.682 Q120.598 347.854 120.598 353.27 Q120.598 358.849 117.126 361.951 Q113.654 365.03 107.334 365.03 Q105.159 365.03 102.89 364.659 Q100.645 364.289 98.2372 363.548 L98.2372 358.849 Q100.321 359.983 102.543 360.539 Q104.765 361.094 107.242 361.094 Q111.246 361.094 113.584 358.988 Q115.922 356.881 115.922 353.27 Q115.922 349.659 113.584 347.553 Q111.246 345.446 107.242 345.446 Q105.367 345.446 103.492 345.863 Q101.64 346.28 99.6956 347.159 L99.6956 329.798 Z" fill="#000000" fill-rule="nonzero" fill-opacity="1"></path><path clip-path="url(#clip490)" d="M63.2606 105.003 Q59.6495 105.003 57.8208 108.568 Q56.0152 112.109 56.0152 119.239 Q56.0152 126.345 57.8208 129.91 Q59.6495 133.452 63.2606 133.452 Q66.8948 133.452 68.7004 129.91 Q70.5291 126.345 70.5291 119.239 Q70.5291 112.109 68.7004 108.568 Q66.8948 105.003 63.2606 105.003 M63.2606 101.299 Q69.0707 101.299 72.1263 105.906 Q75.205 110.489 75.205 119.239 Q75.205 127.966 72.1263 132.572 Q69.0707 137.156 63.2606 137.156 Q57.4504 137.156 54.3717 132.572 Q51.3162 127.966 51.3162 119.239 Q51.3162 110.489 54.3717 105.906 Q57.4504 101.299 63.2606 101.299 Z" fill="#000000" fill-rule="nonzero" fill-opacity="1"></path><path clip-path="url(#clip490)" d="M83.4225 130.605 L88.3067 130.605 L88.3067 136.484 L83.4225 136.484 L83.4225 130.605 Z" fill="#000000" fill-rule="nonzero" fill-opacity="1"></path><path clip-path="url(#clip490)" d="M109.071 117.341 Q105.922 117.341 104.071 119.494 Q102.242 121.646 102.242 125.396 Q102.242 129.123 104.071 131.299 Q105.922 133.452 109.071 133.452 Q112.219 133.452 114.047 131.299 Q115.899 129.123 115.899 125.396 Q115.899 121.646 114.047 119.494 Q112.219 117.341 109.071 117.341 M118.353 102.688 L118.353 106.947 Q116.594 106.114 114.788 105.674 Q113.006 105.234 111.246 105.234 Q106.617 105.234 104.163 108.359 Q101.733 111.484 101.385 117.804 Q102.751 115.79 104.811 114.725 Q106.871 113.637 109.348 113.637 Q114.557 113.637 117.566 116.808 Q120.598 119.957 120.598 125.396 Q120.598 130.72 117.45 133.938 Q114.302 137.156 109.071 137.156 Q103.075 137.156 99.9039 132.572 Q96.7326 127.966 96.7326 119.239 Q96.7326 111.045 100.621 106.184 Q104.51 101.299 111.061 101.299 Q112.82 101.299 114.603 101.647 Q116.408 101.994 118.353 102.688 Z" fill="#000000" fill-rule="nonzero" fill-opacity="1"></path><path clip-path="url(#clip492)" d="M266.406 526.979 L266.406 1486.45 L376.214 1486.45 L376.214 526.979 L266.406 526.979 L266.406 526.979  Z" fill="#009af9" fill-rule="evenodd" fill-opacity="1"></path>
<polyline clip-path="url(#clip492)" style="stroke:#000000; stroke-linecap:round; stroke-linejoin:round; stroke-width:4; stroke-opacity:1; fill:none" points="266.406,526.979 266.406,1486.45 376.214,1486.45 376.214,526.979 266.406,526.979 "></polyline>
<path clip-path="url(#clip492)" d="M376.214 447.023 L376.214 1486.45 L486.022 1486.45 L486.022 447.023 L376.214 447.023 L376.214 447.023  Z" fill="#009af9" fill-rule="evenodd" fill-opacity="1"></path>
<polyline clip-path="url(#clip492)" style="stroke:#000000; stroke-linecap:round; stroke-linejoin:round; stroke-width:4; stroke-opacity:1; fill:none" points="376.214,447.023 376.214,1486.45 486.022,1486.45 486.022,447.023 376.214,447.023 "></polyline>
<path clip-path="url(#clip492)" d="M486.022 1486.45 L486.022 1486.45 L595.83 1486.45 L595.83 1486.45 L486.022 1486.45 L486.022 1486.45  Z" fill="#009af9" fill-rule="evenodd" fill-opacity="1"></path>
<polyline clip-path="url(#clip492)" style="stroke:#000000; stroke-linecap:round; stroke-linejoin:round; stroke-width:4; stroke-opacity:1; fill:none" points="486.022,1486.45 486.022,1486.45 595.83,1486.45 486.022,1486.45 "></polyline>
<path clip-path="url(#clip492)" d="M595.83 1486.45 L595.83 1486.45 L705.638 1486.45 L705.638 1486.45 L595.83 1486.45 L595.83 1486.45  Z" fill="#009af9" fill-rule="evenodd" fill-opacity="1"></path>
<polyline clip-path="url(#clip492)" style="stroke:#000000; stroke-linecap:round; stroke-linejoin:round; stroke-width:4; stroke-opacity:1; fill:none" points="595.83,1486.45 595.83,1486.45 705.638,1486.45 595.83,1486.45 "></polyline>
<path clip-path="url(#clip492)" d="M705.638 47.2441 L705.638 1486.45 L815.446 1486.45 L815.446 47.2441 L705.638 47.2441 L705.638 47.2441  Z" fill="#009af9" fill-rule="evenodd" fill-opacity="1"></path>
<polyline clip-path="url(#clip492)" style="stroke:#000000; stroke-linecap:round; stroke-linejoin:round; stroke-width:4; stroke-opacity:1; fill:none" points="705.638,47.2441 705.638,1486.45 815.446,1486.45 815.446,47.2441 705.638,47.2441 "></polyline>
<path clip-path="url(#clip492)" d="M815.446 1486.45 L815.446 1486.45 L925.253 1486.45 L925.253 1486.45 L815.446 1486.45 L815.446 1486.45  Z" fill="#009af9" fill-rule="evenodd" fill-opacity="1"></path>
<polyline clip-path="url(#clip492)" style="stroke:#000000; stroke-linecap:round; stroke-linejoin:round; stroke-width:4; stroke-opacity:1; fill:none" points="815.446,1486.45 815.446,1486.45 925.253,1486.45 815.446,1486.45 "></polyline>
<path clip-path="url(#clip492)" d="M925.253 766.846 L925.253 1486.45 L1035.06 1486.45 L1035.06 766.846 L925.253 766.846 L925.253 766.846  Z" fill="#009af9" fill-rule="evenodd" fill-opacity="1"></path>
<polyline clip-path="url(#clip492)" style="stroke:#000000; stroke-linecap:round; stroke-linejoin:round; stroke-width:4; stroke-opacity:1; fill:none" points="925.253,766.846 925.253,1486.45 1035.06,1486.45 1035.06,766.846 925.253,766.846 "></polyline>
<path clip-path="url(#clip492)" d="M1035.06 1486.45 L1035.06 1486.45 L1144.87 1486.45 L1144.87 1486.45 L1035.06 1486.45 L1035.06 1486.45  Z" fill="#009af9" fill-rule="evenodd" fill-opacity="1"></path>
<polyline clip-path="url(#clip492)" style="stroke:#000000; stroke-linecap:round; stroke-linejoin:round; stroke-width:4; stroke-opacity:1; fill:none" points="1035.06,1486.45 1035.06,1486.45 1144.87,1486.45 1035.06,1486.45 "></polyline>
<path clip-path="url(#clip492)" d="M1144.87 1086.67 L1144.87 1486.45 L1254.68 1486.45 L1254.68 1086.67 L1144.87 1086.67 L1144.87 1086.67  Z" fill="#009af9" fill-rule="evenodd" fill-opacity="1"></path>
<polyline clip-path="url(#clip492)" style="stroke:#000000; stroke-linecap:round; stroke-linejoin:round; stroke-width:4; stroke-opacity:1; fill:none" points="1144.87,1086.67 1144.87,1486.45 1254.68,1486.45 1254.68,1086.67 1144.87,1086.67 "></polyline>
<circle clip-path="url(#clip492)" style="fill:#009af9; stroke:none; fill-opacity:0" cx="321.31" cy="526.979" r="2"></circle>
<circle clip-path="url(#clip492)" style="fill:#009af9; stroke:none; fill-opacity:0" cx="431.118" cy="447.023" r="2"></circle>
<circle clip-path="url(#clip492)" style="fill:#009af9; stroke:none; fill-opacity:0" cx="540.926" cy="1486.45" r="2"></circle>
<circle clip-path="url(#clip492)" style="fill:#009af9; stroke:none; fill-opacity:0" cx="650.734" cy="1486.45" r="2"></circle>
<circle clip-path="url(#clip492)" style="fill:#009af9; stroke:none; fill-opacity:0" cx="760.542" cy="47.2441" r="2"></circle>
<circle clip-path="url(#clip492)" style="fill:#009af9; stroke:none; fill-opacity:0" cx="870.349" cy="1486.45" r="2"></circle>
<circle clip-path="url(#clip492)" style="fill:#009af9; stroke:none; fill-opacity:0" cx="980.157" cy="766.846" r="2"></circle>
<circle clip-path="url(#clip492)" style="fill:#009af9; stroke:none; fill-opacity:0" cx="1089.97" cy="1486.45" r="2"></circle>
<circle clip-path="url(#clip492)" style="fill:#009af9; stroke:none; fill-opacity:0" cx="1199.77" cy="1086.67" r="2"></circle>
<path clip-path="url(#clip490)" d="M1784.38 198.898 L2279.55 198.898 L2279.55 95.2176 L1784.38 95.2176  Z" fill="#ffffff" fill-rule="evenodd" fill-opacity="1"></path>
<polyline clip-path="url(#clip490)" style="stroke:#000000; stroke-linecap:round; stroke-linejoin:round; stroke-width:4; stroke-opacity:1; fill:none" points="1784.38,198.898 2279.55,198.898 2279.55,95.2176 1784.38,95.2176 1784.38,198.898 "></polyline>
<path clip-path="url(#clip490)" d="M1808.78 167.794 L1955.19 167.794 L1955.19 126.322 L1808.78 126.322 L1808.78 167.794  Z" fill="#009af9" fill-rule="evenodd" fill-opacity="1"></path>
<polyline clip-path="url(#clip490)" style="stroke:#000000; stroke-linecap:round; stroke-linejoin:round; stroke-width:4; stroke-opacity:1; fill:none" points="1808.78,167.794 1955.19,167.794 1955.19,126.322 1808.78,126.322 1808.78,167.794 "></polyline>
<path clip-path="url(#clip490)" d="M1983.88 160.449 L1983.88 174.199 L1979.59 174.199 L1979.59 138.412 L1983.88 138.412 L1983.88 142.347 Q1985.22 140.032 1987.26 138.921 Q1989.32 137.787 1992.16 137.787 Q1996.89 137.787 1999.83 141.537 Q2002.79 145.287 2002.79 151.398 Q2002.79 157.509 1999.83 161.259 Q1996.89 165.009 1992.16 165.009 Q1989.32 165.009 1987.26 163.898 Q1985.22 162.763 1983.88 160.449 M1998.37 151.398 Q1998.37 146.699 1996.42 144.037 Q1994.5 141.352 1991.12 141.352 Q1987.74 141.352 1985.8 144.037 Q1983.88 146.699 1983.88 151.398 Q1983.88 156.097 1985.8 158.782 Q1987.74 161.444 1991.12 161.444 Q1994.5 161.444 1996.42 158.782 Q1998.37 156.097 1998.37 151.398 Z" fill="#000000" fill-rule="nonzero" fill-opacity="1"></path><path clip-path="url(#clip490)" d="M2019.9 141.398 Q2016.47 141.398 2014.48 144.083 Q2012.49 146.745 2012.49 151.398 Q2012.49 156.051 2014.46 158.736 Q2016.45 161.398 2019.9 161.398 Q2023.3 161.398 2025.29 158.713 Q2027.28 156.027 2027.28 151.398 Q2027.28 146.791 2025.29 144.106 Q2023.3 141.398 2019.9 141.398 M2019.9 137.787 Q2025.45 137.787 2028.62 141.398 Q2031.79 145.009 2031.79 151.398 Q2031.79 157.764 2028.62 161.398 Q2025.45 165.009 2019.9 165.009 Q2014.32 165.009 2011.15 161.398 Q2008 157.764 2008 151.398 Q2008 145.009 2011.15 141.398 Q2014.32 137.787 2019.9 137.787 Z" fill="#000000" fill-rule="nonzero" fill-opacity="1"></path><path clip-path="url(#clip490)" d="M2055.38 139.176 L2055.38 143.203 Q2053.58 142.277 2051.63 141.815 Q2049.69 141.352 2047.6 141.352 Q2044.43 141.352 2042.84 142.324 Q2041.26 143.296 2041.26 145.24 Q2041.26 146.722 2042.4 147.578 Q2043.53 148.412 2046.96 149.176 L2048.41 149.5 Q2052.95 150.472 2054.85 152.254 Q2056.77 154.014 2056.77 157.185 Q2056.77 160.796 2053.9 162.902 Q2051.05 165.009 2046.05 165.009 Q2043.97 165.009 2041.7 164.592 Q2039.46 164.199 2036.96 163.388 L2036.96 158.99 Q2039.32 160.217 2041.61 160.842 Q2043.9 161.444 2046.15 161.444 Q2049.15 161.444 2050.77 160.426 Q2052.4 159.384 2052.4 157.509 Q2052.4 155.773 2051.21 154.847 Q2050.06 153.921 2046.1 153.064 L2044.62 152.717 Q2040.66 151.884 2038.9 150.171 Q2037.14 148.435 2037.14 145.426 Q2037.14 141.768 2039.73 139.778 Q2042.33 137.787 2047.09 137.787 Q2049.46 137.787 2051.54 138.134 Q2053.62 138.481 2055.38 139.176 Z" fill="#000000" fill-rule="nonzero" fill-opacity="1"></path><path clip-path="url(#clip490)" d="M2067.77 131.051 L2067.77 138.412 L2076.54 138.412 L2076.54 141.722 L2067.77 141.722 L2067.77 155.796 Q2067.77 158.967 2068.62 159.87 Q2069.5 160.773 2072.16 160.773 L2076.54 160.773 L2076.54 164.338 L2072.16 164.338 Q2067.23 164.338 2065.36 162.509 Q2063.48 160.657 2063.48 155.796 L2063.48 141.722 L2060.36 141.722 L2060.36 138.412 L2063.48 138.412 L2063.48 131.051 L2067.77 131.051 Z" fill="#000000" fill-rule="nonzero" fill-opacity="1"></path><path clip-path="url(#clip490)" d="M2104.32 150.31 L2104.32 152.393 L2084.73 152.393 Q2085.01 156.791 2087.37 159.106 Q2089.76 161.398 2093.99 161.398 Q2096.45 161.398 2098.74 160.796 Q2101.05 160.194 2103.32 158.99 L2103.32 163.018 Q2101.03 163.99 2098.62 164.5 Q2096.21 165.009 2093.74 165.009 Q2087.53 165.009 2083.9 161.398 Q2080.29 157.787 2080.29 151.629 Q2080.29 145.264 2083.71 141.537 Q2087.16 137.787 2093 137.787 Q2098.23 137.787 2101.26 141.166 Q2104.32 144.523 2104.32 150.31 M2100.06 149.06 Q2100.01 145.565 2098.09 143.481 Q2096.19 141.398 2093.04 141.398 Q2089.48 141.398 2087.33 143.412 Q2085.2 145.426 2084.87 149.083 L2100.06 149.06 Z" fill="#000000" fill-rule="nonzero" fill-opacity="1"></path><path clip-path="url(#clip490)" d="M2126.33 142.393 Q2125.61 141.977 2124.76 141.791 Q2123.92 141.583 2122.9 141.583 Q2119.29 141.583 2117.35 143.944 Q2115.43 146.282 2115.43 150.68 L2115.43 164.338 L2111.15 164.338 L2111.15 138.412 L2115.43 138.412 L2115.43 142.44 Q2116.77 140.078 2118.92 138.944 Q2121.08 137.787 2124.15 137.787 Q2124.59 137.787 2125.13 137.856 Q2125.66 137.903 2126.31 138.018 L2126.33 142.393 Z" fill="#000000" fill-rule="nonzero" fill-opacity="1"></path><path clip-path="url(#clip490)" d="M2130.8 138.412 L2135.06 138.412 L2135.06 164.338 L2130.8 164.338 L2130.8 138.412 M2130.8 128.319 L2135.06 128.319 L2135.06 133.713 L2130.8 133.713 L2130.8 128.319 Z" fill="#000000" fill-rule="nonzero" fill-opacity="1"></path><path clip-path="url(#clip490)" d="M2154.02 141.398 Q2150.59 141.398 2148.6 144.083 Q2146.61 146.745 2146.61 151.398 Q2146.61 156.051 2148.58 158.736 Q2150.57 161.398 2154.02 161.398 Q2157.42 161.398 2159.41 158.713 Q2161.4 156.027 2161.4 151.398 Q2161.4 146.791 2159.41 144.106 Q2157.42 141.398 2154.02 141.398 M2154.02 137.787 Q2159.57 137.787 2162.74 141.398 Q2165.91 145.009 2165.91 151.398 Q2165.91 157.764 2162.74 161.398 Q2159.57 165.009 2154.02 165.009 Q2148.44 165.009 2145.27 161.398 Q2142.12 157.764 2142.12 151.398 Q2142.12 145.009 2145.27 141.398 Q2148.44 137.787 2154.02 137.787 Z" fill="#000000" fill-rule="nonzero" fill-opacity="1"></path><path clip-path="url(#clip490)" d="M2188 142.393 Q2187.28 141.977 2186.42 141.791 Q2185.59 141.583 2184.57 141.583 Q2180.96 141.583 2179.02 143.944 Q2177.09 146.282 2177.09 150.68 L2177.09 164.338 L2172.81 164.338 L2172.81 138.412 L2177.09 138.412 L2177.09 142.44 Q2178.44 140.078 2180.59 138.944 Q2182.74 137.787 2185.82 137.787 Q2186.26 137.787 2186.79 137.856 Q2187.33 137.903 2187.97 138.018 L2188 142.393 Z" fill="#000000" fill-rule="nonzero" fill-opacity="1"></path><path clip-path="url(#clip490)" d="M2226.19 139.407 L2226.19 143.389 Q2224.39 142.393 2222.56 141.907 Q2220.75 141.398 2218.9 141.398 Q2214.76 141.398 2212.46 144.037 Q2210.17 146.652 2210.17 151.398 Q2210.17 156.143 2212.46 158.782 Q2214.76 161.398 2218.9 161.398 Q2220.75 161.398 2222.56 160.912 Q2224.39 160.402 2226.19 159.407 L2226.19 163.342 Q2224.41 164.176 2222.49 164.592 Q2220.59 165.009 2218.44 165.009 Q2212.58 165.009 2209.13 161.328 Q2205.68 157.648 2205.68 151.398 Q2205.68 145.055 2209.15 141.421 Q2212.65 137.787 2218.71 137.787 Q2220.68 137.787 2222.56 138.203 Q2224.43 138.597 2226.19 139.407 Z" fill="#000000" fill-rule="nonzero" fill-opacity="1"></path><path clip-path="url(#clip490)" d="M2255.15 148.689 L2255.15 164.338 L2250.89 164.338 L2250.89 148.828 Q2250.89 145.148 2249.45 143.319 Q2248.02 141.49 2245.15 141.49 Q2241.7 141.49 2239.71 143.69 Q2237.72 145.889 2237.72 149.685 L2237.72 164.338 L2233.44 164.338 L2233.44 128.319 L2237.72 128.319 L2237.72 142.44 Q2239.25 140.102 2241.31 138.944 Q2243.39 137.787 2246.1 137.787 Q2250.57 137.787 2252.86 140.565 Q2255.15 143.319 2255.15 148.689 Z" fill="#000000" fill-rule="nonzero" fill-opacity="1"></path></svg>