<svg xmlns="http://www.w3.org/2000/svg" xmlns:xlink="http://www.w3.org/1999/xlink" width="600" height="400" viewBox="0 0 2400 1600">
<defs>
  <clipPath id="clip410">
    <rect x="0" y="0" width="2400" height="1600"></rect>
  </clipPath>
</defs>
<path clip-path="url(#clip410)" d="M0 1600 L2400 1600 L2400 0 L0 0  Z" fill="#ffffff" fill-rule="evenodd" fill-opacity="1"></path>
<defs>
  <clipPath id="clip411">
    <rect x="480" y="0" width="1681" height="1600"></rect>
  </clipPath>
</defs>
<path clip-path="url(#clip410)" d="M186.274 1486.45 L2352.76 1486.45 L2352.76 47.2441 L186.274 47.2441  Z" fill="#ffffff" fill-rule="evenodd" fill-opacity="1"></path>
<defs>
  <clipPath id="clip412">
    <rect x="186" y="47" width="2167" height="1440"></rect>
  </clipPath>
</defs>
<polyline clip-path="url(#clip412)" style="stroke:#000000; stroke-linecap:round; stroke-linejoin:round; stroke-width:2; stroke-opacity:0.1; fill:none" points="186.274,1486.45 186.274,47.2441 "></polyline>
<polyline clip-path="url(#clip412)" style="stroke:#000000; stroke-linecap:round; stroke-linejoin:round; stroke-width:2; stroke-opacity:0.1; fill:none" points="619.57,1486.45 619.57,47.2441 "></polyline>
<polyline clip-path="url(#clip412)" style="stroke:#000000; stroke-linecap:round; stroke-linejoin:round; stroke-width:2; stroke-opacity:0.1; fill:none" points="1052.87,1486.45 1052.87,47.2441 "></polyline>
<polyline clip-path="url(#clip412)" style="stroke:#000000; stroke-linecap:round; stroke-linejoin:round; stroke-width:2; stroke-opacity:0.1; fill:none" points="1486.16,1486.45 1486.16,47.2441 "></polyline>
<polyline clip-path="url(#clip412)" style="stroke:#000000; stroke-linecap:round; stroke-linejoin:round; stroke-width:2; stroke-opacity:0.1; fill:none" points="1919.46,1486.45 1919.46,47.2441 "></polyline>
<polyline clip-path="url(#clip412)" style="stroke:#000000; stroke-linecap:round; stroke-linejoin:round; stroke-width:2; stroke-opacity:0.1; fill:none" points="2352.76,1486.45 2352.76,47.2441 "></polyline>
<polyline clip-path="url(#clip410)" style="stroke:#000000; stroke-linecap:round; stroke-linejoin:round; stroke-width:4; stroke-opacity:1; fill:none" points="186.274,1486.45 2352.76,1486.45 "></polyline>
<polyline clip-path="url(#clip410)" style="stroke:#000000; stroke-linecap:round; stroke-linejoin:round; stroke-width:4; stroke-opacity:1; fill:none" points="186.274,1486.45 186.274,1467.55 "></polyline>
<polyline clip-path="url(#clip410)" style="stroke:#000000; stroke-linecap:round; stroke-linejoin:round; stroke-width:4; stroke-opacity:1; fill:none" points="619.57,1486.45 619.57,1467.55 "></polyline>
<polyline clip-path="url(#clip410)" style="stroke:#000000; stroke-linecap:round; stroke-linejoin:round; stroke-width:4; stroke-opacity:1; fill:none" points="1052.87,1486.45 1052.87,1467.55 "></polyline>
<polyline clip-path="url(#clip410)" style="stroke:#000000; stroke-linecap:round; stroke-linejoin:round; stroke-width:4; stroke-opacity:1; fill:none" points="1486.16,1486.45 1486.16,1467.55 "></polyline>
<polyline clip-path="url(#clip410)" style="stroke:#000000; stroke-linecap:round; stroke-linejoin:round; stroke-width:4; stroke-opacity:1; fill:none" points="1919.46,1486.45 1919.46,1467.55 "></polyline>
<polyline clip-path="url(#clip410)" style="stroke:#000000; stroke-linecap:round; stroke-linejoin:round; stroke-width:4; stroke-opacity:1; fill:none" points="2352.76,1486.45 2352.76,1467.55 "></polyline>
<path clip-path="url(#clip410)" d="M186.274 1517.37 Q182.663 1517.37 180.834 1520.93 Q179.029 1524.47 179.029 1531.6 Q179.029 1538.71 180.834 1542.27 Q182.663 1545.82 186.274 1545.82 Q189.908 1545.82 191.714 1542.27 Q193.542 1538.71 193.542 1531.6 Q193.542 1524.47 191.714 1520.93 Q189.908 1517.37 186.274 1517.37 M186.274 1513.66 Q192.084 1513.66 195.14 1518.27 Q198.218 1522.85 198.218 1531.6 Q198.218 1540.33 195.14 1544.94 Q192.084 1549.52 186.274 1549.52 Q180.464 1549.52 177.385 1544.94 Q174.33 1540.33 174.33 1531.6 Q174.33 1522.85 177.385 1518.27 Q180.464 1513.66 186.274 1513.66 Z" fill="#000000" fill-rule="nonzero" fill-opacity="1"></path><path clip-path="url(#clip410)" d="M614.223 1544.91 L630.543 1544.91 L630.543 1548.85 L608.598 1548.85 L608.598 1544.91 Q611.26 1542.16 615.844 1537.53 Q620.45 1532.88 621.631 1531.53 Q623.876 1529.01 624.756 1527.27 Q625.658 1525.51 625.658 1523.82 Q625.658 1521.07 623.714 1519.33 Q621.793 1517.6 618.691 1517.6 Q616.492 1517.6 614.038 1518.36 Q611.607 1519.13 608.83 1520.68 L608.83 1515.95 Q611.654 1514.82 614.107 1514.24 Q616.561 1513.66 618.598 1513.66 Q623.969 1513.66 627.163 1516.35 Q630.357 1519.03 630.357 1523.52 Q630.357 1525.65 629.547 1527.57 Q628.76 1529.47 626.654 1532.07 Q626.075 1532.74 622.973 1535.95 Q619.871 1539.15 614.223 1544.91 Z" fill="#000000" fill-rule="nonzero" fill-opacity="1"></path><path clip-path="url(#clip410)" d="M1055.88 1518.36 L1044.07 1536.81 L1055.88 1536.81 L1055.88 1518.36 M1054.65 1514.29 L1060.53 1514.29 L1060.53 1536.81 L1065.46 1536.81 L1065.46 1540.7 L1060.53 1540.7 L1060.53 1548.85 L1055.88 1548.85 L1055.88 1540.7 L1040.27 1540.7 L1040.27 1536.19 L1054.65 1514.29 Z" fill="#000000" fill-rule="nonzero" fill-opacity="1"></path><path clip-path="url(#clip410)" d="M1486.57 1529.7 Q1483.42 1529.7 1481.57 1531.86 Q1479.74 1534.01 1479.74 1537.76 Q1479.74 1541.49 1481.57 1543.66 Q1483.42 1545.82 1486.57 1545.82 Q1489.72 1545.82 1491.55 1543.66 Q1493.4 1541.49 1493.4 1537.76 Q1493.4 1534.01 1491.55 1531.86 Q1489.72 1529.7 1486.57 1529.7 M1495.85 1515.05 L1495.85 1519.31 Q1494.09 1518.48 1492.29 1518.04 Q1490.5 1517.6 1488.74 1517.6 Q1484.11 1517.6 1481.66 1520.72 Q1479.23 1523.85 1478.88 1530.17 Q1480.25 1528.15 1482.31 1527.09 Q1484.37 1526 1486.85 1526 Q1492.05 1526 1495.06 1529.17 Q1498.1 1532.32 1498.1 1537.76 Q1498.1 1543.08 1494.95 1546.3 Q1491.8 1549.52 1486.57 1549.52 Q1480.57 1549.52 1477.4 1544.94 Q1474.23 1540.33 1474.23 1531.6 Q1474.23 1523.41 1478.12 1518.55 Q1482.01 1513.66 1488.56 1513.66 Q1490.32 1513.66 1492.1 1514.01 Q1493.91 1514.36 1495.85 1515.05 Z" fill="#000000" fill-rule="nonzero" fill-opacity="1"></path><path clip-path="url(#clip410)" d="M1919.46 1532.44 Q1916.13 1532.44 1914.2 1534.22 Q1912.31 1536 1912.31 1539.13 Q1912.31 1542.25 1914.2 1544.03 Q1916.13 1545.82 1919.46 1545.82 Q1922.79 1545.82 1924.71 1544.03 Q1926.64 1542.23 1926.64 1539.13 Q1926.64 1536 1924.71 1534.22 Q1922.82 1532.44 1919.46 1532.44 M1914.78 1530.45 Q1911.77 1529.7 1910.08 1527.64 Q1908.42 1525.58 1908.42 1522.62 Q1908.42 1518.48 1911.36 1516.07 Q1914.32 1513.66 1919.46 1513.66 Q1924.62 1513.66 1927.56 1516.07 Q1930.5 1518.48 1930.5 1522.62 Q1930.5 1525.58 1928.81 1527.64 Q1927.14 1529.7 1924.16 1530.45 Q1927.54 1531.23 1929.41 1533.52 Q1931.31 1535.82 1931.31 1539.13 Q1931.31 1544.15 1928.23 1546.83 Q1925.18 1549.52 1919.46 1549.52 Q1913.74 1549.52 1910.66 1546.83 Q1907.61 1544.15 1907.61 1539.13 Q1907.61 1535.82 1909.51 1533.52 Q1911.4 1531.23 1914.78 1530.45 M1913.07 1523.06 Q1913.07 1525.75 1914.74 1527.25 Q1916.43 1528.76 1919.46 1528.76 Q1922.47 1528.76 1924.16 1527.25 Q1925.87 1525.75 1925.87 1523.06 Q1925.87 1520.38 1924.16 1518.87 Q1922.47 1517.37 1919.46 1517.37 Q1916.43 1517.37 1914.74 1518.87 Q1913.07 1520.38 1913.07 1523.06 Z" fill="#000000" fill-rule="nonzero" fill-opacity="1"></path><path clip-path="url(#clip410)" d="M2327.44 1544.91 L2335.08 1544.91 L2335.08 1518.55 L2326.77 1520.21 L2326.77 1515.95 L2335.04 1514.29 L2339.71 1514.29 L2339.71 1544.91 L2347.35 1544.91 L2347.35 1548.85 L2327.44 1548.85 L2327.44 1544.91 Z" fill="#000000" fill-rule="nonzero" fill-opacity="1"></path><path clip-path="url(#clip410)" d="M2366.8 1517.37 Q2363.18 1517.37 2361.36 1520.93 Q2359.55 1524.47 2359.55 1531.6 Q2359.55 1538.71 2361.36 1542.27 Q2363.18 1545.82 2366.8 1545.82 Q2370.43 1545.82 2372.23 1542.27 Q2374.06 1538.71 2374.06 1531.6 Q2374.06 1524.47 2372.23 1520.93 Q2370.43 1517.37 2366.8 1517.37 M2366.8 1513.66 Q2372.61 1513.66 2375.66 1518.27 Q2378.74 1522.85 2378.74 1531.6 Q2378.74 1540.33 2375.66 1544.94 Q2372.61 1549.52 2366.8 1549.52 Q2360.99 1549.52 2357.91 1544.94 Q2354.85 1540.33 2354.85 1531.6 Q2354.85 1522.85 2357.91 1518.27 Q2360.99 1513.66 2366.8 1513.66 Z" fill="#000000" fill-rule="nonzero" fill-opacity="1"></path><polyline clip-path="url(#clip412)" style="stroke:#000000; stroke-linecap:round; stroke-linejoin:round; stroke-width:2; stroke-opacity:0.1; fill:none" points="186.274,1486.45 2352.76,1486.45 "></polyline>
<polyline clip-path="url(#clip412)" style="stroke:#000000; stroke-linecap:round; stroke-linejoin:round; stroke-width:2; stroke-opacity:0.1; fill:none" points="186.274,1132.85 2352.76,1132.85 "></polyline>
<polyline clip-path="url(#clip412)" style="stroke:#000000; stroke-linecap:round; stroke-linejoin:round; stroke-width:2; stroke-opacity:0.1; fill:none" points="186.274,779.253 2352.76,779.253 "></polyline>
<polyline clip-path="url(#clip412)" style="stroke:#000000; stroke-linecap:round; stroke-linejoin:round; stroke-width:2; stroke-opacity:0.1; fill:none" points="186.274,425.655 2352.76,425.655 "></polyline>
<polyline clip-path="url(#clip412)" style="stroke:#000000; stroke-linecap:round; stroke-linejoin:round; stroke-width:2; stroke-opacity:0.1; fill:none" points="186.274,72.058 2352.76,72.058 "></polyline>
<polyline clip-path="url(#clip410)" style="stroke:#000000; stroke-linecap:round; stroke-linejoin:round; stroke-width:4; stroke-opacity:1; fill:none" points="186.274,1486.45 186.274,47.2441 "></polyline>
<polyline clip-path="url(#clip410)" style="stroke:#000000; stroke-linecap:round; stroke-linejoin:round; stroke-width:4; stroke-opacity:1; fill:none" points="186.274,1486.45 205.172,1486.45 "></polyline>
<polyline clip-path="url(#clip410)" style="stroke:#000000; stroke-linecap:round; stroke-linejoin:round; stroke-width:4; stroke-opacity:1; fill:none" points="186.274,1132.85 205.172,1132.85 "></polyline>
<polyline clip-path="url(#clip410)" style="stroke:#000000; stroke-linecap:round; stroke-linejoin:round; stroke-width:4; stroke-opacity:1; fill:none" points="186.274,779.253 205.172,779.253 "></polyline>
<polyline clip-path="url(#clip410)" style="stroke:#000000; stroke-linecap:round; stroke-linejoin:round; stroke-width:4; stroke-opacity:1; fill:none" points="186.274,425.655 205.172,425.655 "></polyline>
<polyline clip-path="url(#clip410)" style="stroke:#000000; stroke-linecap:round; stroke-linejoin:round; stroke-width:4; stroke-opacity:1; fill:none" points="186.274,72.058 205.172,72.058 "></polyline>
<path clip-path="url(#clip410)" d="M62.9365 1472.25 Q59.3254 1472.25 57.4967 1475.81 Q55.6912 1479.35 55.6912 1486.48 Q55.6912 1493.59 57.4967 1497.15 Q59.3254 1500.7 62.9365 1500.7 Q66.5707 1500.7 68.3763 1497.15 Q70.205 1493.59 70.205 1486.48 Q70.205 1479.35 68.3763 1475.81 Q66.5707 1472.25 62.9365 1472.25 M62.9365 1468.54 Q68.7467 1468.54 71.8022 1473.15 Q74.8809 1477.73 74.8809 1486.48 Q74.8809 1495.21 71.8022 1499.82 Q68.7467 1504.4 62.9365 1504.4 Q57.1264 1504.4 54.0477 1499.82 Q50.9921 1495.21 50.9921 1486.48 Q50.9921 1477.73 54.0477 1473.15 Q57.1264 1468.54 62.9365 1468.54 Z" fill="#000000" fill-rule="nonzero" fill-opacity="1"></path><path clip-path="url(#clip410)" d="M83.0984 1497.85 L87.9827 1497.85 L87.9827 1503.73 L83.0984 1503.73 L83.0984 1497.85 Z" fill="#000000" fill-rule="nonzero" fill-opacity="1"></path><path clip-path="url(#clip410)" d="M108.168 1472.25 Q104.557 1472.25 102.728 1475.81 Q100.922 1479.35 100.922 1486.48 Q100.922 1493.59 102.728 1497.15 Q104.557 1500.7 108.168 1500.7 Q111.802 1500.7 113.608 1497.15 Q115.436 1493.59 115.436 1486.48 Q115.436 1479.35 113.608 1475.81 Q111.802 1472.25 108.168 1472.25 M108.168 1468.54 Q113.978 1468.54 117.033 1473.15 Q120.112 1477.73 120.112 1486.48 Q120.112 1495.21 117.033 1499.82 Q113.978 1504.4 108.168 1504.4 Q102.358 1504.4 99.2789 1499.82 Q96.2234 1495.21 96.2234 1486.48 Q96.2234 1477.73 99.2789 1473.15 Q102.358 1468.54 108.168 1468.54 Z" fill="#000000" fill-rule="nonzero" fill-opacity="1"></path><path clip-path="url(#clip410)" d="M138.33 1472.25 Q134.719 1472.25 132.89 1475.81 Q131.084 1479.35 131.084 1486.48 Q131.084 1493.59 132.89 1497.15 Q134.719 1500.7 138.33 1500.7 Q141.964 1500.7 143.769 1497.15 Q145.598 1493.59 145.598 1486.48 Q145.598 1479.35 143.769 1475.81 Q141.964 1472.25 138.33 1472.25 M138.33 1468.54 Q144.14 1468.54 147.195 1473.15 Q150.274 1477.73 150.274 1486.48 Q150.274 1495.21 147.195 1499.82 Q144.14 1504.4 138.33 1504.4 Q132.519 1504.4 129.441 1499.82 Q126.385 1495.21 126.385 1486.48 Q126.385 1477.73 129.441 1473.15 Q132.519 1468.54 138.33 1468.54 Z" fill="#000000" fill-rule="nonzero" fill-opacity="1"></path><path clip-path="url(#clip410)" d="M63.9319 1118.65 Q60.3208 1118.65 58.4921 1122.21 Q56.6865 1125.76 56.6865 1132.89 Q56.6865 1139.99 58.4921 1143.56 Q60.3208 1147.1 63.9319 1147.1 Q67.5661 1147.1 69.3717 1143.56 Q71.2004 1139.99 71.2004 1132.89 Q71.2004 1125.76 69.3717 1122.21 Q67.5661 1118.65 63.9319 1118.65 M63.9319 1114.95 Q69.742 1114.95 72.7976 1119.55 Q75.8763 1124.14 75.8763 1132.89 Q75.8763 1141.61 72.7976 1146.22 Q69.742 1150.8 63.9319 1150.8 Q58.1217 1150.8 55.043 1146.22 Q51.9875 1141.61 51.9875 1132.89 Q51.9875 1124.14 55.043 1119.55 Q58.1217 1114.95 63.9319 1114.95 Z" fill="#000000" fill-rule="nonzero" fill-opacity="1"></path><path clip-path="url(#clip410)" d="M84.0938 1144.25 L88.978 1144.25 L88.978 1150.13 L84.0938 1150.13 L84.0938 1144.25 Z" fill="#000000" fill-rule="nonzero" fill-opacity="1"></path><path clip-path="url(#clip410)" d="M103.191 1146.2 L119.51 1146.2 L119.51 1150.13 L97.566 1150.13 L97.566 1146.2 Q100.228 1143.44 104.811 1138.81 Q109.418 1134.16 110.598 1132.82 Q112.844 1130.29 113.723 1128.56 Q114.626 1126.8 114.626 1125.11 Q114.626 1122.35 112.682 1120.62 Q110.76 1118.88 107.658 1118.88 Q105.459 1118.88 103.006 1119.64 Q100.575 1120.41 97.7974 1121.96 L97.7974 1117.24 Q100.621 1116.1 103.075 1115.52 Q105.529 1114.95 107.566 1114.95 Q112.936 1114.95 116.131 1117.63 Q119.325 1120.32 119.325 1124.81 Q119.325 1126.94 118.515 1128.86 Q117.728 1130.76 115.621 1133.35 Q115.043 1134.02 111.941 1137.24 Q108.839 1140.43 103.191 1146.2 Z" fill="#000000" fill-rule="nonzero" fill-opacity="1"></path><path clip-path="url(#clip410)" d="M129.371 1115.57 L147.728 1115.57 L147.728 1119.51 L133.654 1119.51 L133.654 1127.98 Q134.672 1127.63 135.691 1127.47 Q136.709 1127.28 137.728 1127.28 Q143.515 1127.28 146.894 1130.45 Q150.274 1133.63 150.274 1139.04 Q150.274 1144.62 146.802 1147.72 Q143.33 1150.8 137.01 1150.8 Q134.834 1150.8 132.566 1150.43 Q130.32 1150.06 127.913 1149.32 L127.913 1144.62 Q129.996 1145.76 132.219 1146.31 Q134.441 1146.87 136.918 1146.87 Q140.922 1146.87 143.26 1144.76 Q145.598 1142.65 145.598 1139.04 Q145.598 1135.43 143.26 1133.32 Q140.922 1131.22 136.918 1131.22 Q135.043 1131.22 133.168 1131.64 Q131.316 1132.05 129.371 1132.93 L129.371 1115.57 Z" fill="#000000" fill-rule="nonzero" fill-opacity="1"></path><path clip-path="url(#clip410)" d="M62.9365 765.052 Q59.3254 765.052 57.4967 768.616 Q55.6912 772.158 55.6912 779.288 Q55.6912 786.394 57.4967 789.959 Q59.3254 793.501 62.9365 793.501 Q66.5707 793.501 68.3763 789.959 Q70.205 786.394 70.205 779.288 Q70.205 772.158 68.3763 768.616 Q66.5707 765.052 62.9365 765.052 M62.9365 761.348 Q68.7467 761.348 71.8022 765.954 Q74.8809 770.538 74.8809 779.288 Q74.8809 788.014 71.8022 792.621 Q68.7467 797.204 62.9365 797.204 Q57.1264 797.204 54.0477 792.621 Q50.9921 788.014 50.9921 779.288 Q50.9921 770.538 54.0477 765.954 Q57.1264 761.348 62.9365 761.348 Z" fill="#000000" fill-rule="nonzero" fill-opacity="1"></path><path clip-path="url(#clip410)" d="M83.0984 790.653 L87.9827 790.653 L87.9827 796.533 L83.0984 796.533 L83.0984 790.653 Z" fill="#000000" fill-rule="nonzero" fill-opacity="1"></path><path clip-path="url(#clip410)" d="M98.2141 761.973 L116.57 761.973 L116.57 765.908 L102.496 765.908 L102.496 774.38 Q103.515 774.033 104.534 773.871 Q105.552 773.686 106.571 773.686 Q112.358 773.686 115.737 776.857 Q119.117 780.028 119.117 785.445 Q119.117 791.024 115.645 794.126 Q112.172 797.204 105.853 797.204 Q103.677 797.204 101.409 796.834 Q99.1632 796.463 96.7558 795.723 L96.7558 791.024 Q98.8391 792.158 101.061 792.713 Q103.284 793.269 105.76 793.269 Q109.765 793.269 112.103 791.163 Q114.441 789.056 114.441 785.445 Q114.441 781.834 112.103 779.727 Q109.765 777.621 105.76 777.621 Q103.885 777.621 102.01 778.038 Q100.159 778.454 98.2141 779.334 L98.2141 761.973 Z" fill="#000000" fill-rule="nonzero" fill-opacity="1"></path><path clip-path="url(#clip410)" d="M138.33 765.052 Q134.719 765.052 132.89 768.616 Q131.084 772.158 131.084 779.288 Q131.084 786.394 132.89 789.959 Q134.719 793.501 138.33 793.501 Q141.964 793.501 143.769 789.959 Q145.598 786.394 145.598 779.288 Q145.598 772.158 143.769 768.616 Q141.964 765.052 138.33 765.052 M138.33 761.348 Q144.14 761.348 147.195 765.954 Q150.274 770.538 150.274 779.288 Q150.274 788.014 147.195 792.621 Q144.14 797.204 138.33 797.204 Q132.519 797.204 129.441 792.621 Q126.385 788.014 126.385 779.288 Q126.385 770.538 129.441 765.954 Q132.519 761.348 138.33 761.348 Z" fill="#000000" fill-rule="nonzero" fill-opacity="1"></path><path clip-path="url(#clip410)" d="M63.9319 411.454 Q60.3208 411.454 58.4921 415.019 Q56.6865 418.561 56.6865 425.69 Q56.6865 432.797 58.4921 436.361 Q60.3208 439.903 63.9319 439.903 Q67.5661 439.903 69.3717 436.361 Q71.2004 432.797 71.2004 425.69 Q71.2004 418.561 69.3717 415.019 Q67.5661 411.454 63.9319 411.454 M63.9319 407.75 Q69.742 407.75 72.7976 412.357 Q75.8763 416.94 75.8763 425.69 Q75.8763 434.417 72.7976 439.023 Q69.742 443.607 63.9319 443.607 Q58.1217 443.607 55.043 439.023 Q51.9875 434.417 51.9875 425.69 Q51.9875 416.94 55.043 412.357 Q58.1217 407.75 63.9319 407.75 Z" fill="#000000" fill-rule="nonzero" fill-opacity="1"></path><path clip-path="url(#clip410)" d="M84.0938 437.056 L88.978 437.056 L88.978 442.935 L84.0938 442.935 L84.0938 437.056 Z" fill="#000000" fill-rule="nonzero" fill-opacity="1"></path><path clip-path="url(#clip410)" d="M97.9826 408.375 L120.205 408.375 L120.205 410.366 L107.658 442.935 L102.774 442.935 L114.58 412.311 L97.9826 412.311 L97.9826 408.375 Z" fill="#000000" fill-rule="nonzero" fill-opacity="1"></path><path clip-path="url(#clip410)" d="M129.371 408.375 L147.728 408.375 L147.728 412.311 L133.654 412.311 L133.654 420.783 Q134.672 420.436 135.691 420.274 Q136.709 420.088 137.728 420.088 Q143.515 420.088 146.894 423.26 Q150.274 426.431 150.274 431.848 Q150.274 437.426 146.802 440.528 Q143.33 443.607 137.01 443.607 Q134.834 443.607 132.566 443.236 Q130.32 442.866 127.913 442.125 L127.913 437.426 Q129.996 438.56 132.219 439.116 Q134.441 439.672 136.918 439.672 Q140.922 439.672 143.26 437.565 Q145.598 435.459 145.598 431.848 Q145.598 428.236 143.26 426.13 Q140.922 424.023 136.918 424.023 Q135.043 424.023 133.168 424.44 Q131.316 424.857 129.371 425.736 L129.371 408.375 Z" fill="#000000" fill-rule="nonzero" fill-opacity="1"></path><path clip-path="url(#clip410)" d="M53.7467 85.4028 L61.3856 85.4028 L61.3856 59.0372 L53.0754 60.7038 L53.0754 56.4446 L61.3393 54.778 L66.0152 54.778 L66.0152 85.4028 L73.654 85.4028 L73.654 89.338 L53.7467 89.338 L53.7467 85.4028 Z" fill="#000000" fill-rule="nonzero" fill-opacity="1"></path><path clip-path="url(#clip410)" d="M83.0984 83.4584 L87.9827 83.4584 L87.9827 89.338 L83.0984 89.338 L83.0984 83.4584 Z" fill="#000000" fill-rule="nonzero" fill-opacity="1"></path><path clip-path="url(#clip410)" d="M108.168 57.8566 Q104.557 57.8566 102.728 61.4214 Q100.922 64.9631 100.922 72.0927 Q100.922 79.1991 102.728 82.7639 Q104.557 86.3056 108.168 86.3056 Q111.802 86.3056 113.608 82.7639 Q115.436 79.1991 115.436 72.0927 Q115.436 64.9631 113.608 61.4214 Q111.802 57.8566 108.168 57.8566 M108.168 54.153 Q113.978 54.153 117.033 58.7594 Q120.112 63.3427 120.112 72.0927 Q120.112 80.8195 117.033 85.4259 Q113.978 90.0092 108.168 90.0092 Q102.358 90.0092 99.2789 85.4259 Q96.2234 80.8195 96.2234 72.0927 Q96.2234 63.3427 99.2789 58.7594 Q102.358 54.153 108.168 54.153 Z" fill="#000000" fill-rule="nonzero" fill-opacity="1"></path><path clip-path="url(#clip410)" d="M138.33 57.8566 Q134.719 57.8566 132.89 61.4214 Q131.084 64.9631 131.084 72.0927 Q131.084 79.1991 132.89 82.7639 Q134.719 86.3056 138.33 86.3056 Q141.964 86.3056 143.769 82.7639 Q145.598 79.1991 145.598 72.0927 Q145.598 64.9631 143.769 61.4214 Q141.964 57.8566 138.33 57.8566 M138.33 54.153 Q144.14 54.153 147.195 58.7594 Q150.274 63.3427 150.274 72.0927 Q150.274 80.8195 147.195 85.4259 Q144.14 90.0092 138.33 90.0092 Q132.519 90.0092 129.441 85.4259 Q126.385 80.8195 126.385 72.0927 Q126.385 63.3427 129.441 58.7594 Q132.519 54.153 138.33 54.153 Z" fill="#000000" fill-rule="nonzero" fill-opacity="1"></path><path clip-path="url(#clip412)" d="M1486.16 890.915 L1486.16 1486.45 L1594.49 1486.45 L1594.49 890.915 L1486.16 890.915 L1486.16 890.915  Z" fill="#009af9" fill-rule="evenodd" fill-opacity="1"></path>
<polyline clip-path="url(#clip412)" style="stroke:#000000; stroke-linecap:round; stroke-linejoin:round; stroke-width:4; stroke-opacity:1; fill:none" points="1486.16,890.915 1486.16,1486.45 1594.49,1486.45 1594.49,890.915 1486.16,890.915 "></polyline>
<path clip-path="url(#clip412)" d="M1594.49 47.2441 L1594.49 1486.45 L1702.81 1486.45 L1702.81 47.2441 L1594.49 47.2441 L1594.49 47.2441  Z" fill="#009af9" fill-rule="evenodd" fill-opacity="1"></path>
<polyline clip-path="url(#clip412)" style="stroke:#000000; stroke-linecap:round; stroke-linejoin:round; stroke-width:4; stroke-opacity:1; fill:none" points="1594.49,47.2441 1594.49,1486.45 1702.81,1486.45 1702.81,47.2441 1594.49,47.2441 "></polyline>
<path clip-path="url(#clip412)" d="M1702.81 1486.45 L1702.81 1486.45 L1811.14 1486.45 L1811.14 1486.45 L1702.81 1486.45 L1702.81 1486.45  Z" fill="#009af9" fill-rule="evenodd" fill-opacity="1"></path>
<polyline clip-path="url(#clip412)" style="stroke:#000000; stroke-linecap:round; stroke-linejoin:round; stroke-width:4; stroke-opacity:1; fill:none" points="1702.81,1486.45 1702.81,1486.45 1811.14,1486.45 1702.81,1486.45 "></polyline>
<path clip-path="url(#clip412)" d="M1811.14 1139.05 L1811.14 1486.45 L1919.46 1486.45 L1919.46 1139.05 L1811.14 1139.05 L1811.14 1139.05  Z" fill="#009af9" fill-rule="evenodd" fill-opacity="1"></path>
<polyline clip-path="url(#clip412)" style="stroke:#000000; stroke-linecap:round; stroke-linejoin:round; stroke-width:4; stroke-opacity:1; fill:none" points="1811.14,1139.05 1811.14,1486.45 1919.46,1486.45 1919.46,1139.05 1811.14,1139.05 "></polyline>
<path clip-path="url(#clip412)" d="M1919.46 1486.45 L1919.46 1486.45 L2027.78 1486.45 L2027.78 1486.45 L1919.46 1486.45 L1919.46 1486.45  Z" fill="#009af9" fill-rule="evenodd" fill-opacity="1"></path>
<polyline clip-path="url(#clip412)" style="stroke:#000000; stroke-linecap:round; stroke-linejoin:round; stroke-width:4; stroke-opacity:1; fill:none" points="1919.46,1486.45 1919.46,1486.45 2027.78,1486.45 1919.46,1486.45 "></polyline>
<path clip-path="url(#clip412)" d="M2027.78 1486.45 L2027.78 1486.45 L2136.11 1486.45 L2136.11 1486.45 L2027.78 1486.45 L2027.78 1486.45  Z" fill="#009af9" fill-rule="evenodd" fill-opacity="1"></path>
<polyline clip-path="url(#clip412)" style="stroke:#000000; stroke-linecap:round; stroke-linejoin:round; stroke-width:4; stroke-opacity:1; fill:none" points="2027.78,1486.45 2027.78,1486.45 2136.11,1486.45 2027.78,1486.45 "></polyline>
<path clip-path="url(#clip412)" d="M2136.11 1486.45 L2136.11 1486.45 L2244.43 1486.45 L2244.43 1486.45 L2136.11 1486.45 L2136.11 1486.45  Z" fill="#009af9" fill-rule="evenodd" fill-opacity="1"></path>
<polyline clip-path="url(#clip412)" style="stroke:#000000; stroke-linecap:round; stroke-linejoin:round; stroke-width:4; stroke-opacity:1; fill:none" points="2136.11,1486.45 2136.11,1486.45 2244.43,1486.45 2136.11,1486.45 "></polyline>
<path clip-path="url(#clip412)" d="M2244.43 1039.8 L2244.43 1486.45 L2352.76 1486.45 L2352.76 1039.8 L2244.43 1039.8 L2244.43 1039.8  Z" fill="#009af9" fill-rule="evenodd" fill-opacity="1"></path>
<polyline clip-path="url(#clip412)" style="stroke:#000000; stroke-linecap:round; stroke-linejoin:round; stroke-width:4; stroke-opacity:1; fill:none" points="2244.43,1039.8 2244.43,1486.45 2352.76,1486.45 2352.76,1039.8 2244.43,1039.8 "></polyline>
<circle clip-path="url(#clip412)" style="fill:#009af9; stroke:none; fill-opacity:0" cx="1540.33" cy="890.915" r="2"></circle>
<circle clip-path="url(#clip412)" style="fill:#009af9; stroke:none; fill-opacity:0" cx="1648.65" cy="47.2441" r="2"></circle>
<circle clip-path="url(#clip412)" style="fill:#009af9; stroke:none; fill-opacity:0" cx="1756.97" cy="1486.45" r="2"></circle>
<circle clip-path="url(#clip412)" style="fill:#009af9; stroke:none; fill-opacity:0" cx="1865.3" cy="1139.05" r="2"></circle>
<circle clip-path="url(#clip412)" style="fill:#009af9; stroke:none; fill-opacity:0" cx="1973.62" cy="1486.45" r="2"></circle>
<circle clip-path="url(#clip412)" style="fill:#009af9; stroke:none; fill-opacity:0" cx="2081.95" cy="1486.45" r="2"></circle>
<circle clip-path="url(#clip412)" style="fill:#009af9; stroke:none; fill-opacity:0" cx="2190.27" cy="1486.45" r="2"></circle>
<circle clip-path="url(#clip412)" style="fill:#009af9; stroke:none; fill-opacity:0" cx="2298.59" cy="1039.8" r="2"></circle>
<path clip-path="url(#clip410)" d="M1804.24 198.898 L2280.54 198.898 L2280.54 95.2176 L1804.24 95.2176  Z" fill="#ffffff" fill-rule="evenodd" fill-opacity="1"></path>
<polyline clip-path="url(#clip410)" style="stroke:#000000; stroke-linecap:round; stroke-linejoin:round; stroke-width:4; stroke-opacity:1; fill:none" points="1804.24,198.898 2280.54,198.898 2280.54,95.2176 1804.24,95.2176 1804.24,198.898 "></polyline>
<path clip-path="url(#clip410)" d="M1828.31 167.794 L1972.74 167.794 L1972.74 126.322 L1828.31 126.322 L1828.31 167.794  Z" fill="#009af9" fill-rule="evenodd" fill-opacity="1"></path>
<polyline clip-path="url(#clip410)" style="stroke:#000000; stroke-linecap:round; stroke-linejoin:round; stroke-width:4; stroke-opacity:1; fill:none" points="1828.31,167.794 1972.74,167.794 1972.74,126.322 1828.31,126.322 1828.31,167.794 "></polyline>
<path clip-path="url(#clip410)" d="M2001.1 160.449 L2001.1 174.199 L1996.82 174.199 L1996.82 138.412 L2001.1 138.412 L2001.1 142.347 Q2002.44 140.032 2004.48 138.921 Q2006.54 137.787 2009.39 137.787 Q2014.11 137.787 2017.05 141.537 Q2020.01 145.287 2020.01 151.398 Q2020.01 157.509 2017.05 161.259 Q2014.11 165.009 2009.39 165.009 Q2006.54 165.009 2004.48 163.898 Q2002.44 162.763 2001.1 160.449 M2015.59 151.398 Q2015.59 146.699 2013.65 144.037 Q2011.72 141.352 2008.34 141.352 Q2004.96 141.352 2003.02 144.037 Q2001.1 146.699 2001.1 151.398 Q2001.1 156.097 2003.02 158.782 Q2004.96 161.444 2008.34 161.444 Q2011.72 161.444 2013.65 158.782 Q2015.59 156.097 2015.59 151.398 Z" fill="#000000" fill-rule="nonzero" fill-opacity="1"></path><path clip-path="url(#clip410)" d="M2037.12 141.398 Q2033.69 141.398 2031.7 144.083 Q2029.71 146.745 2029.71 151.398 Q2029.71 156.051 2031.68 158.736 Q2033.67 161.398 2037.12 161.398 Q2040.52 161.398 2042.51 158.713 Q2044.5 156.027 2044.5 151.398 Q2044.5 146.791 2042.51 144.106 Q2040.52 141.398 2037.12 141.398 M2037.12 137.787 Q2042.67 137.787 2045.84 141.398 Q2049.02 145.009 2049.02 151.398 Q2049.02 157.764 2045.84 161.398 Q2042.67 165.009 2037.12 165.009 Q2031.54 165.009 2028.37 161.398 Q2025.22 157.764 2025.22 151.398 Q2025.22 145.009 2028.37 141.398 Q2031.54 137.787 2037.12 137.787 Z" fill="#000000" fill-rule="nonzero" fill-opacity="1"></path><path clip-path="url(#clip410)" d="M2072.6 139.176 L2072.6 143.203 Q2070.8 142.277 2068.85 141.815 Q2066.91 141.352 2064.83 141.352 Q2061.65 141.352 2060.06 142.324 Q2058.48 143.296 2058.48 145.24 Q2058.48 146.722 2059.62 147.578 Q2060.75 148.412 2064.18 149.176 L2065.64 149.5 Q2070.17 150.472 2072.07 152.254 Q2073.99 154.014 2073.99 157.185 Q2073.99 160.796 2071.12 162.902 Q2068.27 165.009 2063.27 165.009 Q2061.19 165.009 2058.92 164.592 Q2056.68 164.199 2054.18 163.388 L2054.18 158.99 Q2056.54 160.217 2058.83 160.842 Q2061.12 161.444 2063.37 161.444 Q2066.38 161.444 2068 160.426 Q2069.62 159.384 2069.62 157.509 Q2069.62 155.773 2068.44 154.847 Q2067.28 153.921 2063.32 153.064 L2061.84 152.717 Q2057.88 151.884 2056.12 150.171 Q2054.36 148.435 2054.36 145.426 Q2054.36 141.768 2056.96 139.778 Q2059.55 137.787 2064.32 137.787 Q2066.68 137.787 2068.76 138.134 Q2070.84 138.481 2072.6 139.176 Z" fill="#000000" fill-rule="nonzero" fill-opacity="1"></path><path clip-path="url(#clip410)" d="M2084.99 131.051 L2084.99 138.412 L2093.76 138.412 L2093.76 141.722 L2084.99 141.722 L2084.99 155.796 Q2084.99 158.967 2085.84 159.87 Q2086.72 160.773 2089.39 160.773 L2093.76 160.773 L2093.76 164.338 L2089.39 164.338 Q2084.45 164.338 2082.58 162.509 Q2080.7 160.657 2080.7 155.796 L2080.7 141.722 L2077.58 141.722 L2077.58 138.412 L2080.7 138.412 L2080.7 131.051 L2084.99 131.051 Z" fill="#000000" fill-rule="nonzero" fill-opacity="1"></path><path clip-path="url(#clip410)" d="M2121.54 150.31 L2121.54 152.393 L2101.95 152.393 Q2102.23 156.791 2104.59 159.106 Q2106.98 161.398 2111.21 161.398 Q2113.67 161.398 2115.96 160.796 Q2118.27 160.194 2120.54 158.99 L2120.54 163.018 Q2118.25 163.99 2115.84 164.5 Q2113.44 165.009 2110.96 165.009 Q2104.76 165.009 2101.12 161.398 Q2097.51 157.787 2097.51 151.629 Q2097.51 145.264 2100.94 141.537 Q2104.39 137.787 2110.22 137.787 Q2115.45 137.787 2118.48 141.166 Q2121.54 144.523 2121.54 150.31 M2117.28 149.06 Q2117.23 145.565 2115.31 143.481 Q2113.41 141.398 2110.26 141.398 Q2106.7 141.398 2104.55 143.412 Q2102.42 145.426 2102.09 149.083 L2117.28 149.06 Z" fill="#000000" fill-rule="nonzero" fill-opacity="1"></path><path clip-path="url(#clip410)" d="M2143.55 142.393 Q2142.83 141.977 2141.98 141.791 Q2141.14 141.583 2140.13 141.583 Q2136.51 141.583 2134.57 143.944 Q2132.65 146.282 2132.65 150.68 L2132.65 164.338 L2128.37 164.338 L2128.37 138.412 L2132.65 138.412 L2132.65 142.44 Q2133.99 140.078 2136.14 138.944 Q2138.3 137.787 2141.38 137.787 Q2141.82 137.787 2142.35 137.856 Q2142.88 137.903 2143.53 138.018 L2143.55 142.393 Z" fill="#000000" fill-rule="nonzero" fill-opacity="1"></path><path clip-path="url(#clip410)" d="M2148.02 138.412 L2152.28 138.412 L2152.28 164.338 L2148.02 164.338 L2148.02 138.412 M2148.02 128.319 L2152.28 128.319 L2152.28 133.713 L2148.02 133.713 L2148.02 128.319 Z" fill="#000000" fill-rule="nonzero" fill-opacity="1"></path><path clip-path="url(#clip410)" d="M2171.24 141.398 Q2167.81 141.398 2165.82 144.083 Q2163.83 146.745 2163.83 151.398 Q2163.83 156.051 2165.8 158.736 Q2167.79 161.398 2171.24 161.398 Q2174.64 161.398 2176.63 158.713 Q2178.62 156.027 2178.62 151.398 Q2178.62 146.791 2176.63 144.106 Q2174.64 141.398 2171.24 141.398 M2171.24 137.787 Q2176.79 137.787 2179.96 141.398 Q2183.13 145.009 2183.13 151.398 Q2183.13 157.764 2179.96 161.398 Q2176.79 165.009 2171.24 165.009 Q2165.66 165.009 2162.49 161.398 Q2159.34 157.764 2159.34 151.398 Q2159.34 145.009 2162.49 141.398 Q2165.66 137.787 2171.24 137.787 Z" fill="#000000" fill-rule="nonzero" fill-opacity="1"></path><path clip-path="url(#clip410)" d="M2205.22 142.393 Q2204.5 141.977 2203.64 141.791 Q2202.81 141.583 2201.79 141.583 Q2198.18 141.583 2196.24 143.944 Q2194.32 146.282 2194.32 150.68 L2194.32 164.338 L2190.03 164.338 L2190.03 138.412 L2194.32 138.412 L2194.32 142.44 Q2195.66 140.078 2197.81 138.944 Q2199.96 137.787 2203.04 137.787 Q2203.48 137.787 2204.01 137.856 Q2204.55 137.903 2205.19 138.018 L2205.22 142.393 Z" fill="#000000" fill-rule="nonzero" fill-opacity="1"></path><path clip-path="url(#clip410)" d="M2237.88 128.319 L2237.88 131.861 L2233.81 131.861 Q2231.51 131.861 2230.61 132.787 Q2229.73 133.713 2229.73 136.12 L2229.73 138.412 L2236.75 138.412 L2236.75 141.722 L2229.73 141.722 L2229.73 164.338 L2225.45 164.338 L2225.45 141.722 L2221.38 141.722 L2221.38 138.412 L2225.45 138.412 L2225.45 136.606 Q2225.45 132.278 2227.46 130.31 Q2229.48 128.319 2233.85 128.319 L2237.88 128.319 Z" fill="#000000" fill-rule="nonzero" fill-opacity="1"></path><path clip-path="url(#clip410)" d="M2256.47 142.393 Q2255.75 141.977 2254.89 141.791 Q2254.06 141.583 2253.04 141.583 Q2249.43 141.583 2247.49 143.944 Q2245.57 146.282 2245.57 150.68 L2245.57 164.338 L2241.28 164.338 L2241.28 138.412 L2245.57 138.412 L2245.57 142.44 Q2246.91 140.078 2249.06 138.944 Q2251.21 137.787 2254.29 137.787 Q2254.73 137.787 2255.26 137.856 Q2255.8 137.903 2256.44 138.018 L2256.47 142.393 Z" fill="#000000" fill-rule="nonzero" fill-opacity="1"></path></svg>