<svg xmlns="http://www.w3.org/2000/svg" xmlns:xlink="http://www.w3.org/1999/xlink" width="600" height="400" viewBox="0 0 2400 1600">
<defs>
  <clipPath id="clip810">
    <rect x="0" y="0" width="2400" height="1600"></rect>
  </clipPath>
</defs>
<path clip-path="url(#clip810)" d="M0 1600 L2400 1600 L2400 0 L0 0  Z" fill="#ffffff" fill-rule="evenodd" fill-opacity="1"></path>
<defs>
  <clipPath id="clip811">
    <rect x="480" y="0" width="1681" height="1600"></rect>
  </clipPath>
</defs>
<path clip-path="url(#clip810)" d="M138.959 1486.45 L2352.76 1486.45 L2352.76 47.2441 L138.959 47.2441  Z" fill="#ffffff" fill-rule="evenodd" fill-opacity="1"></path>
<defs>
  <clipPath id="clip812">
    <rect x="138" y="47" width="2215" height="1440"></rect>
  </clipPath>
</defs>
<polyline clip-path="url(#clip812)" style="stroke:#000000; stroke-linecap:round; stroke-linejoin:round; stroke-width:2; stroke-opacity:0.1; fill:none" points="138.959,1486.45 138.959,47.2441 "></polyline>
<polyline clip-path="url(#clip812)" style="stroke:#000000; stroke-linecap:round; stroke-linejoin:round; stroke-width:2; stroke-opacity:0.1; fill:none" points="581.719,1486.45 581.719,47.2441 "></polyline>
<polyline clip-path="url(#clip812)" style="stroke:#000000; stroke-linecap:round; stroke-linejoin:round; stroke-width:2; stroke-opacity:0.1; fill:none" points="1024.48,1486.45 1024.48,47.2441 "></polyline>
<polyline clip-path="url(#clip812)" style="stroke:#000000; stroke-linecap:round; stroke-linejoin:round; stroke-width:2; stroke-opacity:0.1; fill:none" points="1467.24,1486.45 1467.24,47.2441 "></polyline>
<polyline clip-path="url(#clip812)" style="stroke:#000000; stroke-linecap:round; stroke-linejoin:round; stroke-width:2; stroke-opacity:0.1; fill:none" points="1910,1486.45 1910,47.2441 "></polyline>
<polyline clip-path="url(#clip812)" style="stroke:#000000; stroke-linecap:round; stroke-linejoin:round; stroke-width:2; stroke-opacity:0.1; fill:none" points="2352.76,1486.45 2352.76,47.2441 "></polyline>
<polyline clip-path="url(#clip810)" style="stroke:#000000; stroke-linecap:round; stroke-linejoin:round; stroke-width:4; stroke-opacity:1; fill:none" points="138.959,1486.45 2352.76,1486.45 "></polyline>
<polyline clip-path="url(#clip810)" style="stroke:#000000; stroke-linecap:round; stroke-linejoin:round; stroke-width:4; stroke-opacity:1; fill:none" points="138.959,1486.45 138.959,1467.55 "></polyline>
<polyline clip-path="url(#clip810)" style="stroke:#000000; stroke-linecap:round; stroke-linejoin:round; stroke-width:4; stroke-opacity:1; fill:none" points="581.719,1486.45 581.719,1467.55 "></polyline>
<polyline clip-path="url(#clip810)" style="stroke:#000000; stroke-linecap:round; stroke-linejoin:round; stroke-width:4; stroke-opacity:1; fill:none" points="1024.48,1486.45 1024.48,1467.55 "></polyline>
<polyline clip-path="url(#clip810)" style="stroke:#000000; stroke-linecap:round; stroke-linejoin:round; stroke-width:4; stroke-opacity:1; fill:none" points="1467.24,1486.45 1467.24,1467.55 "></polyline>
<polyline clip-path="url(#clip810)" style="stroke:#000000; stroke-linecap:round; stroke-linejoin:round; stroke-width:4; stroke-opacity:1; fill:none" points="1910,1486.45 1910,1467.55 "></polyline>
<polyline clip-path="url(#clip810)" style="stroke:#000000; stroke-linecap:round; stroke-linejoin:round; stroke-width:4; stroke-opacity:1; fill:none" points="2352.76,1486.45 2352.76,1467.55 "></polyline>
<path clip-path="url(#clip810)" d="M116.344 1517.37 Q112.733 1517.37 110.904 1520.93 Q109.098 1524.47 109.098 1531.6 Q109.098 1538.71 110.904 1542.27 Q112.733 1545.82 116.344 1545.82 Q119.978 1545.82 121.784 1542.27 Q123.612 1538.71 123.612 1531.6 Q123.612 1524.47 121.784 1520.93 Q119.978 1517.37 116.344 1517.37 M116.344 1513.66 Q122.154 1513.66 125.21 1518.27 Q128.288 1522.85 128.288 1531.6 Q128.288 1540.33 125.21 1544.94 Q122.154 1549.52 116.344 1549.52 Q110.534 1549.52 107.455 1544.94 Q104.399 1540.33 104.399 1531.6 Q104.399 1522.85 107.455 1518.27 Q110.534 1513.66 116.344 1513.66 Z" fill="#000000" fill-rule="nonzero" fill-opacity="1"></path><path clip-path="url(#clip810)" d="M136.506 1542.97 L141.39 1542.97 L141.39 1548.85 L136.506 1548.85 L136.506 1542.97 Z" fill="#000000" fill-rule="nonzero" fill-opacity="1"></path><path clip-path="url(#clip810)" d="M161.575 1517.37 Q157.964 1517.37 156.135 1520.93 Q154.33 1524.47 154.33 1531.6 Q154.33 1538.71 156.135 1542.27 Q157.964 1545.82 161.575 1545.82 Q165.209 1545.82 167.015 1542.27 Q168.844 1538.71 168.844 1531.6 Q168.844 1524.47 167.015 1520.93 Q165.209 1517.37 161.575 1517.37 M161.575 1513.66 Q167.385 1513.66 170.441 1518.27 Q173.519 1522.85 173.519 1531.6 Q173.519 1540.33 170.441 1544.94 Q167.385 1549.52 161.575 1549.52 Q155.765 1549.52 152.686 1544.94 Q149.631 1540.33 149.631 1531.6 Q149.631 1522.85 152.686 1518.27 Q155.765 1513.66 161.575 1513.66 Z" fill="#000000" fill-rule="nonzero" fill-opacity="1"></path><path clip-path="url(#clip810)" d="M559.902 1517.37 Q556.291 1517.37 554.462 1520.93 Q552.656 1524.47 552.656 1531.6 Q552.656 1538.71 554.462 1542.27 Q556.291 1545.82 559.902 1545.82 Q563.536 1545.82 565.342 1542.27 Q567.17 1538.71 567.17 1531.6 Q567.17 1524.47 565.342 1520.93 Q563.536 1517.37 559.902 1517.37 M559.902 1513.66 Q565.712 1513.66 568.767 1518.27 Q571.846 1522.85 571.846 1531.6 Q571.846 1540.33 568.767 1544.94 Q565.712 1549.52 559.902 1549.52 Q554.092 1549.52 551.013 1544.94 Q547.957 1540.33 547.957 1531.6 Q547.957 1522.85 551.013 1518.27 Q554.092 1513.66 559.902 1513.66 Z" fill="#000000" fill-rule="nonzero" fill-opacity="1"></path><path clip-path="url(#clip810)" d="M580.064 1542.97 L584.948 1542.97 L584.948 1548.85 L580.064 1548.85 L580.064 1542.97 Z" fill="#000000" fill-rule="nonzero" fill-opacity="1"></path><path clip-path="url(#clip810)" d="M599.161 1544.91 L615.48 1544.91 L615.48 1548.85 L593.536 1548.85 L593.536 1544.91 Q596.198 1542.16 600.781 1537.53 Q605.388 1532.88 606.568 1531.53 Q608.813 1529.01 609.693 1527.27 Q610.596 1525.51 610.596 1523.82 Q610.596 1521.07 608.651 1519.33 Q606.73 1517.6 603.628 1517.6 Q601.429 1517.6 598.976 1518.36 Q596.545 1519.13 593.767 1520.68 L593.767 1515.95 Q596.591 1514.82 599.045 1514.24 Q601.499 1513.66 603.536 1513.66 Q608.906 1513.66 612.101 1516.35 Q615.295 1519.03 615.295 1523.52 Q615.295 1525.65 614.485 1527.57 Q613.698 1529.47 611.591 1532.07 Q611.013 1532.74 607.911 1535.95 Q604.809 1539.15 599.161 1544.91 Z" fill="#000000" fill-rule="nonzero" fill-opacity="1"></path><path clip-path="url(#clip810)" d="M1001.62 1517.37 Q998.008 1517.37 996.18 1520.93 Q994.374 1524.47 994.374 1531.6 Q994.374 1538.71 996.18 1542.27 Q998.008 1545.82 1001.62 1545.82 Q1005.25 1545.82 1007.06 1542.27 Q1008.89 1538.71 1008.89 1531.6 Q1008.89 1524.47 1007.06 1520.93 Q1005.25 1517.37 1001.62 1517.37 M1001.62 1513.66 Q1007.43 1513.66 1010.49 1518.27 Q1013.56 1522.85 1013.56 1531.6 Q1013.56 1540.33 1010.49 1544.94 Q1007.43 1549.52 1001.62 1549.52 Q995.809 1549.52 992.731 1544.94 Q989.675 1540.33 989.675 1531.6 Q989.675 1522.85 992.731 1518.27 Q995.809 1513.66 1001.62 1513.66 Z" fill="#000000" fill-rule="nonzero" fill-opacity="1"></path><path clip-path="url(#clip810)" d="M1021.78 1542.97 L1026.67 1542.97 L1026.67 1548.85 L1021.78 1548.85 L1021.78 1542.97 Z" fill="#000000" fill-rule="nonzero" fill-opacity="1"></path><path clip-path="url(#clip810)" d="M1049.7 1518.36 L1037.89 1536.81 L1049.7 1536.81 L1049.7 1518.36 M1048.47 1514.29 L1054.35 1514.29 L1054.35 1536.81 L1059.28 1536.81 L1059.28 1540.7 L1054.35 1540.7 L1054.35 1548.85 L1049.7 1548.85 L1049.7 1540.7 L1034.1 1540.7 L1034.1 1536.19 L1048.47 1514.29 Z" fill="#000000" fill-rule="nonzero" fill-opacity="1"></path><path clip-path="url(#clip810)" d="M1444.54 1517.37 Q1440.93 1517.37 1439.1 1520.93 Q1437.3 1524.47 1437.3 1531.6 Q1437.3 1538.71 1439.1 1542.27 Q1440.93 1545.82 1444.54 1545.82 Q1448.17 1545.82 1449.98 1542.27 Q1451.81 1538.71 1451.81 1531.6 Q1451.81 1524.47 1449.98 1520.93 Q1448.17 1517.37 1444.54 1517.37 M1444.54 1513.66 Q1450.35 1513.66 1453.41 1518.27 Q1456.49 1522.85 1456.49 1531.6 Q1456.49 1540.33 1453.41 1544.94 Q1450.35 1549.52 1444.54 1549.52 Q1438.73 1549.52 1435.65 1544.94 Q1432.6 1540.33 1432.6 1531.6 Q1432.6 1522.85 1435.65 1518.27 Q1438.73 1513.66 1444.54 1513.66 Z" fill="#000000" fill-rule="nonzero" fill-opacity="1"></path><path clip-path="url(#clip810)" d="M1464.7 1542.97 L1469.59 1542.97 L1469.59 1548.85 L1464.7 1548.85 L1464.7 1542.97 Z" fill="#000000" fill-rule="nonzero" fill-opacity="1"></path><path clip-path="url(#clip810)" d="M1490.35 1529.7 Q1487.2 1529.7 1485.35 1531.86 Q1483.52 1534.01 1483.52 1537.76 Q1483.52 1541.49 1485.35 1543.66 Q1487.2 1545.82 1490.35 1545.82 Q1493.5 1545.82 1495.33 1543.66 Q1497.18 1541.49 1497.18 1537.76 Q1497.18 1534.01 1495.33 1531.86 Q1493.5 1529.7 1490.35 1529.7 M1499.63 1515.05 L1499.63 1519.31 Q1497.87 1518.48 1496.07 1518.04 Q1494.29 1517.6 1492.53 1517.6 Q1487.9 1517.6 1485.44 1520.72 Q1483.01 1523.85 1482.67 1530.17 Q1484.03 1528.15 1486.09 1527.09 Q1488.15 1526 1490.63 1526 Q1495.84 1526 1498.85 1529.17 Q1501.88 1532.32 1501.88 1537.76 Q1501.88 1543.08 1498.73 1546.3 Q1495.58 1549.52 1490.35 1549.52 Q1484.36 1549.52 1481.18 1544.94 Q1478.01 1540.33 1478.01 1531.6 Q1478.01 1523.41 1481.9 1518.55 Q1485.79 1513.66 1492.34 1513.66 Q1494.1 1513.66 1495.88 1514.01 Q1497.69 1514.36 1499.63 1515.05 Z" fill="#000000" fill-rule="nonzero" fill-opacity="1"></path><path clip-path="url(#clip810)" d="M1887.43 1517.37 Q1883.82 1517.37 1881.99 1520.93 Q1880.18 1524.47 1880.18 1531.6 Q1880.18 1538.71 1881.99 1542.27 Q1883.82 1545.82 1887.43 1545.82 Q1891.06 1545.82 1892.87 1542.27 Q1894.7 1538.71 1894.7 1531.6 Q1894.7 1524.47 1892.87 1520.93 Q1891.06 1517.37 1887.43 1517.37 M1887.43 1513.66 Q1893.24 1513.66 1896.29 1518.27 Q1899.37 1522.85 1899.37 1531.6 Q1899.37 1540.33 1896.29 1544.94 Q1893.24 1549.52 1887.43 1549.52 Q1881.62 1549.52 1878.54 1544.94 Q1875.48 1540.33 1875.48 1531.6 Q1875.48 1522.85 1878.54 1518.27 Q1881.62 1513.66 1887.43 1513.66 Z" fill="#000000" fill-rule="nonzero" fill-opacity="1"></path><path clip-path="url(#clip810)" d="M1907.59 1542.97 L1912.47 1542.97 L1912.47 1548.85 L1907.59 1548.85 L1907.59 1542.97 Z" fill="#000000" fill-rule="nonzero" fill-opacity="1"></path><path clip-path="url(#clip810)" d="M1932.66 1532.44 Q1929.33 1532.44 1927.4 1534.22 Q1925.51 1536 1925.51 1539.13 Q1925.51 1542.25 1927.4 1544.03 Q1929.33 1545.82 1932.66 1545.82 Q1935.99 1545.82 1937.91 1544.03 Q1939.83 1542.23 1939.83 1539.13 Q1939.83 1536 1937.91 1534.22 Q1936.01 1532.44 1932.66 1532.44 M1927.98 1530.45 Q1924.97 1529.7 1923.28 1527.64 Q1921.62 1525.58 1921.62 1522.62 Q1921.62 1518.48 1924.56 1516.07 Q1927.52 1513.66 1932.66 1513.66 Q1937.82 1513.66 1940.76 1516.07 Q1943.7 1518.48 1943.7 1522.62 Q1943.7 1525.58 1942.01 1527.64 Q1940.34 1529.7 1937.36 1530.45 Q1940.74 1531.23 1942.61 1533.52 Q1944.51 1535.82 1944.51 1539.13 Q1944.51 1544.15 1941.43 1546.83 Q1938.38 1549.52 1932.66 1549.52 Q1926.94 1549.52 1923.86 1546.83 Q1920.81 1544.15 1920.81 1539.13 Q1920.81 1535.82 1922.7 1533.52 Q1924.6 1531.23 1927.98 1530.45 M1926.27 1523.06 Q1926.27 1525.75 1927.94 1527.25 Q1929.63 1528.76 1932.66 1528.76 Q1935.67 1528.76 1937.36 1527.25 Q1939.07 1525.75 1939.07 1523.06 Q1939.07 1520.38 1937.36 1518.87 Q1935.67 1517.37 1932.66 1517.37 Q1929.63 1517.37 1927.94 1518.87 Q1926.27 1520.38 1926.27 1523.06 Z" fill="#000000" fill-rule="nonzero" fill-opacity="1"></path><path clip-path="url(#clip810)" d="M2319.91 1544.91 L2327.55 1544.91 L2327.55 1518.55 L2319.24 1520.21 L2319.24 1515.95 L2327.5 1514.29 L2332.18 1514.29 L2332.18 1544.91 L2339.82 1544.91 L2339.82 1548.85 L2319.91 1548.85 L2319.91 1544.91 Z" fill="#000000" fill-rule="nonzero" fill-opacity="1"></path><path clip-path="url(#clip810)" d="M2349.26 1542.97 L2354.14 1542.97 L2354.14 1548.85 L2349.26 1548.85 L2349.26 1542.97 Z" fill="#000000" fill-rule="nonzero" fill-opacity="1"></path><path clip-path="url(#clip810)" d="M2374.33 1517.37 Q2370.72 1517.37 2368.89 1520.93 Q2367.08 1524.47 2367.08 1531.6 Q2367.08 1538.71 2368.89 1542.27 Q2370.72 1545.82 2374.33 1545.82 Q2377.96 1545.82 2379.77 1542.27 Q2381.6 1538.71 2381.6 1531.6 Q2381.6 1524.47 2379.77 1520.93 Q2377.96 1517.37 2374.33 1517.37 M2374.33 1513.66 Q2380.14 1513.66 2383.2 1518.27 Q2386.27 1522.85 2386.27 1531.6 Q2386.27 1540.33 2383.2 1544.94 Q2380.14 1549.52 2374.33 1549.52 Q2368.52 1549.52 2365.44 1544.94 Q2362.39 1540.33 2362.39 1531.6 Q2362.39 1522.85 2365.44 1518.27 Q2368.52 1513.66 2374.33 1513.66 Z" fill="#000000" fill-rule="nonzero" fill-opacity="1"></path><polyline clip-path="url(#clip812)" style="stroke:#000000; stroke-linecap:round; stroke-linejoin:round; stroke-width:2; stroke-opacity:0.1; fill:none" points="138.959,1486.45 2352.76,1486.45 "></polyline>
<polyline clip-path="url(#clip812)" style="stroke:#000000; stroke-linecap:round; stroke-linejoin:round; stroke-width:2; stroke-opacity:0.1; fill:none" points="138.959,1076.27 2352.76,1076.27 "></polyline>
<polyline clip-path="url(#clip812)" style="stroke:#000000; stroke-linecap:round; stroke-linejoin:round; stroke-width:2; stroke-opacity:0.1; fill:none" points="138.959,666.102 2352.76,666.102 "></polyline>
<polyline clip-path="url(#clip812)" style="stroke:#000000; stroke-linecap:round; stroke-linejoin:round; stroke-width:2; stroke-opacity:0.1; fill:none" points="138.959,255.929 2352.76,255.929 "></polyline>
<polyline clip-path="url(#clip810)" style="stroke:#000000; stroke-linecap:round; stroke-linejoin:round; stroke-width:4; stroke-opacity:1; fill:none" points="138.959,1486.45 138.959,47.2441 "></polyline>
<polyline clip-path="url(#clip810)" style="stroke:#000000; stroke-linecap:round; stroke-linejoin:round; stroke-width:4; stroke-opacity:1; fill:none" points="138.959,1486.45 157.857,1486.45 "></polyline>
<polyline clip-path="url(#clip810)" style="stroke:#000000; stroke-linecap:round; stroke-linejoin:round; stroke-width:4; stroke-opacity:1; fill:none" points="138.959,1076.27 157.857,1076.27 "></polyline>
<polyline clip-path="url(#clip810)" style="stroke:#000000; stroke-linecap:round; stroke-linejoin:round; stroke-width:4; stroke-opacity:1; fill:none" points="138.959,666.102 157.857,666.102 "></polyline>
<polyline clip-path="url(#clip810)" style="stroke:#000000; stroke-linecap:round; stroke-linejoin:round; stroke-width:4; stroke-opacity:1; fill:none" points="138.959,255.929 157.857,255.929 "></polyline>
<path clip-path="url(#clip810)" d="M91.0151 1472.25 Q87.404 1472.25 85.5753 1475.81 Q83.7697 1479.35 83.7697 1486.48 Q83.7697 1493.59 85.5753 1497.15 Q87.404 1500.7 91.0151 1500.7 Q94.6493 1500.7 96.4548 1497.15 Q98.2835 1493.59 98.2835 1486.48 Q98.2835 1479.35 96.4548 1475.81 Q94.6493 1472.25 91.0151 1472.25 M91.0151 1468.54 Q96.8252 1468.54 99.8808 1473.15 Q102.959 1477.73 102.959 1486.48 Q102.959 1495.21 99.8808 1499.82 Q96.8252 1504.4 91.0151 1504.4 Q85.2049 1504.4 82.1262 1499.82 Q79.0707 1495.21 79.0707 1486.48 Q79.0707 1477.73 82.1262 1473.15 Q85.2049 1468.54 91.0151 1468.54 Z" fill="#000000" fill-rule="nonzero" fill-opacity="1"></path><path clip-path="url(#clip810)" d="M82.0568 1058.99 L100.413 1058.99 L100.413 1062.93 L86.3392 1062.93 L86.3392 1071.4 Q87.3577 1071.05 88.3762 1070.89 Q89.3947 1070.71 90.4132 1070.71 Q96.2002 1070.71 99.5798 1073.88 Q102.959 1077.05 102.959 1082.47 Q102.959 1088.05 99.4872 1091.15 Q96.015 1094.23 89.6956 1094.23 Q87.5197 1094.23 85.2512 1093.86 Q83.0058 1093.49 80.5984 1092.74 L80.5984 1088.05 Q82.6818 1089.18 84.904 1089.74 Q87.1262 1090.29 89.603 1090.29 Q93.6076 1090.29 95.9456 1088.18 Q98.2835 1086.08 98.2835 1082.47 Q98.2835 1078.86 95.9456 1076.75 Q93.6076 1074.64 89.603 1074.64 Q87.728 1074.64 85.8531 1075.06 Q84.0012 1075.48 82.0568 1076.36 L82.0568 1058.99 Z" fill="#000000" fill-rule="nonzero" fill-opacity="1"></path><path clip-path="url(#clip810)" d="M51.6634 679.447 L59.3023 679.447 L59.3023 653.081 L50.9921 654.748 L50.9921 650.488 L59.256 648.822 L63.9319 648.822 L63.9319 679.447 L71.5707 679.447 L71.5707 683.382 L51.6634 683.382 L51.6634 679.447 Z" fill="#000000" fill-rule="nonzero" fill-opacity="1"></path><path clip-path="url(#clip810)" d="M91.0151 651.9 Q87.404 651.9 85.5753 655.465 Q83.7697 659.007 83.7697 666.136 Q83.7697 673.243 85.5753 676.808 Q87.404 680.349 91.0151 680.349 Q94.6493 680.349 96.4548 676.808 Q98.2835 673.243 98.2835 666.136 Q98.2835 659.007 96.4548 655.465 Q94.6493 651.9 91.0151 651.9 M91.0151 648.197 Q96.8252 648.197 99.8808 652.803 Q102.959 657.386 102.959 666.136 Q102.959 674.863 99.8808 679.47 Q96.8252 684.053 91.0151 684.053 Q85.2049 684.053 82.1262 679.47 Q79.0707 674.863 79.0707 666.136 Q79.0707 657.386 82.1262 652.803 Q85.2049 648.197 91.0151 648.197 Z" fill="#000000" fill-rule="nonzero" fill-opacity="1"></path><path clip-path="url(#clip810)" d="M52.6588 269.273 L60.2976 269.273 L60.2976 242.908 L51.9875 244.575 L51.9875 240.315 L60.2513 238.649 L64.9272 238.649 L64.9272 269.273 L72.5661 269.273 L72.5661 273.209 L52.6588 273.209 L52.6588 269.273 Z" fill="#000000" fill-rule="nonzero" fill-opacity="1"></path><path clip-path="url(#clip810)" d="M82.0568 238.649 L100.413 238.649 L100.413 242.584 L86.3392 242.584 L86.3392 251.056 Q87.3577 250.709 88.3762 250.547 Q89.3947 250.362 90.4132 250.362 Q96.2002 250.362 99.5798 253.533 Q102.959 256.704 102.959 262.121 Q102.959 267.699 99.4872 270.801 Q96.015 273.88 89.6956 273.88 Q87.5197 273.88 85.2512 273.51 Q83.0058 273.139 80.5984 272.398 L80.5984 267.699 Q82.6818 268.834 84.904 269.389 Q87.1262 269.945 89.603 269.945 Q93.6076 269.945 95.9456 267.838 Q98.2835 265.732 98.2835 262.121 Q98.2835 258.51 95.9456 256.403 Q93.6076 254.297 89.603 254.297 Q87.728 254.297 85.8531 254.713 Q84.0012 255.13 82.0568 256.01 L82.0568 238.649 Z" fill="#000000" fill-rule="nonzero" fill-opacity="1"></path><path clip-path="url(#clip812)" d="M138.959 47.2441 L138.959 1486.45 L183.235 1486.45 L183.235 47.2441 L138.959 47.2441 L138.959 47.2441  Z" fill="#009af9" fill-rule="evenodd" fill-opacity="1"></path>
<polyline clip-path="url(#clip812)" style="stroke:#000000; stroke-linecap:round; stroke-linejoin:round; stroke-width:4; stroke-opacity:1; fill:none" points="138.959,47.2441 138.959,1486.45 183.235,1486.45 183.235,47.2441 138.959,47.2441 "></polyline>
<path clip-path="url(#clip812)" d="M183.235 1486.45 L183.235 1486.45 L227.511 1486.45 L227.511 1486.45 L183.235 1486.45 L183.235 1486.45  Z" fill="#009af9" fill-rule="evenodd" fill-opacity="1"></path>
<polyline clip-path="url(#clip812)" style="stroke:#000000; stroke-linecap:round; stroke-linejoin:round; stroke-width:4; stroke-opacity:1; fill:none" points="183.235,1486.45 183.235,1486.45 227.511,1486.45 183.235,1486.45 "></polyline>
<path clip-path="url(#clip812)" d="M227.511 1198.61 L227.511 1486.45 L271.787 1486.45 L271.787 1198.61 L227.511 1198.61 L227.511 1198.61  Z" fill="#009af9" fill-rule="evenodd" fill-opacity="1"></path>
<polyline clip-path="url(#clip812)" style="stroke:#000000; stroke-linecap:round; stroke-linejoin:round; stroke-width:4; stroke-opacity:1; fill:none" points="227.511,1198.61 227.511,1486.45 271.787,1486.45 271.787,1198.61 227.511,1198.61 "></polyline>
<path clip-path="url(#clip812)" d="M271.787 1486.45 L271.787 1486.45 L316.063 1486.45 L316.063 1486.45 L271.787 1486.45 L271.787 1486.45  Z" fill="#009af9" fill-rule="evenodd" fill-opacity="1"></path>
<polyline clip-path="url(#clip812)" style="stroke:#000000; stroke-linecap:round; stroke-linejoin:round; stroke-width:4; stroke-opacity:1; fill:none" points="271.787,1486.45 271.787,1486.45 316.063,1486.45 271.787,1486.45 "></polyline>
<path clip-path="url(#clip812)" d="M316.063 1342.53 L316.063 1486.45 L360.339 1486.45 L360.339 1342.53 L316.063 1342.53 L316.063 1342.53  Z" fill="#009af9" fill-rule="evenodd" fill-opacity="1"></path>
<polyline clip-path="url(#clip812)" style="stroke:#000000; stroke-linecap:round; stroke-linejoin:round; stroke-width:4; stroke-opacity:1; fill:none" points="316.063,1342.53 316.063,1486.45 360.339,1486.45 360.339,1342.53 316.063,1342.53 "></polyline>
<path clip-path="url(#clip812)" d="M360.339 1342.53 L360.339 1486.45 L404.615 1486.45 L404.615 1342.53 L360.339 1342.53 L360.339 1342.53  Z" fill="#009af9" fill-rule="evenodd" fill-opacity="1"></path>
<polyline clip-path="url(#clip812)" style="stroke:#000000; stroke-linecap:round; stroke-linejoin:round; stroke-width:4; stroke-opacity:1; fill:none" points="360.339,1342.53 360.339,1486.45 404.615,1486.45 404.615,1342.53 360.339,1342.53 "></polyline>
<path clip-path="url(#clip812)" d="M404.615 1270.57 L404.615 1486.45 L448.891 1486.45 L448.891 1270.57 L404.615 1270.57 L404.615 1270.57  Z" fill="#009af9" fill-rule="evenodd" fill-opacity="1"></path>
<polyline clip-path="url(#clip812)" style="stroke:#000000; stroke-linecap:round; stroke-linejoin:round; stroke-width:4; stroke-opacity:1; fill:none" points="404.615,1270.57 404.615,1486.45 448.891,1486.45 448.891,1270.57 404.615,1270.57 "></polyline>
<path clip-path="url(#clip812)" d="M448.891 694.886 L448.891 1486.45 L493.167 1486.45 L493.167 694.886 L448.891 694.886 L448.891 694.886  Z" fill="#009af9" fill-rule="evenodd" fill-opacity="1"></path>
<polyline clip-path="url(#clip812)" style="stroke:#000000; stroke-linecap:round; stroke-linejoin:round; stroke-width:4; stroke-opacity:1; fill:none" points="448.891,694.886 448.891,1486.45 493.167,1486.45 493.167,694.886 448.891,694.886 "></polyline>
<path clip-path="url(#clip812)" d="M493.167 1198.61 L493.167 1486.45 L537.443 1486.45 L537.443 1198.61 L493.167 1198.61 L493.167 1198.61  Z" fill="#009af9" fill-rule="evenodd" fill-opacity="1"></path>
<polyline clip-path="url(#clip812)" style="stroke:#000000; stroke-linecap:round; stroke-linejoin:round; stroke-width:4; stroke-opacity:1; fill:none" points="493.167,1198.61 493.167,1486.45 537.443,1486.45 537.443,1198.61 493.167,1198.61 "></polyline>
<path clip-path="url(#clip812)" d="M537.443 910.766 L537.443 1486.45 L581.719 1486.45 L581.719 910.766 L537.443 910.766 L537.443 910.766  Z" fill="#009af9" fill-rule="evenodd" fill-opacity="1"></path>
<polyline clip-path="url(#clip812)" style="stroke:#000000; stroke-linecap:round; stroke-linejoin:round; stroke-width:4; stroke-opacity:1; fill:none" points="537.443,910.766 537.443,1486.45 581.719,1486.45 581.719,910.766 537.443,910.766 "></polyline>
<path clip-path="url(#clip812)" d="M581.719 1270.57 L581.719 1486.45 L625.995 1486.45 L625.995 1270.57 L581.719 1270.57 L581.719 1270.57  Z" fill="#009af9" fill-rule="evenodd" fill-opacity="1"></path>
<polyline clip-path="url(#clip812)" style="stroke:#000000; stroke-linecap:round; stroke-linejoin:round; stroke-width:4; stroke-opacity:1; fill:none" points="581.719,1270.57 581.719,1486.45 625.995,1486.45 625.995,1270.57 581.719,1270.57 "></polyline>
<circle clip-path="url(#clip812)" style="fill:#009af9; stroke:none; fill-opacity:0" cx="161.097" cy="47.2441" r="2"></circle>
<circle clip-path="url(#clip812)" style="fill:#009af9; stroke:none; fill-opacity:0" cx="205.373" cy="1486.45" r="2"></circle>
<circle clip-path="url(#clip812)" style="fill:#009af9; stroke:none; fill-opacity:0" cx="249.649" cy="1198.61" r="2"></circle>
<circle clip-path="url(#clip812)" style="fill:#009af9; stroke:none; fill-opacity:0" cx="293.925" cy="1486.45" r="2"></circle>
<circle clip-path="url(#clip812)" style="fill:#009af9; stroke:none; fill-opacity:0" cx="338.201" cy="1342.53" r="2"></circle>
<circle clip-path="url(#clip812)" style="fill:#009af9; stroke:none; fill-opacity:0" cx="382.477" cy="1342.53" r="2"></circle>
<circle clip-path="url(#clip812)" style="fill:#009af9; stroke:none; fill-opacity:0" cx="426.753" cy="1270.57" r="2"></circle>
<circle clip-path="url(#clip812)" style="fill:#009af9; stroke:none; fill-opacity:0" cx="471.029" cy="694.886" r="2"></circle>
<circle clip-path="url(#clip812)" style="fill:#009af9; stroke:none; fill-opacity:0" cx="515.305" cy="1198.61" r="2"></circle>
<circle clip-path="url(#clip812)" style="fill:#009af9; stroke:none; fill-opacity:0" cx="559.581" cy="910.766" r="2"></circle>
<circle clip-path="url(#clip812)" style="fill:#009af9; stroke:none; fill-opacity:0" cx="603.857" cy="1270.57" r="2"></circle>
<path clip-path="url(#clip810)" d="M1808.09 198.898 L2278.96 198.898 L2278.96 95.2176 L1808.09 95.2176  Z" fill="#ffffff" fill-rule="evenodd" fill-opacity="1"></path>
<polyline clip-path="url(#clip810)" style="stroke:#000000; stroke-linecap:round; stroke-linejoin:round; stroke-width:4; stroke-opacity:1; fill:none" points="1808.09,198.898 2278.96,198.898 2278.96,95.2176 1808.09,95.2176 1808.09,198.898 "></polyline>
<path clip-path="url(#clip810)" d="M1832.69 167.794 L1980.28 167.794 L1980.28 126.322 L1832.69 126.322 L1832.69 167.794  Z" fill="#009af9" fill-rule="evenodd" fill-opacity="1"></path>
<polyline clip-path="url(#clip810)" style="stroke:#000000; stroke-linecap:round; stroke-linejoin:round; stroke-width:4; stroke-opacity:1; fill:none" points="1832.69,167.794 1980.28,167.794 1980.28,126.322 1832.69,126.322 1832.69,167.794 "></polyline>
<path clip-path="url(#clip810)" d="M2009.16 160.449 L2009.16 174.199 L2004.88 174.199 L2004.88 138.412 L2009.16 138.412 L2009.16 142.347 Q2010.5 140.032 2012.54 138.921 Q2014.6 137.787 2017.44 137.787 Q2022.17 137.787 2025.11 141.537 Q2028.07 145.287 2028.07 151.398 Q2028.07 157.509 2025.11 161.259 Q2022.17 165.009 2017.44 165.009 Q2014.6 165.009 2012.54 163.898 Q2010.5 162.763 2009.16 160.449 M2023.65 151.398 Q2023.65 146.699 2021.7 144.037 Q2019.78 141.352 2016.4 141.352 Q2013.02 141.352 2011.08 144.037 Q2009.16 146.699 2009.16 151.398 Q2009.16 156.097 2011.08 158.782 Q2013.02 161.444 2016.4 161.444 Q2019.78 161.444 2021.7 158.782 Q2023.65 156.097 2023.65 151.398 Z" fill="#000000" fill-rule="nonzero" fill-opacity="1"></path><path clip-path="url(#clip810)" d="M2045.18 141.398 Q2041.75 141.398 2039.76 144.083 Q2037.77 146.745 2037.77 151.398 Q2037.77 156.051 2039.74 158.736 Q2041.73 161.398 2045.18 161.398 Q2048.58 161.398 2050.57 158.713 Q2052.56 156.027 2052.56 151.398 Q2052.56 146.791 2050.57 144.106 Q2048.58 141.398 2045.18 141.398 M2045.18 137.787 Q2050.73 137.787 2053.9 141.398 Q2057.07 145.009 2057.07 151.398 Q2057.07 157.764 2053.9 161.398 Q2050.73 165.009 2045.18 165.009 Q2039.6 165.009 2036.43 161.398 Q2033.28 157.764 2033.28 151.398 Q2033.28 145.009 2036.43 141.398 Q2039.6 137.787 2045.18 137.787 Z" fill="#000000" fill-rule="nonzero" fill-opacity="1"></path><path clip-path="url(#clip810)" d="M2080.66 139.176 L2080.66 143.203 Q2078.86 142.277 2076.91 141.815 Q2074.97 141.352 2072.88 141.352 Q2069.71 141.352 2068.12 142.324 Q2066.54 143.296 2066.54 145.24 Q2066.54 146.722 2067.68 147.578 Q2068.81 148.412 2072.24 149.176 L2073.69 149.5 Q2078.23 150.472 2080.13 152.254 Q2082.05 154.014 2082.05 157.185 Q2082.05 160.796 2079.18 162.902 Q2076.33 165.009 2071.33 165.009 Q2069.25 165.009 2066.98 164.592 Q2064.74 164.199 2062.24 163.388 L2062.24 158.99 Q2064.6 160.217 2066.89 160.842 Q2069.18 161.444 2071.43 161.444 Q2074.44 161.444 2076.06 160.426 Q2077.68 159.384 2077.68 157.509 Q2077.68 155.773 2076.5 154.847 Q2075.34 153.921 2071.38 153.064 L2069.9 152.717 Q2065.94 151.884 2064.18 150.171 Q2062.42 148.435 2062.42 145.426 Q2062.42 141.768 2065.01 139.778 Q2067.61 137.787 2072.38 137.787 Q2074.74 137.787 2076.82 138.134 Q2078.9 138.481 2080.66 139.176 Z" fill="#000000" fill-rule="nonzero" fill-opacity="1"></path><path clip-path="url(#clip810)" d="M2093.05 131.051 L2093.05 138.412 L2101.82 138.412 L2101.82 141.722 L2093.05 141.722 L2093.05 155.796 Q2093.05 158.967 2093.9 159.87 Q2094.78 160.773 2097.44 160.773 L2101.82 160.773 L2101.82 164.338 L2097.44 164.338 Q2092.51 164.338 2090.64 162.509 Q2088.76 160.657 2088.76 155.796 L2088.76 141.722 L2085.64 141.722 L2085.64 138.412 L2088.76 138.412 L2088.76 131.051 L2093.05 131.051 Z" fill="#000000" fill-rule="nonzero" fill-opacity="1"></path><path clip-path="url(#clip810)" d="M2129.6 150.31 L2129.6 152.393 L2110.01 152.393 Q2110.29 156.791 2112.65 159.106 Q2115.04 161.398 2119.27 161.398 Q2121.73 161.398 2124.02 160.796 Q2126.33 160.194 2128.6 158.99 L2128.6 163.018 Q2126.31 163.99 2123.9 164.5 Q2121.5 165.009 2119.02 165.009 Q2112.81 165.009 2109.18 161.398 Q2105.57 157.787 2105.57 151.629 Q2105.57 145.264 2109 141.537 Q2112.44 137.787 2118.28 137.787 Q2123.51 137.787 2126.54 141.166 Q2129.6 144.523 2129.6 150.31 M2125.34 149.06 Q2125.29 145.565 2123.37 143.481 Q2121.47 141.398 2118.32 141.398 Q2114.76 141.398 2112.61 143.412 Q2110.48 145.426 2110.15 149.083 L2125.34 149.06 Z" fill="#000000" fill-rule="nonzero" fill-opacity="1"></path><path clip-path="url(#clip810)" d="M2151.61 142.393 Q2150.89 141.977 2150.04 141.791 Q2149.2 141.583 2148.18 141.583 Q2144.57 141.583 2142.63 143.944 Q2140.71 146.282 2140.71 150.68 L2140.71 164.338 L2136.43 164.338 L2136.43 138.412 L2140.71 138.412 L2140.71 142.44 Q2142.05 140.078 2144.2 138.944 Q2146.36 137.787 2149.43 137.787 Q2149.87 137.787 2150.41 137.856 Q2150.94 137.903 2151.59 138.018 L2151.61 142.393 Z" fill="#000000" fill-rule="nonzero" fill-opacity="1"></path><path clip-path="url(#clip810)" d="M2156.08 138.412 L2160.34 138.412 L2160.34 164.338 L2156.08 164.338 L2156.08 138.412 M2156.08 128.319 L2160.34 128.319 L2160.34 133.713 L2156.08 133.713 L2156.08 128.319 Z" fill="#000000" fill-rule="nonzero" fill-opacity="1"></path><path clip-path="url(#clip810)" d="M2179.3 141.398 Q2175.87 141.398 2173.88 144.083 Q2171.89 146.745 2171.89 151.398 Q2171.89 156.051 2173.86 158.736 Q2175.85 161.398 2179.3 161.398 Q2182.7 161.398 2184.69 158.713 Q2186.68 156.027 2186.68 151.398 Q2186.68 146.791 2184.69 144.106 Q2182.7 141.398 2179.3 141.398 M2179.3 137.787 Q2184.85 137.787 2188.02 141.398 Q2191.19 145.009 2191.19 151.398 Q2191.19 157.764 2188.02 161.398 Q2184.85 165.009 2179.3 165.009 Q2173.72 165.009 2170.55 161.398 Q2167.4 157.764 2167.4 151.398 Q2167.4 145.009 2170.55 141.398 Q2173.72 137.787 2179.3 137.787 Z" fill="#000000" fill-rule="nonzero" fill-opacity="1"></path><path clip-path="url(#clip810)" d="M2213.28 142.393 Q2212.56 141.977 2211.7 141.791 Q2210.87 141.583 2209.85 141.583 Q2206.24 141.583 2204.3 143.944 Q2202.37 146.282 2202.37 150.68 L2202.37 164.338 L2198.09 164.338 L2198.09 138.412 L2202.37 138.412 L2202.37 142.44 Q2203.72 140.078 2205.87 138.944 Q2208.02 137.787 2211.1 137.787 Q2211.54 137.787 2212.07 137.856 Q2212.61 137.903 2213.25 138.018 L2213.28 142.393 Z" fill="#000000" fill-rule="nonzero" fill-opacity="1"></path><path clip-path="url(#clip810)" d="M2254.36 148.689 L2254.36 164.338 L2250.11 164.338 L2250.11 148.828 Q2250.11 145.148 2248.67 143.319 Q2247.24 141.49 2244.37 141.49 Q2240.92 141.49 2238.93 143.69 Q2236.93 145.889 2236.93 149.685 L2236.93 164.338 L2232.65 164.338 L2232.65 128.319 L2236.93 128.319 L2236.93 142.44 Q2238.46 140.102 2240.52 138.944 Q2242.61 137.787 2245.31 137.787 Q2249.78 137.787 2252.07 140.565 Q2254.36 143.319 2254.36 148.689 Z" fill="#000000" fill-rule="nonzero" fill-opacity="1"></path></svg>