<svg xmlns="http://www.w3.org/2000/svg" xmlns:xlink="http://www.w3.org/1999/xlink" width="600" height="400" viewBox="0 0 2400 1600">
<defs>
  <clipPath id="clip730">
    <rect x="0" y="0" width="2400" height="1600"></rect>
  </clipPath>
</defs>
<path clip-path="url(#clip730)" d="M0 1600 L2400 1600 L2400 0 L0 0  Z" fill="#ffffff" fill-rule="evenodd" fill-opacity="1"></path>
<defs>
  <clipPath id="clip731">
    <rect x="480" y="0" width="1681" height="1600"></rect>
  </clipPath>
</defs>
<path clip-path="url(#clip730)" d="M140.696 1486.45 L2352.76 1486.45 L2352.76 47.2441 L140.696 47.2441  Z" fill="#ffffff" fill-rule="evenodd" fill-opacity="1"></path>
<defs>
  <clipPath id="clip732">
    <rect x="140" y="47" width="2213" height="1440"></rect>
  </clipPath>
</defs>
<polyline clip-path="url(#clip732)" style="stroke:#000000; stroke-linecap:round; stroke-linejoin:round; stroke-width:2; stroke-opacity:0.1; fill:none" points="140.696,1486.45 140.696,47.2441 "></polyline>
<polyline clip-path="url(#clip732)" style="stroke:#000000; stroke-linecap:round; stroke-linejoin:round; stroke-width:2; stroke-opacity:0.1; fill:none" points="583.108,1486.45 583.108,47.2441 "></polyline>
<polyline clip-path="url(#clip732)" style="stroke:#000000; stroke-linecap:round; stroke-linejoin:round; stroke-width:2; stroke-opacity:0.1; fill:none" points="1025.52,1486.45 1025.52,47.2441 "></polyline>
<polyline clip-path="url(#clip732)" style="stroke:#000000; stroke-linecap:round; stroke-linejoin:round; stroke-width:2; stroke-opacity:0.1; fill:none" points="1467.93,1486.45 1467.93,47.2441 "></polyline>
<polyline clip-path="url(#clip732)" style="stroke:#000000; stroke-linecap:round; stroke-linejoin:round; stroke-width:2; stroke-opacity:0.1; fill:none" points="1910.34,1486.45 1910.34,47.2441 "></polyline>
<polyline clip-path="url(#clip732)" style="stroke:#000000; stroke-linecap:round; stroke-linejoin:round; stroke-width:2; stroke-opacity:0.1; fill:none" points="2352.76,1486.45 2352.76,47.2441 "></polyline>
<polyline clip-path="url(#clip730)" style="stroke:#000000; stroke-linecap:round; stroke-linejoin:round; stroke-width:4; stroke-opacity:1; fill:none" points="140.696,1486.45 2352.76,1486.45 "></polyline>
<polyline clip-path="url(#clip730)" style="stroke:#000000; stroke-linecap:round; stroke-linejoin:round; stroke-width:4; stroke-opacity:1; fill:none" points="140.696,1486.45 140.696,1467.55 "></polyline>
<polyline clip-path="url(#clip730)" style="stroke:#000000; stroke-linecap:round; stroke-linejoin:round; stroke-width:4; stroke-opacity:1; fill:none" points="583.108,1486.45 583.108,1467.55 "></polyline>
<polyline clip-path="url(#clip730)" style="stroke:#000000; stroke-linecap:round; stroke-linejoin:round; stroke-width:4; stroke-opacity:1; fill:none" points="1025.52,1486.45 1025.52,1467.55 "></polyline>
<polyline clip-path="url(#clip730)" style="stroke:#000000; stroke-linecap:round; stroke-linejoin:round; stroke-width:4; stroke-opacity:1; fill:none" points="1467.93,1486.45 1467.93,1467.55 "></polyline>
<polyline clip-path="url(#clip730)" style="stroke:#000000; stroke-linecap:round; stroke-linejoin:round; stroke-width:4; stroke-opacity:1; fill:none" points="1910.34,1486.45 1910.34,1467.55 "></polyline>
<polyline clip-path="url(#clip730)" style="stroke:#000000; stroke-linecap:round; stroke-linejoin:round; stroke-width:4; stroke-opacity:1; fill:none" points="2352.76,1486.45 2352.76,1467.55 "></polyline>
<path clip-path="url(#clip730)" d="M118.08 1517.37 Q114.469 1517.37 112.64 1520.93 Q110.835 1524.47 110.835 1531.6 Q110.835 1538.71 112.64 1542.27 Q114.469 1545.82 118.08 1545.82 Q121.714 1545.82 123.52 1542.27 Q125.348 1538.71 125.348 1531.6 Q125.348 1524.47 123.52 1520.93 Q121.714 1517.37 118.08 1517.37 M118.08 1513.66 Q123.89 1513.66 126.946 1518.27 Q130.024 1522.85 130.024 1531.6 Q130.024 1540.33 126.946 1544.94 Q123.89 1549.52 118.08 1549.52 Q112.27 1549.52 109.191 1544.94 Q106.136 1540.33 106.136 1531.6 Q106.136 1522.85 109.191 1518.27 Q112.27 1513.66 118.08 1513.66 Z" fill="#000000" fill-rule="nonzero" fill-opacity="1"></path><path clip-path="url(#clip730)" d="M138.242 1542.97 L143.126 1542.97 L143.126 1548.85 L138.242 1548.85 L138.242 1542.97 Z" fill="#000000" fill-rule="nonzero" fill-opacity="1"></path><path clip-path="url(#clip730)" d="M163.311 1517.37 Q159.7 1517.37 157.871 1520.93 Q156.066 1524.47 156.066 1531.6 Q156.066 1538.71 157.871 1542.27 Q159.7 1545.82 163.311 1545.82 Q166.945 1545.82 168.751 1542.27 Q170.58 1538.71 170.58 1531.6 Q170.58 1524.47 168.751 1520.93 Q166.945 1517.37 163.311 1517.37 M163.311 1513.66 Q169.121 1513.66 172.177 1518.27 Q175.256 1522.85 175.256 1531.6 Q175.256 1540.33 172.177 1544.94 Q169.121 1549.52 163.311 1549.52 Q157.501 1549.52 154.422 1544.94 Q151.367 1540.33 151.367 1531.6 Q151.367 1522.85 154.422 1518.27 Q157.501 1513.66 163.311 1513.66 Z" fill="#000000" fill-rule="nonzero" fill-opacity="1"></path><path clip-path="url(#clip730)" d="M561.291 1517.37 Q557.68 1517.37 555.851 1520.93 Q554.045 1524.47 554.045 1531.6 Q554.045 1538.71 555.851 1542.27 Q557.68 1545.82 561.291 1545.82 Q564.925 1545.82 566.73 1542.27 Q568.559 1538.71 568.559 1531.6 Q568.559 1524.47 566.73 1520.93 Q564.925 1517.37 561.291 1517.37 M561.291 1513.66 Q567.101 1513.66 570.156 1518.27 Q573.235 1522.85 573.235 1531.6 Q573.235 1540.33 570.156 1544.94 Q567.101 1549.52 561.291 1549.52 Q555.48 1549.52 552.402 1544.94 Q549.346 1540.33 549.346 1531.6 Q549.346 1522.85 552.402 1518.27 Q555.48 1513.66 561.291 1513.66 Z" fill="#000000" fill-rule="nonzero" fill-opacity="1"></path><path clip-path="url(#clip730)" d="M581.453 1542.97 L586.337 1542.97 L586.337 1548.85 L581.453 1548.85 L581.453 1542.97 Z" fill="#000000" fill-rule="nonzero" fill-opacity="1"></path><path clip-path="url(#clip730)" d="M600.55 1544.91 L616.869 1544.91 L616.869 1548.85 L594.925 1548.85 L594.925 1544.91 Q597.587 1542.16 602.17 1537.53 Q606.776 1532.88 607.957 1531.53 Q610.202 1529.01 611.082 1527.27 Q611.985 1525.51 611.985 1523.82 Q611.985 1521.07 610.04 1519.33 Q608.119 1517.6 605.017 1517.6 Q602.818 1517.6 600.364 1518.36 Q597.934 1519.13 595.156 1520.68 L595.156 1515.95 Q597.98 1514.82 600.434 1514.24 Q602.888 1513.66 604.925 1513.66 Q610.295 1513.66 613.489 1516.35 Q616.684 1519.03 616.684 1523.52 Q616.684 1525.65 615.874 1527.57 Q615.087 1529.47 612.98 1532.07 Q612.401 1532.74 609.3 1535.95 Q606.198 1539.15 600.55 1544.91 Z" fill="#000000" fill-rule="nonzero" fill-opacity="1"></path><path clip-path="url(#clip730)" d="M1002.66 1517.37 Q999.05 1517.37 997.221 1520.93 Q995.416 1524.47 995.416 1531.6 Q995.416 1538.71 997.221 1542.27 Q999.05 1545.82 1002.66 1545.82 Q1006.3 1545.82 1008.1 1542.27 Q1009.93 1538.71 1009.93 1531.6 Q1009.93 1524.47 1008.1 1520.93 Q1006.3 1517.37 1002.66 1517.37 M1002.66 1513.66 Q1008.47 1513.66 1011.53 1518.27 Q1014.61 1522.85 1014.61 1531.6 Q1014.61 1540.33 1011.53 1544.94 Q1008.47 1549.52 1002.66 1549.52 Q996.851 1549.52 993.772 1544.94 Q990.717 1540.33 990.717 1531.6 Q990.717 1522.85 993.772 1518.27 Q996.851 1513.66 1002.66 1513.66 Z" fill="#000000" fill-rule="nonzero" fill-opacity="1"></path><path clip-path="url(#clip730)" d="M1022.82 1542.97 L1027.71 1542.97 L1027.71 1548.85 L1022.82 1548.85 L1022.82 1542.97 Z" fill="#000000" fill-rule="nonzero" fill-opacity="1"></path><path clip-path="url(#clip730)" d="M1050.74 1518.36 L1038.93 1536.81 L1050.74 1536.81 L1050.74 1518.36 M1049.51 1514.29 L1055.39 1514.29 L1055.39 1536.81 L1060.32 1536.81 L1060.32 1540.7 L1055.39 1540.7 L1055.39 1548.85 L1050.74 1548.85 L1050.74 1540.7 L1035.14 1540.7 L1035.14 1536.19 L1049.51 1514.29 Z" fill="#000000" fill-rule="nonzero" fill-opacity="1"></path><path clip-path="url(#clip730)" d="M1445.24 1517.37 Q1441.62 1517.37 1439.8 1520.93 Q1437.99 1524.47 1437.99 1531.6 Q1437.99 1538.71 1439.8 1542.27 Q1441.62 1545.82 1445.24 1545.82 Q1448.87 1545.82 1450.67 1542.27 Q1452.5 1538.71 1452.5 1531.6 Q1452.5 1524.47 1450.67 1520.93 Q1448.87 1517.37 1445.24 1517.37 M1445.24 1513.66 Q1451.05 1513.66 1454.1 1518.27 Q1457.18 1522.85 1457.18 1531.6 Q1457.18 1540.33 1454.1 1544.94 Q1451.05 1549.52 1445.24 1549.52 Q1439.42 1549.52 1436.35 1544.94 Q1433.29 1540.33 1433.29 1531.6 Q1433.29 1522.85 1436.35 1518.27 Q1439.42 1513.66 1445.24 1513.66 Z" fill="#000000" fill-rule="nonzero" fill-opacity="1"></path><path clip-path="url(#clip730)" d="M1465.4 1542.97 L1470.28 1542.97 L1470.28 1548.85 L1465.4 1548.85 L1465.4 1542.97 Z" fill="#000000" fill-rule="nonzero" fill-opacity="1"></path><path clip-path="url(#clip730)" d="M1491.05 1529.7 Q1487.9 1529.7 1486.05 1531.86 Q1484.22 1534.01 1484.22 1537.76 Q1484.22 1541.49 1486.05 1543.66 Q1487.9 1545.82 1491.05 1545.82 Q1494.19 1545.82 1496.02 1543.66 Q1497.87 1541.49 1497.87 1537.76 Q1497.87 1534.01 1496.02 1531.86 Q1494.19 1529.7 1491.05 1529.7 M1500.33 1515.05 L1500.33 1519.31 Q1498.57 1518.48 1496.76 1518.04 Q1494.98 1517.6 1493.22 1517.6 Q1488.59 1517.6 1486.14 1520.72 Q1483.71 1523.85 1483.36 1530.17 Q1484.73 1528.15 1486.79 1527.09 Q1488.85 1526 1491.32 1526 Q1496.53 1526 1499.54 1529.17 Q1502.57 1532.32 1502.57 1537.76 Q1502.57 1543.08 1499.42 1546.3 Q1496.28 1549.52 1491.05 1549.52 Q1485.05 1549.52 1481.88 1544.94 Q1478.71 1540.33 1478.71 1531.6 Q1478.71 1523.41 1482.6 1518.55 Q1486.48 1513.66 1493.04 1513.66 Q1494.8 1513.66 1496.58 1514.01 Q1498.38 1514.36 1500.33 1515.05 Z" fill="#000000" fill-rule="nonzero" fill-opacity="1"></path><path clip-path="url(#clip730)" d="M1887.77 1517.37 Q1884.16 1517.37 1882.33 1520.93 Q1880.53 1524.47 1880.53 1531.6 Q1880.53 1538.71 1882.33 1542.27 Q1884.16 1545.82 1887.77 1545.82 Q1891.41 1545.82 1893.21 1542.27 Q1895.04 1538.71 1895.04 1531.6 Q1895.04 1524.47 1893.21 1520.93 Q1891.41 1517.37 1887.77 1517.37 M1887.77 1513.66 Q1893.58 1513.66 1896.64 1518.27 Q1899.72 1522.85 1899.72 1531.6 Q1899.72 1540.33 1896.64 1544.94 Q1893.58 1549.52 1887.77 1549.52 Q1881.96 1549.52 1878.89 1544.94 Q1875.83 1540.33 1875.83 1531.6 Q1875.83 1522.85 1878.89 1518.27 Q1881.96 1513.66 1887.77 1513.66 Z" fill="#000000" fill-rule="nonzero" fill-opacity="1"></path><path clip-path="url(#clip730)" d="M1907.94 1542.97 L1912.82 1542.97 L1912.82 1548.85 L1907.94 1548.85 L1907.94 1542.97 Z" fill="#000000" fill-rule="nonzero" fill-opacity="1"></path><path clip-path="url(#clip730)" d="M1933.01 1532.44 Q1929.67 1532.44 1927.75 1534.22 Q1925.85 1536 1925.85 1539.13 Q1925.85 1542.25 1927.75 1544.03 Q1929.67 1545.82 1933.01 1545.82 Q1936.34 1545.82 1938.26 1544.03 Q1940.18 1542.23 1940.18 1539.13 Q1940.18 1536 1938.26 1534.22 Q1936.36 1532.44 1933.01 1532.44 M1928.33 1530.45 Q1925.32 1529.7 1923.63 1527.64 Q1921.96 1525.58 1921.96 1522.62 Q1921.96 1518.48 1924.9 1516.07 Q1927.87 1513.66 1933.01 1513.66 Q1938.17 1513.66 1941.11 1516.07 Q1944.05 1518.48 1944.05 1522.62 Q1944.05 1525.58 1942.36 1527.64 Q1940.69 1529.7 1937.7 1530.45 Q1941.08 1531.23 1942.96 1533.52 Q1944.86 1535.82 1944.86 1539.13 Q1944.86 1544.15 1941.78 1546.83 Q1938.72 1549.52 1933.01 1549.52 Q1927.29 1549.52 1924.21 1546.83 Q1921.15 1544.15 1921.15 1539.13 Q1921.15 1535.82 1923.05 1533.52 Q1924.95 1531.23 1928.33 1530.45 M1926.62 1523.06 Q1926.62 1525.75 1928.28 1527.25 Q1929.97 1528.76 1933.01 1528.76 Q1936.01 1528.76 1937.7 1527.25 Q1939.42 1525.75 1939.42 1523.06 Q1939.42 1520.38 1937.7 1518.87 Q1936.01 1517.37 1933.01 1517.37 Q1929.97 1517.37 1928.28 1518.87 Q1926.62 1520.38 1926.62 1523.06 Z" fill="#000000" fill-rule="nonzero" fill-opacity="1"></path><path clip-path="url(#clip730)" d="M2319.91 1544.91 L2327.55 1544.91 L2327.55 1518.55 L2319.24 1520.21 L2319.24 1515.95 L2327.5 1514.29 L2332.18 1514.29 L2332.18 1544.91 L2339.82 1544.91 L2339.82 1548.85 L2319.91 1548.85 L2319.91 1544.91 Z" fill="#000000" fill-rule="nonzero" fill-opacity="1"></path><path clip-path="url(#clip730)" d="M2349.26 1542.97 L2354.14 1542.97 L2354.14 1548.85 L2349.26 1548.85 L2349.26 1542.97 Z" fill="#000000" fill-rule="nonzero" fill-opacity="1"></path><path clip-path="url(#clip730)" d="M2374.33 1517.37 Q2370.72 1517.37 2368.89 1520.93 Q2367.08 1524.47 2367.08 1531.6 Q2367.08 1538.71 2368.89 1542.27 Q2370.72 1545.82 2374.33 1545.82 Q2377.96 1545.82 2379.77 1542.27 Q2381.6 1538.71 2381.6 1531.6 Q2381.6 1524.47 2379.77 1520.93 Q2377.96 1517.37 2374.33 1517.37 M2374.33 1513.66 Q2380.14 1513.66 2383.2 1518.27 Q2386.27 1522.85 2386.27 1531.6 Q2386.27 1540.33 2383.2 1544.94 Q2380.14 1549.52 2374.33 1549.52 Q2368.52 1549.52 2365.44 1544.94 Q2362.39 1540.33 2362.39 1531.6 Q2362.39 1522.85 2365.44 1518.27 Q2368.52 1513.66 2374.33 1513.66 Z" fill="#000000" fill-rule="nonzero" fill-opacity="1"></path><polyline clip-path="url(#clip732)" style="stroke:#000000; stroke-linecap:round; stroke-linejoin:round; stroke-width:2; stroke-opacity:0.1; fill:none" points="140.696,1486.45 2352.76,1486.45 "></polyline>
<polyline clip-path="url(#clip732)" style="stroke:#000000; stroke-linecap:round; stroke-linejoin:round; stroke-width:2; stroke-opacity:0.1; fill:none" points="140.696,1144.64 2352.76,1144.64 "></polyline>
<polyline clip-path="url(#clip732)" style="stroke:#000000; stroke-linecap:round; stroke-linejoin:round; stroke-width:2; stroke-opacity:0.1; fill:none" points="140.696,802.826 2352.76,802.826 "></polyline>
<polyline clip-path="url(#clip732)" style="stroke:#000000; stroke-linecap:round; stroke-linejoin:round; stroke-width:2; stroke-opacity:0.1; fill:none" points="140.696,461.015 2352.76,461.015 "></polyline>
<polyline clip-path="url(#clip732)" style="stroke:#000000; stroke-linecap:round; stroke-linejoin:round; stroke-width:2; stroke-opacity:0.1; fill:none" points="140.696,119.204 2352.76,119.204 "></polyline>
<polyline clip-path="url(#clip730)" style="stroke:#000000; stroke-linecap:round; stroke-linejoin:round; stroke-width:4; stroke-opacity:1; fill:none" points="140.696,1486.45 140.696,47.2441 "></polyline>
<polyline clip-path="url(#clip730)" style="stroke:#000000; stroke-linecap:round; stroke-linejoin:round; stroke-width:4; stroke-opacity:1; fill:none" points="140.696,1486.45 159.593,1486.45 "></polyline>
<polyline clip-path="url(#clip730)" style="stroke:#000000; stroke-linecap:round; stroke-linejoin:round; stroke-width:4; stroke-opacity:1; fill:none" points="140.696,1144.64 159.593,1144.64 "></polyline>
<polyline clip-path="url(#clip730)" style="stroke:#000000; stroke-linecap:round; stroke-linejoin:round; stroke-width:4; stroke-opacity:1; fill:none" points="140.696,802.826 159.593,802.826 "></polyline>
<polyline clip-path="url(#clip730)" style="stroke:#000000; stroke-linecap:round; stroke-linejoin:round; stroke-width:4; stroke-opacity:1; fill:none" points="140.696,461.015 159.593,461.015 "></polyline>
<polyline clip-path="url(#clip730)" style="stroke:#000000; stroke-linecap:round; stroke-linejoin:round; stroke-width:4; stroke-opacity:1; fill:none" points="140.696,119.204 159.593,119.204 "></polyline>
<path clip-path="url(#clip730)" d="M92.7512 1472.25 Q89.1401 1472.25 87.3114 1475.81 Q85.5058 1479.35 85.5058 1486.48 Q85.5058 1493.59 87.3114 1497.15 Q89.1401 1500.7 92.7512 1500.7 Q96.3854 1500.7 98.1909 1497.15 Q100.02 1493.59 100.02 1486.48 Q100.02 1479.35 98.1909 1475.81 Q96.3854 1472.25 92.7512 1472.25 M92.7512 1468.54 Q98.5613 1468.54 101.617 1473.15 Q104.696 1477.73 104.696 1486.48 Q104.696 1495.21 101.617 1499.82 Q98.5613 1504.4 92.7512 1504.4 Q86.941 1504.4 83.8623 1499.82 Q80.8068 1495.21 80.8068 1486.48 Q80.8068 1477.73 83.8623 1473.15 Q86.941 1468.54 92.7512 1468.54 Z" fill="#000000" fill-rule="nonzero" fill-opacity="1"></path><path clip-path="url(#clip730)" d="M83.7929 1127.36 L102.149 1127.36 L102.149 1131.29 L88.0753 1131.29 L88.0753 1139.76 Q89.0938 1139.42 90.1123 1139.26 Q91.1308 1139.07 92.1493 1139.07 Q97.9363 1139.07 101.316 1142.24 Q104.696 1145.41 104.696 1150.83 Q104.696 1156.41 101.223 1159.51 Q97.7511 1162.59 91.4317 1162.59 Q89.2558 1162.59 86.9873 1162.22 Q84.7419 1161.85 82.3346 1161.11 L82.3346 1156.41 Q84.4179 1157.54 86.6401 1158.1 Q88.8623 1158.65 91.3391 1158.65 Q95.3437 1158.65 97.6817 1156.55 Q100.02 1154.44 100.02 1150.83 Q100.02 1147.22 97.6817 1145.11 Q95.3437 1143.01 91.3391 1143.01 Q89.4641 1143.01 87.5892 1143.42 Q85.7373 1143.84 83.7929 1144.72 L83.7929 1127.36 Z" fill="#000000" fill-rule="nonzero" fill-opacity="1"></path><path clip-path="url(#clip730)" d="M53.3995 816.171 L61.0384 816.171 L61.0384 789.805 L52.7282 791.472 L52.7282 787.213 L60.9921 785.546 L65.668 785.546 L65.668 816.171 L73.3068 816.171 L73.3068 820.106 L53.3995 820.106 L53.3995 816.171 Z" fill="#000000" fill-rule="nonzero" fill-opacity="1"></path><path clip-path="url(#clip730)" d="M92.7512 788.625 Q89.1401 788.625 87.3114 792.19 Q85.5058 795.731 85.5058 802.861 Q85.5058 809.967 87.3114 813.532 Q89.1401 817.074 92.7512 817.074 Q96.3854 817.074 98.1909 813.532 Q100.02 809.967 100.02 802.861 Q100.02 795.731 98.1909 792.19 Q96.3854 788.625 92.7512 788.625 M92.7512 784.921 Q98.5613 784.921 101.617 789.528 Q104.696 794.111 104.696 802.861 Q104.696 811.588 101.617 816.194 Q98.5613 820.777 92.7512 820.777 Q86.941 820.777 83.8623 816.194 Q80.8068 811.588 80.8068 802.861 Q80.8068 794.111 83.8623 789.528 Q86.941 784.921 92.7512 784.921 Z" fill="#000000" fill-rule="nonzero" fill-opacity="1"></path><path clip-path="url(#clip730)" d="M54.3949 474.36 L62.0337 474.36 L62.0337 447.994 L53.7236 449.661 L53.7236 445.402 L61.9874 443.735 L66.6633 443.735 L66.6633 474.36 L74.3022 474.36 L74.3022 478.295 L54.3949 478.295 L54.3949 474.36 Z" fill="#000000" fill-rule="nonzero" fill-opacity="1"></path><path clip-path="url(#clip730)" d="M83.7929 443.735 L102.149 443.735 L102.149 447.67 L88.0753 447.67 L88.0753 456.143 Q89.0938 455.795 90.1123 455.633 Q91.1308 455.448 92.1493 455.448 Q97.9363 455.448 101.316 458.619 Q104.696 461.791 104.696 467.207 Q104.696 472.786 101.223 475.888 Q97.7511 478.966 91.4317 478.966 Q89.2558 478.966 86.9873 478.596 Q84.7419 478.226 82.3346 477.485 L82.3346 472.786 Q84.4179 473.92 86.6401 474.476 Q88.8623 475.031 91.3391 475.031 Q95.3437 475.031 97.6817 472.925 Q100.02 470.818 100.02 467.207 Q100.02 463.596 97.6817 461.49 Q95.3437 459.383 91.3391 459.383 Q89.4641 459.383 87.5892 459.8 Q85.7373 460.217 83.7929 461.096 L83.7929 443.735 Z" fill="#000000" fill-rule="nonzero" fill-opacity="1"></path><path clip-path="url(#clip730)" d="M56.6171 132.549 L72.9365 132.549 L72.9365 136.484 L50.9921 136.484 L50.9921 132.549 Q53.6541 129.795 58.2375 125.165 Q62.8439 120.512 64.0245 119.17 Q66.2698 116.646 67.1494 114.91 Q68.0522 113.151 68.0522 111.461 Q68.0522 108.707 66.1078 106.971 Q64.1865 105.234 61.0847 105.234 Q58.8856 105.234 56.4319 105.998 Q54.0014 106.762 51.2236 108.313 L51.2236 103.591 Q54.0477 102.457 56.5014 101.878 Q58.955 101.299 60.9921 101.299 Q66.3624 101.299 69.5568 103.984 Q72.7513 106.67 72.7513 111.16 Q72.7513 113.29 71.9411 115.211 Q71.1541 117.109 69.0476 119.702 Q68.4689 120.373 65.367 123.591 Q62.2652 126.785 56.6171 132.549 Z" fill="#000000" fill-rule="nonzero" fill-opacity="1"></path><path clip-path="url(#clip730)" d="M92.7512 105.003 Q89.1401 105.003 87.3114 108.568 Q85.5058 112.109 85.5058 119.239 Q85.5058 126.345 87.3114 129.91 Q89.1401 133.452 92.7512 133.452 Q96.3854 133.452 98.1909 129.91 Q100.02 126.345 100.02 119.239 Q100.02 112.109 98.1909 108.568 Q96.3854 105.003 92.7512 105.003 M92.7512 101.299 Q98.5613 101.299 101.617 105.906 Q104.696 110.489 104.696 119.239 Q104.696 127.966 101.617 132.572 Q98.5613 137.156 92.7512 137.156 Q86.941 137.156 83.8623 132.572 Q80.8068 127.966 80.8068 119.239 Q80.8068 110.489 83.8623 105.906 Q86.941 101.299 92.7512 101.299 Z" fill="#000000" fill-rule="nonzero" fill-opacity="1"></path><path clip-path="url(#clip732)" d="M184.937 1186.61 L184.937 1486.45 L229.178 1486.45 L229.178 1186.61 L184.937 1186.61 L184.937 1186.61  Z" fill="#009af9" fill-rule="evenodd" fill-opacity="1"></path>
<polyline clip-path="url(#clip732)" style="stroke:#000000; stroke-linecap:round; stroke-linejoin:round; stroke-width:4; stroke-opacity:1; fill:none" points="184.937,1186.61 184.937,1486.45 229.178,1486.45 229.178,1186.61 184.937,1186.61 "></polyline>
<path clip-path="url(#clip732)" d="M229.178 1366.51 L229.178 1486.45 L273.419 1486.45 L273.419 1366.51 L229.178 1366.51 L229.178 1366.51  Z" fill="#009af9" fill-rule="evenodd" fill-opacity="1"></path>
<polyline clip-path="url(#clip732)" style="stroke:#000000; stroke-linecap:round; stroke-linejoin:round; stroke-width:4; stroke-opacity:1; fill:none" points="229.178,1366.51 229.178,1486.45 273.419,1486.45 273.419,1366.51 229.178,1366.51 "></polyline>
<path clip-path="url(#clip732)" d="M273.419 1066.68 L273.419 1486.45 L317.66 1486.45 L317.66 1066.68 L273.419 1066.68 L273.419 1066.68  Z" fill="#009af9" fill-rule="evenodd" fill-opacity="1"></path>
<polyline clip-path="url(#clip732)" style="stroke:#000000; stroke-linecap:round; stroke-linejoin:round; stroke-width:4; stroke-opacity:1; fill:none" points="273.419,1066.68 273.419,1486.45 317.66,1486.45 317.66,1066.68 273.419,1066.68 "></polyline>
<path clip-path="url(#clip732)" d="M317.66 47.2441 L317.66 1486.45 L361.902 1486.45 L361.902 47.2441 L317.66 47.2441 L317.66 47.2441  Z" fill="#009af9" fill-rule="evenodd" fill-opacity="1"></path>
<polyline clip-path="url(#clip732)" style="stroke:#000000; stroke-linecap:round; stroke-linejoin:round; stroke-width:4; stroke-opacity:1; fill:none" points="317.66,47.2441 317.66,1486.45 361.902,1486.45 361.902,47.2441 317.66,47.2441 "></polyline>
<path clip-path="url(#clip732)" d="M361.902 886.78 L361.902 1486.45 L406.143 1486.45 L406.143 886.78 L361.902 886.78 L361.902 886.78  Z" fill="#009af9" fill-rule="evenodd" fill-opacity="1"></path>
<polyline clip-path="url(#clip732)" style="stroke:#000000; stroke-linecap:round; stroke-linejoin:round; stroke-width:4; stroke-opacity:1; fill:none" points="361.902,886.78 361.902,1486.45 406.143,1486.45 406.143,886.78 361.902,886.78 "></polyline>
<path clip-path="url(#clip732)" d="M406.143 1486.45 L406.143 1486.45 L450.384 1486.45 L450.384 1486.45 L406.143 1486.45 L406.143 1486.45  Z" fill="#009af9" fill-rule="evenodd" fill-opacity="1"></path>
<polyline clip-path="url(#clip732)" style="stroke:#000000; stroke-linecap:round; stroke-linejoin:round; stroke-width:4; stroke-opacity:1; fill:none" points="406.143,1486.45 406.143,1486.45 450.384,1486.45 406.143,1486.45 "></polyline>
<path clip-path="url(#clip732)" d="M450.384 1486.45 L450.384 1486.45 L494.625 1486.45 L494.625 1486.45 L450.384 1486.45 L450.384 1486.45  Z" fill="#009af9" fill-rule="evenodd" fill-opacity="1"></path>
<polyline clip-path="url(#clip732)" style="stroke:#000000; stroke-linecap:round; stroke-linejoin:round; stroke-width:4; stroke-opacity:1; fill:none" points="450.384,1486.45 450.384,1486.45 494.625,1486.45 450.384,1486.45 "></polyline>
<path clip-path="url(#clip732)" d="M494.625 1486.45 L494.625 1486.45 L538.866 1486.45 L538.866 1486.45 L494.625 1486.45 L494.625 1486.45  Z" fill="#009af9" fill-rule="evenodd" fill-opacity="1"></path>
<polyline clip-path="url(#clip732)" style="stroke:#000000; stroke-linecap:round; stroke-linejoin:round; stroke-width:4; stroke-opacity:1; fill:none" points="494.625,1486.45 494.625,1486.45 538.866,1486.45 494.625,1486.45 "></polyline>
<path clip-path="url(#clip732)" d="M538.866 946.746 L538.866 1486.45 L583.108 1486.45 L583.108 946.746 L538.866 946.746 L538.866 946.746  Z" fill="#009af9" fill-rule="evenodd" fill-opacity="1"></path>
<polyline clip-path="url(#clip732)" style="stroke:#000000; stroke-linecap:round; stroke-linejoin:round; stroke-width:4; stroke-opacity:1; fill:none" points="538.866,946.746 538.866,1486.45 583.108,1486.45 583.108,946.746 538.866,946.746 "></polyline>
<circle clip-path="url(#clip732)" style="fill:#009af9; stroke:none; fill-opacity:0" cx="207.057" cy="1186.61" r="2"></circle>
<circle clip-path="url(#clip732)" style="fill:#009af9; stroke:none; fill-opacity:0" cx="251.299" cy="1366.51" r="2"></circle>
<circle clip-path="url(#clip732)" style="fill:#009af9; stroke:none; fill-opacity:0" cx="295.54" cy="1066.68" r="2"></circle>
<circle clip-path="url(#clip732)" style="fill:#009af9; stroke:none; fill-opacity:0" cx="339.781" cy="47.2441" r="2"></circle>
<circle clip-path="url(#clip732)" style="fill:#009af9; stroke:none; fill-opacity:0" cx="384.022" cy="886.78" r="2"></circle>
<circle clip-path="url(#clip732)" style="fill:#009af9; stroke:none; fill-opacity:0" cx="428.263" cy="1486.45" r="2"></circle>
<circle clip-path="url(#clip732)" style="fill:#009af9; stroke:none; fill-opacity:0" cx="472.505" cy="1486.45" r="2"></circle>
<circle clip-path="url(#clip732)" style="fill:#009af9; stroke:none; fill-opacity:0" cx="516.746" cy="1486.45" r="2"></circle>
<circle clip-path="url(#clip732)" style="fill:#009af9; stroke:none; fill-opacity:0" cx="560.987" cy="946.746" r="2"></circle>
<path clip-path="url(#clip730)" d="M1653.21 198.898 L2279.02 198.898 L2279.02 95.2176 L1653.21 95.2176  Z" fill="#ffffff" fill-rule="evenodd" fill-opacity="1"></path>
<polyline clip-path="url(#clip730)" style="stroke:#000000; stroke-linecap:round; stroke-linejoin:round; stroke-width:4; stroke-opacity:1; fill:none" points="1653.21,198.898 2279.02,198.898 2279.02,95.2176 1653.21,95.2176 1653.21,198.898 "></polyline>
<path clip-path="url(#clip730)" d="M1677.79 167.794 L1825.26 167.794 L1825.26 126.322 L1677.79 126.322 L1677.79 167.794  Z" fill="#009af9" fill-rule="evenodd" fill-opacity="1"></path>
<polyline clip-path="url(#clip730)" style="stroke:#000000; stroke-linecap:round; stroke-linejoin:round; stroke-width:4; stroke-opacity:1; fill:none" points="1677.79,167.794 1825.26,167.794 1825.26,126.322 1677.79,126.322 1677.79,167.794 "></polyline>
<path clip-path="url(#clip730)" d="M1854.12 160.449 L1854.12 174.199 L1849.84 174.199 L1849.84 138.412 L1854.12 138.412 L1854.12 142.347 Q1855.46 140.032 1857.5 138.921 Q1859.56 137.787 1862.41 137.787 Q1867.13 137.787 1870.07 141.537 Q1873.03 145.287 1873.03 151.398 Q1873.03 157.509 1870.07 161.259 Q1867.13 165.009 1862.41 165.009 Q1859.56 165.009 1857.5 163.898 Q1855.46 162.763 1854.12 160.449 M1868.61 151.398 Q1868.61 146.699 1866.67 144.037 Q1864.75 141.352 1861.37 141.352 Q1857.99 141.352 1856.04 144.037 Q1854.12 146.699 1854.12 151.398 Q1854.12 156.097 1856.04 158.782 Q1857.99 161.444 1861.37 161.444 Q1864.75 161.444 1866.67 158.782 Q1868.61 156.097 1868.61 151.398 Z" fill="#000000" fill-rule="nonzero" fill-opacity="1"></path><path clip-path="url(#clip730)" d="M1890.14 141.398 Q1886.71 141.398 1884.72 144.083 Q1882.73 146.745 1882.73 151.398 Q1882.73 156.051 1884.7 158.736 Q1886.69 161.398 1890.14 161.398 Q1893.54 161.398 1895.53 158.713 Q1897.52 156.027 1897.52 151.398 Q1897.52 146.791 1895.53 144.106 Q1893.54 141.398 1890.14 141.398 M1890.14 137.787 Q1895.69 137.787 1898.87 141.398 Q1902.04 145.009 1902.04 151.398 Q1902.04 157.764 1898.87 161.398 Q1895.69 165.009 1890.14 165.009 Q1884.56 165.009 1881.39 161.398 Q1878.24 157.764 1878.24 151.398 Q1878.24 145.009 1881.39 141.398 Q1884.56 137.787 1890.14 137.787 Z" fill="#000000" fill-rule="nonzero" fill-opacity="1"></path><path clip-path="url(#clip730)" d="M1925.62 139.176 L1925.62 143.203 Q1923.82 142.277 1921.87 141.815 Q1919.93 141.352 1917.85 141.352 Q1914.68 141.352 1913.08 142.324 Q1911.5 143.296 1911.5 145.24 Q1911.5 146.722 1912.64 147.578 Q1913.77 148.412 1917.2 149.176 L1918.66 149.5 Q1923.19 150.472 1925.09 152.254 Q1927.01 154.014 1927.01 157.185 Q1927.01 160.796 1924.14 162.902 Q1921.3 165.009 1916.3 165.009 Q1914.21 165.009 1911.94 164.592 Q1909.7 164.199 1907.2 163.388 L1907.2 158.99 Q1909.56 160.217 1911.85 160.842 Q1914.14 161.444 1916.39 161.444 Q1919.4 161.444 1921.02 160.426 Q1922.64 159.384 1922.64 157.509 Q1922.64 155.773 1921.46 154.847 Q1920.3 153.921 1916.34 153.064 L1914.86 152.717 Q1910.9 151.884 1909.14 150.171 Q1907.38 148.435 1907.38 145.426 Q1907.38 141.768 1909.98 139.778 Q1912.57 137.787 1917.34 137.787 Q1919.7 137.787 1921.78 138.134 Q1923.87 138.481 1925.62 139.176 Z" fill="#000000" fill-rule="nonzero" fill-opacity="1"></path><path clip-path="url(#clip730)" d="M1938.01 131.051 L1938.01 138.412 L1946.78 138.412 L1946.78 141.722 L1938.01 141.722 L1938.01 155.796 Q1938.01 158.967 1938.87 159.87 Q1939.74 160.773 1942.41 160.773 L1946.78 160.773 L1946.78 164.338 L1942.41 164.338 Q1937.48 164.338 1935.6 162.509 Q1933.73 160.657 1933.73 155.796 L1933.73 141.722 L1930.6 141.722 L1930.6 138.412 L1933.73 138.412 L1933.73 131.051 L1938.01 131.051 Z" fill="#000000" fill-rule="nonzero" fill-opacity="1"></path><path clip-path="url(#clip730)" d="M1974.56 150.31 L1974.56 152.393 L1954.98 152.393 Q1955.25 156.791 1957.61 159.106 Q1960 161.398 1964.24 161.398 Q1966.69 161.398 1968.98 160.796 Q1971.3 160.194 1973.56 158.99 L1973.56 163.018 Q1971.27 163.99 1968.86 164.5 Q1966.46 165.009 1963.98 165.009 Q1957.78 165.009 1954.14 161.398 Q1950.53 157.787 1950.53 151.629 Q1950.53 145.264 1953.96 141.537 Q1957.41 137.787 1963.24 137.787 Q1968.47 137.787 1971.5 141.166 Q1974.56 144.523 1974.56 150.31 M1970.3 149.06 Q1970.25 145.565 1968.33 143.481 Q1966.43 141.398 1963.29 141.398 Q1959.72 141.398 1957.57 143.412 Q1955.44 145.426 1955.12 149.083 L1970.3 149.06 Z" fill="#000000" fill-rule="nonzero" fill-opacity="1"></path><path clip-path="url(#clip730)" d="M1996.57 142.393 Q1995.86 141.977 1995 141.791 Q1994.17 141.583 1993.15 141.583 Q1989.54 141.583 1987.59 143.944 Q1985.67 146.282 1985.67 150.68 L1985.67 164.338 L1981.39 164.338 L1981.39 138.412 L1985.67 138.412 L1985.67 142.44 Q1987.01 140.078 1989.17 138.944 Q1991.32 137.787 1994.4 137.787 Q1994.84 137.787 1995.37 137.856 Q1995.9 137.903 1996.55 138.018 L1996.57 142.393 Z" fill="#000000" fill-rule="nonzero" fill-opacity="1"></path><path clip-path="url(#clip730)" d="M2001.04 138.412 L2005.3 138.412 L2005.3 164.338 L2001.04 164.338 L2001.04 138.412 M2001.04 128.319 L2005.3 128.319 L2005.3 133.713 L2001.04 133.713 L2001.04 128.319 Z" fill="#000000" fill-rule="nonzero" fill-opacity="1"></path><path clip-path="url(#clip730)" d="M2024.26 141.398 Q2020.83 141.398 2018.84 144.083 Q2016.85 146.745 2016.85 151.398 Q2016.85 156.051 2018.82 158.736 Q2020.81 161.398 2024.26 161.398 Q2027.66 161.398 2029.65 158.713 Q2031.64 156.027 2031.64 151.398 Q2031.64 146.791 2029.65 144.106 Q2027.66 141.398 2024.26 141.398 M2024.26 137.787 Q2029.81 137.787 2032.98 141.398 Q2036.16 145.009 2036.16 151.398 Q2036.16 157.764 2032.98 161.398 Q2029.81 165.009 2024.26 165.009 Q2018.68 165.009 2015.51 161.398 Q2012.36 157.764 2012.36 151.398 Q2012.36 145.009 2015.51 141.398 Q2018.68 137.787 2024.26 137.787 Z" fill="#000000" fill-rule="nonzero" fill-opacity="1"></path><path clip-path="url(#clip730)" d="M2058.24 142.393 Q2057.52 141.977 2056.67 141.791 Q2055.83 141.583 2054.81 141.583 Q2051.2 141.583 2049.26 143.944 Q2047.34 146.282 2047.34 150.68 L2047.34 164.338 L2043.05 164.338 L2043.05 138.412 L2047.34 138.412 L2047.34 142.44 Q2048.68 140.078 2050.83 138.944 Q2052.98 137.787 2056.06 137.787 Q2056.5 137.787 2057.04 137.856 Q2057.57 137.903 2058.22 138.018 L2058.24 142.393 Z" fill="#000000" fill-rule="nonzero" fill-opacity="1"></path><path clip-path="url(#clip730)" d="M2099.33 148.689 L2099.33 164.338 L2095.07 164.338 L2095.07 148.828 Q2095.07 145.148 2093.63 143.319 Q2092.2 141.49 2089.33 141.49 Q2085.88 141.49 2083.89 143.69 Q2081.9 145.889 2081.9 149.685 L2081.9 164.338 L2077.61 164.338 L2077.61 128.319 L2081.9 128.319 L2081.9 142.44 Q2083.42 140.102 2085.48 138.944 Q2087.57 137.787 2090.28 137.787 Q2094.74 137.787 2097.04 140.565 Q2099.33 143.319 2099.33 148.689 Z" fill="#000000" fill-rule="nonzero" fill-opacity="1"></path><path clip-path="url(#clip730)" d="M2117.87 141.398 Q2114.44 141.398 2112.45 144.083 Q2110.46 146.745 2110.46 151.398 Q2110.46 156.051 2112.43 158.736 Q2114.42 161.398 2117.87 161.398 Q2121.27 161.398 2123.26 158.713 Q2125.25 156.027 2125.25 151.398 Q2125.25 146.791 2123.26 144.106 Q2121.27 141.398 2117.87 141.398 M2117.87 137.787 Q2123.42 137.787 2126.6 141.398 Q2129.77 145.009 2129.77 151.398 Q2129.77 157.764 2126.6 161.398 Q2123.42 165.009 2117.87 165.009 Q2112.29 165.009 2109.12 161.398 Q2105.97 157.764 2105.97 151.398 Q2105.97 145.009 2109.12 141.398 Q2112.29 137.787 2117.87 137.787 Z" fill="#000000" fill-rule="nonzero" fill-opacity="1"></path><path clip-path="url(#clip730)" d="M2157.01 143.389 Q2158.61 140.518 2160.83 139.153 Q2163.05 137.787 2166.06 137.787 Q2170.11 137.787 2172.31 140.634 Q2174.51 143.458 2174.51 148.689 L2174.51 164.338 L2170.23 164.338 L2170.23 148.828 Q2170.23 145.102 2168.91 143.296 Q2167.59 141.49 2164.88 141.49 Q2161.57 141.49 2159.65 143.69 Q2157.73 145.889 2157.73 149.685 L2157.73 164.338 L2153.45 164.338 L2153.45 148.828 Q2153.45 145.078 2152.13 143.296 Q2150.81 141.49 2148.05 141.49 Q2144.79 141.49 2142.87 143.713 Q2140.95 145.912 2140.95 149.685 L2140.95 164.338 L2136.66 164.338 L2136.66 138.412 L2140.95 138.412 L2140.95 142.44 Q2142.41 140.055 2144.44 138.921 Q2146.48 137.787 2149.28 137.787 Q2152.1 137.787 2154.07 139.222 Q2156.06 140.657 2157.01 143.389 Z" fill="#000000" fill-rule="nonzero" fill-opacity="1"></path><path clip-path="url(#clip730)" d="M2202.71 172.208 L2202.71 175.518 L2178.08 175.518 L2178.08 172.208 L2202.71 172.208 Z" fill="#000000" fill-rule="nonzero" fill-opacity="1"></path><path clip-path="url(#clip730)" d="M2223.24 139.176 L2223.24 143.203 Q2221.43 142.277 2219.49 141.815 Q2217.54 141.352 2215.46 141.352 Q2212.29 141.352 2210.69 142.324 Q2209.12 143.296 2209.12 145.24 Q2209.12 146.722 2210.25 147.578 Q2211.39 148.412 2214.81 149.176 L2216.27 149.5 Q2220.81 150.472 2222.71 152.254 Q2224.63 154.014 2224.63 157.185 Q2224.63 160.796 2221.76 162.902 Q2218.91 165.009 2213.91 165.009 Q2211.83 165.009 2209.56 164.592 Q2207.31 164.199 2204.81 163.388 L2204.81 158.99 Q2207.17 160.217 2209.47 160.842 Q2211.76 161.444 2214 161.444 Q2217.01 161.444 2218.63 160.426 Q2220.25 159.384 2220.25 157.509 Q2220.25 155.773 2219.07 154.847 Q2217.91 153.921 2213.96 153.064 L2212.47 152.717 Q2208.52 151.884 2206.76 150.171 Q2205 148.435 2205 145.426 Q2205 141.768 2207.59 139.778 Q2210.18 137.787 2214.95 137.787 Q2217.31 137.787 2219.4 138.134 Q2221.48 138.481 2223.24 139.176 Z" fill="#000000" fill-rule="nonzero" fill-opacity="1"></path><path clip-path="url(#clip730)" d="M2235.53 160.449 L2235.53 174.199 L2231.25 174.199 L2231.25 138.412 L2235.53 138.412 L2235.53 142.347 Q2236.87 140.032 2238.91 138.921 Q2240.97 137.787 2243.82 137.787 Q2248.54 137.787 2251.48 141.537 Q2254.44 145.287 2254.44 151.398 Q2254.44 157.509 2251.48 161.259 Q2248.54 165.009 2243.82 165.009 Q2240.97 165.009 2238.91 163.898 Q2236.87 162.763 2235.53 160.449 M2250.02 151.398 Q2250.02 146.699 2248.08 144.037 Q2246.16 141.352 2242.78 141.352 Q2239.4 141.352 2237.45 144.037 Q2235.53 146.699 2235.53 151.398 Q2235.53 156.097 2237.45 158.782 Q2239.4 161.444 2242.78 161.444 Q2246.16 161.444 2248.08 158.782 Q2250.02 156.097 2250.02 151.398 Z" fill="#000000" fill-rule="nonzero" fill-opacity="1"></path></svg>