<svg xmlns="http://www.w3.org/2000/svg" xmlns:xlink="http://www.w3.org/1999/xlink" width="600" height="400" viewBox="0 0 2400 1600">
<defs>
  <clipPath id="clip770">
    <rect x="0" y="0" width="2400" height="1600"></rect>
  </clipPath>
</defs>
<path clip-path="url(#clip770)" d="M0 1600 L2400 1600 L2400 0 L0 0  Z" fill="#ffffff" fill-rule="evenodd" fill-opacity="1"></path>
<defs>
  <clipPath id="clip771">
    <rect x="480" y="0" width="1681" height="1600"></rect>
  </clipPath>
</defs>
<path clip-path="url(#clip770)" d="M112.177 1486.45 L2352.76 1486.45 L2352.76 47.2441 L112.177 47.2441  Z" fill="#ffffff" fill-rule="evenodd" fill-opacity="1"></path>
<defs>
  <clipPath id="clip772">
    <rect x="112" y="47" width="2242" height="1440"></rect>
  </clipPath>
</defs>
<polyline clip-path="url(#clip772)" style="stroke:#000000; stroke-linecap:round; stroke-linejoin:round; stroke-width:2; stroke-opacity:0.1; fill:none" points="112.177,1486.45 112.177,47.2441 "></polyline>
<polyline clip-path="url(#clip772)" style="stroke:#000000; stroke-linecap:round; stroke-linejoin:round; stroke-width:2; stroke-opacity:0.1; fill:none" points="560.293,1486.45 560.293,47.2441 "></polyline>
<polyline clip-path="url(#clip772)" style="stroke:#000000; stroke-linecap:round; stroke-linejoin:round; stroke-width:2; stroke-opacity:0.1; fill:none" points="1008.41,1486.45 1008.41,47.2441 "></polyline>
<polyline clip-path="url(#clip772)" style="stroke:#000000; stroke-linecap:round; stroke-linejoin:round; stroke-width:2; stroke-opacity:0.1; fill:none" points="1456.52,1486.45 1456.52,47.2441 "></polyline>
<polyline clip-path="url(#clip772)" style="stroke:#000000; stroke-linecap:round; stroke-linejoin:round; stroke-width:2; stroke-opacity:0.1; fill:none" points="1904.64,1486.45 1904.64,47.2441 "></polyline>
<polyline clip-path="url(#clip772)" style="stroke:#000000; stroke-linecap:round; stroke-linejoin:round; stroke-width:2; stroke-opacity:0.1; fill:none" points="2352.76,1486.45 2352.76,47.2441 "></polyline>
<polyline clip-path="url(#clip770)" style="stroke:#000000; stroke-linecap:round; stroke-linejoin:round; stroke-width:4; stroke-opacity:1; fill:none" points="112.177,1486.45 2352.76,1486.45 "></polyline>
<polyline clip-path="url(#clip770)" style="stroke:#000000; stroke-linecap:round; stroke-linejoin:round; stroke-width:4; stroke-opacity:1; fill:none" points="112.177,1486.45 112.177,1467.55 "></polyline>
<polyline clip-path="url(#clip770)" style="stroke:#000000; stroke-linecap:round; stroke-linejoin:round; stroke-width:4; stroke-opacity:1; fill:none" points="560.293,1486.45 560.293,1467.55 "></polyline>
<polyline clip-path="url(#clip770)" style="stroke:#000000; stroke-linecap:round; stroke-linejoin:round; stroke-width:4; stroke-opacity:1; fill:none" points="1008.41,1486.45 1008.41,1467.55 "></polyline>
<polyline clip-path="url(#clip770)" style="stroke:#000000; stroke-linecap:round; stroke-linejoin:round; stroke-width:4; stroke-opacity:1; fill:none" points="1456.52,1486.45 1456.52,1467.55 "></polyline>
<polyline clip-path="url(#clip770)" style="stroke:#000000; stroke-linecap:round; stroke-linejoin:round; stroke-width:4; stroke-opacity:1; fill:none" points="1904.64,1486.45 1904.64,1467.55 "></polyline>
<polyline clip-path="url(#clip770)" style="stroke:#000000; stroke-linecap:round; stroke-linejoin:round; stroke-width:4; stroke-opacity:1; fill:none" points="2352.76,1486.45 2352.76,1467.55 "></polyline>
<path clip-path="url(#clip770)" d="M89.5616 1517.37 Q85.9505 1517.37 84.1218 1520.93 Q82.3162 1524.47 82.3162 1531.6 Q82.3162 1538.71 84.1218 1542.27 Q85.9505 1545.82 89.5616 1545.82 Q93.1958 1545.82 95.0013 1542.27 Q96.83 1538.71 96.83 1531.6 Q96.83 1524.47 95.0013 1520.93 Q93.1958 1517.37 89.5616 1517.37 M89.5616 1513.66 Q95.3717 1513.66 98.4272 1518.27 Q101.506 1522.85 101.506 1531.6 Q101.506 1540.33 98.4272 1544.94 Q95.3717 1549.52 89.5616 1549.52 Q83.7514 1549.52 80.6727 1544.94 Q77.6172 1540.33 77.6172 1531.6 Q77.6172 1522.85 80.6727 1518.27 Q83.7514 1513.66 89.5616 1513.66 Z" fill="#000000" fill-rule="nonzero" fill-opacity="1"></path><path clip-path="url(#clip770)" d="M109.723 1542.97 L114.608 1542.97 L114.608 1548.85 L109.723 1548.85 L109.723 1542.97 Z" fill="#000000" fill-rule="nonzero" fill-opacity="1"></path><path clip-path="url(#clip770)" d="M134.793 1517.37 Q131.182 1517.37 129.353 1520.93 Q127.547 1524.47 127.547 1531.6 Q127.547 1538.71 129.353 1542.27 Q131.182 1545.82 134.793 1545.82 Q138.427 1545.82 140.233 1542.27 Q142.061 1538.71 142.061 1531.6 Q142.061 1524.47 140.233 1520.93 Q138.427 1517.37 134.793 1517.37 M134.793 1513.66 Q140.603 1513.66 143.658 1518.27 Q146.737 1522.85 146.737 1531.6 Q146.737 1540.33 143.658 1544.94 Q140.603 1549.52 134.793 1549.52 Q128.983 1549.52 125.904 1544.94 Q122.848 1540.33 122.848 1531.6 Q122.848 1522.85 125.904 1518.27 Q128.983 1513.66 134.793 1513.66 Z" fill="#000000" fill-rule="nonzero" fill-opacity="1"></path><path clip-path="url(#clip770)" d="M538.476 1517.37 Q534.865 1517.37 533.036 1520.93 Q531.231 1524.47 531.231 1531.6 Q531.231 1538.71 533.036 1542.27 Q534.865 1545.82 538.476 1545.82 Q542.11 1545.82 543.916 1542.27 Q545.744 1538.71 545.744 1531.6 Q545.744 1524.47 543.916 1520.93 Q542.11 1517.37 538.476 1517.37 M538.476 1513.66 Q544.286 1513.66 547.342 1518.27 Q550.42 1522.85 550.42 1531.6 Q550.42 1540.33 547.342 1544.94 Q544.286 1549.52 538.476 1549.52 Q532.666 1549.52 529.587 1544.94 Q526.532 1540.33 526.532 1531.6 Q526.532 1522.85 529.587 1518.27 Q532.666 1513.66 538.476 1513.66 Z" fill="#000000" fill-rule="nonzero" fill-opacity="1"></path><path clip-path="url(#clip770)" d="M558.638 1542.97 L563.522 1542.97 L563.522 1548.85 L558.638 1548.85 L558.638 1542.97 Z" fill="#000000" fill-rule="nonzero" fill-opacity="1"></path><path clip-path="url(#clip770)" d="M577.735 1544.91 L594.054 1544.91 L594.054 1548.85 L572.11 1548.85 L572.11 1544.91 Q574.772 1542.16 579.355 1537.53 Q583.962 1532.88 585.142 1531.53 Q587.388 1529.01 588.267 1527.27 Q589.17 1525.51 589.17 1523.82 Q589.17 1521.07 587.226 1519.33 Q585.304 1517.6 582.203 1517.6 Q580.003 1517.6 577.55 1518.36 Q575.119 1519.13 572.341 1520.68 L572.341 1515.95 Q575.166 1514.82 577.619 1514.24 Q580.073 1513.66 582.11 1513.66 Q587.48 1513.66 590.675 1516.35 Q593.869 1519.03 593.869 1523.52 Q593.869 1525.65 593.059 1527.57 Q592.272 1529.47 590.165 1532.07 Q589.587 1532.74 586.485 1535.95 Q583.383 1539.15 577.735 1544.91 Z" fill="#000000" fill-rule="nonzero" fill-opacity="1"></path><path clip-path="url(#clip770)" d="M985.55 1517.37 Q981.939 1517.37 980.11 1520.93 Q978.305 1524.47 978.305 1531.6 Q978.305 1538.71 980.11 1542.27 Q981.939 1545.82 985.55 1545.82 Q989.184 1545.82 990.99 1542.27 Q992.818 1538.71 992.818 1531.6 Q992.818 1524.47 990.99 1520.93 Q989.184 1517.37 985.55 1517.37 M985.55 1513.66 Q991.36 1513.66 994.416 1518.27 Q997.494 1522.85 997.494 1531.6 Q997.494 1540.33 994.416 1544.94 Q991.36 1549.52 985.55 1549.52 Q979.74 1549.52 976.661 1544.94 Q973.606 1540.33 973.606 1531.6 Q973.606 1522.85 976.661 1518.27 Q979.74 1513.66 985.55 1513.66 Z" fill="#000000" fill-rule="nonzero" fill-opacity="1"></path><path clip-path="url(#clip770)" d="M1005.71 1542.97 L1010.6 1542.97 L1010.6 1548.85 L1005.71 1548.85 L1005.71 1542.97 Z" fill="#000000" fill-rule="nonzero" fill-opacity="1"></path><path clip-path="url(#clip770)" d="M1033.63 1518.36 L1021.82 1536.81 L1033.63 1536.81 L1033.63 1518.36 M1032.4 1514.29 L1038.28 1514.29 L1038.28 1536.81 L1043.21 1536.81 L1043.21 1540.7 L1038.28 1540.7 L1038.28 1548.85 L1033.63 1548.85 L1033.63 1540.7 L1018.03 1540.7 L1018.03 1536.19 L1032.4 1514.29 Z" fill="#000000" fill-rule="nonzero" fill-opacity="1"></path><path clip-path="url(#clip770)" d="M1433.83 1517.37 Q1430.22 1517.37 1428.39 1520.93 Q1426.58 1524.47 1426.58 1531.6 Q1426.58 1538.71 1428.39 1542.27 Q1430.22 1545.82 1433.83 1545.82 Q1437.46 1545.82 1439.27 1542.27 Q1441.1 1538.71 1441.1 1531.6 Q1441.1 1524.47 1439.27 1520.93 Q1437.46 1517.37 1433.83 1517.37 M1433.83 1513.66 Q1439.64 1513.66 1442.69 1518.27 Q1445.77 1522.85 1445.77 1531.6 Q1445.77 1540.33 1442.69 1544.94 Q1439.64 1549.52 1433.83 1549.52 Q1428.02 1549.52 1424.94 1544.94 Q1421.88 1540.33 1421.88 1531.6 Q1421.88 1522.85 1424.94 1518.27 Q1428.02 1513.66 1433.83 1513.66 Z" fill="#000000" fill-rule="nonzero" fill-opacity="1"></path><path clip-path="url(#clip770)" d="M1453.99 1542.97 L1458.87 1542.97 L1458.87 1548.85 L1453.99 1548.85 L1453.99 1542.97 Z" fill="#000000" fill-rule="nonzero" fill-opacity="1"></path><path clip-path="url(#clip770)" d="M1479.64 1529.7 Q1476.49 1529.7 1474.64 1531.86 Q1472.81 1534.01 1472.81 1537.76 Q1472.81 1541.49 1474.64 1543.66 Q1476.49 1545.82 1479.64 1545.82 Q1482.79 1545.82 1484.61 1543.66 Q1486.47 1541.49 1486.47 1537.76 Q1486.47 1534.01 1484.61 1531.86 Q1482.79 1529.7 1479.64 1529.7 M1488.92 1515.05 L1488.92 1519.31 Q1487.16 1518.48 1485.36 1518.04 Q1483.57 1517.6 1481.81 1517.6 Q1477.18 1517.6 1474.73 1520.72 Q1472.3 1523.85 1471.95 1530.17 Q1473.32 1528.15 1475.38 1527.09 Q1477.44 1526 1479.92 1526 Q1485.12 1526 1488.13 1529.17 Q1491.17 1532.32 1491.17 1537.76 Q1491.17 1543.08 1488.02 1546.3 Q1484.87 1549.52 1479.64 1549.52 Q1473.64 1549.52 1470.47 1544.94 Q1467.3 1540.33 1467.3 1531.6 Q1467.3 1523.41 1471.19 1518.55 Q1475.08 1513.66 1481.63 1513.66 Q1483.39 1513.66 1485.17 1514.01 Q1486.98 1514.36 1488.92 1515.05 Z" fill="#000000" fill-rule="nonzero" fill-opacity="1"></path><path clip-path="url(#clip770)" d="M1882.07 1517.37 Q1878.46 1517.37 1876.63 1520.93 Q1874.83 1524.47 1874.83 1531.6 Q1874.83 1538.71 1876.63 1542.27 Q1878.46 1545.82 1882.07 1545.82 Q1885.71 1545.82 1887.51 1542.27 Q1889.34 1538.71 1889.34 1531.6 Q1889.34 1524.47 1887.51 1520.93 Q1885.71 1517.37 1882.07 1517.37 M1882.07 1513.66 Q1887.88 1513.66 1890.94 1518.27 Q1894.02 1522.85 1894.02 1531.6 Q1894.02 1540.33 1890.94 1544.94 Q1887.88 1549.52 1882.07 1549.52 Q1876.26 1549.52 1873.18 1544.94 Q1870.13 1540.33 1870.13 1531.6 Q1870.13 1522.85 1873.18 1518.27 Q1876.26 1513.66 1882.07 1513.66 Z" fill="#000000" fill-rule="nonzero" fill-opacity="1"></path><path clip-path="url(#clip770)" d="M1902.23 1542.97 L1907.12 1542.97 L1907.12 1548.85 L1902.23 1548.85 L1902.23 1542.97 Z" fill="#000000" fill-rule="nonzero" fill-opacity="1"></path><path clip-path="url(#clip770)" d="M1927.3 1532.44 Q1923.97 1532.44 1922.05 1534.22 Q1920.15 1536 1920.15 1539.13 Q1920.15 1542.25 1922.05 1544.03 Q1923.97 1545.82 1927.3 1545.82 Q1930.64 1545.82 1932.56 1544.03 Q1934.48 1542.23 1934.48 1539.13 Q1934.48 1536 1932.56 1534.22 Q1930.66 1532.44 1927.3 1532.44 M1922.63 1530.45 Q1919.62 1529.7 1917.93 1527.64 Q1916.26 1525.58 1916.26 1522.62 Q1916.26 1518.48 1919.2 1516.07 Q1922.16 1513.66 1927.3 1513.66 Q1932.46 1513.66 1935.4 1516.07 Q1938.34 1518.48 1938.34 1522.62 Q1938.34 1525.58 1936.65 1527.64 Q1934.99 1529.7 1932 1530.45 Q1935.38 1531.23 1937.26 1533.52 Q1939.15 1535.82 1939.15 1539.13 Q1939.15 1544.15 1936.08 1546.83 Q1933.02 1549.52 1927.3 1549.52 Q1921.58 1549.52 1918.51 1546.83 Q1915.45 1544.15 1915.45 1539.13 Q1915.45 1535.82 1917.35 1533.52 Q1919.25 1531.23 1922.63 1530.45 M1920.91 1523.06 Q1920.91 1525.75 1922.58 1527.25 Q1924.27 1528.76 1927.3 1528.76 Q1930.31 1528.76 1932 1527.25 Q1933.71 1525.75 1933.71 1523.06 Q1933.71 1520.38 1932 1518.87 Q1930.31 1517.37 1927.3 1517.37 Q1924.27 1517.37 1922.58 1518.87 Q1920.91 1520.38 1920.91 1523.06 Z" fill="#000000" fill-rule="nonzero" fill-opacity="1"></path><path clip-path="url(#clip770)" d="M2319.91 1544.91 L2327.55 1544.91 L2327.55 1518.55 L2319.24 1520.21 L2319.24 1515.95 L2327.5 1514.29 L2332.18 1514.29 L2332.18 1544.91 L2339.82 1544.91 L2339.82 1548.85 L2319.91 1548.85 L2319.91 1544.91 Z" fill="#000000" fill-rule="nonzero" fill-opacity="1"></path><path clip-path="url(#clip770)" d="M2349.26 1542.97 L2354.14 1542.97 L2354.14 1548.85 L2349.26 1548.85 L2349.26 1542.97 Z" fill="#000000" fill-rule="nonzero" fill-opacity="1"></path><path clip-path="url(#clip770)" d="M2374.33 1517.37 Q2370.72 1517.37 2368.89 1520.93 Q2367.08 1524.47 2367.08 1531.6 Q2367.08 1538.71 2368.89 1542.27 Q2370.72 1545.82 2374.33 1545.82 Q2377.96 1545.82 2379.77 1542.27 Q2381.6 1538.71 2381.6 1531.6 Q2381.6 1524.47 2379.77 1520.93 Q2377.96 1517.37 2374.33 1517.37 M2374.33 1513.66 Q2380.14 1513.66 2383.2 1518.27 Q2386.27 1522.85 2386.27 1531.6 Q2386.27 1540.33 2383.2 1544.94 Q2380.14 1549.52 2374.33 1549.52 Q2368.52 1549.52 2365.44 1544.94 Q2362.39 1540.33 2362.39 1531.6 Q2362.39 1522.85 2365.44 1518.27 Q2368.52 1513.66 2374.33 1513.66 Z" fill="#000000" fill-rule="nonzero" fill-opacity="1"></path><polyline clip-path="url(#clip772)" style="stroke:#000000; stroke-linecap:round; stroke-linejoin:round; stroke-width:2; stroke-opacity:0.1; fill:none" points="112.177,1486.45 2352.76,1486.45 "></polyline>
<polyline clip-path="url(#clip772)" style="stroke:#000000; stroke-linecap:round; stroke-linejoin:round; stroke-width:2; stroke-opacity:0.1; fill:none" points="112.177,1158.31 2352.76,1158.31 "></polyline>
<polyline clip-path="url(#clip772)" style="stroke:#000000; stroke-linecap:round; stroke-linejoin:round; stroke-width:2; stroke-opacity:0.1; fill:none" points="112.177,830.171 2352.76,830.171 "></polyline>
<polyline clip-path="url(#clip772)" style="stroke:#000000; stroke-linecap:round; stroke-linejoin:round; stroke-width:2; stroke-opacity:0.1; fill:none" points="112.177,502.032 2352.76,502.032 "></polyline>
<polyline clip-path="url(#clip772)" style="stroke:#000000; stroke-linecap:round; stroke-linejoin:round; stroke-width:2; stroke-opacity:0.1; fill:none" points="112.177,173.894 2352.76,173.894 "></polyline>
<polyline clip-path="url(#clip770)" style="stroke:#000000; stroke-linecap:round; stroke-linejoin:round; stroke-width:4; stroke-opacity:1; fill:none" points="112.177,1486.45 112.177,47.2441 "></polyline>
<polyline clip-path="url(#clip770)" style="stroke:#000000; stroke-linecap:round; stroke-linejoin:round; stroke-width:4; stroke-opacity:1; fill:none" points="112.177,1486.45 131.075,1486.45 "></polyline>
<polyline clip-path="url(#clip770)" style="stroke:#000000; stroke-linecap:round; stroke-linejoin:round; stroke-width:4; stroke-opacity:1; fill:none" points="112.177,1158.31 131.075,1158.31 "></polyline>
<polyline clip-path="url(#clip770)" style="stroke:#000000; stroke-linecap:round; stroke-linejoin:round; stroke-width:4; stroke-opacity:1; fill:none" points="112.177,830.171 131.075,830.171 "></polyline>
<polyline clip-path="url(#clip770)" style="stroke:#000000; stroke-linecap:round; stroke-linejoin:round; stroke-width:4; stroke-opacity:1; fill:none" points="112.177,502.032 131.075,502.032 "></polyline>
<polyline clip-path="url(#clip770)" style="stroke:#000000; stroke-linecap:round; stroke-linejoin:round; stroke-width:4; stroke-opacity:1; fill:none" points="112.177,173.894 131.075,173.894 "></polyline>
<path clip-path="url(#clip770)" d="M64.2328 1472.25 Q60.6217 1472.25 58.793 1475.81 Q56.9875 1479.35 56.9875 1486.48 Q56.9875 1493.59 58.793 1497.15 Q60.6217 1500.7 64.2328 1500.7 Q67.867 1500.7 69.6726 1497.15 Q71.5013 1493.59 71.5013 1486.48 Q71.5013 1479.35 69.6726 1475.81 Q67.867 1472.25 64.2328 1472.25 M64.2328 1468.54 Q70.0429 1468.54 73.0985 1473.15 Q76.1772 1477.73 76.1772 1486.48 Q76.1772 1495.21 73.0985 1499.82 Q70.0429 1504.4 64.2328 1504.4 Q58.4226 1504.4 55.344 1499.82 Q52.2884 1495.21 52.2884 1486.48 Q52.2884 1477.73 55.344 1473.15 Q58.4226 1468.54 64.2328 1468.54 Z" fill="#000000" fill-rule="nonzero" fill-opacity="1"></path><path clip-path="url(#clip770)" d="M59.8578 1171.65 L76.1772 1171.65 L76.1772 1175.59 L54.2328 1175.59 L54.2328 1171.65 Q56.8949 1168.9 61.4782 1164.27 Q66.0846 1159.62 67.2652 1158.27 Q69.5105 1155.75 70.3902 1154.02 Q71.2929 1152.26 71.2929 1150.57 Q71.2929 1147.81 69.3485 1146.08 Q67.4272 1144.34 64.3254 1144.34 Q62.1263 1144.34 59.6726 1145.1 Q57.2421 1145.87 54.4643 1147.42 L54.4643 1142.7 Q57.2884 1141.56 59.7421 1140.98 Q62.1958 1140.4 64.2328 1140.4 Q69.6031 1140.4 72.7976 1143.09 Q75.992 1145.77 75.992 1150.27 Q75.992 1152.4 75.1818 1154.32 Q74.3948 1156.21 72.2883 1158.81 Q71.7096 1159.48 68.6078 1162.7 Q65.5059 1165.89 59.8578 1171.65 Z" fill="#000000" fill-rule="nonzero" fill-opacity="1"></path><path clip-path="url(#clip770)" d="M66.5939 816.965 L54.7884 835.414 L66.5939 835.414 L66.5939 816.965 M65.367 812.891 L71.2466 812.891 L71.2466 835.414 L76.1772 835.414 L76.1772 839.303 L71.2466 839.303 L71.2466 847.451 L66.5939 847.451 L66.5939 839.303 L50.9921 839.303 L50.9921 834.789 L65.367 812.891 Z" fill="#000000" fill-rule="nonzero" fill-opacity="1"></path><path clip-path="url(#clip770)" d="M64.6495 500.169 Q61.5013 500.169 59.6495 502.322 Q57.8208 504.475 57.8208 508.225 Q57.8208 511.951 59.6495 514.127 Q61.5013 516.28 64.6495 516.28 Q67.7976 516.28 69.6263 514.127 Q71.4781 511.951 71.4781 508.225 Q71.4781 504.475 69.6263 502.322 Q67.7976 500.169 64.6495 500.169 M73.9318 485.516 L73.9318 489.776 Q72.1726 488.942 70.367 488.502 Q68.5846 488.063 66.8254 488.063 Q62.1958 488.063 59.7421 491.188 Q57.3115 494.313 56.9643 500.632 Q58.33 498.618 60.3902 497.553 Q62.4504 496.465 64.9272 496.465 Q70.1355 496.465 73.1448 499.637 Q76.1772 502.785 76.1772 508.225 Q76.1772 513.549 73.029 516.766 Q69.8809 519.984 64.6495 519.984 Q58.6541 519.984 55.4828 515.4 Q52.3116 510.794 52.3116 502.067 Q52.3116 493.873 56.2004 489.012 Q60.0893 484.127 66.6402 484.127 Q68.3994 484.127 70.1818 484.475 Q71.9874 484.822 73.9318 485.516 Z" fill="#000000" fill-rule="nonzero" fill-opacity="1"></path><path clip-path="url(#clip770)" d="M64.3254 174.762 Q60.9921 174.762 59.0708 176.544 Q57.1726 178.327 57.1726 181.452 Q57.1726 184.577 59.0708 186.359 Q60.9921 188.142 64.3254 188.142 Q67.6587 188.142 69.58 186.359 Q71.5013 184.554 71.5013 181.452 Q71.5013 178.327 69.58 176.544 Q67.6819 174.762 64.3254 174.762 M59.6495 172.771 Q56.6402 172.031 54.9504 169.97 Q53.2838 167.91 53.2838 164.947 Q53.2838 160.804 56.2236 158.396 Q59.1865 155.989 64.3254 155.989 Q69.4874 155.989 72.4272 158.396 Q75.367 160.804 75.367 164.947 Q75.367 167.91 73.6772 169.97 Q72.0105 172.031 69.0244 172.771 Q72.404 173.558 74.279 175.85 Q76.1772 178.142 76.1772 181.452 Q76.1772 186.475 73.0985 189.16 Q70.0429 191.845 64.3254 191.845 Q58.6078 191.845 55.5291 189.16 Q52.4736 186.475 52.4736 181.452 Q52.4736 178.142 54.3717 175.85 Q56.2699 173.558 59.6495 172.771 M57.9365 165.387 Q57.9365 168.072 59.6032 169.577 Q61.293 171.082 64.3254 171.082 Q67.3346 171.082 69.0244 169.577 Q70.7374 168.072 70.7374 165.387 Q70.7374 162.702 69.0244 161.197 Q67.3346 159.693 64.3254 159.693 Q61.293 159.693 59.6032 161.197 Q57.9365 162.702 57.9365 165.387 Z" fill="#000000" fill-rule="nonzero" fill-opacity="1"></path><path clip-path="url(#clip772)" d="M1232.47 968.335 L1232.47 1486.45 L1344.5 1486.45 L1344.5 968.335 L1232.47 968.335 L1232.47 968.335  Z" fill="#009af9" fill-rule="evenodd" fill-opacity="1"></path>
<polyline clip-path="url(#clip772)" style="stroke:#000000; stroke-linecap:round; stroke-linejoin:round; stroke-width:4; stroke-opacity:1; fill:none" points="1232.47,968.335 1232.47,1486.45 1344.5,1486.45 1344.5,968.335 1232.47,968.335 "></polyline>
<path clip-path="url(#clip772)" d="M1344.5 1313.74 L1344.5 1486.45 L1456.52 1486.45 L1456.52 1313.74 L1344.5 1313.74 L1344.5 1313.74  Z" fill="#009af9" fill-rule="evenodd" fill-opacity="1"></path>
<polyline clip-path="url(#clip772)" style="stroke:#000000; stroke-linecap:round; stroke-linejoin:round; stroke-width:4; stroke-opacity:1; fill:none" points="1344.5,1313.74 1344.5,1486.45 1456.52,1486.45 1456.52,1313.74 1344.5,1313.74 "></polyline>
<path clip-path="url(#clip772)" d="M1456.52 1428.88 L1456.52 1486.45 L1568.55 1486.45 L1568.55 1428.88 L1456.52 1428.88 L1456.52 1428.88  Z" fill="#009af9" fill-rule="evenodd" fill-opacity="1"></path>
<polyline clip-path="url(#clip772)" style="stroke:#000000; stroke-linecap:round; stroke-linejoin:round; stroke-width:4; stroke-opacity:1; fill:none" points="1456.52,1428.88 1456.52,1486.45 1568.55,1486.45 1568.55,1428.88 1456.52,1428.88 "></polyline>
<path clip-path="url(#clip772)" d="M1568.55 622.926 L1568.55 1486.45 L1680.58 1486.45 L1680.58 622.926 L1568.55 622.926 L1568.55 622.926  Z" fill="#009af9" fill-rule="evenodd" fill-opacity="1"></path>
<polyline clip-path="url(#clip772)" style="stroke:#000000; stroke-linecap:round; stroke-linejoin:round; stroke-width:4; stroke-opacity:1; fill:none" points="1568.55,622.926 1568.55,1486.45 1680.58,1486.45 1680.58,622.926 1568.55,622.926 "></polyline>
<path clip-path="url(#clip772)" d="M1680.58 1256.18 L1680.58 1486.45 L1792.61 1486.45 L1792.61 1256.18 L1680.58 1256.18 L1680.58 1256.18  Z" fill="#009af9" fill-rule="evenodd" fill-opacity="1"></path>
<polyline clip-path="url(#clip772)" style="stroke:#000000; stroke-linecap:round; stroke-linejoin:round; stroke-width:4; stroke-opacity:1; fill:none" points="1680.58,1256.18 1680.58,1486.45 1792.61,1486.45 1792.61,1256.18 1680.58,1256.18 "></polyline>
<path clip-path="url(#clip772)" d="M1792.61 1486.45 L1792.61 1486.45 L1904.64 1486.45 L1904.64 1486.45 L1792.61 1486.45 L1792.61 1486.45  Z" fill="#009af9" fill-rule="evenodd" fill-opacity="1"></path>
<polyline clip-path="url(#clip772)" style="stroke:#000000; stroke-linecap:round; stroke-linejoin:round; stroke-width:4; stroke-opacity:1; fill:none" points="1792.61,1486.45 1792.61,1486.45 1904.64,1486.45 1792.61,1486.45 "></polyline>
<path clip-path="url(#clip772)" d="M1904.64 1486.45 L1904.64 1486.45 L2016.67 1486.45 L2016.67 1486.45 L1904.64 1486.45 L1904.64 1486.45  Z" fill="#009af9" fill-rule="evenodd" fill-opacity="1"></path>
<polyline clip-path="url(#clip772)" style="stroke:#000000; stroke-linecap:round; stroke-linejoin:round; stroke-width:4; stroke-opacity:1; fill:none" points="1904.64,1486.45 1904.64,1486.45 2016.67,1486.45 1904.64,1486.45 "></polyline>
<path clip-path="url(#clip772)" d="M2016.67 1486.45 L2016.67 1486.45 L2128.7 1486.45 L2128.7 1486.45 L2016.67 1486.45 L2016.67 1486.45  Z" fill="#009af9" fill-rule="evenodd" fill-opacity="1"></path>
<polyline clip-path="url(#clip772)" style="stroke:#000000; stroke-linecap:round; stroke-linejoin:round; stroke-width:4; stroke-opacity:1; fill:none" points="2016.67,1486.45 2016.67,1486.45 2128.7,1486.45 2016.67,1486.45 "></polyline>
<path clip-path="url(#clip772)" d="M2128.7 47.2441 L2128.7 1486.45 L2240.73 1486.45 L2240.73 47.2441 L2128.7 47.2441 L2128.7 47.2441  Z" fill="#009af9" fill-rule="evenodd" fill-opacity="1"></path>
<polyline clip-path="url(#clip772)" style="stroke:#000000; stroke-linecap:round; stroke-linejoin:round; stroke-width:4; stroke-opacity:1; fill:none" points="2128.7,47.2441 2128.7,1486.45 2240.73,1486.45 2240.73,47.2441 2128.7,47.2441 "></polyline>
<circle clip-path="url(#clip772)" style="fill:#009af9; stroke:none; fill-opacity:0" cx="1288.48" cy="968.335" r="2"></circle>
<circle clip-path="url(#clip772)" style="fill:#009af9; stroke:none; fill-opacity:0" cx="1400.51" cy="1313.74" r="2"></circle>
<circle clip-path="url(#clip772)" style="fill:#009af9; stroke:none; fill-opacity:0" cx="1512.54" cy="1428.88" r="2"></circle>
<circle clip-path="url(#clip772)" style="fill:#009af9; stroke:none; fill-opacity:0" cx="1624.57" cy="622.926" r="2"></circle>
<circle clip-path="url(#clip772)" style="fill:#009af9; stroke:none; fill-opacity:0" cx="1736.6" cy="1256.18" r="2"></circle>
<circle clip-path="url(#clip772)" style="fill:#009af9; stroke:none; fill-opacity:0" cx="1848.63" cy="1486.45" r="2"></circle>
<circle clip-path="url(#clip772)" style="fill:#009af9; stroke:none; fill-opacity:0" cx="1960.65" cy="1486.45" r="2"></circle>
<circle clip-path="url(#clip772)" style="fill:#009af9; stroke:none; fill-opacity:0" cx="2072.68" cy="1486.45" r="2"></circle>
<circle clip-path="url(#clip772)" style="fill:#009af9; stroke:none; fill-opacity:0" cx="2184.71" cy="47.2441" r="2"></circle>
<path clip-path="url(#clip770)" d="M186.863 198.898 L815.502 198.898 L815.502 95.2176 L186.863 95.2176  Z" fill="#ffffff" fill-rule="evenodd" fill-opacity="1"></path>
<polyline clip-path="url(#clip770)" style="stroke:#000000; stroke-linecap:round; stroke-linejoin:round; stroke-width:4; stroke-opacity:1; fill:none" points="186.863,198.898 815.502,198.898 815.502,95.2176 186.863,95.2176 186.863,198.898 "></polyline>
<path clip-path="url(#clip770)" d="M211.758 167.794 L361.13 167.794 L361.13 126.322 L211.758 126.322 L211.758 167.794  Z" fill="#009af9" fill-rule="evenodd" fill-opacity="1"></path>
<polyline clip-path="url(#clip770)" style="stroke:#000000; stroke-linecap:round; stroke-linejoin:round; stroke-width:4; stroke-opacity:1; fill:none" points="211.758,167.794 361.13,167.794 361.13,126.322 211.758,126.322 211.758,167.794 "></polyline>
<path clip-path="url(#clip770)" d="M390.308 160.449 L390.308 174.199 L386.026 174.199 L386.026 138.412 L390.308 138.412 L390.308 142.347 Q391.651 140.032 393.688 138.921 Q395.748 137.787 398.595 137.787 Q403.317 137.787 406.257 141.537 Q409.22 145.287 409.22 151.398 Q409.22 157.509 406.257 161.259 Q403.317 165.009 398.595 165.009 Q395.748 165.009 393.688 163.898 Q391.651 162.763 390.308 160.449 M404.799 151.398 Q404.799 146.699 402.854 144.037 Q400.933 141.352 397.553 141.352 Q394.174 141.352 392.229 144.037 Q390.308 146.699 390.308 151.398 Q390.308 156.097 392.229 158.782 Q394.174 161.444 397.553 161.444 Q400.933 161.444 402.854 158.782 Q404.799 156.097 404.799 151.398 Z" fill="#000000" fill-rule="nonzero" fill-opacity="1"></path><path clip-path="url(#clip770)" d="M426.326 141.398 Q422.9 141.398 420.91 144.083 Q418.919 146.745 418.919 151.398 Q418.919 156.051 420.887 158.736 Q422.877 161.398 426.326 161.398 Q429.729 161.398 431.72 158.713 Q433.711 156.027 433.711 151.398 Q433.711 146.791 431.72 144.106 Q429.729 141.398 426.326 141.398 M426.326 137.787 Q431.882 137.787 435.053 141.398 Q438.224 145.009 438.224 151.398 Q438.224 157.764 435.053 161.398 Q431.882 165.009 426.326 165.009 Q420.748 165.009 417.576 161.398 Q414.428 157.764 414.428 151.398 Q414.428 145.009 417.576 141.398 Q420.748 137.787 426.326 137.787 Z" fill="#000000" fill-rule="nonzero" fill-opacity="1"></path><path clip-path="url(#clip770)" d="M461.812 139.176 L461.812 143.203 Q460.007 142.277 458.062 141.815 Q456.118 141.352 454.035 141.352 Q450.863 141.352 449.266 142.324 Q447.692 143.296 447.692 145.24 Q447.692 146.722 448.826 147.578 Q449.961 148.412 453.386 149.176 L454.845 149.5 Q459.382 150.472 461.28 152.254 Q463.201 154.014 463.201 157.185 Q463.201 160.796 460.331 162.902 Q457.484 165.009 452.484 165.009 Q450.4 165.009 448.132 164.592 Q445.886 164.199 443.386 163.388 L443.386 158.99 Q445.748 160.217 448.039 160.842 Q450.331 161.444 452.576 161.444 Q455.586 161.444 457.206 160.426 Q458.826 159.384 458.826 157.509 Q458.826 155.773 457.646 154.847 Q456.488 153.921 452.53 153.064 L451.048 152.717 Q447.09 151.884 445.331 150.171 Q443.572 148.435 443.572 145.426 Q443.572 141.768 446.164 139.778 Q448.757 137.787 453.525 137.787 Q455.886 137.787 457.97 138.134 Q460.053 138.481 461.812 139.176 Z" fill="#000000" fill-rule="nonzero" fill-opacity="1"></path><path clip-path="url(#clip770)" d="M474.197 131.051 L474.197 138.412 L482.97 138.412 L482.97 141.722 L474.197 141.722 L474.197 155.796 Q474.197 158.967 475.053 159.87 Q475.933 160.773 478.595 160.773 L482.97 160.773 L482.97 164.338 L478.595 164.338 Q473.664 164.338 471.789 162.509 Q469.914 160.657 469.914 155.796 L469.914 141.722 L466.789 141.722 L466.789 138.412 L469.914 138.412 L469.914 131.051 L474.197 131.051 Z" fill="#000000" fill-rule="nonzero" fill-opacity="1"></path><path clip-path="url(#clip770)" d="M510.747 150.31 L510.747 152.393 L491.164 152.393 Q491.442 156.791 493.803 159.106 Q496.187 161.398 500.423 161.398 Q502.877 161.398 505.169 160.796 Q507.483 160.194 509.752 158.99 L509.752 163.018 Q507.46 163.99 505.053 164.5 Q502.645 165.009 500.169 165.009 Q493.965 165.009 490.331 161.398 Q486.72 157.787 486.72 151.629 Q486.72 145.264 490.146 141.537 Q493.595 137.787 499.428 137.787 Q504.659 137.787 507.692 141.166 Q510.747 144.523 510.747 150.31 M506.488 149.06 Q506.442 145.565 504.52 143.481 Q502.622 141.398 499.474 141.398 Q495.909 141.398 493.757 143.412 Q491.627 145.426 491.303 149.083 L506.488 149.06 Z" fill="#000000" fill-rule="nonzero" fill-opacity="1"></path><path clip-path="url(#clip770)" d="M532.761 142.393 Q532.043 141.977 531.187 141.791 Q530.354 141.583 529.335 141.583 Q525.724 141.583 523.78 143.944 Q521.858 146.282 521.858 150.68 L521.858 164.338 L517.576 164.338 L517.576 138.412 L521.858 138.412 L521.858 142.44 Q523.201 140.078 525.354 138.944 Q527.506 137.787 530.585 137.787 Q531.025 137.787 531.557 137.856 Q532.09 137.903 532.738 138.018 L532.761 142.393 Z" fill="#000000" fill-rule="nonzero" fill-opacity="1"></path><path clip-path="url(#clip770)" d="M537.229 138.412 L541.488 138.412 L541.488 164.338 L537.229 164.338 L537.229 138.412 M537.229 128.319 L541.488 128.319 L541.488 133.713 L537.229 133.713 L537.229 128.319 Z" fill="#000000" fill-rule="nonzero" fill-opacity="1"></path><path clip-path="url(#clip770)" d="M560.446 141.398 Q557.02 141.398 555.029 144.083 Q553.039 146.745 553.039 151.398 Q553.039 156.051 555.006 158.736 Q556.997 161.398 560.446 161.398 Q563.849 161.398 565.84 158.713 Q567.83 156.027 567.83 151.398 Q567.83 146.791 565.84 144.106 Q563.849 141.398 560.446 141.398 M560.446 137.787 Q566.002 137.787 569.173 141.398 Q572.344 145.009 572.344 151.398 Q572.344 157.764 569.173 161.398 Q566.002 165.009 560.446 165.009 Q554.867 165.009 551.696 161.398 Q548.548 157.764 548.548 151.398 Q548.548 145.009 551.696 141.398 Q554.867 137.787 560.446 137.787 Z" fill="#000000" fill-rule="nonzero" fill-opacity="1"></path><path clip-path="url(#clip770)" d="M594.427 142.393 Q593.71 141.977 592.853 141.791 Q592.02 141.583 591.001 141.583 Q587.39 141.583 585.446 143.944 Q583.525 146.282 583.525 150.68 L583.525 164.338 L579.242 164.338 L579.242 138.412 L583.525 138.412 L583.525 142.44 Q584.867 140.078 587.02 138.944 Q589.173 137.787 592.251 137.787 Q592.691 137.787 593.224 137.856 Q593.756 137.903 594.404 138.018 L594.427 142.393 Z" fill="#000000" fill-rule="nonzero" fill-opacity="1"></path><path clip-path="url(#clip770)" d="M635.515 148.689 L635.515 164.338 L631.256 164.338 L631.256 148.828 Q631.256 145.148 629.821 143.319 Q628.386 141.49 625.515 141.49 Q622.066 141.49 620.075 143.69 Q618.085 145.889 618.085 149.685 L618.085 164.338 L613.802 164.338 L613.802 128.319 L618.085 128.319 L618.085 142.44 Q619.612 140.102 621.673 138.944 Q623.756 137.787 626.464 137.787 Q630.932 137.787 633.223 140.565 Q635.515 143.319 635.515 148.689 Z" fill="#000000" fill-rule="nonzero" fill-opacity="1"></path><path clip-path="url(#clip770)" d="M654.057 141.398 Q650.631 141.398 648.64 144.083 Q646.649 146.745 646.649 151.398 Q646.649 156.051 648.617 158.736 Q650.608 161.398 654.057 161.398 Q657.459 161.398 659.45 158.713 Q661.441 156.027 661.441 151.398 Q661.441 146.791 659.45 144.106 Q657.459 141.398 654.057 141.398 M654.057 137.787 Q659.612 137.787 662.783 141.398 Q665.955 145.009 665.955 151.398 Q665.955 157.764 662.783 161.398 Q659.612 165.009 654.057 165.009 Q648.478 165.009 645.307 161.398 Q642.159 157.764 642.159 151.398 Q642.159 145.009 645.307 141.398 Q648.478 137.787 654.057 137.787 Z" fill="#000000" fill-rule="nonzero" fill-opacity="1"></path><path clip-path="url(#clip770)" d="M693.2 143.389 Q694.797 140.518 697.019 139.153 Q699.242 137.787 702.251 137.787 Q706.302 137.787 708.501 140.634 Q710.7 143.458 710.7 148.689 L710.7 164.338 L706.417 164.338 L706.417 148.828 Q706.417 145.102 705.098 143.296 Q703.779 141.49 701.07 141.49 Q697.76 141.49 695.839 143.69 Q693.918 145.889 693.918 149.685 L693.918 164.338 L689.635 164.338 L689.635 148.828 Q689.635 145.078 688.316 143.296 Q686.996 141.49 684.242 141.49 Q680.978 141.49 679.057 143.713 Q677.135 145.912 677.135 149.685 L677.135 164.338 L672.853 164.338 L672.853 138.412 L677.135 138.412 L677.135 142.44 Q678.594 140.055 680.631 138.921 Q682.668 137.787 685.469 137.787 Q688.293 137.787 690.26 139.222 Q692.251 140.657 693.2 143.389 Z" fill="#000000" fill-rule="nonzero" fill-opacity="1"></path><path clip-path="url(#clip770)" d="M738.894 172.208 L738.894 175.518 L714.265 175.518 L714.265 172.208 L738.894 172.208 Z" fill="#000000" fill-rule="nonzero" fill-opacity="1"></path><path clip-path="url(#clip770)" d="M754.681 151.305 Q749.519 151.305 747.528 152.486 Q745.538 153.666 745.538 156.514 Q745.538 158.782 747.019 160.125 Q748.524 161.444 751.093 161.444 Q754.635 161.444 756.764 158.944 Q758.917 156.421 758.917 152.254 L758.917 151.305 L754.681 151.305 M763.176 149.546 L763.176 164.338 L758.917 164.338 L758.917 160.402 Q757.459 162.763 755.283 163.898 Q753.107 165.009 749.959 165.009 Q745.977 165.009 743.616 162.787 Q741.278 160.541 741.278 156.791 Q741.278 152.416 744.195 150.194 Q747.135 147.972 752.945 147.972 L758.917 147.972 L758.917 147.555 Q758.917 144.615 756.973 143.018 Q755.051 141.398 751.556 141.398 Q749.334 141.398 747.227 141.93 Q745.121 142.463 743.177 143.527 L743.177 139.592 Q745.515 138.69 747.714 138.25 Q749.913 137.787 751.996 137.787 Q757.621 137.787 760.399 140.703 Q763.176 143.62 763.176 149.546 Z" fill="#000000" fill-rule="nonzero" fill-opacity="1"></path><path clip-path="url(#clip770)" d="M790.607 139.407 L790.607 143.389 Q788.801 142.393 786.973 141.907 Q785.167 141.398 783.315 141.398 Q779.172 141.398 776.88 144.037 Q774.588 146.652 774.588 151.398 Q774.588 156.143 776.88 158.782 Q779.172 161.398 783.315 161.398 Q785.167 161.398 786.973 160.912 Q788.801 160.402 790.607 159.407 L790.607 163.342 Q788.824 164.176 786.903 164.592 Q785.005 165.009 782.852 165.009 Q776.996 165.009 773.547 161.328 Q770.098 157.648 770.098 151.398 Q770.098 145.055 773.57 141.421 Q777.065 137.787 783.13 137.787 Q785.098 137.787 786.973 138.203 Q788.848 138.597 790.607 139.407 Z" fill="#000000" fill-rule="nonzero" fill-opacity="1"></path></svg>