<svg xmlns="http://www.w3.org/2000/svg" xmlns:xlink="http://www.w3.org/1999/xlink" width="600" height="400" viewBox="0 0 2400 1600">
<defs>
  <clipPath id="clip850">
    <rect x="0" y="0" width="2400" height="1600"></rect>
  </clipPath>
</defs>
<path clip-path="url(#clip850)" d="M0 1600 L2400 1600 L2400 0 L0 0  Z" fill="#ffffff" fill-rule="evenodd" fill-opacity="1"></path>
<defs>
  <clipPath id="clip851">
    <rect x="480" y="0" width="1681" height="1600"></rect>
  </clipPath>
</defs>
<path clip-path="url(#clip850)" d="M141.853 1486.45 L2352.76 1486.45 L2352.76 47.2441 L141.853 47.2441  Z" fill="#ffffff" fill-rule="evenodd" fill-opacity="1"></path>
<defs>
  <clipPath id="clip852">
    <rect x="141" y="47" width="2212" height="1440"></rect>
  </clipPath>
</defs>
<polyline clip-path="url(#clip852)" style="stroke:#000000; stroke-linecap:round; stroke-linejoin:round; stroke-width:2; stroke-opacity:0.1; fill:none" points="141.853,1486.45 141.853,47.2441 "></polyline>
<polyline clip-path="url(#clip852)" style="stroke:#000000; stroke-linecap:round; stroke-linejoin:round; stroke-width:2; stroke-opacity:0.1; fill:none" points="584.034,1486.45 584.034,47.2441 "></polyline>
<polyline clip-path="url(#clip852)" style="stroke:#000000; stroke-linecap:round; stroke-linejoin:round; stroke-width:2; stroke-opacity:0.1; fill:none" points="1026.21,1486.45 1026.21,47.2441 "></polyline>
<polyline clip-path="url(#clip852)" style="stroke:#000000; stroke-linecap:round; stroke-linejoin:round; stroke-width:2; stroke-opacity:0.1; fill:none" points="1468.39,1486.45 1468.39,47.2441 "></polyline>
<polyline clip-path="url(#clip852)" style="stroke:#000000; stroke-linecap:round; stroke-linejoin:round; stroke-width:2; stroke-opacity:0.1; fill:none" points="1910.58,1486.45 1910.58,47.2441 "></polyline>
<polyline clip-path="url(#clip852)" style="stroke:#000000; stroke-linecap:round; stroke-linejoin:round; stroke-width:2; stroke-opacity:0.1; fill:none" points="2352.76,1486.45 2352.76,47.2441 "></polyline>
<polyline clip-path="url(#clip850)" style="stroke:#000000; stroke-linecap:round; stroke-linejoin:round; stroke-width:4; stroke-opacity:1; fill:none" points="141.853,1486.45 2352.76,1486.45 "></polyline>
<polyline clip-path="url(#clip850)" style="stroke:#000000; stroke-linecap:round; stroke-linejoin:round; stroke-width:4; stroke-opacity:1; fill:none" points="141.853,1486.45 141.853,1467.55 "></polyline>
<polyline clip-path="url(#clip850)" style="stroke:#000000; stroke-linecap:round; stroke-linejoin:round; stroke-width:4; stroke-opacity:1; fill:none" points="584.034,1486.45 584.034,1467.55 "></polyline>
<polyline clip-path="url(#clip850)" style="stroke:#000000; stroke-linecap:round; stroke-linejoin:round; stroke-width:4; stroke-opacity:1; fill:none" points="1026.21,1486.45 1026.21,1467.55 "></polyline>
<polyline clip-path="url(#clip850)" style="stroke:#000000; stroke-linecap:round; stroke-linejoin:round; stroke-width:4; stroke-opacity:1; fill:none" points="1468.39,1486.45 1468.39,1467.55 "></polyline>
<polyline clip-path="url(#clip850)" style="stroke:#000000; stroke-linecap:round; stroke-linejoin:round; stroke-width:4; stroke-opacity:1; fill:none" points="1910.58,1486.45 1910.58,1467.55 "></polyline>
<polyline clip-path="url(#clip850)" style="stroke:#000000; stroke-linecap:round; stroke-linejoin:round; stroke-width:4; stroke-opacity:1; fill:none" points="2352.76,1486.45 2352.76,1467.55 "></polyline>
<path clip-path="url(#clip850)" d="M141.853 1517.37 Q138.242 1517.37 136.413 1520.93 Q134.608 1524.47 134.608 1531.6 Q134.608 1538.71 136.413 1542.27 Q138.242 1545.82 141.853 1545.82 Q145.487 1545.82 147.293 1542.27 Q149.121 1538.71 149.121 1531.6 Q149.121 1524.47 147.293 1520.93 Q145.487 1517.37 141.853 1517.37 M141.853 1513.66 Q147.663 1513.66 150.719 1518.27 Q153.797 1522.85 153.797 1531.6 Q153.797 1540.33 150.719 1544.94 Q147.663 1549.52 141.853 1549.52 Q136.043 1549.52 132.964 1544.94 Q129.909 1540.33 129.909 1531.6 Q129.909 1522.85 132.964 1518.27 Q136.043 1513.66 141.853 1513.66 Z" fill="#000000" fill-rule="nonzero" fill-opacity="1"></path><path clip-path="url(#clip850)" d="M578.686 1544.91 L595.006 1544.91 L595.006 1548.85 L573.061 1548.85 L573.061 1544.91 Q575.723 1542.16 580.307 1537.53 Q584.913 1532.88 586.094 1531.53 Q588.339 1529.01 589.219 1527.27 Q590.121 1525.51 590.121 1523.82 Q590.121 1521.07 588.177 1519.33 Q586.256 1517.6 583.154 1517.6 Q580.955 1517.6 578.501 1518.36 Q576.071 1519.13 573.293 1520.68 L573.293 1515.95 Q576.117 1514.82 578.571 1514.24 Q581.024 1513.66 583.061 1513.66 Q588.432 1513.66 591.626 1516.35 Q594.821 1519.03 594.821 1523.52 Q594.821 1525.65 594.01 1527.57 Q593.223 1529.47 591.117 1532.07 Q590.538 1532.74 587.436 1535.95 Q584.334 1539.15 578.686 1544.91 Z" fill="#000000" fill-rule="nonzero" fill-opacity="1"></path><path clip-path="url(#clip850)" d="M1029.22 1518.36 L1017.42 1536.81 L1029.22 1536.81 L1029.22 1518.36 M1028 1514.29 L1033.88 1514.29 L1033.88 1536.81 L1038.81 1536.81 L1038.81 1540.7 L1033.88 1540.7 L1033.88 1548.85 L1029.22 1548.85 L1029.22 1540.7 L1013.62 1540.7 L1013.62 1536.19 L1028 1514.29 Z" fill="#000000" fill-rule="nonzero" fill-opacity="1"></path><path clip-path="url(#clip850)" d="M1468.8 1529.7 Q1465.65 1529.7 1463.8 1531.86 Q1461.97 1534.01 1461.97 1537.76 Q1461.97 1541.49 1463.8 1543.66 Q1465.65 1545.82 1468.8 1545.82 Q1471.95 1545.82 1473.78 1543.66 Q1475.63 1541.49 1475.63 1537.76 Q1475.63 1534.01 1473.78 1531.86 Q1471.95 1529.7 1468.8 1529.7 M1478.08 1515.05 L1478.08 1519.31 Q1476.32 1518.48 1474.52 1518.04 Q1472.73 1517.6 1470.98 1517.6 Q1466.35 1517.6 1463.89 1520.72 Q1461.46 1523.85 1461.11 1530.17 Q1462.48 1528.15 1464.54 1527.09 Q1466.6 1526 1469.08 1526 Q1474.29 1526 1477.3 1529.17 Q1480.33 1532.32 1480.33 1537.76 Q1480.33 1543.08 1477.18 1546.3 Q1474.03 1549.52 1468.8 1549.52 Q1462.8 1549.52 1459.63 1544.94 Q1456.46 1540.33 1456.46 1531.6 Q1456.46 1523.41 1460.35 1518.55 Q1464.24 1513.66 1470.79 1513.66 Q1472.55 1513.66 1474.33 1514.01 Q1476.14 1514.36 1478.08 1515.05 Z" fill="#000000" fill-rule="nonzero" fill-opacity="1"></path><path clip-path="url(#clip850)" d="M1910.58 1532.44 Q1907.24 1532.44 1905.32 1534.22 Q1903.42 1536 1903.42 1539.13 Q1903.42 1542.25 1905.32 1544.03 Q1907.24 1545.82 1910.58 1545.82 Q1913.91 1545.82 1915.83 1544.03 Q1917.75 1542.23 1917.75 1539.13 Q1917.75 1536 1915.83 1534.22 Q1913.93 1532.44 1910.58 1532.44 M1905.9 1530.45 Q1902.89 1529.7 1901.2 1527.64 Q1899.53 1525.58 1899.53 1522.62 Q1899.53 1518.48 1902.47 1516.07 Q1905.44 1513.66 1910.58 1513.66 Q1915.74 1513.66 1918.68 1516.07 Q1921.62 1518.48 1921.62 1522.62 Q1921.62 1525.58 1919.93 1527.64 Q1918.26 1529.7 1915.27 1530.45 Q1918.65 1531.23 1920.53 1533.52 Q1922.43 1535.82 1922.43 1539.13 Q1922.43 1544.15 1919.35 1546.83 Q1916.29 1549.52 1910.58 1549.52 Q1904.86 1549.52 1901.78 1546.83 Q1898.72 1544.15 1898.72 1539.13 Q1898.72 1535.82 1900.62 1533.52 Q1902.52 1531.23 1905.9 1530.45 M1904.19 1523.06 Q1904.19 1525.75 1905.85 1527.25 Q1907.54 1528.76 1910.58 1528.76 Q1913.58 1528.76 1915.27 1527.25 Q1916.99 1525.75 1916.99 1523.06 Q1916.99 1520.38 1915.27 1518.87 Q1913.58 1517.37 1910.58 1517.37 Q1907.54 1517.37 1905.85 1518.87 Q1904.19 1520.38 1904.19 1523.06 Z" fill="#000000" fill-rule="nonzero" fill-opacity="1"></path><path clip-path="url(#clip850)" d="M2327.44 1544.91 L2335.08 1544.91 L2335.08 1518.55 L2326.77 1520.21 L2326.77 1515.95 L2335.04 1514.29 L2339.71 1514.29 L2339.71 1544.91 L2347.35 1544.91 L2347.35 1548.85 L2327.44 1548.85 L2327.44 1544.91 Z" fill="#000000" fill-rule="nonzero" fill-opacity="1"></path><path clip-path="url(#clip850)" d="M2366.8 1517.37 Q2363.18 1517.37 2361.36 1520.93 Q2359.55 1524.47 2359.55 1531.6 Q2359.55 1538.71 2361.36 1542.27 Q2363.18 1545.82 2366.8 1545.82 Q2370.43 1545.82 2372.23 1542.27 Q2374.06 1538.71 2374.06 1531.6 Q2374.06 1524.47 2372.23 1520.93 Q2370.43 1517.37 2366.8 1517.37 M2366.8 1513.66 Q2372.61 1513.66 2375.66 1518.27 Q2378.74 1522.85 2378.74 1531.6 Q2378.74 1540.33 2375.66 1544.94 Q2372.61 1549.52 2366.8 1549.52 Q2360.99 1549.52 2357.91 1544.94 Q2354.85 1540.33 2354.85 1531.6 Q2354.85 1522.85 2357.91 1518.27 Q2360.99 1513.66 2366.8 1513.66 Z" fill="#000000" fill-rule="nonzero" fill-opacity="1"></path><polyline clip-path="url(#clip852)" style="stroke:#000000; stroke-linecap:round; stroke-linejoin:round; stroke-width:2; stroke-opacity:0.1; fill:none" points="141.853,1486.45 2352.76,1486.45 "></polyline>
<polyline clip-path="url(#clip852)" style="stroke:#000000; stroke-linecap:round; stroke-linejoin:round; stroke-width:2; stroke-opacity:0.1; fill:none" points="141.853,1182.62 2352.76,1182.62 "></polyline>
<polyline clip-path="url(#clip852)" style="stroke:#000000; stroke-linecap:round; stroke-linejoin:round; stroke-width:2; stroke-opacity:0.1; fill:none" points="141.853,878.784 2352.76,878.784 "></polyline>
<polyline clip-path="url(#clip852)" style="stroke:#000000; stroke-linecap:round; stroke-linejoin:round; stroke-width:2; stroke-opacity:0.1; fill:none" points="141.853,574.952 2352.76,574.952 "></polyline>
<polyline clip-path="url(#clip852)" style="stroke:#000000; stroke-linecap:round; stroke-linejoin:round; stroke-width:2; stroke-opacity:0.1; fill:none" points="141.853,271.12 2352.76,271.12 "></polyline>
<polyline clip-path="url(#clip850)" style="stroke:#000000; stroke-linecap:round; stroke-linejoin:round; stroke-width:4; stroke-opacity:1; fill:none" points="141.853,1486.45 141.853,47.2441 "></polyline>
<polyline clip-path="url(#clip850)" style="stroke:#000000; stroke-linecap:round; stroke-linejoin:round; stroke-width:4; stroke-opacity:1; fill:none" points="141.853,1486.45 160.751,1486.45 "></polyline>
<polyline clip-path="url(#clip850)" style="stroke:#000000; stroke-linecap:round; stroke-linejoin:round; stroke-width:4; stroke-opacity:1; fill:none" points="141.853,1182.62 160.751,1182.62 "></polyline>
<polyline clip-path="url(#clip850)" style="stroke:#000000; stroke-linecap:round; stroke-linejoin:round; stroke-width:4; stroke-opacity:1; fill:none" points="141.853,878.784 160.751,878.784 "></polyline>
<polyline clip-path="url(#clip850)" style="stroke:#000000; stroke-linecap:round; stroke-linejoin:round; stroke-width:4; stroke-opacity:1; fill:none" points="141.853,574.952 160.751,574.952 "></polyline>
<polyline clip-path="url(#clip850)" style="stroke:#000000; stroke-linecap:round; stroke-linejoin:round; stroke-width:4; stroke-opacity:1; fill:none" points="141.853,271.12 160.751,271.12 "></polyline>
<path clip-path="url(#clip850)" d="M93.9086 1472.25 Q90.2975 1472.25 88.4688 1475.81 Q86.6632 1479.35 86.6632 1486.48 Q86.6632 1493.59 88.4688 1497.15 Q90.2975 1500.7 93.9086 1500.7 Q97.5428 1500.7 99.3483 1497.15 Q101.177 1493.59 101.177 1486.48 Q101.177 1479.35 99.3483 1475.81 Q97.5428 1472.25 93.9086 1472.25 M93.9086 1468.54 Q99.7187 1468.54 102.774 1473.15 Q105.853 1477.73 105.853 1486.48 Q105.853 1495.21 102.774 1499.82 Q99.7187 1504.4 93.9086 1504.4 Q88.0984 1504.4 85.0197 1499.82 Q81.9642 1495.21 81.9642 1486.48 Q81.9642 1477.73 85.0197 1473.15 Q88.0984 1468.54 93.9086 1468.54 Z" fill="#000000" fill-rule="nonzero" fill-opacity="1"></path><path clip-path="url(#clip850)" d="M57.7745 1195.96 L74.0939 1195.96 L74.0939 1199.9 L52.1495 1199.9 L52.1495 1195.96 Q54.8115 1193.21 59.3949 1188.58 Q64.0013 1183.92 65.1819 1182.58 Q67.4272 1180.06 68.3068 1178.32 Q69.2096 1176.56 69.2096 1174.87 Q69.2096 1172.12 67.2652 1170.38 Q65.3439 1168.65 62.2421 1168.65 Q60.043 1168.65 57.5893 1169.41 Q55.1588 1170.17 52.381 1171.72 L52.381 1167 Q55.2051 1165.87 57.6588 1165.29 Q60.1124 1164.71 62.1495 1164.71 Q67.5198 1164.71 70.7142 1167.4 Q73.9087 1170.08 73.9087 1174.57 Q73.9087 1176.7 73.0985 1178.62 Q72.3115 1180.52 70.205 1183.11 Q69.6263 1183.78 66.5245 1187 Q63.4226 1190.2 57.7745 1195.96 Z" fill="#000000" fill-rule="nonzero" fill-opacity="1"></path><path clip-path="url(#clip850)" d="M93.9086 1168.41 Q90.2975 1168.41 88.4688 1171.98 Q86.6632 1175.52 86.6632 1182.65 Q86.6632 1189.76 88.4688 1193.32 Q90.2975 1196.86 93.9086 1196.86 Q97.5428 1196.86 99.3483 1193.32 Q101.177 1189.76 101.177 1182.65 Q101.177 1175.52 99.3483 1171.98 Q97.5428 1168.41 93.9086 1168.41 M93.9086 1164.71 Q99.7187 1164.71 102.774 1169.32 Q105.853 1173.9 105.853 1182.65 Q105.853 1191.38 102.774 1195.98 Q99.7187 1200.57 93.9086 1200.57 Q88.0984 1200.57 85.0197 1195.98 Q81.9642 1191.38 81.9642 1182.65 Q81.9642 1173.9 85.0197 1169.32 Q88.0984 1164.71 93.9086 1164.71 Z" fill="#000000" fill-rule="nonzero" fill-opacity="1"></path><path clip-path="url(#clip850)" d="M66.5939 865.578 L54.7884 884.027 L66.5939 884.027 L66.5939 865.578 M65.367 861.504 L71.2466 861.504 L71.2466 884.027 L76.1772 884.027 L76.1772 887.916 L71.2466 887.916 L71.2466 896.064 L66.5939 896.064 L66.5939 887.916 L50.9921 887.916 L50.9921 883.402 L65.367 861.504 Z" fill="#000000" fill-rule="nonzero" fill-opacity="1"></path><path clip-path="url(#clip850)" d="M93.9086 864.583 Q90.2975 864.583 88.4688 868.148 Q86.6632 871.689 86.6632 878.819 Q86.6632 885.925 88.4688 889.49 Q90.2975 893.032 93.9086 893.032 Q97.5428 893.032 99.3483 889.49 Q101.177 885.925 101.177 878.819 Q101.177 871.689 99.3483 868.148 Q97.5428 864.583 93.9086 864.583 M93.9086 860.879 Q99.7187 860.879 102.774 865.486 Q105.853 870.069 105.853 878.819 Q105.853 887.546 102.774 892.152 Q99.7187 896.735 93.9086 896.735 Q88.0984 896.735 85.0197 892.152 Q81.9642 887.546 81.9642 878.819 Q81.9642 870.069 85.0197 865.486 Q88.0984 860.879 93.9086 860.879 Z" fill="#000000" fill-rule="nonzero" fill-opacity="1"></path><path clip-path="url(#clip850)" d="M64.3254 573.089 Q61.1773 573.089 59.3254 575.241 Q57.4967 577.394 57.4967 581.144 Q57.4967 584.871 59.3254 587.047 Q61.1773 589.2 64.3254 589.2 Q67.4735 589.2 69.3022 587.047 Q71.1541 584.871 71.1541 581.144 Q71.1541 577.394 69.3022 575.241 Q67.4735 573.089 64.3254 573.089 M73.6077 558.436 L73.6077 562.695 Q71.8485 561.862 70.0429 561.422 Q68.2606 560.982 66.5013 560.982 Q61.8717 560.982 59.418 564.107 Q56.9875 567.232 56.6402 573.552 Q58.006 571.538 60.0662 570.473 Q62.1263 569.385 64.6032 569.385 Q69.8115 569.385 72.8207 572.556 Q75.8531 575.704 75.8531 581.144 Q75.8531 586.468 72.705 589.686 Q69.5568 592.903 64.3254 592.903 Q58.33 592.903 55.1588 588.32 Q51.9875 583.714 51.9875 574.987 Q51.9875 566.792 55.8764 561.931 Q59.7652 557.047 66.3161 557.047 Q68.0754 557.047 69.8578 557.394 Q71.6633 557.742 73.6077 558.436 Z" fill="#000000" fill-rule="nonzero" fill-opacity="1"></path><path clip-path="url(#clip850)" d="M93.9086 560.751 Q90.2975 560.751 88.4688 564.316 Q86.6632 567.857 86.6632 574.987 Q86.6632 582.093 88.4688 585.658 Q90.2975 589.2 93.9086 589.2 Q97.5428 589.2 99.3483 585.658 Q101.177 582.093 101.177 574.987 Q101.177 567.857 99.3483 564.316 Q97.5428 560.751 93.9086 560.751 M93.9086 557.047 Q99.7187 557.047 102.774 561.654 Q105.853 566.237 105.853 574.987 Q105.853 583.714 102.774 588.32 Q99.7187 592.903 93.9086 592.903 Q88.0984 592.903 85.0197 588.32 Q81.9642 583.714 81.9642 574.987 Q81.9642 566.237 85.0197 561.654 Q88.0984 557.047 93.9086 557.047 Z" fill="#000000" fill-rule="nonzero" fill-opacity="1"></path><path clip-path="url(#clip850)" d="M63.7467 271.988 Q60.4134 271.988 58.4921 273.771 Q56.5939 275.553 56.5939 278.678 Q56.5939 281.803 58.4921 283.585 Q60.4134 285.368 63.7467 285.368 Q67.08 285.368 69.0013 283.585 Q70.9226 281.78 70.9226 278.678 Q70.9226 275.553 69.0013 273.771 Q67.1032 271.988 63.7467 271.988 M59.0708 269.998 Q56.0615 269.257 54.3717 267.197 Q52.7051 265.136 52.7051 262.174 Q52.7051 258.03 55.6449 255.623 Q58.6078 253.215 63.7467 253.215 Q68.9087 253.215 71.8485 255.623 Q74.7883 258.03 74.7883 262.174 Q74.7883 265.136 73.0985 267.197 Q71.4318 269.257 68.4457 269.998 Q71.8253 270.785 73.7003 273.076 Q75.5985 275.368 75.5985 278.678 Q75.5985 283.701 72.5198 286.386 Q69.4642 289.072 63.7467 289.072 Q58.0291 289.072 54.9504 286.386 Q51.8949 283.701 51.8949 278.678 Q51.8949 275.368 53.793 273.076 Q55.6912 270.785 59.0708 269.998 M57.3578 262.613 Q57.3578 265.299 59.0245 266.803 Q60.7143 268.308 63.7467 268.308 Q66.7559 268.308 68.4457 266.803 Q70.1587 265.299 70.1587 262.613 Q70.1587 259.928 68.4457 258.424 Q66.7559 256.919 63.7467 256.919 Q60.7143 256.919 59.0245 258.424 Q57.3578 259.928 57.3578 262.613 Z" fill="#000000" fill-rule="nonzero" fill-opacity="1"></path><path clip-path="url(#clip850)" d="M93.9086 256.919 Q90.2975 256.919 88.4688 260.484 Q86.6632 264.025 86.6632 271.155 Q86.6632 278.261 88.4688 281.826 Q90.2975 285.368 93.9086 285.368 Q97.5428 285.368 99.3483 281.826 Q101.177 278.261 101.177 271.155 Q101.177 264.025 99.3483 260.484 Q97.5428 256.919 93.9086 256.919 M93.9086 253.215 Q99.7187 253.215 102.774 257.822 Q105.853 262.405 105.853 271.155 Q105.853 279.882 102.774 284.488 Q99.7187 289.072 93.9086 289.072 Q88.0984 289.072 85.0197 284.488 Q81.9642 279.882 81.9642 271.155 Q81.9642 262.405 85.0197 257.822 Q88.0984 253.215 93.9086 253.215 Z" fill="#000000" fill-rule="nonzero" fill-opacity="1"></path><path clip-path="url(#clip852)" d="M144.064 47.2441 L144.064 1486.45 L145.169 1486.45 L145.169 47.2441 L144.064 47.2441 L144.064 47.2441  Z" fill="#009af9" fill-rule="evenodd" fill-opacity="1"></path>
<polyline clip-path="url(#clip852)" style="stroke:#000000; stroke-linecap:round; stroke-linejoin:round; stroke-width:4; stroke-opacity:1; fill:none" points="144.064,47.2441 144.064,1486.45 145.169,1486.45 145.169,47.2441 144.064,47.2441 "></polyline>
<path clip-path="url(#clip852)" d="M145.169 1219.93 L145.169 1486.45 L146.275 1486.45 L146.275 1219.93 L145.169 1219.93 L145.169 1219.93  Z" fill="#009af9" fill-rule="evenodd" fill-opacity="1"></path>
<polyline clip-path="url(#clip852)" style="stroke:#000000; stroke-linecap:round; stroke-linejoin:round; stroke-width:4; stroke-opacity:1; fill:none" points="145.169,1219.93 145.169,1486.45 146.275,1486.45 146.275,1219.93 145.169,1219.93 "></polyline>
<path clip-path="url(#clip852)" d="M146.275 1486.45 L146.275 1486.45 L147.38 1486.45 L147.38 1486.45 L146.275 1486.45 L146.275 1486.45  Z" fill="#009af9" fill-rule="evenodd" fill-opacity="1"></path>
<polyline clip-path="url(#clip852)" style="stroke:#000000; stroke-linecap:round; stroke-linejoin:round; stroke-width:4; stroke-opacity:1; fill:none" points="146.275,1486.45 146.275,1486.45 147.38,1486.45 146.275,1486.45 "></polyline>
<path clip-path="url(#clip852)" d="M147.38 1379.84 L147.38 1486.45 L148.486 1486.45 L148.486 1379.84 L147.38 1379.84 L147.38 1379.84  Z" fill="#009af9" fill-rule="evenodd" fill-opacity="1"></path>
<polyline clip-path="url(#clip852)" style="stroke:#000000; stroke-linecap:round; stroke-linejoin:round; stroke-width:4; stroke-opacity:1; fill:none" points="147.38,1379.84 147.38,1486.45 148.486,1486.45 148.486,1379.84 147.38,1379.84 "></polyline>
<path clip-path="url(#clip852)" d="M148.486 260.459 L148.486 1486.45 L149.591 1486.45 L149.591 260.459 L148.486 260.459 L148.486 260.459  Z" fill="#009af9" fill-rule="evenodd" fill-opacity="1"></path>
<polyline clip-path="url(#clip852)" style="stroke:#000000; stroke-linecap:round; stroke-linejoin:round; stroke-width:4; stroke-opacity:1; fill:none" points="148.486,260.459 148.486,1486.45 149.591,1486.45 149.591,260.459 148.486,260.459 "></polyline>
<circle clip-path="url(#clip852)" style="fill:#009af9; stroke:none; fill-opacity:0" cx="144.617" cy="47.2441" r="2"></circle>
<circle clip-path="url(#clip852)" style="fill:#009af9; stroke:none; fill-opacity:0" cx="145.722" cy="1219.93" r="2"></circle>
<circle clip-path="url(#clip852)" style="fill:#009af9; stroke:none; fill-opacity:0" cx="146.827" cy="1486.45" r="2"></circle>
<circle clip-path="url(#clip852)" style="fill:#009af9; stroke:none; fill-opacity:0" cx="147.933" cy="1379.84" r="2"></circle>
<circle clip-path="url(#clip852)" style="fill:#009af9; stroke:none; fill-opacity:0" cx="149.038" cy="260.459" r="2"></circle>
<path clip-path="url(#clip850)" d="M1661.17 198.898 L2279.06 198.898 L2279.06 95.2176 L1661.17 95.2176  Z" fill="#ffffff" fill-rule="evenodd" fill-opacity="1"></path>
<polyline clip-path="url(#clip850)" style="stroke:#000000; stroke-linecap:round; stroke-linejoin:round; stroke-width:4; stroke-opacity:1; fill:none" points="1661.17,198.898 2279.06,198.898 2279.06,95.2176 1661.17,95.2176 1661.17,198.898 "></polyline>
<path clip-path="url(#clip850)" d="M1685.73 167.794 L1833.12 167.794 L1833.12 126.322 L1685.73 126.322 L1685.73 167.794  Z" fill="#009af9" fill-rule="evenodd" fill-opacity="1"></path>
<polyline clip-path="url(#clip850)" style="stroke:#000000; stroke-linecap:round; stroke-linejoin:round; stroke-width:4; stroke-opacity:1; fill:none" points="1685.73,167.794 1833.12,167.794 1833.12,126.322 1685.73,126.322 1685.73,167.794 "></polyline>
<path clip-path="url(#clip850)" d="M1861.97 160.449 L1861.97 174.199 L1857.69 174.199 L1857.69 138.412 L1861.97 138.412 L1861.97 142.347 Q1863.32 140.032 1865.35 138.921 Q1867.41 137.787 1870.26 137.787 Q1874.98 137.787 1877.92 141.537 Q1880.88 145.287 1880.88 151.398 Q1880.88 157.509 1877.92 161.259 Q1874.98 165.009 1870.26 165.009 Q1867.41 165.009 1865.35 163.898 Q1863.32 162.763 1861.97 160.449 M1876.46 151.398 Q1876.46 146.699 1874.52 144.037 Q1872.6 141.352 1869.22 141.352 Q1865.84 141.352 1863.89 144.037 Q1861.97 146.699 1861.97 151.398 Q1861.97 156.097 1863.89 158.782 Q1865.84 161.444 1869.22 161.444 Q1872.6 161.444 1874.52 158.782 Q1876.46 156.097 1876.46 151.398 Z" fill="#000000" fill-rule="nonzero" fill-opacity="1"></path><path clip-path="url(#clip850)" d="M1897.99 141.398 Q1894.56 141.398 1892.57 144.083 Q1890.58 146.745 1890.58 151.398 Q1890.58 156.051 1892.55 158.736 Q1894.54 161.398 1897.99 161.398 Q1901.39 161.398 1903.38 158.713 Q1905.38 156.027 1905.38 151.398 Q1905.38 146.791 1903.38 144.106 Q1901.39 141.398 1897.99 141.398 M1897.99 137.787 Q1903.55 137.787 1906.72 141.398 Q1909.89 145.009 1909.89 151.398 Q1909.89 157.764 1906.72 161.398 Q1903.55 165.009 1897.99 165.009 Q1892.41 165.009 1889.24 161.398 Q1886.09 157.764 1886.09 151.398 Q1886.09 145.009 1889.24 141.398 Q1892.41 137.787 1897.99 137.787 Z" fill="#000000" fill-rule="nonzero" fill-opacity="1"></path><path clip-path="url(#clip850)" d="M1933.48 139.176 L1933.48 143.203 Q1931.67 142.277 1929.73 141.815 Q1927.78 141.352 1925.7 141.352 Q1922.53 141.352 1920.93 142.324 Q1919.36 143.296 1919.36 145.24 Q1919.36 146.722 1920.49 147.578 Q1921.62 148.412 1925.05 149.176 L1926.51 149.5 Q1931.05 150.472 1932.94 152.254 Q1934.87 154.014 1934.87 157.185 Q1934.87 160.796 1932 162.902 Q1929.15 165.009 1924.15 165.009 Q1922.06 165.009 1919.8 164.592 Q1917.55 164.199 1915.05 163.388 L1915.05 158.99 Q1917.41 160.217 1919.7 160.842 Q1922 161.444 1924.24 161.444 Q1927.25 161.444 1928.87 160.426 Q1930.49 159.384 1930.49 157.509 Q1930.49 155.773 1929.31 154.847 Q1928.15 153.921 1924.19 153.064 L1922.71 152.717 Q1918.75 151.884 1917 150.171 Q1915.24 148.435 1915.24 145.426 Q1915.24 141.768 1917.83 139.778 Q1920.42 137.787 1925.19 137.787 Q1927.55 137.787 1929.63 138.134 Q1931.72 138.481 1933.48 139.176 Z" fill="#000000" fill-rule="nonzero" fill-opacity="1"></path><path clip-path="url(#clip850)" d="M1945.86 131.051 L1945.86 138.412 L1954.63 138.412 L1954.63 141.722 L1945.86 141.722 L1945.86 155.796 Q1945.86 158.967 1946.72 159.87 Q1947.6 160.773 1950.26 160.773 L1954.63 160.773 L1954.63 164.338 L1950.26 164.338 Q1945.33 164.338 1943.45 162.509 Q1941.58 160.657 1941.58 155.796 L1941.58 141.722 L1938.45 141.722 L1938.45 138.412 L1941.58 138.412 L1941.58 131.051 L1945.86 131.051 Z" fill="#000000" fill-rule="nonzero" fill-opacity="1"></path><path clip-path="url(#clip850)" d="M1982.41 150.31 L1982.41 152.393 L1962.83 152.393 Q1963.11 156.791 1965.47 159.106 Q1967.85 161.398 1972.09 161.398 Q1974.54 161.398 1976.83 160.796 Q1979.15 160.194 1981.42 158.99 L1981.42 163.018 Q1979.12 163.99 1976.72 164.5 Q1974.31 165.009 1971.83 165.009 Q1965.63 165.009 1962 161.398 Q1958.38 157.787 1958.38 151.629 Q1958.38 145.264 1961.81 141.537 Q1965.26 137.787 1971.09 137.787 Q1976.32 137.787 1979.36 141.166 Q1982.41 144.523 1982.41 150.31 M1978.15 149.06 Q1978.11 145.565 1976.18 143.481 Q1974.29 141.398 1971.14 141.398 Q1967.57 141.398 1965.42 143.412 Q1963.29 145.426 1962.97 149.083 L1978.15 149.06 Z" fill="#000000" fill-rule="nonzero" fill-opacity="1"></path><path clip-path="url(#clip850)" d="M2004.43 142.393 Q2003.71 141.977 2002.85 141.791 Q2002.02 141.583 2001 141.583 Q1997.39 141.583 1995.44 143.944 Q1993.52 146.282 1993.52 150.68 L1993.52 164.338 L1989.24 164.338 L1989.24 138.412 L1993.52 138.412 L1993.52 142.44 Q1994.87 140.078 1997.02 138.944 Q1999.17 137.787 2002.25 137.787 Q2002.69 137.787 2003.22 137.856 Q2003.75 137.903 2004.4 138.018 L2004.43 142.393 Z" fill="#000000" fill-rule="nonzero" fill-opacity="1"></path><path clip-path="url(#clip850)" d="M2008.89 138.412 L2013.15 138.412 L2013.15 164.338 L2008.89 164.338 L2008.89 138.412 M2008.89 128.319 L2013.15 128.319 L2013.15 133.713 L2008.89 133.713 L2008.89 128.319 Z" fill="#000000" fill-rule="nonzero" fill-opacity="1"></path><path clip-path="url(#clip850)" d="M2032.11 141.398 Q2028.68 141.398 2026.69 144.083 Q2024.7 146.745 2024.7 151.398 Q2024.7 156.051 2026.67 158.736 Q2028.66 161.398 2032.11 161.398 Q2035.51 161.398 2037.5 158.713 Q2039.49 156.027 2039.49 151.398 Q2039.49 146.791 2037.5 144.106 Q2035.51 141.398 2032.11 141.398 M2032.11 137.787 Q2037.67 137.787 2040.84 141.398 Q2044.01 145.009 2044.01 151.398 Q2044.01 157.764 2040.84 161.398 Q2037.67 165.009 2032.11 165.009 Q2026.53 165.009 2023.36 161.398 Q2020.21 157.764 2020.21 151.398 Q2020.21 145.009 2023.36 141.398 Q2026.53 137.787 2032.11 137.787 Z" fill="#000000" fill-rule="nonzero" fill-opacity="1"></path><path clip-path="url(#clip850)" d="M2066.09 142.393 Q2065.37 141.977 2064.52 141.791 Q2063.68 141.583 2062.67 141.583 Q2059.05 141.583 2057.11 143.944 Q2055.19 146.282 2055.19 150.68 L2055.19 164.338 L2050.91 164.338 L2050.91 138.412 L2055.19 138.412 L2055.19 142.44 Q2056.53 140.078 2058.68 138.944 Q2060.84 137.787 2063.92 137.787 Q2064.36 137.787 2064.89 137.856 Q2065.42 137.903 2066.07 138.018 L2066.09 142.393 Z" fill="#000000" fill-rule="nonzero" fill-opacity="1"></path><path clip-path="url(#clip850)" d="M2085.63 128.319 L2089.89 128.319 L2089.89 164.338 L2085.63 164.338 L2085.63 128.319 Z" fill="#000000" fill-rule="nonzero" fill-opacity="1"></path><path clip-path="url(#clip850)" d="M2110.58 151.305 Q2105.42 151.305 2103.43 152.486 Q2101.44 153.666 2101.44 156.514 Q2101.44 158.782 2102.92 160.125 Q2104.42 161.444 2106.99 161.444 Q2110.54 161.444 2112.67 158.944 Q2114.82 156.421 2114.82 152.254 L2114.82 151.305 L2110.58 151.305 M2119.08 149.546 L2119.08 164.338 L2114.82 164.338 L2114.82 160.402 Q2113.36 162.763 2111.18 163.898 Q2109.01 165.009 2105.86 165.009 Q2101.88 165.009 2099.52 162.787 Q2097.18 160.541 2097.18 156.791 Q2097.18 152.416 2100.1 150.194 Q2103.04 147.972 2108.85 147.972 L2114.82 147.972 L2114.82 147.555 Q2114.82 144.615 2112.87 143.018 Q2110.95 141.398 2107.46 141.398 Q2105.24 141.398 2103.13 141.93 Q2101.02 142.463 2099.08 143.527 L2099.08 139.592 Q2101.42 138.69 2103.61 138.25 Q2105.81 137.787 2107.9 137.787 Q2113.52 137.787 2116.3 140.703 Q2119.08 143.62 2119.08 149.546 Z" fill="#000000" fill-rule="nonzero" fill-opacity="1"></path><path clip-path="url(#clip850)" d="M2148.04 143.389 Q2149.63 140.518 2151.86 139.153 Q2154.08 137.787 2157.09 137.787 Q2161.14 137.787 2163.34 140.634 Q2165.54 143.458 2165.54 148.689 L2165.54 164.338 L2161.25 164.338 L2161.25 148.828 Q2161.25 145.102 2159.93 143.296 Q2158.61 141.49 2155.91 141.49 Q2152.6 141.49 2150.67 143.69 Q2148.75 145.889 2148.75 149.685 L2148.75 164.338 L2144.47 164.338 L2144.47 148.828 Q2144.47 145.078 2143.15 143.296 Q2141.83 141.49 2139.08 141.49 Q2135.81 141.49 2133.89 143.713 Q2131.97 145.912 2131.97 149.685 L2131.97 164.338 L2127.69 164.338 L2127.69 138.412 L2131.97 138.412 L2131.97 142.44 Q2133.43 140.055 2135.47 138.921 Q2137.5 137.787 2140.3 137.787 Q2143.13 137.787 2145.1 139.222 Q2147.09 140.657 2148.04 143.389 Z" fill="#000000" fill-rule="nonzero" fill-opacity="1"></path><path clip-path="url(#clip850)" d="M2192.64 151.398 Q2192.64 146.699 2190.7 144.037 Q2188.78 141.352 2185.4 141.352 Q2182.02 141.352 2180.07 144.037 Q2178.15 146.699 2178.15 151.398 Q2178.15 156.097 2180.07 158.782 Q2182.02 161.444 2185.4 161.444 Q2188.78 161.444 2190.7 158.782 Q2192.64 156.097 2192.64 151.398 M2178.15 142.347 Q2179.49 140.032 2181.53 138.921 Q2183.59 137.787 2186.44 137.787 Q2191.16 137.787 2194.1 141.537 Q2197.06 145.287 2197.06 151.398 Q2197.06 157.509 2194.1 161.259 Q2191.16 165.009 2186.44 165.009 Q2183.59 165.009 2181.53 163.898 Q2179.49 162.763 2178.15 160.449 L2178.15 164.338 L2173.87 164.338 L2173.87 128.319 L2178.15 128.319 L2178.15 142.347 Z" fill="#000000" fill-rule="nonzero" fill-opacity="1"></path><path clip-path="url(#clip850)" d="M2221.18 142.347 L2221.18 128.319 L2225.44 128.319 L2225.44 164.338 L2221.18 164.338 L2221.18 160.449 Q2219.84 162.763 2217.78 163.898 Q2215.74 165.009 2212.87 165.009 Q2208.17 165.009 2205.21 161.259 Q2202.27 157.509 2202.27 151.398 Q2202.27 145.287 2205.21 141.537 Q2208.17 137.787 2212.87 137.787 Q2215.74 137.787 2217.78 138.921 Q2219.84 140.032 2221.18 142.347 M2206.67 151.398 Q2206.67 156.097 2208.59 158.782 Q2210.54 161.444 2213.92 161.444 Q2217.29 161.444 2219.24 158.782 Q2221.18 156.097 2221.18 151.398 Q2221.18 146.699 2219.24 144.037 Q2217.29 141.352 2213.92 141.352 Q2210.54 141.352 2208.59 144.037 Q2206.67 146.699 2206.67 151.398 Z" fill="#000000" fill-rule="nonzero" fill-opacity="1"></path><path clip-path="url(#clip850)" d="M2246 151.305 Q2240.84 151.305 2238.85 152.486 Q2236.85 153.666 2236.85 156.514 Q2236.85 158.782 2238.34 160.125 Q2239.84 161.444 2242.41 161.444 Q2245.95 161.444 2248.08 158.944 Q2250.23 156.421 2250.23 152.254 L2250.23 151.305 L2246 151.305 M2254.49 149.546 L2254.49 164.338 L2250.23 164.338 L2250.23 160.402 Q2248.78 162.763 2246.6 163.898 Q2244.42 165.009 2241.28 165.009 Q2237.29 165.009 2234.93 162.787 Q2232.6 160.541 2232.6 156.791 Q2232.6 152.416 2235.51 150.194 Q2238.45 147.972 2244.26 147.972 L2250.23 147.972 L2250.23 147.555 Q2250.23 144.615 2248.29 143.018 Q2246.37 141.398 2242.87 141.398 Q2240.65 141.398 2238.54 141.93 Q2236.44 142.463 2234.49 143.527 L2234.49 139.592 Q2236.83 138.69 2239.03 138.25 Q2241.23 137.787 2243.31 137.787 Q2248.94 137.787 2251.72 140.703 Q2254.49 143.62 2254.49 149.546 Z" fill="#000000" fill-rule="nonzero" fill-opacity="1"></path></svg>