<svg xmlns="http://www.w3.org/2000/svg" xmlns:xlink="http://www.w3.org/1999/xlink" width="600" height="400" viewBox="0 0 2400 1600">
<defs>
  <clipPath id="clip650">
    <rect x="0" y="0" width="2400" height="1600"></rect>
  </clipPath>
</defs>
<path clip-path="url(#clip650)" d="M0 1600 L2400 1600 L2400 0 L0 0  Z" fill="#ffffff" fill-rule="evenodd" fill-opacity="1"></path>
<defs>
  <clipPath id="clip651">
    <rect x="480" y="0" width="1681" height="1600"></rect>
  </clipPath>
</defs>
<path clip-path="url(#clip650)" d="M156.598 1486.45 L2352.76 1486.45 L2352.76 47.2441 L156.598 47.2441  Z" fill="#ffffff" fill-rule="evenodd" fill-opacity="1"></path>
<defs>
  <clipPath id="clip652">
    <rect x="156" y="47" width="2197" height="1440"></rect>
  </clipPath>
</defs>
<polyline clip-path="url(#clip652)" style="stroke:#000000; stroke-linecap:round; stroke-linejoin:round; stroke-width:2; stroke-opacity:0.1; fill:none" points="156.598,1486.45 156.598,47.2441 "></polyline>
<polyline clip-path="url(#clip652)" style="stroke:#000000; stroke-linecap:round; stroke-linejoin:round; stroke-width:2; stroke-opacity:0.1; fill:none" points="705.638,1486.45 705.638,47.2441 "></polyline>
<polyline clip-path="url(#clip652)" style="stroke:#000000; stroke-linecap:round; stroke-linejoin:round; stroke-width:2; stroke-opacity:0.1; fill:none" points="1254.68,1486.45 1254.68,47.2441 "></polyline>
<polyline clip-path="url(#clip652)" style="stroke:#000000; stroke-linecap:round; stroke-linejoin:round; stroke-width:2; stroke-opacity:0.1; fill:none" points="1803.72,1486.45 1803.72,47.2441 "></polyline>
<polyline clip-path="url(#clip652)" style="stroke:#000000; stroke-linecap:round; stroke-linejoin:round; stroke-width:2; stroke-opacity:0.1; fill:none" points="2352.76,1486.45 2352.76,47.2441 "></polyline>
<polyline clip-path="url(#clip650)" style="stroke:#000000; stroke-linecap:round; stroke-linejoin:round; stroke-width:4; stroke-opacity:1; fill:none" points="156.598,1486.45 2352.76,1486.45 "></polyline>
<polyline clip-path="url(#clip650)" style="stroke:#000000; stroke-linecap:round; stroke-linejoin:round; stroke-width:4; stroke-opacity:1; fill:none" points="156.598,1486.45 156.598,1467.55 "></polyline>
<polyline clip-path="url(#clip650)" style="stroke:#000000; stroke-linecap:round; stroke-linejoin:round; stroke-width:4; stroke-opacity:1; fill:none" points="705.638,1486.45 705.638,1467.55 "></polyline>
<polyline clip-path="url(#clip650)" style="stroke:#000000; stroke-linecap:round; stroke-linejoin:round; stroke-width:4; stroke-opacity:1; fill:none" points="1254.68,1486.45 1254.68,1467.55 "></polyline>
<polyline clip-path="url(#clip650)" style="stroke:#000000; stroke-linecap:round; stroke-linejoin:round; stroke-width:4; stroke-opacity:1; fill:none" points="1803.72,1486.45 1803.72,1467.55 "></polyline>
<polyline clip-path="url(#clip650)" style="stroke:#000000; stroke-linecap:round; stroke-linejoin:round; stroke-width:4; stroke-opacity:1; fill:none" points="2352.76,1486.45 2352.76,1467.55 "></polyline>
<path clip-path="url(#clip650)" d="M110.661 1532.02 L140.337 1532.02 L140.337 1535.95 L110.661 1535.95 L110.661 1532.02 Z" fill="#000000" fill-rule="nonzero" fill-opacity="1"></path><path clip-path="url(#clip650)" d="M151.239 1544.91 L158.878 1544.91 L158.878 1518.55 L150.568 1520.21 L150.568 1515.95 L158.832 1514.29 L163.508 1514.29 L163.508 1544.91 L171.147 1544.91 L171.147 1548.85 L151.239 1548.85 L151.239 1544.91 Z" fill="#000000" fill-rule="nonzero" fill-opacity="1"></path><path clip-path="url(#clip650)" d="M190.591 1517.37 Q186.98 1517.37 185.151 1520.93 Q183.346 1524.47 183.346 1531.6 Q183.346 1538.71 185.151 1542.27 Q186.98 1545.82 190.591 1545.82 Q194.225 1545.82 196.031 1542.27 Q197.86 1538.71 197.86 1531.6 Q197.86 1524.47 196.031 1520.93 Q194.225 1517.37 190.591 1517.37 M190.591 1513.66 Q196.401 1513.66 199.457 1518.27 Q202.535 1522.85 202.535 1531.6 Q202.535 1540.33 199.457 1544.94 Q196.401 1549.52 190.591 1549.52 Q184.781 1549.52 181.702 1544.94 Q178.647 1540.33 178.647 1531.6 Q178.647 1522.85 181.702 1518.27 Q184.781 1513.66 190.591 1513.66 Z" fill="#000000" fill-rule="nonzero" fill-opacity="1"></path><path clip-path="url(#clip650)" d="M675.279 1532.02 L704.955 1532.02 L704.955 1535.95 L675.279 1535.95 L675.279 1532.02 Z" fill="#000000" fill-rule="nonzero" fill-opacity="1"></path><path clip-path="url(#clip650)" d="M715.094 1514.29 L733.45 1514.29 L733.45 1518.22 L719.376 1518.22 L719.376 1526.7 Q720.395 1526.35 721.413 1526.19 Q722.432 1526 723.45 1526 Q729.237 1526 732.617 1529.17 Q735.996 1532.34 735.996 1537.76 Q735.996 1543.34 732.524 1546.44 Q729.052 1549.52 722.732 1549.52 Q720.557 1549.52 718.288 1549.15 Q716.043 1548.78 713.635 1548.04 L713.635 1543.34 Q715.719 1544.47 717.941 1545.03 Q720.163 1545.58 722.64 1545.58 Q726.644 1545.58 728.982 1543.48 Q731.32 1541.37 731.32 1537.76 Q731.32 1534.15 728.982 1532.04 Q726.644 1529.94 722.64 1529.94 Q720.765 1529.94 718.89 1530.35 Q717.038 1530.77 715.094 1531.65 L715.094 1514.29 Z" fill="#000000" fill-rule="nonzero" fill-opacity="1"></path><path clip-path="url(#clip650)" d="M1254.68 1517.37 Q1251.07 1517.37 1249.24 1520.93 Q1247.43 1524.47 1247.43 1531.6 Q1247.43 1538.71 1249.24 1542.27 Q1251.07 1545.82 1254.68 1545.82 Q1258.31 1545.82 1260.12 1542.27 Q1261.95 1538.71 1261.95 1531.6 Q1261.95 1524.47 1260.12 1520.93 Q1258.31 1517.37 1254.68 1517.37 M1254.68 1513.66 Q1260.49 1513.66 1263.54 1518.27 Q1266.62 1522.85 1266.62 1531.6 Q1266.62 1540.33 1263.54 1544.94 Q1260.49 1549.52 1254.68 1549.52 Q1248.87 1549.52 1245.79 1544.94 Q1242.73 1540.33 1242.73 1531.6 Q1242.73 1522.85 1245.79 1518.27 Q1248.87 1513.66 1254.68 1513.66 Z" fill="#000000" fill-rule="nonzero" fill-opacity="1"></path><path clip-path="url(#clip650)" d="M1793.99 1514.29 L1812.35 1514.29 L1812.35 1518.22 L1798.28 1518.22 L1798.28 1526.7 Q1799.3 1526.35 1800.31 1526.19 Q1801.33 1526 1802.35 1526 Q1808.14 1526 1811.52 1529.17 Q1814.9 1532.34 1814.9 1537.76 Q1814.9 1543.34 1811.42 1546.44 Q1807.95 1549.52 1801.63 1549.52 Q1799.46 1549.52 1797.19 1549.15 Q1794.94 1548.78 1792.54 1548.04 L1792.54 1543.34 Q1794.62 1544.47 1796.84 1545.03 Q1799.06 1545.58 1801.54 1545.58 Q1805.55 1545.58 1807.88 1543.48 Q1810.22 1541.37 1810.22 1537.76 Q1810.22 1534.15 1807.88 1532.04 Q1805.55 1529.94 1801.54 1529.94 Q1799.67 1529.94 1797.79 1530.35 Q1795.94 1530.77 1793.99 1531.65 L1793.99 1514.29 Z" fill="#000000" fill-rule="nonzero" fill-opacity="1"></path><path clip-path="url(#clip650)" d="M2327.44 1544.91 L2335.08 1544.91 L2335.08 1518.55 L2326.77 1520.21 L2326.77 1515.95 L2335.04 1514.29 L2339.71 1514.29 L2339.71 1544.91 L2347.35 1544.91 L2347.35 1548.85 L2327.44 1548.85 L2327.44 1544.91 Z" fill="#000000" fill-rule="nonzero" fill-opacity="1"></path><path clip-path="url(#clip650)" d="M2366.8 1517.37 Q2363.18 1517.37 2361.36 1520.93 Q2359.55 1524.47 2359.55 1531.6 Q2359.55 1538.71 2361.36 1542.27 Q2363.18 1545.82 2366.8 1545.82 Q2370.43 1545.82 2372.23 1542.27 Q2374.06 1538.71 2374.06 1531.6 Q2374.06 1524.47 2372.23 1520.93 Q2370.43 1517.37 2366.8 1517.37 M2366.8 1513.66 Q2372.61 1513.66 2375.66 1518.27 Q2378.74 1522.85 2378.74 1531.6 Q2378.74 1540.33 2375.66 1544.94 Q2372.61 1549.52 2366.8 1549.52 Q2360.99 1549.52 2357.91 1544.94 Q2354.85 1540.33 2354.85 1531.6 Q2354.85 1522.85 2357.91 1518.27 Q2360.99 1513.66 2366.8 1513.66 Z" fill="#000000" fill-rule="nonzero" fill-opacity="1"></path><polyline clip-path="url(#clip652)" style="stroke:#000000; stroke-linecap:round; stroke-linejoin:round; stroke-width:2; stroke-opacity:0.1; fill:none" points="156.598,1486.45 2352.76,1486.45 "></polyline>
<polyline clip-path="url(#clip652)" style="stroke:#000000; stroke-linecap:round; stroke-linejoin:round; stroke-width:2; stroke-opacity:0.1; fill:none" points="156.598,1129.78 2352.76,1129.78 "></polyline>
<polyline clip-path="url(#clip652)" style="stroke:#000000; stroke-linecap:round; stroke-linejoin:round; stroke-width:2; stroke-opacity:0.1; fill:none" points="156.598,773.103 2352.76,773.103 "></polyline>
<polyline clip-path="url(#clip652)" style="stroke:#000000; stroke-linecap:round; stroke-linejoin:round; stroke-width:2; stroke-opacity:0.1; fill:none" points="156.598,416.431 2352.76,416.431 "></polyline>
<polyline clip-path="url(#clip652)" style="stroke:#000000; stroke-linecap:round; stroke-linejoin:round; stroke-width:2; stroke-opacity:0.1; fill:none" points="156.598,59.7589 2352.76,59.7589 "></polyline>
<polyline clip-path="url(#clip650)" style="stroke:#000000; stroke-linecap:round; stroke-linejoin:round; stroke-width:4; stroke-opacity:1; fill:none" points="156.598,1486.45 156.598,47.2441 "></polyline>
<polyline clip-path="url(#clip650)" style="stroke:#000000; stroke-linecap:round; stroke-linejoin:round; stroke-width:4; stroke-opacity:1; fill:none" points="156.598,1486.45 175.496,1486.45 "></polyline>
<polyline clip-path="url(#clip650)" style="stroke:#000000; stroke-linecap:round; stroke-linejoin:round; stroke-width:4; stroke-opacity:1; fill:none" points="156.598,1129.78 175.496,1129.78 "></polyline>
<polyline clip-path="url(#clip650)" style="stroke:#000000; stroke-linecap:round; stroke-linejoin:round; stroke-width:4; stroke-opacity:1; fill:none" points="156.598,773.103 175.496,773.103 "></polyline>
<polyline clip-path="url(#clip650)" style="stroke:#000000; stroke-linecap:round; stroke-linejoin:round; stroke-width:4; stroke-opacity:1; fill:none" points="156.598,416.431 175.496,416.431 "></polyline>
<polyline clip-path="url(#clip650)" style="stroke:#000000; stroke-linecap:round; stroke-linejoin:round; stroke-width:4; stroke-opacity:1; fill:none" points="156.598,59.7589 175.496,59.7589 "></polyline>
<path clip-path="url(#clip650)" d="M63.4226 1472.25 Q59.8115 1472.25 57.9828 1475.81 Q56.1773 1479.35 56.1773 1486.48 Q56.1773 1493.59 57.9828 1497.15 Q59.8115 1500.7 63.4226 1500.7 Q67.0569 1500.7 68.8624 1497.15 Q70.6911 1493.59 70.6911 1486.48 Q70.6911 1479.35 68.8624 1475.81 Q67.0569 1472.25 63.4226 1472.25 M63.4226 1468.54 Q69.2328 1468.54 72.2883 1473.15 Q75.367 1477.73 75.367 1486.48 Q75.367 1495.21 72.2883 1499.82 Q69.2328 1504.4 63.4226 1504.4 Q57.6125 1504.4 54.5338 1499.82 Q51.4782 1495.21 51.4782 1486.48 Q51.4782 1477.73 54.5338 1473.15 Q57.6125 1468.54 63.4226 1468.54 Z" fill="#000000" fill-rule="nonzero" fill-opacity="1"></path><path clip-path="url(#clip650)" d="M83.5845 1497.85 L88.4688 1497.85 L88.4688 1503.73 L83.5845 1503.73 L83.5845 1497.85 Z" fill="#000000" fill-rule="nonzero" fill-opacity="1"></path><path clip-path="url(#clip650)" d="M108.654 1472.25 Q105.043 1472.25 103.214 1475.81 Q101.409 1479.35 101.409 1486.48 Q101.409 1493.59 103.214 1497.15 Q105.043 1500.7 108.654 1500.7 Q112.288 1500.7 114.094 1497.15 Q115.922 1493.59 115.922 1486.48 Q115.922 1479.35 114.094 1475.81 Q112.288 1472.25 108.654 1472.25 M108.654 1468.54 Q114.464 1468.54 117.52 1473.15 Q120.598 1477.73 120.598 1486.48 Q120.598 1495.21 117.52 1499.82 Q114.464 1504.4 108.654 1504.4 Q102.844 1504.4 99.765 1499.82 Q96.7095 1495.21 96.7095 1486.48 Q96.7095 1477.73 99.765 1473.15 Q102.844 1468.54 108.654 1468.54 Z" fill="#000000" fill-rule="nonzero" fill-opacity="1"></path><path clip-path="url(#clip650)" d="M64.6495 1115.57 Q61.0384 1115.57 59.2097 1119.14 Q57.4041 1122.68 57.4041 1129.81 Q57.4041 1136.92 59.2097 1140.48 Q61.0384 1144.02 64.6495 1144.02 Q68.2837 1144.02 70.0892 1140.48 Q71.9179 1136.92 71.9179 1129.81 Q71.9179 1122.68 70.0892 1119.14 Q68.2837 1115.57 64.6495 1115.57 M64.6495 1111.87 Q70.4596 1111.87 73.5152 1116.48 Q76.5938 1121.06 76.5938 1129.81 Q76.5938 1138.54 73.5152 1143.14 Q70.4596 1147.73 64.6495 1147.73 Q58.8393 1147.73 55.7606 1143.14 Q52.7051 1138.54 52.7051 1129.81 Q52.7051 1121.06 55.7606 1116.48 Q58.8393 1111.87 64.6495 1111.87 Z" fill="#000000" fill-rule="nonzero" fill-opacity="1"></path><path clip-path="url(#clip650)" d="M84.8114 1141.18 L89.6956 1141.18 L89.6956 1147.06 L84.8114 1147.06 L84.8114 1141.18 Z" fill="#000000" fill-rule="nonzero" fill-opacity="1"></path><path clip-path="url(#clip650)" d="M100.691 1143.12 L108.33 1143.12 L108.33 1116.75 L100.02 1118.42 L100.02 1114.16 L108.283 1112.5 L112.959 1112.5 L112.959 1143.12 L120.598 1143.12 L120.598 1147.06 L100.691 1147.06 L100.691 1143.12 Z" fill="#000000" fill-rule="nonzero" fill-opacity="1"></path><path clip-path="url(#clip650)" d="M65.0198 758.902 Q61.4087 758.902 59.58 762.467 Q57.7745 766.009 57.7745 773.138 Q57.7745 780.245 59.58 783.809 Q61.4087 787.351 65.0198 787.351 Q68.6541 787.351 70.4596 783.809 Q72.2883 780.245 72.2883 773.138 Q72.2883 766.009 70.4596 762.467 Q68.6541 758.902 65.0198 758.902 M65.0198 755.198 Q70.83 755.198 73.8855 759.805 Q76.9642 764.388 76.9642 773.138 Q76.9642 781.865 73.8855 786.471 Q70.83 791.055 65.0198 791.055 Q59.2097 791.055 56.131 786.471 Q53.0754 781.865 53.0754 773.138 Q53.0754 764.388 56.131 759.805 Q59.2097 755.198 65.0198 755.198 Z" fill="#000000" fill-rule="nonzero" fill-opacity="1"></path><path clip-path="url(#clip650)" d="M85.1818 784.504 L90.066 784.504 L90.066 790.383 L85.1818 790.383 L85.1818 784.504 Z" fill="#000000" fill-rule="nonzero" fill-opacity="1"></path><path clip-path="url(#clip650)" d="M104.279 786.448 L120.598 786.448 L120.598 790.383 L98.6539 790.383 L98.6539 786.448 Q101.316 783.694 105.899 779.064 Q110.506 774.411 111.686 773.069 Q113.932 770.546 114.811 768.809 Q115.714 767.05 115.714 765.36 Q115.714 762.606 113.77 760.87 Q111.848 759.134 108.746 759.134 Q106.547 759.134 104.094 759.897 Q101.663 760.661 98.8854 762.212 L98.8854 757.49 Q101.709 756.356 104.163 755.777 Q106.617 755.198 108.654 755.198 Q114.024 755.198 117.219 757.884 Q120.413 760.569 120.413 765.059 Q120.413 767.189 119.603 769.11 Q118.816 771.008 116.709 773.601 Q116.131 774.272 113.029 777.49 Q109.927 780.684 104.279 786.448 Z" fill="#000000" fill-rule="nonzero" fill-opacity="1"></path><path clip-path="url(#clip650)" d="M64.0708 402.23 Q60.4597 402.23 58.631 405.795 Q56.8254 409.336 56.8254 416.466 Q56.8254 423.572 58.631 427.137 Q60.4597 430.679 64.0708 430.679 Q67.705 430.679 69.5105 427.137 Q71.3392 423.572 71.3392 416.466 Q71.3392 409.336 69.5105 405.795 Q67.705 402.23 64.0708 402.23 M64.0708 398.526 Q69.8809 398.526 72.9365 403.133 Q76.0151 407.716 76.0151 416.466 Q76.0151 425.193 72.9365 429.799 Q69.8809 434.382 64.0708 434.382 Q58.2606 434.382 55.1819 429.799 Q52.1264 425.193 52.1264 416.466 Q52.1264 407.716 55.1819 403.133 Q58.2606 398.526 64.0708 398.526 Z" fill="#000000" fill-rule="nonzero" fill-opacity="1"></path><path clip-path="url(#clip650)" d="M84.2327 427.832 L89.1169 427.832 L89.1169 433.711 L84.2327 433.711 L84.2327 427.832 Z" fill="#000000" fill-rule="nonzero" fill-opacity="1"></path><path clip-path="url(#clip650)" d="M113.469 415.077 Q116.825 415.795 118.7 418.063 Q120.598 420.332 120.598 423.665 Q120.598 428.781 117.08 431.582 Q113.561 434.382 107.08 434.382 Q104.904 434.382 102.589 433.943 Q100.297 433.526 97.8437 432.669 L97.8437 428.156 Q99.7882 429.29 102.103 429.869 Q104.418 430.447 106.941 430.447 Q111.339 430.447 113.631 428.711 Q115.945 426.975 115.945 423.665 Q115.945 420.609 113.793 418.896 Q111.663 417.16 107.844 417.16 L103.816 417.16 L103.816 413.318 L108.029 413.318 Q111.478 413.318 113.307 411.952 Q115.135 410.563 115.135 407.971 Q115.135 405.309 113.237 403.896 Q111.362 402.461 107.844 402.461 Q105.922 402.461 103.723 402.878 Q101.524 403.295 98.8854 404.174 L98.8854 400.008 Q101.547 399.267 103.862 398.897 Q106.2 398.526 108.26 398.526 Q113.584 398.526 116.686 400.957 Q119.788 403.364 119.788 407.484 Q119.788 410.355 118.145 412.346 Q116.501 414.313 113.469 415.077 Z" fill="#000000" fill-rule="nonzero" fill-opacity="1"></path><path clip-path="url(#clip650)" d="M62.9365 45.5576 Q59.3254 45.5576 57.4967 49.1224 Q55.6912 52.664 55.6912 59.7936 Q55.6912 66.9001 57.4967 70.4649 Q59.3254 74.0065 62.9365 74.0065 Q66.5707 74.0065 68.3763 70.4649 Q70.205 66.9001 70.205 59.7936 Q70.205 52.664 68.3763 49.1224 Q66.5707 45.5576 62.9365 45.5576 M62.9365 41.8539 Q68.7467 41.8539 71.8022 46.4604 Q74.8809 51.0437 74.8809 59.7936 Q74.8809 68.5204 71.8022 73.1269 Q68.7467 77.7102 62.9365 77.7102 Q57.1264 77.7102 54.0477 73.1269 Q50.9921 68.5204 50.9921 59.7936 Q50.9921 51.0437 54.0477 46.4604 Q57.1264 41.8539 62.9365 41.8539 Z" fill="#000000" fill-rule="nonzero" fill-opacity="1"></path><path clip-path="url(#clip650)" d="M83.0984 71.1593 L87.9827 71.1593 L87.9827 77.0389 L83.0984 77.0389 L83.0984 71.1593 Z" fill="#000000" fill-rule="nonzero" fill-opacity="1"></path><path clip-path="url(#clip650)" d="M111.015 46.553 L99.2095 65.0019 L111.015 65.0019 L111.015 46.553 M109.788 42.4789 L115.668 42.4789 L115.668 65.0019 L120.598 65.0019 L120.598 68.8908 L115.668 68.8908 L115.668 77.0389 L111.015 77.0389 L111.015 68.8908 L95.4132 68.8908 L95.4132 64.3769 L109.788 42.4789 Z" fill="#000000" fill-rule="nonzero" fill-opacity="1"></path><path clip-path="url(#clip652)" d="M376.214 47.2441 L376.214 1486.45 L486.022 1486.45 L486.022 47.2441 L376.214 47.2441 L376.214 47.2441  Z" fill="#009af9" fill-rule="evenodd" fill-opacity="1"></path>
<polyline clip-path="url(#clip652)" style="stroke:#000000; stroke-linecap:round; stroke-linejoin:round; stroke-width:4; stroke-opacity:1; fill:none" points="376.214,47.2441 376.214,1486.45 486.022,1486.45 486.022,47.2441 376.214,47.2441 "></polyline>
<path clip-path="url(#clip652)" d="M486.022 1486.45 L486.022 1486.45 L595.83 1486.45 L595.83 1486.45 L486.022 1486.45 L486.022 1486.45  Z" fill="#009af9" fill-rule="evenodd" fill-opacity="1"></path>
<polyline clip-path="url(#clip652)" style="stroke:#000000; stroke-linecap:round; stroke-linejoin:round; stroke-width:4; stroke-opacity:1; fill:none" points="486.022,1486.45 486.022,1486.45 595.83,1486.45 486.022,1486.45 "></polyline>
<path clip-path="url(#clip652)" d="M595.83 1486.45 L595.83 1486.45 L705.638 1486.45 L705.638 1486.45 L595.83 1486.45 L595.83 1486.45  Z" fill="#009af9" fill-rule="evenodd" fill-opacity="1"></path>
<polyline clip-path="url(#clip652)" style="stroke:#000000; stroke-linecap:round; stroke-linejoin:round; stroke-width:4; stroke-opacity:1; fill:none" points="595.83,1486.45 595.83,1486.45 705.638,1486.45 595.83,1486.45 "></polyline>
<path clip-path="url(#clip652)" d="M705.638 923.281 L705.638 1486.45 L815.446 1486.45 L815.446 923.281 L705.638 923.281 L705.638 923.281  Z" fill="#009af9" fill-rule="evenodd" fill-opacity="1"></path>
<polyline clip-path="url(#clip652)" style="stroke:#000000; stroke-linecap:round; stroke-linejoin:round; stroke-width:4; stroke-opacity:1; fill:none" points="705.638,923.281 705.638,1486.45 815.446,1486.45 815.446,923.281 705.638,923.281 "></polyline>
<path clip-path="url(#clip652)" d="M815.446 1486.45 L815.446 1486.45 L925.253 1486.45 L925.253 1486.45 L815.446 1486.45 L815.446 1486.45  Z" fill="#009af9" fill-rule="evenodd" fill-opacity="1"></path>
<polyline clip-path="url(#clip652)" style="stroke:#000000; stroke-linecap:round; stroke-linejoin:round; stroke-width:4; stroke-opacity:1; fill:none" points="815.446,1486.45 815.446,1486.45 925.253,1486.45 815.446,1486.45 "></polyline>
<path clip-path="url(#clip652)" d="M925.253 1486.45 L925.253 1486.45 L1035.06 1486.45 L1035.06 1486.45 L925.253 1486.45 L925.253 1486.45  Z" fill="#009af9" fill-rule="evenodd" fill-opacity="1"></path>
<polyline clip-path="url(#clip652)" style="stroke:#000000; stroke-linecap:round; stroke-linejoin:round; stroke-width:4; stroke-opacity:1; fill:none" points="925.253,1486.45 925.253,1486.45 1035.06,1486.45 925.253,1486.45 "></polyline>
<path clip-path="url(#clip652)" d="M1035.06 1048.43 L1035.06 1486.45 L1144.87 1486.45 L1144.87 1048.43 L1035.06 1048.43 L1035.06 1048.43  Z" fill="#009af9" fill-rule="evenodd" fill-opacity="1"></path>
<polyline clip-path="url(#clip652)" style="stroke:#000000; stroke-linecap:round; stroke-linejoin:round; stroke-width:4; stroke-opacity:1; fill:none" points="1035.06,1048.43 1035.06,1486.45 1144.87,1486.45 1144.87,1048.43 1035.06,1048.43 "></polyline>
<path clip-path="url(#clip652)" d="M1144.87 547.837 L1144.87 1486.45 L1254.68 1486.45 L1254.68 547.837 L1144.87 547.837 L1144.87 547.837  Z" fill="#009af9" fill-rule="evenodd" fill-opacity="1"></path>
<polyline clip-path="url(#clip652)" style="stroke:#000000; stroke-linecap:round; stroke-linejoin:round; stroke-width:4; stroke-opacity:1; fill:none" points="1144.87,547.837 1144.87,1486.45 1254.68,1486.45 1254.68,547.837 1144.87,547.837 "></polyline>
<path clip-path="url(#clip652)" d="M1254.68 1298.73 L1254.68 1486.45 L1364.48 1486.45 L1364.48 1298.73 L1254.68 1298.73 L1254.68 1298.73  Z" fill="#009af9" fill-rule="evenodd" fill-opacity="1"></path>
<polyline clip-path="url(#clip652)" style="stroke:#000000; stroke-linecap:round; stroke-linejoin:round; stroke-width:4; stroke-opacity:1; fill:none" points="1254.68,1298.73 1254.68,1486.45 1364.48,1486.45 1364.48,1298.73 1254.68,1298.73 "></polyline>
<circle clip-path="url(#clip652)" style="fill:#009af9; stroke:none; fill-opacity:0" cx="431.118" cy="47.2441" r="2"></circle>
<circle clip-path="url(#clip652)" style="fill:#009af9; stroke:none; fill-opacity:0" cx="540.926" cy="1486.45" r="2"></circle>
<circle clip-path="url(#clip652)" style="fill:#009af9; stroke:none; fill-opacity:0" cx="650.734" cy="1486.45" r="2"></circle>
<circle clip-path="url(#clip652)" style="fill:#009af9; stroke:none; fill-opacity:0" cx="760.542" cy="923.281" r="2"></circle>
<circle clip-path="url(#clip652)" style="fill:#009af9; stroke:none; fill-opacity:0" cx="870.349" cy="1486.45" r="2"></circle>
<circle clip-path="url(#clip652)" style="fill:#009af9; stroke:none; fill-opacity:0" cx="980.157" cy="1486.45" r="2"></circle>
<circle clip-path="url(#clip652)" style="fill:#009af9; stroke:none; fill-opacity:0" cx="1089.97" cy="1048.43" r="2"></circle>
<circle clip-path="url(#clip652)" style="fill:#009af9; stroke:none; fill-opacity:0" cx="1199.77" cy="547.837" r="2"></circle>
<circle clip-path="url(#clip652)" style="fill:#009af9; stroke:none; fill-opacity:0" cx="1309.58" cy="1298.73" r="2"></circle>
<path clip-path="url(#clip650)" d="M1701.79 198.898 L2279.55 198.898 L2279.55 95.2176 L1701.79 95.2176  Z" fill="#ffffff" fill-rule="evenodd" fill-opacity="1"></path>
<polyline clip-path="url(#clip650)" style="stroke:#000000; stroke-linecap:round; stroke-linejoin:round; stroke-width:4; stroke-opacity:1; fill:none" points="1701.79,198.898 2279.55,198.898 2279.55,95.2176 1701.79,95.2176 1701.79,198.898 "></polyline>
<path clip-path="url(#clip650)" d="M1726.19 167.794 L1872.6 167.794 L1872.6 126.322 L1726.19 126.322 L1726.19 167.794  Z" fill="#009af9" fill-rule="evenodd" fill-opacity="1"></path>
<polyline clip-path="url(#clip650)" style="stroke:#000000; stroke-linecap:round; stroke-linejoin:round; stroke-width:4; stroke-opacity:1; fill:none" points="1726.19,167.794 1872.6,167.794 1872.6,126.322 1726.19,126.322 1726.19,167.794 "></polyline>
<path clip-path="url(#clip650)" d="M1901.29 160.449 L1901.29 174.199 L1897 174.199 L1897 138.412 L1901.29 138.412 L1901.29 142.347 Q1902.63 140.032 1904.66 138.921 Q1906.72 137.787 1909.57 137.787 Q1914.29 137.787 1917.23 141.537 Q1920.2 145.287 1920.2 151.398 Q1920.2 157.509 1917.23 161.259 Q1914.29 165.009 1909.57 165.009 Q1906.72 165.009 1904.66 163.898 Q1902.63 162.763 1901.29 160.449 M1915.78 151.398 Q1915.78 146.699 1913.83 144.037 Q1911.91 141.352 1908.53 141.352 Q1905.15 141.352 1903.21 144.037 Q1901.29 146.699 1901.29 151.398 Q1901.29 156.097 1903.21 158.782 Q1905.15 161.444 1908.53 161.444 Q1911.91 161.444 1913.83 158.782 Q1915.78 156.097 1915.78 151.398 Z" fill="#000000" fill-rule="nonzero" fill-opacity="1"></path><path clip-path="url(#clip650)" d="M1937.3 141.398 Q1933.88 141.398 1931.89 144.083 Q1929.9 146.745 1929.9 151.398 Q1929.9 156.051 1931.86 158.736 Q1933.85 161.398 1937.3 161.398 Q1940.71 161.398 1942.7 158.713 Q1944.69 156.027 1944.69 151.398 Q1944.69 146.791 1942.7 144.106 Q1940.71 141.398 1937.3 141.398 M1937.3 137.787 Q1942.86 137.787 1946.03 141.398 Q1949.2 145.009 1949.2 151.398 Q1949.2 157.764 1946.03 161.398 Q1942.86 165.009 1937.3 165.009 Q1931.72 165.009 1928.55 161.398 Q1925.41 157.764 1925.41 151.398 Q1925.41 145.009 1928.55 141.398 Q1931.72 137.787 1937.3 137.787 Z" fill="#000000" fill-rule="nonzero" fill-opacity="1"></path><path clip-path="url(#clip650)" d="M1972.79 139.176 L1972.79 143.203 Q1970.98 142.277 1969.04 141.815 Q1967.09 141.352 1965.01 141.352 Q1961.84 141.352 1960.24 142.324 Q1958.67 143.296 1958.67 145.24 Q1958.67 146.722 1959.8 147.578 Q1960.94 148.412 1964.36 149.176 L1965.82 149.5 Q1970.36 150.472 1972.26 152.254 Q1974.18 154.014 1974.18 157.185 Q1974.18 160.796 1971.31 162.902 Q1968.46 165.009 1963.46 165.009 Q1961.38 165.009 1959.11 164.592 Q1956.86 164.199 1954.36 163.388 L1954.36 158.99 Q1956.72 160.217 1959.02 160.842 Q1961.31 161.444 1963.55 161.444 Q1966.56 161.444 1968.18 160.426 Q1969.8 159.384 1969.8 157.509 Q1969.8 155.773 1968.62 154.847 Q1967.47 153.921 1963.51 153.064 L1962.03 152.717 Q1958.07 151.884 1956.31 150.171 Q1954.55 148.435 1954.55 145.426 Q1954.55 141.768 1957.14 139.778 Q1959.73 137.787 1964.5 137.787 Q1966.86 137.787 1968.95 138.134 Q1971.03 138.481 1972.79 139.176 Z" fill="#000000" fill-rule="nonzero" fill-opacity="1"></path><path clip-path="url(#clip650)" d="M1985.17 131.051 L1985.17 138.412 L1993.95 138.412 L1993.95 141.722 L1985.17 141.722 L1985.17 155.796 Q1985.17 158.967 1986.03 159.87 Q1986.91 160.773 1989.57 160.773 L1993.95 160.773 L1993.95 164.338 L1989.57 164.338 Q1984.64 164.338 1982.77 162.509 Q1980.89 160.657 1980.89 155.796 L1980.89 141.722 L1977.77 141.722 L1977.77 138.412 L1980.89 138.412 L1980.89 131.051 L1985.17 131.051 Z" fill="#000000" fill-rule="nonzero" fill-opacity="1"></path><path clip-path="url(#clip650)" d="M2021.72 150.31 L2021.72 152.393 L2002.14 152.393 Q2002.42 156.791 2004.78 159.106 Q2007.16 161.398 2011.4 161.398 Q2013.85 161.398 2016.15 160.796 Q2018.46 160.194 2020.73 158.99 L2020.73 163.018 Q2018.44 163.99 2016.03 164.5 Q2013.62 165.009 2011.15 165.009 Q2004.94 165.009 2001.31 161.398 Q1997.7 157.787 1997.7 151.629 Q1997.7 145.264 2001.12 141.537 Q2004.57 137.787 2010.4 137.787 Q2015.64 137.787 2018.67 141.166 Q2021.72 144.523 2021.72 150.31 M2017.46 149.06 Q2017.42 145.565 2015.5 143.481 Q2013.6 141.398 2010.45 141.398 Q2006.89 141.398 2004.73 143.412 Q2002.6 145.426 2002.28 149.083 L2017.46 149.06 Z" fill="#000000" fill-rule="nonzero" fill-opacity="1"></path><path clip-path="url(#clip650)" d="M2043.74 142.393 Q2043.02 141.977 2042.16 141.791 Q2041.33 141.583 2040.31 141.583 Q2036.7 141.583 2034.76 143.944 Q2032.84 146.282 2032.84 150.68 L2032.84 164.338 L2028.55 164.338 L2028.55 138.412 L2032.84 138.412 L2032.84 142.44 Q2034.18 140.078 2036.33 138.944 Q2038.48 137.787 2041.56 137.787 Q2042 137.787 2042.53 137.856 Q2043.07 137.903 2043.71 138.018 L2043.74 142.393 Z" fill="#000000" fill-rule="nonzero" fill-opacity="1"></path><path clip-path="url(#clip650)" d="M2048.21 138.412 L2052.46 138.412 L2052.46 164.338 L2048.21 164.338 L2048.21 138.412 M2048.21 128.319 L2052.46 128.319 L2052.46 133.713 L2048.21 133.713 L2048.21 128.319 Z" fill="#000000" fill-rule="nonzero" fill-opacity="1"></path><path clip-path="url(#clip650)" d="M2071.42 141.398 Q2068 141.398 2066.01 144.083 Q2064.02 146.745 2064.02 151.398 Q2064.02 156.051 2065.98 158.736 Q2067.97 161.398 2071.42 161.398 Q2074.83 161.398 2076.82 158.713 Q2078.81 156.027 2078.81 151.398 Q2078.81 146.791 2076.82 144.106 Q2074.83 141.398 2071.42 141.398 M2071.42 137.787 Q2076.98 137.787 2080.15 141.398 Q2083.32 145.009 2083.32 151.398 Q2083.32 157.764 2080.15 161.398 Q2076.98 165.009 2071.42 165.009 Q2065.84 165.009 2062.67 161.398 Q2059.52 157.764 2059.52 151.398 Q2059.52 145.009 2062.67 141.398 Q2065.84 137.787 2071.42 137.787 Z" fill="#000000" fill-rule="nonzero" fill-opacity="1"></path><path clip-path="url(#clip650)" d="M2105.4 142.393 Q2104.69 141.977 2103.83 141.791 Q2103 141.583 2101.98 141.583 Q2098.37 141.583 2096.42 143.944 Q2094.5 146.282 2094.5 150.68 L2094.5 164.338 L2090.22 164.338 L2090.22 138.412 L2094.5 138.412 L2094.5 142.44 Q2095.84 140.078 2098 138.944 Q2100.15 137.787 2103.23 137.787 Q2103.67 137.787 2104.2 137.856 Q2104.73 137.903 2105.38 138.018 L2105.4 142.393 Z" fill="#000000" fill-rule="nonzero" fill-opacity="1"></path><path clip-path="url(#clip650)" d="M2145.13 143.389 Q2146.72 140.518 2148.95 139.153 Q2151.17 137.787 2154.18 137.787 Q2158.23 137.787 2160.43 140.634 Q2162.63 143.458 2162.63 148.689 L2162.63 164.338 L2158.34 164.338 L2158.34 148.828 Q2158.34 145.102 2157.02 143.296 Q2155.7 141.49 2153 141.49 Q2149.69 141.49 2147.77 143.69 Q2145.84 145.889 2145.84 149.685 L2145.84 164.338 L2141.56 164.338 L2141.56 148.828 Q2141.56 145.078 2140.24 143.296 Q2138.92 141.49 2136.17 141.49 Q2132.9 141.49 2130.98 143.713 Q2129.06 145.912 2129.06 149.685 L2129.06 164.338 L2124.78 164.338 L2124.78 138.412 L2129.06 138.412 L2129.06 142.44 Q2130.52 140.055 2132.56 138.921 Q2134.59 137.787 2137.39 137.787 Q2140.22 137.787 2142.19 139.222 Q2144.18 140.657 2145.13 143.389 Z" fill="#000000" fill-rule="nonzero" fill-opacity="1"></path><path clip-path="url(#clip650)" d="M2168.64 138.412 L2172.9 138.412 L2178.23 158.643 L2183.53 138.412 L2188.55 138.412 L2193.88 158.643 L2199.18 138.412 L2203.44 138.412 L2196.65 164.338 L2191.63 164.338 L2186.05 143.088 L2180.45 164.338 L2175.43 164.338 L2168.64 138.412 Z" fill="#000000" fill-rule="nonzero" fill-opacity="1"></path><path clip-path="url(#clip650)" d="M2229.59 172.208 L2229.59 175.518 L2204.96 175.518 L2204.96 172.208 L2229.59 172.208 Z" fill="#000000" fill-rule="nonzero" fill-opacity="1"></path><path clip-path="url(#clip650)" d="M2255.15 148.689 L2255.15 164.338 L2250.89 164.338 L2250.89 148.828 Q2250.89 145.148 2249.45 143.319 Q2248.02 141.49 2245.15 141.49 Q2241.7 141.49 2239.71 143.69 Q2237.72 145.889 2237.72 149.685 L2237.72 164.338 L2233.44 164.338 L2233.44 128.319 L2237.72 128.319 L2237.72 142.44 Q2239.25 140.102 2241.31 138.944 Q2243.39 137.787 2246.1 137.787 Q2250.57 137.787 2252.86 140.565 Q2255.15 143.319 2255.15 148.689 Z" fill="#000000" fill-rule="nonzero" fill-opacity="1"></path></svg>