<svg xmlns="http://www.w3.org/2000/svg" xmlns:xlink="http://www.w3.org/1999/xlink" width="600" height="400" viewBox="0 0 2400 1600">
<defs>
  <clipPath id="clip370">
    <rect x="0" y="0" width="2400" height="1600"></rect>
  </clipPath>
</defs>
<path clip-path="url(#clip370)" d="M0 1600 L2400 1600 L2400 0 L0 0  Z" fill="#ffffff" fill-rule="evenodd" fill-opacity="1"></path>
<defs>
  <clipPath id="clip371">
    <rect x="480" y="0" width="1681" height="1600"></rect>
  </clipPath>
</defs>
<path clip-path="url(#clip370)" d="M156.598 1486.45 L2352.76 1486.45 L2352.76 47.2441 L156.598 47.2441  Z" fill="#ffffff" fill-rule="evenodd" fill-opacity="1"></path>
<defs>
  <clipPath id="clip372">
    <rect x="156" y="47" width="2197" height="1440"></rect>
  </clipPath>
</defs>
<polyline clip-path="url(#clip372)" style="stroke:#000000; stroke-linecap:round; stroke-linejoin:round; stroke-width:2; stroke-opacity:0.1; fill:none" points="156.598,1486.45 156.598,47.2441 "></polyline>
<polyline clip-path="url(#clip372)" style="stroke:#000000; stroke-linecap:round; stroke-linejoin:round; stroke-width:2; stroke-opacity:0.1; fill:none" points="595.83,1486.45 595.83,47.2441 "></polyline>
<polyline clip-path="url(#clip372)" style="stroke:#000000; stroke-linecap:round; stroke-linejoin:round; stroke-width:2; stroke-opacity:0.1; fill:none" points="1035.06,1486.45 1035.06,47.2441 "></polyline>
<polyline clip-path="url(#clip372)" style="stroke:#000000; stroke-linecap:round; stroke-linejoin:round; stroke-width:2; stroke-opacity:0.1; fill:none" points="1474.29,1486.45 1474.29,47.2441 "></polyline>
<polyline clip-path="url(#clip372)" style="stroke:#000000; stroke-linecap:round; stroke-linejoin:round; stroke-width:2; stroke-opacity:0.1; fill:none" points="1913.52,1486.45 1913.52,47.2441 "></polyline>
<polyline clip-path="url(#clip372)" style="stroke:#000000; stroke-linecap:round; stroke-linejoin:round; stroke-width:2; stroke-opacity:0.1; fill:none" points="2352.76,1486.45 2352.76,47.2441 "></polyline>
<polyline clip-path="url(#clip370)" style="stroke:#000000; stroke-linecap:round; stroke-linejoin:round; stroke-width:4; stroke-opacity:1; fill:none" points="156.598,1486.45 2352.76,1486.45 "></polyline>
<polyline clip-path="url(#clip370)" style="stroke:#000000; stroke-linecap:round; stroke-linejoin:round; stroke-width:4; stroke-opacity:1; fill:none" points="156.598,1486.45 156.598,1467.55 "></polyline>
<polyline clip-path="url(#clip370)" style="stroke:#000000; stroke-linecap:round; stroke-linejoin:round; stroke-width:4; stroke-opacity:1; fill:none" points="595.83,1486.45 595.83,1467.55 "></polyline>
<polyline clip-path="url(#clip370)" style="stroke:#000000; stroke-linecap:round; stroke-linejoin:round; stroke-width:4; stroke-opacity:1; fill:none" points="1035.06,1486.45 1035.06,1467.55 "></polyline>
<polyline clip-path="url(#clip370)" style="stroke:#000000; stroke-linecap:round; stroke-linejoin:round; stroke-width:4; stroke-opacity:1; fill:none" points="1474.29,1486.45 1474.29,1467.55 "></polyline>
<polyline clip-path="url(#clip370)" style="stroke:#000000; stroke-linecap:round; stroke-linejoin:round; stroke-width:4; stroke-opacity:1; fill:none" points="1913.52,1486.45 1913.52,1467.55 "></polyline>
<polyline clip-path="url(#clip370)" style="stroke:#000000; stroke-linecap:round; stroke-linejoin:round; stroke-width:4; stroke-opacity:1; fill:none" points="2352.76,1486.45 2352.76,1467.55 "></polyline>
<path clip-path="url(#clip370)" d="M156.598 1517.37 Q152.987 1517.37 151.158 1520.93 Q149.353 1524.47 149.353 1531.6 Q149.353 1538.71 151.158 1542.27 Q152.987 1545.82 156.598 1545.82 Q160.232 1545.82 162.038 1542.27 Q163.867 1538.71 163.867 1531.6 Q163.867 1524.47 162.038 1520.93 Q160.232 1517.37 156.598 1517.37 M156.598 1513.66 Q162.408 1513.66 165.464 1518.27 Q168.543 1522.85 168.543 1531.6 Q168.543 1540.33 165.464 1544.94 Q162.408 1549.52 156.598 1549.52 Q150.788 1549.52 147.709 1544.94 Q144.654 1540.33 144.654 1531.6 Q144.654 1522.85 147.709 1518.27 Q150.788 1513.66 156.598 1513.66 Z" fill="#000000" fill-rule="nonzero" fill-opacity="1"></path><path clip-path="url(#clip370)" d="M590.483 1544.91 L606.802 1544.91 L606.802 1548.85 L584.858 1548.85 L584.858 1544.91 Q587.52 1542.16 592.103 1537.53 Q596.709 1532.88 597.89 1531.53 Q600.135 1529.01 601.015 1527.27 Q601.918 1525.51 601.918 1523.82 Q601.918 1521.07 599.973 1519.33 Q598.052 1517.6 594.95 1517.6 Q592.751 1517.6 590.297 1518.36 Q587.867 1519.13 585.089 1520.68 L585.089 1515.95 Q587.913 1514.82 590.367 1514.24 Q592.821 1513.66 594.858 1513.66 Q600.228 1513.66 603.422 1516.35 Q606.617 1519.03 606.617 1523.52 Q606.617 1525.65 605.807 1527.57 Q605.02 1529.47 602.913 1532.07 Q602.334 1532.74 599.233 1535.95 Q596.131 1539.15 590.483 1544.91 Z" fill="#000000" fill-rule="nonzero" fill-opacity="1"></path><path clip-path="url(#clip370)" d="M1038.07 1518.36 L1026.27 1536.81 L1038.07 1536.81 L1038.07 1518.36 M1036.84 1514.29 L1042.72 1514.29 L1042.72 1536.81 L1047.65 1536.81 L1047.65 1540.7 L1042.72 1540.7 L1042.72 1548.85 L1038.07 1548.85 L1038.07 1540.7 L1022.47 1540.7 L1022.47 1536.19 L1036.84 1514.29 Z" fill="#000000" fill-rule="nonzero" fill-opacity="1"></path><path clip-path="url(#clip370)" d="M1474.7 1529.7 Q1471.55 1529.7 1469.7 1531.86 Q1467.87 1534.01 1467.87 1537.76 Q1467.87 1541.49 1469.7 1543.66 Q1471.55 1545.82 1474.7 1545.82 Q1477.85 1545.82 1479.67 1543.66 Q1481.53 1541.49 1481.53 1537.76 Q1481.53 1534.01 1479.67 1531.86 Q1477.85 1529.7 1474.7 1529.7 M1483.98 1515.05 L1483.98 1519.31 Q1482.22 1518.48 1480.42 1518.04 Q1478.63 1517.6 1476.87 1517.6 Q1472.24 1517.6 1469.79 1520.72 Q1467.36 1523.85 1467.01 1530.17 Q1468.38 1528.15 1470.44 1527.09 Q1472.5 1526 1474.98 1526 Q1480.18 1526 1483.19 1529.17 Q1486.23 1532.32 1486.23 1537.76 Q1486.23 1543.08 1483.08 1546.3 Q1479.93 1549.52 1474.7 1549.52 Q1468.7 1549.52 1465.53 1544.94 Q1462.36 1540.33 1462.36 1531.6 Q1462.36 1523.41 1466.25 1518.55 Q1470.14 1513.66 1476.69 1513.66 Q1478.45 1513.66 1480.23 1514.01 Q1482.04 1514.36 1483.98 1515.05 Z" fill="#000000" fill-rule="nonzero" fill-opacity="1"></path><path clip-path="url(#clip370)" d="M1913.52 1532.44 Q1910.19 1532.44 1908.27 1534.22 Q1906.37 1536 1906.37 1539.13 Q1906.37 1542.25 1908.27 1544.03 Q1910.19 1545.82 1913.52 1545.82 Q1916.86 1545.82 1918.78 1544.03 Q1920.7 1542.23 1920.7 1539.13 Q1920.7 1536 1918.78 1534.22 Q1916.88 1532.44 1913.52 1532.44 M1908.85 1530.45 Q1905.84 1529.7 1904.15 1527.64 Q1902.48 1525.58 1902.48 1522.62 Q1902.48 1518.48 1905.42 1516.07 Q1908.39 1513.66 1913.52 1513.66 Q1918.69 1513.66 1921.63 1516.07 Q1924.57 1518.48 1924.57 1522.62 Q1924.57 1525.58 1922.88 1527.64 Q1921.21 1529.7 1918.22 1530.45 Q1921.6 1531.23 1923.48 1533.52 Q1925.38 1535.82 1925.38 1539.13 Q1925.38 1544.15 1922.3 1546.83 Q1919.24 1549.52 1913.52 1549.52 Q1907.81 1549.52 1904.73 1546.83 Q1901.67 1544.15 1901.67 1539.13 Q1901.67 1535.82 1903.57 1533.52 Q1905.47 1531.23 1908.85 1530.45 M1907.14 1523.06 Q1907.14 1525.75 1908.8 1527.25 Q1910.49 1528.76 1913.52 1528.76 Q1916.53 1528.76 1918.22 1527.25 Q1919.94 1525.75 1919.94 1523.06 Q1919.94 1520.38 1918.22 1518.87 Q1916.53 1517.37 1913.52 1517.37 Q1910.49 1517.37 1908.8 1518.87 Q1907.14 1520.38 1907.14 1523.06 Z" fill="#000000" fill-rule="nonzero" fill-opacity="1"></path><path clip-path="url(#clip370)" d="M2327.44 1544.91 L2335.08 1544.91 L2335.08 1518.55 L2326.77 1520.21 L2326.77 1515.95 L2335.04 1514.29 L2339.71 1514.29 L2339.71 1544.91 L2347.35 1544.91 L2347.35 1548.85 L2327.44 1548.85 L2327.44 1544.91 Z" fill="#000000" fill-rule="nonzero" fill-opacity="1"></path><path clip-path="url(#clip370)" d="M2366.8 1517.37 Q2363.18 1517.37 2361.36 1520.93 Q2359.55 1524.47 2359.55 1531.6 Q2359.55 1538.71 2361.36 1542.27 Q2363.18 1545.82 2366.8 1545.82 Q2370.43 1545.82 2372.23 1542.27 Q2374.06 1538.71 2374.06 1531.6 Q2374.06 1524.47 2372.23 1520.93 Q2370.43 1517.37 2366.8 1517.37 M2366.8 1513.66 Q2372.61 1513.66 2375.66 1518.27 Q2378.74 1522.85 2378.74 1531.6 Q2378.74 1540.33 2375.66 1544.94 Q2372.61 1549.52 2366.8 1549.52 Q2360.99 1549.52 2357.91 1544.94 Q2354.85 1540.33 2354.85 1531.6 Q2354.85 1522.85 2357.91 1518.27 Q2360.99 1513.66 2366.8 1513.66 Z" fill="#000000" fill-rule="nonzero" fill-opacity="1"></path><polyline clip-path="url(#clip372)" style="stroke:#000000; stroke-linecap:round; stroke-linejoin:round; stroke-width:2; stroke-opacity:0.1; fill:none" points="156.598,1486.45 2352.76,1486.45 "></polyline>
<polyline clip-path="url(#clip372)" style="stroke:#000000; stroke-linecap:round; stroke-linejoin:round; stroke-width:2; stroke-opacity:0.1; fill:none" points="156.598,1113.56 2352.76,1113.56 "></polyline>
<polyline clip-path="url(#clip372)" style="stroke:#000000; stroke-linecap:round; stroke-linejoin:round; stroke-width:2; stroke-opacity:0.1; fill:none" points="156.598,740.679 2352.76,740.679 "></polyline>
<polyline clip-path="url(#clip372)" style="stroke:#000000; stroke-linecap:round; stroke-linejoin:round; stroke-width:2; stroke-opacity:0.1; fill:none" points="156.598,367.794 2352.76,367.794 "></polyline>
<polyline clip-path="url(#clip370)" style="stroke:#000000; stroke-linecap:round; stroke-linejoin:round; stroke-width:4; stroke-opacity:1; fill:none" points="156.598,1486.45 156.598,47.2441 "></polyline>
<polyline clip-path="url(#clip370)" style="stroke:#000000; stroke-linecap:round; stroke-linejoin:round; stroke-width:4; stroke-opacity:1; fill:none" points="156.598,1486.45 175.496,1486.45 "></polyline>
<polyline clip-path="url(#clip370)" style="stroke:#000000; stroke-linecap:round; stroke-linejoin:round; stroke-width:4; stroke-opacity:1; fill:none" points="156.598,1113.56 175.496,1113.56 "></polyline>
<polyline clip-path="url(#clip370)" style="stroke:#000000; stroke-linecap:round; stroke-linejoin:round; stroke-width:4; stroke-opacity:1; fill:none" points="156.598,740.679 175.496,740.679 "></polyline>
<polyline clip-path="url(#clip370)" style="stroke:#000000; stroke-linecap:round; stroke-linejoin:round; stroke-width:4; stroke-opacity:1; fill:none" points="156.598,367.794 175.496,367.794 "></polyline>
<path clip-path="url(#clip370)" d="M63.4226 1472.25 Q59.8115 1472.25 57.9828 1475.81 Q56.1773 1479.35 56.1773 1486.48 Q56.1773 1493.59 57.9828 1497.15 Q59.8115 1500.7 63.4226 1500.7 Q67.0569 1500.7 68.8624 1497.15 Q70.6911 1493.59 70.6911 1486.48 Q70.6911 1479.35 68.8624 1475.81 Q67.0569 1472.25 63.4226 1472.25 M63.4226 1468.54 Q69.2328 1468.54 72.2883 1473.15 Q75.367 1477.73 75.367 1486.48 Q75.367 1495.21 72.2883 1499.82 Q69.2328 1504.4 63.4226 1504.4 Q57.6125 1504.4 54.5338 1499.82 Q51.4782 1495.21 51.4782 1486.48 Q51.4782 1477.73 54.5338 1473.15 Q57.6125 1468.54 63.4226 1468.54 Z" fill="#000000" fill-rule="nonzero" fill-opacity="1"></path><path clip-path="url(#clip370)" d="M83.5845 1497.85 L88.4688 1497.85 L88.4688 1503.73 L83.5845 1503.73 L83.5845 1497.85 Z" fill="#000000" fill-rule="nonzero" fill-opacity="1"></path><path clip-path="url(#clip370)" d="M108.654 1472.25 Q105.043 1472.25 103.214 1475.81 Q101.409 1479.35 101.409 1486.48 Q101.409 1493.59 103.214 1497.15 Q105.043 1500.7 108.654 1500.7 Q112.288 1500.7 114.094 1497.15 Q115.922 1493.59 115.922 1486.48 Q115.922 1479.35 114.094 1475.81 Q112.288 1472.25 108.654 1472.25 M108.654 1468.54 Q114.464 1468.54 117.52 1473.15 Q120.598 1477.73 120.598 1486.48 Q120.598 1495.21 117.52 1499.82 Q114.464 1504.4 108.654 1504.4 Q102.844 1504.4 99.765 1499.82 Q96.7095 1495.21 96.7095 1486.48 Q96.7095 1477.73 99.765 1473.15 Q102.844 1468.54 108.654 1468.54 Z" fill="#000000" fill-rule="nonzero" fill-opacity="1"></path><path clip-path="url(#clip370)" d="M65.0198 1099.36 Q61.4087 1099.36 59.58 1102.93 Q57.7745 1106.47 57.7745 1113.6 Q57.7745 1120.7 59.58 1124.27 Q61.4087 1127.81 65.0198 1127.81 Q68.6541 1127.81 70.4596 1124.27 Q72.2883 1120.7 72.2883 1113.6 Q72.2883 1106.47 70.4596 1102.93 Q68.6541 1099.36 65.0198 1099.36 M65.0198 1095.66 Q70.83 1095.66 73.8855 1100.26 Q76.9642 1104.85 76.9642 1113.6 Q76.9642 1122.32 73.8855 1126.93 Q70.83 1131.51 65.0198 1131.51 Q59.2097 1131.51 56.131 1126.93 Q53.0754 1122.32 53.0754 1113.6 Q53.0754 1104.85 56.131 1100.26 Q59.2097 1095.66 65.0198 1095.66 Z" fill="#000000" fill-rule="nonzero" fill-opacity="1"></path><path clip-path="url(#clip370)" d="M85.1818 1124.96 L90.066 1124.96 L90.066 1130.84 L85.1818 1130.84 L85.1818 1124.96 Z" fill="#000000" fill-rule="nonzero" fill-opacity="1"></path><path clip-path="url(#clip370)" d="M104.279 1126.91 L120.598 1126.91 L120.598 1130.84 L98.6539 1130.84 L98.6539 1126.91 Q101.316 1124.15 105.899 1119.52 Q110.506 1114.87 111.686 1113.53 Q113.932 1111.01 114.811 1109.27 Q115.714 1107.51 115.714 1105.82 Q115.714 1103.07 113.77 1101.33 Q111.848 1099.59 108.746 1099.59 Q106.547 1099.59 104.094 1100.36 Q101.663 1101.12 98.8854 1102.67 L98.8854 1097.95 Q101.709 1096.82 104.163 1096.24 Q106.617 1095.66 108.654 1095.66 Q114.024 1095.66 117.219 1098.34 Q120.413 1101.03 120.413 1105.52 Q120.413 1107.65 119.603 1109.57 Q118.816 1111.47 116.709 1114.06 Q116.131 1114.73 113.029 1117.95 Q109.927 1121.14 104.279 1126.91 Z" fill="#000000" fill-rule="nonzero" fill-opacity="1"></path><path clip-path="url(#clip370)" d="M62.9365 726.477 Q59.3254 726.477 57.4967 730.042 Q55.6912 733.584 55.6912 740.713 Q55.6912 747.82 57.4967 751.385 Q59.3254 754.926 62.9365 754.926 Q66.5707 754.926 68.3763 751.385 Q70.205 747.82 70.205 740.713 Q70.205 733.584 68.3763 730.042 Q66.5707 726.477 62.9365 726.477 M62.9365 722.774 Q68.7467 722.774 71.8022 727.38 Q74.8809 731.963 74.8809 740.713 Q74.8809 749.44 71.8022 754.047 Q68.7467 758.63 62.9365 758.63 Q57.1264 758.63 54.0477 754.047 Q50.9921 749.44 50.9921 740.713 Q50.9921 731.963 54.0477 727.38 Q57.1264 722.774 62.9365 722.774 Z" fill="#000000" fill-rule="nonzero" fill-opacity="1"></path><path clip-path="url(#clip370)" d="M83.0984 752.079 L87.9827 752.079 L87.9827 757.959 L83.0984 757.959 L83.0984 752.079 Z" fill="#000000" fill-rule="nonzero" fill-opacity="1"></path><path clip-path="url(#clip370)" d="M111.015 727.473 L99.2095 745.922 L111.015 745.922 L111.015 727.473 M109.788 723.399 L115.668 723.399 L115.668 745.922 L120.598 745.922 L120.598 749.811 L115.668 749.811 L115.668 757.959 L111.015 757.959 L111.015 749.811 L95.4132 749.811 L95.4132 745.297 L109.788 723.399 Z" fill="#000000" fill-rule="nonzero" fill-opacity="1"></path><path clip-path="url(#clip370)" d="M63.2606 353.593 Q59.6495 353.593 57.8208 357.158 Q56.0152 360.699 56.0152 367.829 Q56.0152 374.935 57.8208 378.5 Q59.6495 382.042 63.2606 382.042 Q66.8948 382.042 68.7004 378.5 Q70.5291 374.935 70.5291 367.829 Q70.5291 360.699 68.7004 357.158 Q66.8948 353.593 63.2606 353.593 M63.2606 349.889 Q69.0707 349.889 72.1263 354.495 Q75.205 359.079 75.205 367.829 Q75.205 376.556 72.1263 381.162 Q69.0707 385.745 63.2606 385.745 Q57.4504 385.745 54.3717 381.162 Q51.3162 376.556 51.3162 367.829 Q51.3162 359.079 54.3717 354.495 Q57.4504 349.889 63.2606 349.889 Z" fill="#000000" fill-rule="nonzero" fill-opacity="1"></path><path clip-path="url(#clip370)" d="M83.4225 379.194 L88.3067 379.194 L88.3067 385.074 L83.4225 385.074 L83.4225 379.194 Z" fill="#000000" fill-rule="nonzero" fill-opacity="1"></path><path clip-path="url(#clip370)" d="M109.071 365.931 Q105.922 365.931 104.071 368.083 Q102.242 370.236 102.242 373.986 Q102.242 377.713 104.071 379.889 Q105.922 382.042 109.071 382.042 Q112.219 382.042 114.047 379.889 Q115.899 377.713 115.899 373.986 Q115.899 370.236 114.047 368.083 Q112.219 365.931 109.071 365.931 M118.353 351.278 L118.353 355.537 Q116.594 354.704 114.788 354.264 Q113.006 353.824 111.246 353.824 Q106.617 353.824 104.163 356.949 Q101.733 360.074 101.385 366.394 Q102.751 364.38 104.811 363.315 Q106.871 362.227 109.348 362.227 Q114.557 362.227 117.566 365.398 Q120.598 368.546 120.598 373.986 Q120.598 379.31 117.45 382.528 Q114.302 385.745 109.071 385.745 Q103.075 385.745 99.9039 381.162 Q96.7326 376.556 96.7326 367.829 Q96.7326 359.634 100.621 354.773 Q104.51 349.889 111.061 349.889 Q112.82 349.889 114.603 350.236 Q116.408 350.583 118.353 351.278 Z" fill="#000000" fill-rule="nonzero" fill-opacity="1"></path><path clip-path="url(#clip372)" d="M486.022 47.2441 L486.022 1486.45 L595.83 1486.45 L595.83 47.2441 L486.022 47.2441 L486.022 47.2441  Z" fill="#009af9" fill-rule="evenodd" fill-opacity="1"></path>
<polyline clip-path="url(#clip372)" style="stroke:#000000; stroke-linecap:round; stroke-linejoin:round; stroke-width:4; stroke-opacity:1; fill:none" points="486.022,47.2441 486.022,1486.45 595.83,1486.45 595.83,47.2441 486.022,47.2441 "></polyline>
<path clip-path="url(#clip372)" d="M595.83 1290.19 L595.83 1486.45 L705.638 1486.45 L705.638 1290.19 L595.83 1290.19 L595.83 1290.19  Z" fill="#009af9" fill-rule="evenodd" fill-opacity="1"></path>
<polyline clip-path="url(#clip372)" style="stroke:#000000; stroke-linecap:round; stroke-linejoin:round; stroke-width:4; stroke-opacity:1; fill:none" points="595.83,1290.19 595.83,1486.45 705.638,1486.45 705.638,1290.19 595.83,1290.19 "></polyline>
<path clip-path="url(#clip372)" d="M705.638 1486.45 L705.638 1486.45 L815.446 1486.45 L815.446 1486.45 L705.638 1486.45 L705.638 1486.45  Z" fill="#009af9" fill-rule="evenodd" fill-opacity="1"></path>
<polyline clip-path="url(#clip372)" style="stroke:#000000; stroke-linecap:round; stroke-linejoin:round; stroke-width:4; stroke-opacity:1; fill:none" points="705.638,1486.45 705.638,1486.45 815.446,1486.45 705.638,1486.45 "></polyline>
<path clip-path="url(#clip372)" d="M815.446 897.683 L815.446 1486.45 L925.253 1486.45 L925.253 897.683 L815.446 897.683 L815.446 897.683  Z" fill="#009af9" fill-rule="evenodd" fill-opacity="1"></path>
<polyline clip-path="url(#clip372)" style="stroke:#000000; stroke-linecap:round; stroke-linejoin:round; stroke-width:4; stroke-opacity:1; fill:none" points="815.446,897.683 815.446,1486.45 925.253,1486.45 925.253,897.683 815.446,897.683 "></polyline>
<path clip-path="url(#clip372)" d="M925.253 1159.36 L925.253 1486.45 L1035.06 1486.45 L1035.06 1159.36 L925.253 1159.36 L925.253 1159.36  Z" fill="#009af9" fill-rule="evenodd" fill-opacity="1"></path>
<polyline clip-path="url(#clip372)" style="stroke:#000000; stroke-linecap:round; stroke-linejoin:round; stroke-width:4; stroke-opacity:1; fill:none" points="925.253,1159.36 925.253,1486.45 1035.06,1486.45 1035.06,1159.36 925.253,1159.36 "></polyline>
<path clip-path="url(#clip372)" d="M1035.06 897.683 L1035.06 1486.45 L1144.87 1486.45 L1144.87 897.683 L1035.06 897.683 L1035.06 897.683  Z" fill="#009af9" fill-rule="evenodd" fill-opacity="1"></path>
<polyline clip-path="url(#clip372)" style="stroke:#000000; stroke-linecap:round; stroke-linejoin:round; stroke-width:4; stroke-opacity:1; fill:none" points="1035.06,897.683 1035.06,1486.45 1144.87,1486.45 1144.87,897.683 1035.06,897.683 "></polyline>
<path clip-path="url(#clip372)" d="M1144.87 1093.94 L1144.87 1486.45 L1254.68 1486.45 L1254.68 1093.94 L1144.87 1093.94 L1144.87 1093.94  Z" fill="#009af9" fill-rule="evenodd" fill-opacity="1"></path>
<polyline clip-path="url(#clip372)" style="stroke:#000000; stroke-linecap:round; stroke-linejoin:round; stroke-width:4; stroke-opacity:1; fill:none" points="1144.87,1093.94 1144.87,1486.45 1254.68,1486.45 1254.68,1093.94 1144.87,1093.94 "></polyline>
<path clip-path="url(#clip372)" d="M1254.68 1290.19 L1254.68 1486.45 L1364.48 1486.45 L1364.48 1290.19 L1254.68 1290.19 L1254.68 1290.19  Z" fill="#009af9" fill-rule="evenodd" fill-opacity="1"></path>
<polyline clip-path="url(#clip372)" style="stroke:#000000; stroke-linecap:round; stroke-linejoin:round; stroke-width:4; stroke-opacity:1; fill:none" points="1254.68,1290.19 1254.68,1486.45 1364.48,1486.45 1364.48,1290.19 1254.68,1290.19 "></polyline>
<circle clip-path="url(#clip372)" style="fill:#009af9; stroke:none; fill-opacity:0" cx="540.926" cy="47.2441" r="2"></circle>
<circle clip-path="url(#clip372)" style="fill:#009af9; stroke:none; fill-opacity:0" cx="650.734" cy="1290.19" r="2"></circle>
<circle clip-path="url(#clip372)" style="fill:#009af9; stroke:none; fill-opacity:0" cx="760.542" cy="1486.45" r="2"></circle>
<circle clip-path="url(#clip372)" style="fill:#009af9; stroke:none; fill-opacity:0" cx="870.349" cy="897.683" r="2"></circle>
<circle clip-path="url(#clip372)" style="fill:#009af9; stroke:none; fill-opacity:0" cx="980.157" cy="1159.36" r="2"></circle>
<circle clip-path="url(#clip372)" style="fill:#009af9; stroke:none; fill-opacity:0" cx="1089.97" cy="897.683" r="2"></circle>
<circle clip-path="url(#clip372)" style="fill:#009af9; stroke:none; fill-opacity:0" cx="1199.77" cy="1093.94" r="2"></circle>
<circle clip-path="url(#clip372)" style="fill:#009af9; stroke:none; fill-opacity:0" cx="1309.58" cy="1290.19" r="2"></circle>
<path clip-path="url(#clip370)" d="M1757.83 198.898 L2279.55 198.898 L2279.55 95.2176 L1757.83 95.2176  Z" fill="#ffffff" fill-rule="evenodd" fill-opacity="1"></path>
<polyline clip-path="url(#clip370)" style="stroke:#000000; stroke-linecap:round; stroke-linejoin:round; stroke-width:4; stroke-opacity:1; fill:none" points="1757.83,198.898 2279.55,198.898 2279.55,95.2176 1757.83,95.2176 1757.83,198.898 "></polyline>
<path clip-path="url(#clip370)" d="M1782.23 167.794 L1928.64 167.794 L1928.64 126.322 L1782.23 126.322 L1782.23 167.794  Z" fill="#009af9" fill-rule="evenodd" fill-opacity="1"></path>
<polyline clip-path="url(#clip370)" style="stroke:#000000; stroke-linecap:round; stroke-linejoin:round; stroke-width:4; stroke-opacity:1; fill:none" points="1782.23,167.794 1928.64,167.794 1928.64,126.322 1782.23,126.322 1782.23,167.794 "></polyline>
<path clip-path="url(#clip370)" d="M1957.33 160.449 L1957.33 174.199 L1953.04 174.199 L1953.04 138.412 L1957.33 138.412 L1957.33 142.347 Q1958.67 140.032 1960.71 138.921 Q1962.77 137.787 1965.61 137.787 Q1970.34 137.787 1973.28 141.537 Q1976.24 145.287 1976.24 151.398 Q1976.24 157.509 1973.28 161.259 Q1970.34 165.009 1965.61 165.009 Q1962.77 165.009 1960.71 163.898 Q1958.67 162.763 1957.33 160.449 M1971.82 151.398 Q1971.82 146.699 1969.87 144.037 Q1967.95 141.352 1964.57 141.352 Q1961.19 141.352 1959.25 144.037 Q1957.33 146.699 1957.33 151.398 Q1957.33 156.097 1959.25 158.782 Q1961.19 161.444 1964.57 161.444 Q1967.95 161.444 1969.87 158.782 Q1971.82 156.097 1971.82 151.398 Z" fill="#000000" fill-rule="nonzero" fill-opacity="1"></path><path clip-path="url(#clip370)" d="M1993.34 141.398 Q1989.92 141.398 1987.93 144.083 Q1985.94 146.745 1985.94 151.398 Q1985.94 156.051 1987.9 158.736 Q1989.9 161.398 1993.34 161.398 Q1996.75 161.398 1998.74 158.713 Q2000.73 156.027 2000.73 151.398 Q2000.73 146.791 1998.74 144.106 Q1996.75 141.398 1993.34 141.398 M1993.34 137.787 Q1998.9 137.787 2002.07 141.398 Q2005.24 145.009 2005.24 151.398 Q2005.24 157.764 2002.07 161.398 Q1998.9 165.009 1993.34 165.009 Q1987.77 165.009 1984.59 161.398 Q1981.45 157.764 1981.45 151.398 Q1981.45 145.009 1984.59 141.398 Q1987.77 137.787 1993.34 137.787 Z" fill="#000000" fill-rule="nonzero" fill-opacity="1"></path><path clip-path="url(#clip370)" d="M2028.83 139.176 L2028.83 143.203 Q2027.03 142.277 2025.08 141.815 Q2023.14 141.352 2021.05 141.352 Q2017.88 141.352 2016.28 142.324 Q2014.71 143.296 2014.71 145.24 Q2014.71 146.722 2015.84 147.578 Q2016.98 148.412 2020.4 149.176 L2021.86 149.5 Q2026.4 150.472 2028.3 152.254 Q2030.22 154.014 2030.22 157.185 Q2030.22 160.796 2027.35 162.902 Q2024.5 165.009 2019.5 165.009 Q2017.42 165.009 2015.15 164.592 Q2012.9 164.199 2010.4 163.388 L2010.4 158.99 Q2012.77 160.217 2015.06 160.842 Q2017.35 161.444 2019.59 161.444 Q2022.6 161.444 2024.22 160.426 Q2025.84 159.384 2025.84 157.509 Q2025.84 155.773 2024.66 154.847 Q2023.51 153.921 2019.55 153.064 L2018.07 152.717 Q2014.11 151.884 2012.35 150.171 Q2010.59 148.435 2010.59 145.426 Q2010.59 141.768 2013.18 139.778 Q2015.78 137.787 2020.54 137.787 Q2022.9 137.787 2024.99 138.134 Q2027.07 138.481 2028.83 139.176 Z" fill="#000000" fill-rule="nonzero" fill-opacity="1"></path><path clip-path="url(#clip370)" d="M2041.21 131.051 L2041.21 138.412 L2049.99 138.412 L2049.99 141.722 L2041.21 141.722 L2041.21 155.796 Q2041.21 158.967 2042.07 159.87 Q2042.95 160.773 2045.61 160.773 L2049.99 160.773 L2049.99 164.338 L2045.61 164.338 Q2040.68 164.338 2038.81 162.509 Q2036.93 160.657 2036.93 155.796 L2036.93 141.722 L2033.81 141.722 L2033.81 138.412 L2036.93 138.412 L2036.93 131.051 L2041.21 131.051 Z" fill="#000000" fill-rule="nonzero" fill-opacity="1"></path><path clip-path="url(#clip370)" d="M2077.77 150.31 L2077.77 152.393 L2058.18 152.393 Q2058.46 156.791 2060.82 159.106 Q2063.21 161.398 2067.44 161.398 Q2069.9 161.398 2072.19 160.796 Q2074.5 160.194 2076.77 158.99 L2076.77 163.018 Q2074.48 163.99 2072.07 164.5 Q2069.66 165.009 2067.19 165.009 Q2060.98 165.009 2057.35 161.398 Q2053.74 157.787 2053.74 151.629 Q2053.74 145.264 2057.16 141.537 Q2060.61 137.787 2066.45 137.787 Q2071.68 137.787 2074.71 141.166 Q2077.77 144.523 2077.77 150.31 M2073.51 149.06 Q2073.46 145.565 2071.54 143.481 Q2069.64 141.398 2066.49 141.398 Q2062.93 141.398 2060.77 143.412 Q2058.65 145.426 2058.32 149.083 L2073.51 149.06 Z" fill="#000000" fill-rule="nonzero" fill-opacity="1"></path><path clip-path="url(#clip370)" d="M2099.78 142.393 Q2099.06 141.977 2098.21 141.791 Q2097.37 141.583 2096.35 141.583 Q2092.74 141.583 2090.8 143.944 Q2088.88 146.282 2088.88 150.68 L2088.88 164.338 L2084.59 164.338 L2084.59 138.412 L2088.88 138.412 L2088.88 142.44 Q2090.22 140.078 2092.37 138.944 Q2094.52 137.787 2097.6 137.787 Q2098.04 137.787 2098.58 137.856 Q2099.11 137.903 2099.76 138.018 L2099.78 142.393 Z" fill="#000000" fill-rule="nonzero" fill-opacity="1"></path><path clip-path="url(#clip370)" d="M2104.25 138.412 L2108.51 138.412 L2108.51 164.338 L2104.25 164.338 L2104.25 138.412 M2104.25 128.319 L2108.51 128.319 L2108.51 133.713 L2104.25 133.713 L2104.25 128.319 Z" fill="#000000" fill-rule="nonzero" fill-opacity="1"></path><path clip-path="url(#clip370)" d="M2127.46 141.398 Q2124.04 141.398 2122.05 144.083 Q2120.06 146.745 2120.06 151.398 Q2120.06 156.051 2122.02 158.736 Q2124.02 161.398 2127.46 161.398 Q2130.87 161.398 2132.86 158.713 Q2134.85 156.027 2134.85 151.398 Q2134.85 146.791 2132.86 144.106 Q2130.87 141.398 2127.46 141.398 M2127.46 137.787 Q2133.02 137.787 2136.19 141.398 Q2139.36 145.009 2139.36 151.398 Q2139.36 157.764 2136.19 161.398 Q2133.02 165.009 2127.46 165.009 Q2121.89 165.009 2118.71 161.398 Q2115.57 157.764 2115.57 151.398 Q2115.57 145.009 2118.71 141.398 Q2121.89 137.787 2127.46 137.787 Z" fill="#000000" fill-rule="nonzero" fill-opacity="1"></path><path clip-path="url(#clip370)" d="M2161.45 142.393 Q2160.73 141.977 2159.87 141.791 Q2159.04 141.583 2158.02 141.583 Q2154.41 141.583 2152.46 143.944 Q2150.54 146.282 2150.54 150.68 L2150.54 164.338 L2146.26 164.338 L2146.26 138.412 L2150.54 138.412 L2150.54 142.44 Q2151.89 140.078 2154.04 138.944 Q2156.19 137.787 2159.27 137.787 Q2159.71 137.787 2160.24 137.856 Q2160.77 137.903 2161.42 138.018 L2161.45 142.393 Z" fill="#000000" fill-rule="nonzero" fill-opacity="1"></path><path clip-path="url(#clip370)" d="M2185.1 160.449 L2185.1 174.199 L2180.82 174.199 L2180.82 138.412 L2185.1 138.412 L2185.1 142.347 Q2186.45 140.032 2188.48 138.921 Q2190.54 137.787 2193.39 137.787 Q2198.11 137.787 2201.05 141.537 Q2204.01 145.287 2204.01 151.398 Q2204.01 157.509 2201.05 161.259 Q2198.11 165.009 2193.39 165.009 Q2190.54 165.009 2188.48 163.898 Q2186.45 162.763 2185.1 160.449 M2199.59 151.398 Q2199.59 146.699 2197.65 144.037 Q2195.73 141.352 2192.35 141.352 Q2188.97 141.352 2187.02 144.037 Q2185.1 146.699 2185.1 151.398 Q2185.1 156.097 2187.02 158.782 Q2188.97 161.444 2192.35 161.444 Q2195.73 161.444 2197.65 158.782 Q2199.59 156.097 2199.59 151.398 Z" fill="#000000" fill-rule="nonzero" fill-opacity="1"></path><path clip-path="url(#clip370)" d="M2222.86 151.305 Q2217.7 151.305 2215.7 152.486 Q2213.71 153.666 2213.71 156.514 Q2213.71 158.782 2215.2 160.125 Q2216.7 161.444 2219.27 161.444 Q2222.81 161.444 2224.94 158.944 Q2227.09 156.421 2227.09 152.254 L2227.09 151.305 L2222.86 151.305 M2231.35 149.546 L2231.35 164.338 L2227.09 164.338 L2227.09 160.402 Q2225.64 162.763 2223.46 163.898 Q2221.28 165.009 2218.14 165.009 Q2214.15 165.009 2211.79 162.787 Q2209.45 160.541 2209.45 156.791 Q2209.45 152.416 2212.37 150.194 Q2215.31 147.972 2221.12 147.972 L2227.09 147.972 L2227.09 147.555 Q2227.09 144.615 2225.15 143.018 Q2223.23 141.398 2219.73 141.398 Q2217.51 141.398 2215.4 141.93 Q2213.3 142.463 2211.35 143.527 L2211.35 139.592 Q2213.69 138.69 2215.89 138.25 Q2218.09 137.787 2220.17 137.787 Q2225.8 137.787 2228.57 140.703 Q2231.35 143.62 2231.35 149.546 Z" fill="#000000" fill-rule="nonzero" fill-opacity="1"></path><path clip-path="url(#clip370)" d="M2255.15 142.393 Q2254.43 141.977 2253.57 141.791 Q2252.74 141.583 2251.72 141.583 Q2248.11 141.583 2246.17 143.944 Q2244.25 146.282 2244.25 150.68 L2244.25 164.338 L2239.96 164.338 L2239.96 138.412 L2244.25 138.412 L2244.25 142.44 Q2245.59 140.078 2247.74 138.944 Q2249.89 137.787 2252.97 137.787 Q2253.41 137.787 2253.95 137.856 Q2254.48 137.903 2255.13 138.018 L2255.15 142.393 Z" fill="#000000" fill-rule="nonzero" fill-opacity="1"></path></svg>