<svg xmlns="http://www.w3.org/2000/svg" xmlns:xlink="http://www.w3.org/1999/xlink" width="600" height="400" viewBox="0 0 2400 1600">
<defs>
  <clipPath id="clip930">
    <rect x="0" y="0" width="2400" height="1600"></rect>
  </clipPath>
</defs>
<path clip-path="url(#clip930)" d="M0 1600 L2400 1600 L2400 0 L0 0  Z" fill="#ffffff" fill-rule="evenodd" fill-opacity="1"></path>
<defs>
  <clipPath id="clip931">
    <rect x="480" y="0" width="1681" height="1600"></rect>
  </clipPath>
</defs>
<path clip-path="url(#clip930)" d="M110.881 1486.45 L2352.76 1486.45 L2352.76 47.2441 L110.881 47.2441  Z" fill="#ffffff" fill-rule="evenodd" fill-opacity="1"></path>
<defs>
  <clipPath id="clip932">
    <rect x="110" y="47" width="2243" height="1440"></rect>
  </clipPath>
</defs>
<polyline clip-path="url(#clip932)" style="stroke:#000000; stroke-linecap:round; stroke-linejoin:round; stroke-width:2; stroke-opacity:0.1; fill:none" points="110.881,1486.45 110.881,47.2441 "></polyline>
<polyline clip-path="url(#clip932)" style="stroke:#000000; stroke-linecap:round; stroke-linejoin:round; stroke-width:2; stroke-opacity:0.1; fill:none" points="559.256,1486.45 559.256,47.2441 "></polyline>
<polyline clip-path="url(#clip932)" style="stroke:#000000; stroke-linecap:round; stroke-linejoin:round; stroke-width:2; stroke-opacity:0.1; fill:none" points="1007.63,1486.45 1007.63,47.2441 "></polyline>
<polyline clip-path="url(#clip932)" style="stroke:#000000; stroke-linecap:round; stroke-linejoin:round; stroke-width:2; stroke-opacity:0.1; fill:none" points="1456.01,1486.45 1456.01,47.2441 "></polyline>
<polyline clip-path="url(#clip932)" style="stroke:#000000; stroke-linecap:round; stroke-linejoin:round; stroke-width:2; stroke-opacity:0.1; fill:none" points="1904.38,1486.45 1904.38,47.2441 "></polyline>
<polyline clip-path="url(#clip932)" style="stroke:#000000; stroke-linecap:round; stroke-linejoin:round; stroke-width:2; stroke-opacity:0.1; fill:none" points="2352.76,1486.45 2352.76,47.2441 "></polyline>
<polyline clip-path="url(#clip930)" style="stroke:#000000; stroke-linecap:round; stroke-linejoin:round; stroke-width:4; stroke-opacity:1; fill:none" points="110.881,1486.45 2352.76,1486.45 "></polyline>
<polyline clip-path="url(#clip930)" style="stroke:#000000; stroke-linecap:round; stroke-linejoin:round; stroke-width:4; stroke-opacity:1; fill:none" points="110.881,1486.45 110.881,1467.55 "></polyline>
<polyline clip-path="url(#clip930)" style="stroke:#000000; stroke-linecap:round; stroke-linejoin:round; stroke-width:4; stroke-opacity:1; fill:none" points="559.256,1486.45 559.256,1467.55 "></polyline>
<polyline clip-path="url(#clip930)" style="stroke:#000000; stroke-linecap:round; stroke-linejoin:round; stroke-width:4; stroke-opacity:1; fill:none" points="1007.63,1486.45 1007.63,1467.55 "></polyline>
<polyline clip-path="url(#clip930)" style="stroke:#000000; stroke-linecap:round; stroke-linejoin:round; stroke-width:4; stroke-opacity:1; fill:none" points="1456.01,1486.45 1456.01,1467.55 "></polyline>
<polyline clip-path="url(#clip930)" style="stroke:#000000; stroke-linecap:round; stroke-linejoin:round; stroke-width:4; stroke-opacity:1; fill:none" points="1904.38,1486.45 1904.38,1467.55 "></polyline>
<polyline clip-path="url(#clip930)" style="stroke:#000000; stroke-linecap:round; stroke-linejoin:round; stroke-width:4; stroke-opacity:1; fill:none" points="2352.76,1486.45 2352.76,1467.55 "></polyline>
<path clip-path="url(#clip930)" d="M110.881 1517.37 Q107.27 1517.37 105.441 1520.93 Q103.636 1524.47 103.636 1531.6 Q103.636 1538.71 105.441 1542.27 Q107.27 1545.82 110.881 1545.82 Q114.515 1545.82 116.321 1542.27 Q118.149 1538.71 118.149 1531.6 Q118.149 1524.47 116.321 1520.93 Q114.515 1517.37 110.881 1517.37 M110.881 1513.66 Q116.691 1513.66 119.747 1518.27 Q122.825 1522.85 122.825 1531.6 Q122.825 1540.33 119.747 1544.94 Q116.691 1549.52 110.881 1549.52 Q105.071 1549.52 101.992 1544.94 Q98.9365 1540.33 98.9365 1531.6 Q98.9365 1522.85 101.992 1518.27 Q105.071 1513.66 110.881 1513.66 Z" fill="#000000" fill-rule="nonzero" fill-opacity="1"></path><path clip-path="url(#clip930)" d="M553.909 1544.91 L570.228 1544.91 L570.228 1548.85 L548.284 1548.85 L548.284 1544.91 Q550.946 1542.16 555.529 1537.53 Q560.136 1532.88 561.316 1531.53 Q563.561 1529.01 564.441 1527.27 Q565.344 1525.51 565.344 1523.82 Q565.344 1521.07 563.399 1519.33 Q561.478 1517.6 558.376 1517.6 Q556.177 1517.6 553.724 1518.36 Q551.293 1519.13 548.515 1520.68 L548.515 1515.95 Q551.339 1514.82 553.793 1514.24 Q556.247 1513.66 558.284 1513.66 Q563.654 1513.66 566.848 1516.35 Q570.043 1519.03 570.043 1523.52 Q570.043 1525.65 569.233 1527.57 Q568.446 1529.47 566.339 1532.07 Q565.76 1532.74 562.659 1535.95 Q559.557 1539.15 553.909 1544.91 Z" fill="#000000" fill-rule="nonzero" fill-opacity="1"></path><path clip-path="url(#clip930)" d="M1010.64 1518.36 L998.835 1536.81 L1010.64 1536.81 L1010.64 1518.36 M1009.41 1514.29 L1015.29 1514.29 L1015.29 1536.81 L1020.22 1536.81 L1020.22 1540.7 L1015.29 1540.7 L1015.29 1548.85 L1010.64 1548.85 L1010.64 1540.7 L995.038 1540.7 L995.038 1536.19 L1009.41 1514.29 Z" fill="#000000" fill-rule="nonzero" fill-opacity="1"></path><path clip-path="url(#clip930)" d="M1456.41 1529.7 Q1453.26 1529.7 1451.41 1531.86 Q1449.58 1534.01 1449.58 1537.76 Q1449.58 1541.49 1451.41 1543.66 Q1453.26 1545.82 1456.41 1545.82 Q1459.56 1545.82 1461.39 1543.66 Q1463.24 1541.49 1463.24 1537.76 Q1463.24 1534.01 1461.39 1531.86 Q1459.56 1529.7 1456.41 1529.7 M1465.69 1515.05 L1465.69 1519.31 Q1463.93 1518.48 1462.13 1518.04 Q1460.35 1517.6 1458.59 1517.6 Q1453.96 1517.6 1451.5 1520.72 Q1449.07 1523.85 1448.73 1530.17 Q1450.09 1528.15 1452.15 1527.09 Q1454.21 1526 1456.69 1526 Q1461.9 1526 1464.91 1529.17 Q1467.94 1532.32 1467.94 1537.76 Q1467.94 1543.08 1464.79 1546.3 Q1461.64 1549.52 1456.41 1549.52 Q1450.42 1549.52 1447.24 1544.94 Q1444.07 1540.33 1444.07 1531.6 Q1444.07 1523.41 1447.96 1518.55 Q1451.85 1513.66 1458.4 1513.66 Q1460.16 1513.66 1461.94 1514.01 Q1463.75 1514.36 1465.69 1515.05 Z" fill="#000000" fill-rule="nonzero" fill-opacity="1"></path><path clip-path="url(#clip930)" d="M1904.38 1532.44 Q1901.05 1532.44 1899.13 1534.22 Q1897.23 1536 1897.23 1539.13 Q1897.23 1542.25 1899.13 1544.03 Q1901.05 1545.82 1904.38 1545.82 Q1907.71 1545.82 1909.64 1544.03 Q1911.56 1542.23 1911.56 1539.13 Q1911.56 1536 1909.64 1534.22 Q1907.74 1532.44 1904.38 1532.44 M1899.71 1530.45 Q1896.7 1529.7 1895.01 1527.64 Q1893.34 1525.58 1893.34 1522.62 Q1893.34 1518.48 1896.28 1516.07 Q1899.24 1513.66 1904.38 1513.66 Q1909.54 1513.66 1912.48 1516.07 Q1915.42 1518.48 1915.42 1522.62 Q1915.42 1525.58 1913.73 1527.64 Q1912.07 1529.7 1909.08 1530.45 Q1912.46 1531.23 1914.33 1533.52 Q1916.23 1535.82 1916.23 1539.13 Q1916.23 1544.15 1913.15 1546.83 Q1910.1 1549.52 1904.38 1549.52 Q1898.66 1549.52 1895.58 1546.83 Q1892.53 1544.15 1892.53 1539.13 Q1892.53 1535.82 1894.43 1533.52 Q1896.33 1531.23 1899.71 1530.45 M1897.99 1523.06 Q1897.99 1525.75 1899.66 1527.25 Q1901.35 1528.76 1904.38 1528.76 Q1907.39 1528.76 1909.08 1527.25 Q1910.79 1525.75 1910.79 1523.06 Q1910.79 1520.38 1909.08 1518.87 Q1907.39 1517.37 1904.38 1517.37 Q1901.35 1517.37 1899.66 1518.87 Q1897.99 1520.38 1897.99 1523.06 Z" fill="#000000" fill-rule="nonzero" fill-opacity="1"></path><path clip-path="url(#clip930)" d="M2327.44 1544.91 L2335.08 1544.91 L2335.08 1518.55 L2326.77 1520.21 L2326.77 1515.95 L2335.04 1514.29 L2339.71 1514.29 L2339.71 1544.91 L2347.35 1544.91 L2347.35 1548.85 L2327.44 1548.85 L2327.44 1544.91 Z" fill="#000000" fill-rule="nonzero" fill-opacity="1"></path><path clip-path="url(#clip930)" d="M2366.8 1517.37 Q2363.18 1517.37 2361.36 1520.93 Q2359.55 1524.47 2359.55 1531.6 Q2359.55 1538.71 2361.36 1542.27 Q2363.18 1545.82 2366.8 1545.82 Q2370.43 1545.82 2372.23 1542.27 Q2374.06 1538.71 2374.06 1531.6 Q2374.06 1524.47 2372.23 1520.93 Q2370.43 1517.37 2366.8 1517.37 M2366.8 1513.66 Q2372.61 1513.66 2375.66 1518.27 Q2378.74 1522.85 2378.74 1531.6 Q2378.74 1540.33 2375.66 1544.94 Q2372.61 1549.52 2366.8 1549.52 Q2360.99 1549.52 2357.91 1544.94 Q2354.85 1540.33 2354.85 1531.6 Q2354.85 1522.85 2357.91 1518.27 Q2360.99 1513.66 2366.8 1513.66 Z" fill="#000000" fill-rule="nonzero" fill-opacity="1"></path><polyline clip-path="url(#clip932)" style="stroke:#000000; stroke-linecap:round; stroke-linejoin:round; stroke-width:2; stroke-opacity:0.1; fill:none" points="110.881,1486.45 2352.76,1486.45 "></polyline>
<polyline clip-path="url(#clip932)" style="stroke:#000000; stroke-linecap:round; stroke-linejoin:round; stroke-width:2; stroke-opacity:0.1; fill:none" points="110.881,1076.27 2352.76,1076.27 "></polyline>
<polyline clip-path="url(#clip932)" style="stroke:#000000; stroke-linecap:round; stroke-linejoin:round; stroke-width:2; stroke-opacity:0.1; fill:none" points="110.881,666.102 2352.76,666.102 "></polyline>
<polyline clip-path="url(#clip932)" style="stroke:#000000; stroke-linecap:round; stroke-linejoin:round; stroke-width:2; stroke-opacity:0.1; fill:none" points="110.881,255.929 2352.76,255.929 "></polyline>
<polyline clip-path="url(#clip930)" style="stroke:#000000; stroke-linecap:round; stroke-linejoin:round; stroke-width:4; stroke-opacity:1; fill:none" points="110.881,1486.45 110.881,47.2441 "></polyline>
<polyline clip-path="url(#clip930)" style="stroke:#000000; stroke-linecap:round; stroke-linejoin:round; stroke-width:4; stroke-opacity:1; fill:none" points="110.881,1486.45 129.779,1486.45 "></polyline>
<polyline clip-path="url(#clip930)" style="stroke:#000000; stroke-linecap:round; stroke-linejoin:round; stroke-width:4; stroke-opacity:1; fill:none" points="110.881,1076.27 129.779,1076.27 "></polyline>
<polyline clip-path="url(#clip930)" style="stroke:#000000; stroke-linecap:round; stroke-linejoin:round; stroke-width:4; stroke-opacity:1; fill:none" points="110.881,666.102 129.779,666.102 "></polyline>
<polyline clip-path="url(#clip930)" style="stroke:#000000; stroke-linecap:round; stroke-linejoin:round; stroke-width:4; stroke-opacity:1; fill:none" points="110.881,255.929 129.779,255.929 "></polyline>
<path clip-path="url(#clip930)" d="M62.9365 1472.25 Q59.3254 1472.25 57.4967 1475.81 Q55.6912 1479.35 55.6912 1486.48 Q55.6912 1493.59 57.4967 1497.15 Q59.3254 1500.7 62.9365 1500.7 Q66.5707 1500.7 68.3763 1497.15 Q70.205 1493.59 70.205 1486.48 Q70.205 1479.35 68.3763 1475.81 Q66.5707 1472.25 62.9365 1472.25 M62.9365 1468.54 Q68.7467 1468.54 71.8022 1473.15 Q74.8809 1477.73 74.8809 1486.48 Q74.8809 1495.21 71.8022 1499.82 Q68.7467 1504.4 62.9365 1504.4 Q57.1264 1504.4 54.0477 1499.82 Q50.9921 1495.21 50.9921 1486.48 Q50.9921 1477.73 54.0477 1473.15 Q57.1264 1468.54 62.9365 1468.54 Z" fill="#000000" fill-rule="nonzero" fill-opacity="1"></path><path clip-path="url(#clip930)" d="M54.9736 1089.62 L62.6124 1089.62 L62.6124 1063.25 L54.3023 1064.92 L54.3023 1060.66 L62.5661 1058.99 L67.242 1058.99 L67.242 1089.62 L74.8809 1089.62 L74.8809 1093.55 L54.9736 1093.55 L54.9736 1089.62 Z" fill="#000000" fill-rule="nonzero" fill-opacity="1"></path><path clip-path="url(#clip930)" d="M58.5615 679.447 L74.8809 679.447 L74.8809 683.382 L52.9366 683.382 L52.9366 679.447 Q55.5986 676.692 60.1819 672.062 Q64.7883 667.41 65.9689 666.067 Q68.2143 663.544 69.0939 661.808 Q69.9967 660.049 69.9967 658.359 Q69.9967 655.604 68.0522 653.868 Q66.1309 652.132 63.0291 652.132 Q60.83 652.132 58.3763 652.896 Q55.9458 653.66 53.168 655.211 L53.168 650.488 Q55.9921 649.354 58.4458 648.775 Q60.8995 648.197 62.9365 648.197 Q68.3068 648.197 71.5013 650.882 Q74.6957 653.567 74.6957 658.058 Q74.6957 660.187 73.8855 662.109 Q73.0985 664.007 70.992 666.599 Q70.4133 667.271 67.3115 670.488 Q64.2096 673.683 58.5615 679.447 Z" fill="#000000" fill-rule="nonzero" fill-opacity="1"></path><path clip-path="url(#clip930)" d="M67.7513 254.574 Q71.1078 255.292 72.9827 257.561 Q74.8809 259.829 74.8809 263.162 Q74.8809 268.278 71.3624 271.079 Q67.8439 273.88 61.3624 273.88 Q59.1865 273.88 56.8717 273.44 Q54.5801 273.023 52.1264 272.167 L52.1264 267.653 Q54.0708 268.787 56.3856 269.366 Q58.7004 269.945 61.2236 269.945 Q65.6217 269.945 67.9133 268.209 Q70.2281 266.473 70.2281 263.162 Q70.2281 260.107 68.0754 258.394 Q65.9457 256.658 62.1263 256.658 L58.0986 256.658 L58.0986 252.815 L62.3115 252.815 Q65.7606 252.815 67.5893 251.449 Q69.418 250.061 69.418 247.468 Q69.418 244.806 67.5198 243.394 Q65.6448 241.959 62.1263 241.959 Q60.205 241.959 58.006 242.375 Q55.8069 242.792 53.168 243.672 L53.168 239.505 Q55.8301 238.764 58.1449 238.394 Q60.4828 238.024 62.543 238.024 Q67.867 238.024 70.9689 240.454 Q74.0707 242.862 74.0707 246.982 Q74.0707 249.852 72.4272 251.843 Q70.7837 253.811 67.7513 254.574 Z" fill="#000000" fill-rule="nonzero" fill-opacity="1"></path><path clip-path="url(#clip932)" d="M761.025 1270.57 L761.025 1486.45 L783.443 1486.45 L783.443 1270.57 L761.025 1270.57 L761.025 1270.57  Z" fill="#009af9" fill-rule="evenodd" fill-opacity="1"></path>
<polyline clip-path="url(#clip932)" style="stroke:#000000; stroke-linecap:round; stroke-linejoin:round; stroke-width:4; stroke-opacity:1; fill:none" points="761.025,1270.57 761.025,1486.45 783.443,1486.45 783.443,1270.57 761.025,1270.57 "></polyline>
<path clip-path="url(#clip932)" d="M783.443 47.2441 L783.443 1486.45 L805.862 1486.45 L805.862 47.2441 L783.443 47.2441 L783.443 47.2441  Z" fill="#009af9" fill-rule="evenodd" fill-opacity="1"></path>
<polyline clip-path="url(#clip932)" style="stroke:#000000; stroke-linecap:round; stroke-linejoin:round; stroke-width:4; stroke-opacity:1; fill:none" points="783.443,47.2441 783.443,1486.45 805.862,1486.45 805.862,47.2441 783.443,47.2441 "></polyline>
<path clip-path="url(#clip932)" d="M805.862 1486.45 L805.862 1486.45 L828.281 1486.45 L828.281 1486.45 L805.862 1486.45 L805.862 1486.45  Z" fill="#009af9" fill-rule="evenodd" fill-opacity="1"></path>
<polyline clip-path="url(#clip932)" style="stroke:#000000; stroke-linecap:round; stroke-linejoin:round; stroke-width:4; stroke-opacity:1; fill:none" points="805.862,1486.45 805.862,1486.45 828.281,1486.45 805.862,1486.45 "></polyline>
<path clip-path="url(#clip932)" d="M828.281 910.766 L828.281 1486.45 L850.7 1486.45 L850.7 910.766 L828.281 910.766 L828.281 910.766  Z" fill="#009af9" fill-rule="evenodd" fill-opacity="1"></path>
<polyline clip-path="url(#clip932)" style="stroke:#000000; stroke-linecap:round; stroke-linejoin:round; stroke-width:4; stroke-opacity:1; fill:none" points="828.281,910.766 828.281,1486.45 850.7,1486.45 850.7,910.766 828.281,910.766 "></polyline>
<path clip-path="url(#clip932)" d="M850.7 838.806 L850.7 1486.45 L873.118 1486.45 L873.118 838.806 L850.7 838.806 L850.7 838.806  Z" fill="#009af9" fill-rule="evenodd" fill-opacity="1"></path>
<polyline clip-path="url(#clip932)" style="stroke:#000000; stroke-linecap:round; stroke-linejoin:round; stroke-width:4; stroke-opacity:1; fill:none" points="850.7,838.806 850.7,1486.45 873.118,1486.45 873.118,838.806 850.7,838.806 "></polyline>
<path clip-path="url(#clip932)" d="M873.118 1270.57 L873.118 1486.45 L895.537 1486.45 L895.537 1270.57 L873.118 1270.57 L873.118 1270.57  Z" fill="#009af9" fill-rule="evenodd" fill-opacity="1"></path>
<polyline clip-path="url(#clip932)" style="stroke:#000000; stroke-linecap:round; stroke-linejoin:round; stroke-width:4; stroke-opacity:1; fill:none" points="873.118,1270.57 873.118,1486.45 895.537,1486.45 895.537,1270.57 873.118,1270.57 "></polyline>
<path clip-path="url(#clip932)" d="M895.537 1486.45 L895.537 1486.45 L917.956 1486.45 L917.956 1486.45 L895.537 1486.45 L895.537 1486.45  Z" fill="#009af9" fill-rule="evenodd" fill-opacity="1"></path>
<polyline clip-path="url(#clip932)" style="stroke:#000000; stroke-linecap:round; stroke-linejoin:round; stroke-width:4; stroke-opacity:1; fill:none" points="895.537,1486.45 895.537,1486.45 917.956,1486.45 895.537,1486.45 "></polyline>
<path clip-path="url(#clip932)" d="M917.956 1126.65 L917.956 1486.45 L940.375 1486.45 L940.375 1126.65 L917.956 1126.65 L917.956 1126.65  Z" fill="#009af9" fill-rule="evenodd" fill-opacity="1"></path>
<polyline clip-path="url(#clip932)" style="stroke:#000000; stroke-linecap:round; stroke-linejoin:round; stroke-width:4; stroke-opacity:1; fill:none" points="917.956,1126.65 917.956,1486.45 940.375,1486.45 940.375,1126.65 917.956,1126.65 "></polyline>
<path clip-path="url(#clip932)" d="M940.375 838.806 L940.375 1486.45 L962.793 1486.45 L962.793 838.806 L940.375 838.806 L940.375 838.806  Z" fill="#009af9" fill-rule="evenodd" fill-opacity="1"></path>
<polyline clip-path="url(#clip932)" style="stroke:#000000; stroke-linecap:round; stroke-linejoin:round; stroke-width:4; stroke-opacity:1; fill:none" points="940.375,838.806 940.375,1486.45 962.793,1486.45 962.793,838.806 940.375,838.806 "></polyline>
<circle clip-path="url(#clip932)" style="fill:#009af9; stroke:none; fill-opacity:0" cx="772.234" cy="1270.57" r="2"></circle>
<circle clip-path="url(#clip932)" style="fill:#009af9; stroke:none; fill-opacity:0" cx="794.653" cy="47.2441" r="2"></circle>
<circle clip-path="url(#clip932)" style="fill:#009af9; stroke:none; fill-opacity:0" cx="817.072" cy="1486.45" r="2"></circle>
<circle clip-path="url(#clip932)" style="fill:#009af9; stroke:none; fill-opacity:0" cx="839.49" cy="910.766" r="2"></circle>
<circle clip-path="url(#clip932)" style="fill:#009af9; stroke:none; fill-opacity:0" cx="861.909" cy="838.806" r="2"></circle>
<circle clip-path="url(#clip932)" style="fill:#009af9; stroke:none; fill-opacity:0" cx="884.328" cy="1270.57" r="2"></circle>
<circle clip-path="url(#clip932)" style="fill:#009af9; stroke:none; fill-opacity:0" cx="906.747" cy="1486.45" r="2"></circle>
<circle clip-path="url(#clip932)" style="fill:#009af9; stroke:none; fill-opacity:0" cx="929.165" cy="1126.65" r="2"></circle>
<circle clip-path="url(#clip932)" style="fill:#009af9; stroke:none; fill-opacity:0" cx="951.584" cy="838.806" r="2"></circle>
<path clip-path="url(#clip930)" d="M1668.38 198.898 L2278.03 198.898 L2278.03 95.2176 L1668.38 95.2176  Z" fill="#ffffff" fill-rule="evenodd" fill-opacity="1"></path>
<polyline clip-path="url(#clip930)" style="stroke:#000000; stroke-linecap:round; stroke-linejoin:round; stroke-width:4; stroke-opacity:1; fill:none" points="1668.38,198.898 2278.03,198.898 2278.03,95.2176 1668.38,95.2176 1668.38,198.898 "></polyline>
<path clip-path="url(#clip930)" d="M1693.29 167.794 L1842.75 167.794 L1842.75 126.322 L1693.29 126.322 L1693.29 167.794  Z" fill="#009af9" fill-rule="evenodd" fill-opacity="1"></path>
<polyline clip-path="url(#clip930)" style="stroke:#000000; stroke-linecap:round; stroke-linejoin:round; stroke-width:4; stroke-opacity:1; fill:none" points="1693.29,167.794 1842.75,167.794 1842.75,126.322 1693.29,126.322 1693.29,167.794 "></polyline>
<path clip-path="url(#clip930)" d="M1871.94 160.449 L1871.94 174.199 L1867.66 174.199 L1867.66 138.412 L1871.94 138.412 L1871.94 142.347 Q1873.28 140.032 1875.32 138.921 Q1877.38 137.787 1880.23 137.787 Q1884.95 137.787 1887.89 141.537 Q1890.85 145.287 1890.85 151.398 Q1890.85 157.509 1887.89 161.259 Q1884.95 165.009 1880.23 165.009 Q1877.38 165.009 1875.32 163.898 Q1873.28 162.763 1871.94 160.449 M1886.43 151.398 Q1886.43 146.699 1884.48 144.037 Q1882.56 141.352 1879.18 141.352 Q1875.8 141.352 1873.86 144.037 Q1871.94 146.699 1871.94 151.398 Q1871.94 156.097 1873.86 158.782 Q1875.8 161.444 1879.18 161.444 Q1882.56 161.444 1884.48 158.782 Q1886.43 156.097 1886.43 151.398 Z" fill="#000000" fill-rule="nonzero" fill-opacity="1"></path><path clip-path="url(#clip930)" d="M1907.96 141.398 Q1904.53 141.398 1902.54 144.083 Q1900.55 146.745 1900.55 151.398 Q1900.55 156.051 1902.52 158.736 Q1904.51 161.398 1907.96 161.398 Q1911.36 161.398 1913.35 158.713 Q1915.34 156.027 1915.34 151.398 Q1915.34 146.791 1913.35 144.106 Q1911.36 141.398 1907.96 141.398 M1907.96 137.787 Q1913.51 137.787 1916.68 141.398 Q1919.85 145.009 1919.85 151.398 Q1919.85 157.764 1916.68 161.398 Q1913.51 165.009 1907.96 165.009 Q1902.38 165.009 1899.21 161.398 Q1896.06 157.764 1896.06 151.398 Q1896.06 145.009 1899.21 141.398 Q1902.38 137.787 1907.96 137.787 Z" fill="#000000" fill-rule="nonzero" fill-opacity="1"></path><path clip-path="url(#clip930)" d="M1943.44 139.176 L1943.44 143.203 Q1941.64 142.277 1939.69 141.815 Q1937.75 141.352 1935.67 141.352 Q1932.49 141.352 1930.9 142.324 Q1929.32 143.296 1929.32 145.24 Q1929.32 146.722 1930.46 147.578 Q1931.59 148.412 1935.02 149.176 L1936.48 149.5 Q1941.01 150.472 1942.91 152.254 Q1944.83 154.014 1944.83 157.185 Q1944.83 160.796 1941.96 162.902 Q1939.11 165.009 1934.11 165.009 Q1932.03 165.009 1929.76 164.592 Q1927.52 164.199 1925.02 163.388 L1925.02 158.99 Q1927.38 160.217 1929.67 160.842 Q1931.96 161.444 1934.21 161.444 Q1937.22 161.444 1938.84 160.426 Q1940.46 159.384 1940.46 157.509 Q1940.46 155.773 1939.28 154.847 Q1938.12 153.921 1934.16 153.064 L1932.68 152.717 Q1928.72 151.884 1926.96 150.171 Q1925.2 148.435 1925.2 145.426 Q1925.2 141.768 1927.79 139.778 Q1930.39 137.787 1935.16 137.787 Q1937.52 137.787 1939.6 138.134 Q1941.68 138.481 1943.44 139.176 Z" fill="#000000" fill-rule="nonzero" fill-opacity="1"></path><path clip-path="url(#clip930)" d="M1955.83 131.051 L1955.83 138.412 L1964.6 138.412 L1964.6 141.722 L1955.83 141.722 L1955.83 155.796 Q1955.83 158.967 1956.68 159.87 Q1957.56 160.773 1960.23 160.773 L1964.6 160.773 L1964.6 164.338 L1960.23 164.338 Q1955.29 164.338 1953.42 162.509 Q1951.54 160.657 1951.54 155.796 L1951.54 141.722 L1948.42 141.722 L1948.42 138.412 L1951.54 138.412 L1951.54 131.051 L1955.83 131.051 Z" fill="#000000" fill-rule="nonzero" fill-opacity="1"></path><path clip-path="url(#clip930)" d="M1992.38 150.31 L1992.38 152.393 L1972.79 152.393 Q1973.07 156.791 1975.43 159.106 Q1977.82 161.398 1982.05 161.398 Q1984.51 161.398 1986.8 160.796 Q1989.11 160.194 1991.38 158.99 L1991.38 163.018 Q1989.09 163.99 1986.68 164.5 Q1984.28 165.009 1981.8 165.009 Q1975.6 165.009 1971.96 161.398 Q1968.35 157.787 1968.35 151.629 Q1968.35 145.264 1971.78 141.537 Q1975.22 137.787 1981.06 137.787 Q1986.29 137.787 1989.32 141.166 Q1992.38 144.523 1992.38 150.31 M1988.12 149.06 Q1988.07 145.565 1986.15 143.481 Q1984.25 141.398 1981.1 141.398 Q1977.54 141.398 1975.39 143.412 Q1973.26 145.426 1972.93 149.083 L1988.12 149.06 Z" fill="#000000" fill-rule="nonzero" fill-opacity="1"></path><path clip-path="url(#clip930)" d="M2014.39 142.393 Q2013.67 141.977 2012.82 141.791 Q2011.98 141.583 2010.97 141.583 Q2007.35 141.583 2005.41 143.944 Q2003.49 146.282 2003.49 150.68 L2003.49 164.338 L1999.21 164.338 L1999.21 138.412 L2003.49 138.412 L2003.49 142.44 Q2004.83 140.078 2006.98 138.944 Q2009.14 137.787 2012.22 137.787 Q2012.66 137.787 2013.19 137.856 Q2013.72 137.903 2014.37 138.018 L2014.39 142.393 Z" fill="#000000" fill-rule="nonzero" fill-opacity="1"></path><path clip-path="url(#clip930)" d="M2018.86 138.412 L2023.12 138.412 L2023.12 164.338 L2018.86 164.338 L2018.86 138.412 M2018.86 128.319 L2023.12 128.319 L2023.12 133.713 L2018.86 133.713 L2018.86 128.319 Z" fill="#000000" fill-rule="nonzero" fill-opacity="1"></path><path clip-path="url(#clip930)" d="M2042.08 141.398 Q2038.65 141.398 2036.66 144.083 Q2034.67 146.745 2034.67 151.398 Q2034.67 156.051 2036.64 158.736 Q2038.63 161.398 2042.08 161.398 Q2045.48 161.398 2047.47 158.713 Q2049.46 156.027 2049.46 151.398 Q2049.46 146.791 2047.47 144.106 Q2045.48 141.398 2042.08 141.398 M2042.08 137.787 Q2047.63 137.787 2050.8 141.398 Q2053.97 145.009 2053.97 151.398 Q2053.97 157.764 2050.8 161.398 Q2047.63 165.009 2042.08 165.009 Q2036.5 165.009 2033.33 161.398 Q2030.18 157.764 2030.18 151.398 Q2030.18 145.009 2033.33 141.398 Q2036.5 137.787 2042.08 137.787 Z" fill="#000000" fill-rule="nonzero" fill-opacity="1"></path><path clip-path="url(#clip930)" d="M2076.06 142.393 Q2075.34 141.977 2074.48 141.791 Q2073.65 141.583 2072.63 141.583 Q2069.02 141.583 2067.08 143.944 Q2065.16 146.282 2065.16 150.68 L2065.16 164.338 L2060.87 164.338 L2060.87 138.412 L2065.16 138.412 L2065.16 142.44 Q2066.5 140.078 2068.65 138.944 Q2070.8 137.787 2073.88 137.787 Q2074.32 137.787 2074.85 137.856 Q2075.39 137.903 2076.03 138.018 L2076.06 142.393 Z" fill="#000000" fill-rule="nonzero" fill-opacity="1"></path><path clip-path="url(#clip930)" d="M2112.12 139.176 L2112.12 143.203 Q2110.32 142.277 2108.37 141.815 Q2106.43 141.352 2104.34 141.352 Q2101.17 141.352 2099.58 142.324 Q2098 143.296 2098 145.24 Q2098 146.722 2099.14 147.578 Q2100.27 148.412 2103.7 149.176 L2105.15 149.5 Q2109.69 150.472 2111.59 152.254 Q2113.51 154.014 2113.51 157.185 Q2113.51 160.796 2110.64 162.902 Q2107.79 165.009 2102.79 165.009 Q2100.71 165.009 2098.44 164.592 Q2096.2 164.199 2093.7 163.388 L2093.7 158.99 Q2096.06 160.217 2098.35 160.842 Q2100.64 161.444 2102.89 161.444 Q2105.9 161.444 2107.52 160.426 Q2109.14 159.384 2109.14 157.509 Q2109.14 155.773 2107.96 154.847 Q2106.8 153.921 2102.84 153.064 L2101.36 152.717 Q2097.4 151.884 2095.64 150.171 Q2093.88 148.435 2093.88 145.426 Q2093.88 141.768 2096.47 139.778 Q2099.07 137.787 2103.84 137.787 Q2106.2 137.787 2108.28 138.134 Q2110.36 138.481 2112.12 139.176 Z" fill="#000000" fill-rule="nonzero" fill-opacity="1"></path><path clip-path="url(#clip930)" d="M2138.95 139.407 L2138.95 143.389 Q2137.15 142.393 2135.32 141.907 Q2133.51 141.398 2131.66 141.398 Q2127.52 141.398 2125.22 144.037 Q2122.93 146.652 2122.93 151.398 Q2122.93 156.143 2125.22 158.782 Q2127.52 161.398 2131.66 161.398 Q2133.51 161.398 2135.32 160.912 Q2137.15 160.402 2138.95 159.407 L2138.95 163.342 Q2137.17 164.176 2135.25 164.592 Q2133.35 165.009 2131.2 165.009 Q2125.34 165.009 2121.89 161.328 Q2118.44 157.648 2118.44 151.398 Q2118.44 145.055 2121.91 141.421 Q2125.41 137.787 2131.47 137.787 Q2133.44 137.787 2135.32 138.203 Q2137.19 138.597 2138.95 139.407 Z" fill="#000000" fill-rule="nonzero" fill-opacity="1"></path><path clip-path="url(#clip930)" d="M2158.14 151.305 Q2152.98 151.305 2150.99 152.486 Q2149 153.666 2149 156.514 Q2149 158.782 2150.48 160.125 Q2151.98 161.444 2154.55 161.444 Q2158.09 161.444 2160.22 158.944 Q2162.38 156.421 2162.38 152.254 L2162.38 151.305 L2158.14 151.305 M2166.64 149.546 L2166.64 164.338 L2162.38 164.338 L2162.38 160.402 Q2160.92 162.763 2158.74 163.898 Q2156.57 165.009 2153.42 165.009 Q2149.44 165.009 2147.08 162.787 Q2144.74 160.541 2144.74 156.791 Q2144.74 152.416 2147.65 150.194 Q2150.59 147.972 2156.4 147.972 L2162.38 147.972 L2162.38 147.555 Q2162.38 144.615 2160.43 143.018 Q2158.51 141.398 2155.02 141.398 Q2152.79 141.398 2150.69 141.93 Q2148.58 142.463 2146.64 143.527 L2146.64 139.592 Q2148.97 138.69 2151.17 138.25 Q2153.37 137.787 2155.46 137.787 Q2161.08 137.787 2163.86 140.703 Q2166.64 143.62 2166.64 149.546 Z" fill="#000000" fill-rule="nonzero" fill-opacity="1"></path><path clip-path="url(#clip930)" d="M2175.41 128.319 L2179.67 128.319 L2179.67 164.338 L2175.41 164.338 L2175.41 128.319 Z" fill="#000000" fill-rule="nonzero" fill-opacity="1"></path><path clip-path="url(#clip930)" d="M2188.58 138.412 L2192.84 138.412 L2192.84 164.338 L2188.58 164.338 L2188.58 138.412 M2188.58 128.319 L2192.84 128.319 L2192.84 133.713 L2188.58 133.713 L2188.58 128.319 Z" fill="#000000" fill-rule="nonzero" fill-opacity="1"></path><path clip-path="url(#clip930)" d="M2223.3 148.689 L2223.3 164.338 L2219.04 164.338 L2219.04 148.828 Q2219.04 145.148 2217.61 143.319 Q2216.17 141.49 2213.3 141.49 Q2209.85 141.49 2207.86 143.69 Q2205.87 145.889 2205.87 149.685 L2205.87 164.338 L2201.59 164.338 L2201.59 138.412 L2205.87 138.412 L2205.87 142.44 Q2207.4 140.102 2209.46 138.944 Q2211.54 137.787 2214.25 137.787 Q2218.72 137.787 2221.01 140.565 Q2223.3 143.319 2223.3 148.689 Z" fill="#000000" fill-rule="nonzero" fill-opacity="1"></path><path clip-path="url(#clip930)" d="M2248.86 151.074 Q2248.86 146.444 2246.94 143.898 Q2245.04 141.352 2241.59 141.352 Q2238.16 141.352 2236.24 143.898 Q2234.34 146.444 2234.34 151.074 Q2234.34 155.68 2236.24 158.226 Q2238.16 160.773 2241.59 160.773 Q2245.04 160.773 2246.94 158.226 Q2248.86 155.68 2248.86 151.074 M2253.12 161.12 Q2253.12 167.74 2250.18 170.958 Q2247.24 174.199 2241.17 174.199 Q2238.93 174.199 2236.94 173.851 Q2234.95 173.527 2233.07 172.833 L2233.07 168.689 Q2234.95 169.708 2236.77 170.194 Q2238.6 170.68 2240.5 170.68 Q2244.69 170.68 2246.77 168.481 Q2248.86 166.305 2248.86 161.884 L2248.86 159.777 Q2247.54 162.069 2245.48 163.203 Q2243.42 164.338 2240.55 164.338 Q2235.78 164.338 2232.86 160.703 Q2229.95 157.069 2229.95 151.074 Q2229.95 145.055 2232.86 141.421 Q2235.78 137.787 2240.55 137.787 Q2243.42 137.787 2245.48 138.921 Q2247.54 140.055 2248.86 142.347 L2248.86 138.412 L2253.12 138.412 L2253.12 161.12 Z" fill="#000000" fill-rule="nonzero" fill-opacity="1"></path></svg>