<svg xmlns="http://www.w3.org/2000/svg" xmlns:xlink="http://www.w3.org/1999/xlink" width="600" height="400" viewBox="0 0 2400 1600">
<defs>
  <clipPath id="clip530">
    <rect x="0" y="0" width="2400" height="1600"></rect>
  </clipPath>
</defs>
<path clip-path="url(#clip530)" d="M0 1600 L2400 1600 L2400 0 L0 0  Z" fill="#ffffff" fill-rule="evenodd" fill-opacity="1"></path>
<defs>
  <clipPath id="clip531">
    <rect x="480" y="0" width="1681" height="1600"></rect>
  </clipPath>
</defs>
<path clip-path="url(#clip530)" d="M156.598 1486.45 L2352.76 1486.45 L2352.76 47.2441 L156.598 47.2441  Z" fill="#ffffff" fill-rule="evenodd" fill-opacity="1"></path>
<defs>
  <clipPath id="clip532">
    <rect x="156" y="47" width="2197" height="1440"></rect>
  </clipPath>
</defs>
<polyline clip-path="url(#clip532)" style="stroke:#000000; stroke-linecap:round; stroke-linejoin:round; stroke-width:2; stroke-opacity:0.1; fill:none" points="156.598,1486.45 156.598,47.2441 "></polyline>
<polyline clip-path="url(#clip532)" style="stroke:#000000; stroke-linecap:round; stroke-linejoin:round; stroke-width:2; stroke-opacity:0.1; fill:none" points="595.83,1486.45 595.83,47.2441 "></polyline>
<polyline clip-path="url(#clip532)" style="stroke:#000000; stroke-linecap:round; stroke-linejoin:round; stroke-width:2; stroke-opacity:0.1; fill:none" points="1035.06,1486.45 1035.06,47.2441 "></polyline>
<polyline clip-path="url(#clip532)" style="stroke:#000000; stroke-linecap:round; stroke-linejoin:round; stroke-width:2; stroke-opacity:0.1; fill:none" points="1474.29,1486.45 1474.29,47.2441 "></polyline>
<polyline clip-path="url(#clip532)" style="stroke:#000000; stroke-linecap:round; stroke-linejoin:round; stroke-width:2; stroke-opacity:0.1; fill:none" points="1913.52,1486.45 1913.52,47.2441 "></polyline>
<polyline clip-path="url(#clip532)" style="stroke:#000000; stroke-linecap:round; stroke-linejoin:round; stroke-width:2; stroke-opacity:0.1; fill:none" points="2352.76,1486.45 2352.76,47.2441 "></polyline>
<polyline clip-path="url(#clip530)" style="stroke:#000000; stroke-linecap:round; stroke-linejoin:round; stroke-width:4; stroke-opacity:1; fill:none" points="156.598,1486.45 2352.76,1486.45 "></polyline>
<polyline clip-path="url(#clip530)" style="stroke:#000000; stroke-linecap:round; stroke-linejoin:round; stroke-width:4; stroke-opacity:1; fill:none" points="156.598,1486.45 156.598,1467.55 "></polyline>
<polyline clip-path="url(#clip530)" style="stroke:#000000; stroke-linecap:round; stroke-linejoin:round; stroke-width:4; stroke-opacity:1; fill:none" points="595.83,1486.45 595.83,1467.55 "></polyline>
<polyline clip-path="url(#clip530)" style="stroke:#000000; stroke-linecap:round; stroke-linejoin:round; stroke-width:4; stroke-opacity:1; fill:none" points="1035.06,1486.45 1035.06,1467.55 "></polyline>
<polyline clip-path="url(#clip530)" style="stroke:#000000; stroke-linecap:round; stroke-linejoin:round; stroke-width:4; stroke-opacity:1; fill:none" points="1474.29,1486.45 1474.29,1467.55 "></polyline>
<polyline clip-path="url(#clip530)" style="stroke:#000000; stroke-linecap:round; stroke-linejoin:round; stroke-width:4; stroke-opacity:1; fill:none" points="1913.52,1486.45 1913.52,1467.55 "></polyline>
<polyline clip-path="url(#clip530)" style="stroke:#000000; stroke-linecap:round; stroke-linejoin:round; stroke-width:4; stroke-opacity:1; fill:none" points="2352.76,1486.45 2352.76,1467.55 "></polyline>
<path clip-path="url(#clip530)" d="M156.598 1517.37 Q152.987 1517.37 151.158 1520.93 Q149.353 1524.47 149.353 1531.6 Q149.353 1538.71 151.158 1542.27 Q152.987 1545.82 156.598 1545.82 Q160.232 1545.82 162.038 1542.27 Q163.867 1538.71 163.867 1531.6 Q163.867 1524.47 162.038 1520.93 Q160.232 1517.37 156.598 1517.37 M156.598 1513.66 Q162.408 1513.66 165.464 1518.27 Q168.543 1522.85 168.543 1531.6 Q168.543 1540.33 165.464 1544.94 Q162.408 1549.52 156.598 1549.52 Q150.788 1549.52 147.709 1544.94 Q144.654 1540.33 144.654 1531.6 Q144.654 1522.85 147.709 1518.27 Q150.788 1513.66 156.598 1513.66 Z" fill="#000000" fill-rule="nonzero" fill-opacity="1"></path><path clip-path="url(#clip530)" d="M590.483 1544.91 L606.802 1544.91 L606.802 1548.85 L584.858 1548.85 L584.858 1544.91 Q587.52 1542.16 592.103 1537.53 Q596.709 1532.88 597.89 1531.53 Q600.135 1529.01 601.015 1527.27 Q601.918 1525.51 601.918 1523.82 Q601.918 1521.07 599.973 1519.33 Q598.052 1517.6 594.95 1517.6 Q592.751 1517.6 590.297 1518.36 Q587.867 1519.13 585.089 1520.68 L585.089 1515.95 Q587.913 1514.82 590.367 1514.24 Q592.821 1513.66 594.858 1513.66 Q600.228 1513.66 603.422 1516.35 Q606.617 1519.03 606.617 1523.52 Q606.617 1525.65 605.807 1527.57 Q605.02 1529.47 602.913 1532.07 Q602.334 1532.74 599.233 1535.95 Q596.131 1539.15 590.483 1544.91 Z" fill="#000000" fill-rule="nonzero" fill-opacity="1"></path><path clip-path="url(#clip530)" d="M1038.07 1518.36 L1026.27 1536.81 L1038.07 1536.81 L1038.07 1518.36 M1036.84 1514.29 L1042.72 1514.29 L1042.72 1536.81 L1047.65 1536.81 L1047.65 1540.7 L1042.72 1540.7 L1042.72 1548.85 L1038.07 1548.85 L1038.07 1540.7 L1022.47 1540.7 L1022.47 1536.19 L1036.84 1514.29 Z" fill="#000000" fill-rule="nonzero" fill-opacity="1"></path><path clip-path="url(#clip530)" d="M1474.7 1529.7 Q1471.55 1529.7 1469.7 1531.86 Q1467.87 1534.01 1467.87 1537.76 Q1467.87 1541.49 1469.7 1543.66 Q1471.55 1545.82 1474.7 1545.82 Q1477.85 1545.82 1479.67 1543.66 Q1481.53 1541.49 1481.53 1537.76 Q1481.53 1534.01 1479.67 1531.86 Q1477.85 1529.7 1474.7 1529.7 M1483.98 1515.05 L1483.98 1519.31 Q1482.22 1518.48 1480.42 1518.04 Q1478.63 1517.6 1476.87 1517.6 Q1472.24 1517.6 1469.79 1520.72 Q1467.36 1523.85 1467.01 1530.17 Q1468.38 1528.15 1470.44 1527.09 Q1472.5 1526 1474.98 1526 Q1480.18 1526 1483.19 1529.17 Q1486.23 1532.32 1486.23 1537.76 Q1486.23 1543.08 1483.08 1546.3 Q1479.93 1549.52 1474.7 1549.52 Q1468.7 1549.52 1465.53 1544.94 Q1462.36 1540.33 1462.36 1531.6 Q1462.36 1523.41 1466.25 1518.55 Q1470.14 1513.66 1476.69 1513.66 Q1478.45 1513.66 1480.23 1514.01 Q1482.04 1514.36 1483.98 1515.05 Z" fill="#000000" fill-rule="nonzero" fill-opacity="1"></path><path clip-path="url(#clip530)" d="M1913.52 1532.44 Q1910.19 1532.44 1908.27 1534.22 Q1906.37 1536 1906.37 1539.13 Q1906.37 1542.25 1908.27 1544.03 Q1910.19 1545.82 1913.52 1545.82 Q1916.86 1545.82 1918.78 1544.03 Q1920.7 1542.23 1920.7 1539.13 Q1920.7 1536 1918.78 1534.22 Q1916.88 1532.44 1913.52 1532.44 M1908.85 1530.45 Q1905.84 1529.7 1904.15 1527.64 Q1902.48 1525.58 1902.48 1522.62 Q1902.48 1518.48 1905.42 1516.07 Q1908.39 1513.66 1913.52 1513.66 Q1918.69 1513.66 1921.63 1516.07 Q1924.57 1518.48 1924.57 1522.62 Q1924.57 1525.58 1922.88 1527.64 Q1921.21 1529.7 1918.22 1530.45 Q1921.6 1531.23 1923.48 1533.52 Q1925.38 1535.82 1925.38 1539.13 Q1925.38 1544.15 1922.3 1546.83 Q1919.24 1549.52 1913.52 1549.52 Q1907.81 1549.52 1904.73 1546.83 Q1901.67 1544.15 1901.67 1539.13 Q1901.67 1535.82 1903.57 1533.52 Q1905.47 1531.23 1908.85 1530.45 M1907.14 1523.06 Q1907.14 1525.75 1908.8 1527.25 Q1910.49 1528.76 1913.52 1528.76 Q1916.53 1528.76 1918.22 1527.25 Q1919.94 1525.75 1919.94 1523.06 Q1919.94 1520.38 1918.22 1518.87 Q1916.53 1517.37 1913.52 1517.37 Q1910.49 1517.37 1908.8 1518.87 Q1907.14 1520.38 1907.14 1523.06 Z" fill="#000000" fill-rule="nonzero" fill-opacity="1"></path><path clip-path="url(#clip530)" d="M2327.44 1544.91 L2335.08 1544.91 L2335.08 1518.55 L2326.77 1520.21 L2326.77 1515.95 L2335.04 1514.29 L2339.71 1514.29 L2339.71 1544.91 L2347.35 1544.91 L2347.35 1548.85 L2327.44 1548.85 L2327.44 1544.91 Z" fill="#000000" fill-rule="nonzero" fill-opacity="1"></path><path clip-path="url(#clip530)" d="M2366.8 1517.37 Q2363.18 1517.37 2361.36 1520.93 Q2359.55 1524.47 2359.55 1531.6 Q2359.55 1538.71 2361.36 1542.27 Q2363.18 1545.82 2366.8 1545.82 Q2370.43 1545.82 2372.23 1542.27 Q2374.06 1538.71 2374.06 1531.6 Q2374.06 1524.47 2372.23 1520.93 Q2370.43 1517.37 2366.8 1517.37 M2366.8 1513.66 Q2372.61 1513.66 2375.66 1518.27 Q2378.74 1522.85 2378.74 1531.6 Q2378.74 1540.33 2375.66 1544.94 Q2372.61 1549.52 2366.8 1549.52 Q2360.99 1549.52 2357.91 1544.94 Q2354.85 1540.33 2354.85 1531.6 Q2354.85 1522.85 2357.91 1518.27 Q2360.99 1513.66 2366.8 1513.66 Z" fill="#000000" fill-rule="nonzero" fill-opacity="1"></path><polyline clip-path="url(#clip532)" style="stroke:#000000; stroke-linecap:round; stroke-linejoin:round; stroke-width:2; stroke-opacity:0.1; fill:none" points="156.598,1486.45 2352.76,1486.45 "></polyline>
<polyline clip-path="url(#clip532)" style="stroke:#000000; stroke-linecap:round; stroke-linejoin:round; stroke-width:2; stroke-opacity:0.1; fill:none" points="156.598,1129.78 2352.76,1129.78 "></polyline>
<polyline clip-path="url(#clip532)" style="stroke:#000000; stroke-linecap:round; stroke-linejoin:round; stroke-width:2; stroke-opacity:0.1; fill:none" points="156.598,773.103 2352.76,773.103 "></polyline>
<polyline clip-path="url(#clip532)" style="stroke:#000000; stroke-linecap:round; stroke-linejoin:round; stroke-width:2; stroke-opacity:0.1; fill:none" points="156.598,416.431 2352.76,416.431 "></polyline>
<polyline clip-path="url(#clip532)" style="stroke:#000000; stroke-linecap:round; stroke-linejoin:round; stroke-width:2; stroke-opacity:0.1; fill:none" points="156.598,59.7589 2352.76,59.7589 "></polyline>
<polyline clip-path="url(#clip530)" style="stroke:#000000; stroke-linecap:round; stroke-linejoin:round; stroke-width:4; stroke-opacity:1; fill:none" points="156.598,1486.45 156.598,47.2441 "></polyline>
<polyline clip-path="url(#clip530)" style="stroke:#000000; stroke-linecap:round; stroke-linejoin:round; stroke-width:4; stroke-opacity:1; fill:none" points="156.598,1486.45 175.496,1486.45 "></polyline>
<polyline clip-path="url(#clip530)" style="stroke:#000000; stroke-linecap:round; stroke-linejoin:round; stroke-width:4; stroke-opacity:1; fill:none" points="156.598,1129.78 175.496,1129.78 "></polyline>
<polyline clip-path="url(#clip530)" style="stroke:#000000; stroke-linecap:round; stroke-linejoin:round; stroke-width:4; stroke-opacity:1; fill:none" points="156.598,773.103 175.496,773.103 "></polyline>
<polyline clip-path="url(#clip530)" style="stroke:#000000; stroke-linecap:round; stroke-linejoin:round; stroke-width:4; stroke-opacity:1; fill:none" points="156.598,416.431 175.496,416.431 "></polyline>
<polyline clip-path="url(#clip530)" style="stroke:#000000; stroke-linecap:round; stroke-linejoin:round; stroke-width:4; stroke-opacity:1; fill:none" points="156.598,59.7589 175.496,59.7589 "></polyline>
<path clip-path="url(#clip530)" d="M63.4226 1472.25 Q59.8115 1472.25 57.9828 1475.81 Q56.1773 1479.35 56.1773 1486.48 Q56.1773 1493.59 57.9828 1497.15 Q59.8115 1500.7 63.4226 1500.7 Q67.0569 1500.7 68.8624 1497.15 Q70.6911 1493.59 70.6911 1486.48 Q70.6911 1479.35 68.8624 1475.81 Q67.0569 1472.25 63.4226 1472.25 M63.4226 1468.54 Q69.2328 1468.54 72.2883 1473.15 Q75.367 1477.73 75.367 1486.48 Q75.367 1495.21 72.2883 1499.82 Q69.2328 1504.4 63.4226 1504.4 Q57.6125 1504.4 54.5338 1499.82 Q51.4782 1495.21 51.4782 1486.48 Q51.4782 1477.73 54.5338 1473.15 Q57.6125 1468.54 63.4226 1468.54 Z" fill="#000000" fill-rule="nonzero" fill-opacity="1"></path><path clip-path="url(#clip530)" d="M83.5845 1497.85 L88.4688 1497.85 L88.4688 1503.73 L83.5845 1503.73 L83.5845 1497.85 Z" fill="#000000" fill-rule="nonzero" fill-opacity="1"></path><path clip-path="url(#clip530)" d="M108.654 1472.25 Q105.043 1472.25 103.214 1475.81 Q101.409 1479.35 101.409 1486.48 Q101.409 1493.59 103.214 1497.15 Q105.043 1500.7 108.654 1500.7 Q112.288 1500.7 114.094 1497.15 Q115.922 1493.59 115.922 1486.48 Q115.922 1479.35 114.094 1475.81 Q112.288 1472.25 108.654 1472.25 M108.654 1468.54 Q114.464 1468.54 117.52 1473.15 Q120.598 1477.73 120.598 1486.48 Q120.598 1495.21 117.52 1499.82 Q114.464 1504.4 108.654 1504.4 Q102.844 1504.4 99.765 1499.82 Q96.7095 1495.21 96.7095 1486.48 Q96.7095 1477.73 99.765 1473.15 Q102.844 1468.54 108.654 1468.54 Z" fill="#000000" fill-rule="nonzero" fill-opacity="1"></path><path clip-path="url(#clip530)" d="M65.0198 1115.57 Q61.4087 1115.57 59.58 1119.14 Q57.7745 1122.68 57.7745 1129.81 Q57.7745 1136.92 59.58 1140.48 Q61.4087 1144.02 65.0198 1144.02 Q68.6541 1144.02 70.4596 1140.48 Q72.2883 1136.92 72.2883 1129.81 Q72.2883 1122.68 70.4596 1119.14 Q68.6541 1115.57 65.0198 1115.57 M65.0198 1111.87 Q70.83 1111.87 73.8855 1116.48 Q76.9642 1121.06 76.9642 1129.81 Q76.9642 1138.54 73.8855 1143.14 Q70.83 1147.73 65.0198 1147.73 Q59.2097 1147.73 56.131 1143.14 Q53.0754 1138.54 53.0754 1129.81 Q53.0754 1121.06 56.131 1116.48 Q59.2097 1111.87 65.0198 1111.87 Z" fill="#000000" fill-rule="nonzero" fill-opacity="1"></path><path clip-path="url(#clip530)" d="M85.1818 1141.18 L90.066 1141.18 L90.066 1147.06 L85.1818 1147.06 L85.1818 1141.18 Z" fill="#000000" fill-rule="nonzero" fill-opacity="1"></path><path clip-path="url(#clip530)" d="M104.279 1143.12 L120.598 1143.12 L120.598 1147.06 L98.6539 1147.06 L98.6539 1143.12 Q101.316 1140.37 105.899 1135.74 Q110.506 1131.08 111.686 1129.74 Q113.932 1127.22 114.811 1125.48 Q115.714 1123.72 115.714 1122.03 Q115.714 1119.28 113.77 1117.54 Q111.848 1115.81 108.746 1115.81 Q106.547 1115.81 104.094 1116.57 Q101.663 1117.33 98.8854 1118.88 L98.8854 1114.16 Q101.709 1113.03 104.163 1112.45 Q106.617 1111.87 108.654 1111.87 Q114.024 1111.87 117.219 1114.56 Q120.413 1117.24 120.413 1121.73 Q120.413 1123.86 119.603 1125.78 Q118.816 1127.68 116.709 1130.27 Q116.131 1130.94 113.029 1134.16 Q109.927 1137.36 104.279 1143.12 Z" fill="#000000" fill-rule="nonzero" fill-opacity="1"></path><path clip-path="url(#clip530)" d="M62.9365 758.902 Q59.3254 758.902 57.4967 762.467 Q55.6912 766.009 55.6912 773.138 Q55.6912 780.245 57.4967 783.809 Q59.3254 787.351 62.9365 787.351 Q66.5707 787.351 68.3763 783.809 Q70.205 780.245 70.205 773.138 Q70.205 766.009 68.3763 762.467 Q66.5707 758.902 62.9365 758.902 M62.9365 755.198 Q68.7467 755.198 71.8022 759.805 Q74.8809 764.388 74.8809 773.138 Q74.8809 781.865 71.8022 786.471 Q68.7467 791.055 62.9365 791.055 Q57.1264 791.055 54.0477 786.471 Q50.9921 781.865 50.9921 773.138 Q50.9921 764.388 54.0477 759.805 Q57.1264 755.198 62.9365 755.198 Z" fill="#000000" fill-rule="nonzero" fill-opacity="1"></path><path clip-path="url(#clip530)" d="M83.0984 784.504 L87.9827 784.504 L87.9827 790.383 L83.0984 790.383 L83.0984 784.504 Z" fill="#000000" fill-rule="nonzero" fill-opacity="1"></path><path clip-path="url(#clip530)" d="M111.015 759.897 L99.2095 778.346 L111.015 778.346 L111.015 759.897 M109.788 755.823 L115.668 755.823 L115.668 778.346 L120.598 778.346 L120.598 782.235 L115.668 782.235 L115.668 790.383 L111.015 790.383 L111.015 782.235 L95.4132 782.235 L95.4132 777.721 L109.788 755.823 Z" fill="#000000" fill-rule="nonzero" fill-opacity="1"></path><path clip-path="url(#clip530)" d="M63.2606 402.23 Q59.6495 402.23 57.8208 405.795 Q56.0152 409.336 56.0152 416.466 Q56.0152 423.572 57.8208 427.137 Q59.6495 430.679 63.2606 430.679 Q66.8948 430.679 68.7004 427.137 Q70.5291 423.572 70.5291 416.466 Q70.5291 409.336 68.7004 405.795 Q66.8948 402.23 63.2606 402.23 M63.2606 398.526 Q69.0707 398.526 72.1263 403.133 Q75.205 407.716 75.205 416.466 Q75.205 425.193 72.1263 429.799 Q69.0707 434.382 63.2606 434.382 Q57.4504 434.382 54.3717 429.799 Q51.3162 425.193 51.3162 416.466 Q51.3162 407.716 54.3717 403.133 Q57.4504 398.526 63.2606 398.526 Z" fill="#000000" fill-rule="nonzero" fill-opacity="1"></path><path clip-path="url(#clip530)" d="M83.4225 427.832 L88.3067 427.832 L88.3067 433.711 L83.4225 433.711 L83.4225 427.832 Z" fill="#000000" fill-rule="nonzero" fill-opacity="1"></path><path clip-path="url(#clip530)" d="M109.071 414.568 Q105.922 414.568 104.071 416.721 Q102.242 418.873 102.242 422.623 Q102.242 426.35 104.071 428.526 Q105.922 430.679 109.071 430.679 Q112.219 430.679 114.047 428.526 Q115.899 426.35 115.899 422.623 Q115.899 418.873 114.047 416.721 Q112.219 414.568 109.071 414.568 M118.353 399.915 L118.353 404.174 Q116.594 403.341 114.788 402.901 Q113.006 402.461 111.246 402.461 Q106.617 402.461 104.163 405.586 Q101.733 408.711 101.385 415.031 Q102.751 413.017 104.811 411.952 Q106.871 410.864 109.348 410.864 Q114.557 410.864 117.566 414.035 Q120.598 417.183 120.598 422.623 Q120.598 427.947 117.45 431.165 Q114.302 434.382 109.071 434.382 Q103.075 434.382 99.9039 429.799 Q96.7326 425.193 96.7326 416.466 Q96.7326 408.271 100.621 403.41 Q104.51 398.526 111.061 398.526 Q112.82 398.526 114.603 398.873 Q116.408 399.221 118.353 399.915 Z" fill="#000000" fill-rule="nonzero" fill-opacity="1"></path><path clip-path="url(#clip530)" d="M63.5152 45.5576 Q59.9041 45.5576 58.0754 49.1224 Q56.2699 52.664 56.2699 59.7936 Q56.2699 66.9001 58.0754 70.4649 Q59.9041 74.0065 63.5152 74.0065 Q67.1494 74.0065 68.955 70.4649 Q70.7837 66.9001 70.7837 59.7936 Q70.7837 52.664 68.955 49.1224 Q67.1494 45.5576 63.5152 45.5576 M63.5152 41.8539 Q69.3254 41.8539 72.3809 46.4604 Q75.4596 51.0437 75.4596 59.7936 Q75.4596 68.5204 72.3809 73.1269 Q69.3254 77.7102 63.5152 77.7102 Q57.7051 77.7102 54.6264 73.1269 Q51.5708 68.5204 51.5708 59.7936 Q51.5708 51.0437 54.6264 46.4604 Q57.7051 41.8539 63.5152 41.8539 Z" fill="#000000" fill-rule="nonzero" fill-opacity="1"></path><path clip-path="url(#clip530)" d="M83.6771 71.1593 L88.5614 71.1593 L88.5614 77.0389 L83.6771 77.0389 L83.6771 71.1593 Z" fill="#000000" fill-rule="nonzero" fill-opacity="1"></path><path clip-path="url(#clip530)" d="M108.746 60.627 Q105.413 60.627 103.492 62.4094 Q101.594 64.1918 101.594 67.3167 Q101.594 70.4417 103.492 72.2241 Q105.413 74.0065 108.746 74.0065 Q112.08 74.0065 114.001 72.2241 Q115.922 70.4186 115.922 67.3167 Q115.922 64.1918 114.001 62.4094 Q112.103 60.627 108.746 60.627 M104.071 58.6362 Q101.061 57.8955 99.3715 55.8353 Q97.7048 53.7751 97.7048 50.8122 Q97.7048 46.6687 100.645 44.2613 Q103.608 41.8539 108.746 41.8539 Q113.908 41.8539 116.848 44.2613 Q119.788 46.6687 119.788 50.8122 Q119.788 53.7751 118.098 55.8353 Q116.432 57.8955 113.445 58.6362 Q116.825 59.4233 118.7 61.7149 Q120.598 64.0066 120.598 67.3167 Q120.598 72.3399 117.52 75.025 Q114.464 77.7102 108.746 77.7102 Q103.029 77.7102 99.9502 75.025 Q96.8947 72.3399 96.8947 67.3167 Q96.8947 64.0066 98.7928 61.7149 Q100.691 59.4233 104.071 58.6362 M102.358 51.252 Q102.358 53.9372 104.024 55.4418 Q105.714 56.9464 108.746 56.9464 Q111.756 56.9464 113.445 55.4418 Q115.158 53.9372 115.158 51.252 Q115.158 48.5668 113.445 47.0622 Q111.756 45.5576 108.746 45.5576 Q105.714 45.5576 104.024 47.0622 Q102.358 48.5668 102.358 51.252 Z" fill="#000000" fill-rule="nonzero" fill-opacity="1"></path><path clip-path="url(#clip532)" d="M1035.06 47.2441 L1035.06 1486.45 L1144.87 1486.45 L1144.87 47.2441 L1035.06 47.2441 L1035.06 47.2441  Z" fill="#009af9" fill-rule="evenodd" fill-opacity="1"></path>
<polyline clip-path="url(#clip532)" style="stroke:#000000; stroke-linecap:round; stroke-linejoin:round; stroke-width:4; stroke-opacity:1; fill:none" points="1035.06,47.2441 1035.06,1486.45 1144.87,1486.45 1144.87,47.2441 1035.06,47.2441 "></polyline>
<path clip-path="url(#clip532)" d="M1144.87 1361.3 L1144.87 1486.45 L1254.68 1486.45 L1254.68 1361.3 L1144.87 1361.3 L1144.87 1361.3  Z" fill="#009af9" fill-rule="evenodd" fill-opacity="1"></path>
<polyline clip-path="url(#clip532)" style="stroke:#000000; stroke-linecap:round; stroke-linejoin:round; stroke-width:4; stroke-opacity:1; fill:none" points="1144.87,1361.3 1144.87,1486.45 1254.68,1486.45 1254.68,1361.3 1144.87,1361.3 "></polyline>
<path clip-path="url(#clip532)" d="M1254.68 1486.45 L1254.68 1486.45 L1364.48 1486.45 L1364.48 1486.45 L1254.68 1486.45 L1254.68 1486.45  Z" fill="#009af9" fill-rule="evenodd" fill-opacity="1"></path>
<polyline clip-path="url(#clip532)" style="stroke:#000000; stroke-linecap:round; stroke-linejoin:round; stroke-width:4; stroke-opacity:1; fill:none" points="1254.68,1486.45 1254.68,1486.45 1364.48,1486.45 1254.68,1486.45 "></polyline>
<path clip-path="url(#clip532)" d="M1364.48 547.837 L1364.48 1486.45 L1474.29 1486.45 L1474.29 547.837 L1364.48 547.837 L1364.48 547.837  Z" fill="#009af9" fill-rule="evenodd" fill-opacity="1"></path>
<polyline clip-path="url(#clip532)" style="stroke:#000000; stroke-linecap:round; stroke-linejoin:round; stroke-width:4; stroke-opacity:1; fill:none" points="1364.48,547.837 1364.48,1486.45 1474.29,1486.45 1474.29,547.837 1364.48,547.837 "></polyline>
<path clip-path="url(#clip532)" d="M1474.29 1173.58 L1474.29 1486.45 L1584.1 1486.45 L1584.1 1173.58 L1474.29 1173.58 L1474.29 1173.58  Z" fill="#009af9" fill-rule="evenodd" fill-opacity="1"></path>
<polyline clip-path="url(#clip532)" style="stroke:#000000; stroke-linecap:round; stroke-linejoin:round; stroke-width:4; stroke-opacity:1; fill:none" points="1474.29,1173.58 1474.29,1486.45 1584.1,1486.45 1584.1,1173.58 1474.29,1173.58 "></polyline>
<path clip-path="url(#clip532)" d="M1584.1 1298.73 L1584.1 1486.45 L1693.91 1486.45 L1693.91 1298.73 L1584.1 1298.73 L1584.1 1298.73  Z" fill="#009af9" fill-rule="evenodd" fill-opacity="1"></path>
<polyline clip-path="url(#clip532)" style="stroke:#000000; stroke-linecap:round; stroke-linejoin:round; stroke-width:4; stroke-opacity:1; fill:none" points="1584.1,1298.73 1584.1,1486.45 1693.91,1486.45 1693.91,1298.73 1584.1,1298.73 "></polyline>
<path clip-path="url(#clip532)" d="M1693.91 923.281 L1693.91 1486.45 L1803.72 1486.45 L1803.72 923.281 L1693.91 923.281 L1693.91 923.281  Z" fill="#009af9" fill-rule="evenodd" fill-opacity="1"></path>
<polyline clip-path="url(#clip532)" style="stroke:#000000; stroke-linecap:round; stroke-linejoin:round; stroke-width:4; stroke-opacity:1; fill:none" points="1693.91,923.281 1693.91,1486.45 1803.72,1486.45 1803.72,923.281 1693.91,923.281 "></polyline>
<circle clip-path="url(#clip532)" style="fill:#009af9; stroke:none; fill-opacity:0" cx="1089.97" cy="47.2441" r="2"></circle>
<circle clip-path="url(#clip532)" style="fill:#009af9; stroke:none; fill-opacity:0" cx="1199.77" cy="1361.3" r="2"></circle>
<circle clip-path="url(#clip532)" style="fill:#009af9; stroke:none; fill-opacity:0" cx="1309.58" cy="1486.45" r="2"></circle>
<circle clip-path="url(#clip532)" style="fill:#009af9; stroke:none; fill-opacity:0" cx="1419.39" cy="547.837" r="2"></circle>
<circle clip-path="url(#clip532)" style="fill:#009af9; stroke:none; fill-opacity:0" cx="1529.2" cy="1173.58" r="2"></circle>
<circle clip-path="url(#clip532)" style="fill:#009af9; stroke:none; fill-opacity:0" cx="1639" cy="1298.73" r="2"></circle>
<circle clip-path="url(#clip532)" style="fill:#009af9; stroke:none; fill-opacity:0" cx="1748.81" cy="923.281" r="2"></circle>
<path clip-path="url(#clip530)" d="M1671.28 198.898 L2279.55 198.898 L2279.55 95.2176 L1671.28 95.2176  Z" fill="#ffffff" fill-rule="evenodd" fill-opacity="1"></path>
<polyline clip-path="url(#clip530)" style="stroke:#000000; stroke-linecap:round; stroke-linejoin:round; stroke-width:4; stroke-opacity:1; fill:none" points="1671.28,198.898 2279.55,198.898 2279.55,95.2176 1671.28,95.2176 1671.28,198.898 "></polyline>
<path clip-path="url(#clip530)" d="M1695.68 167.794 L1842.09 167.794 L1842.09 126.322 L1695.68 126.322 L1695.68 167.794  Z" fill="#009af9" fill-rule="evenodd" fill-opacity="1"></path>
<polyline clip-path="url(#clip530)" style="stroke:#000000; stroke-linecap:round; stroke-linejoin:round; stroke-width:4; stroke-opacity:1; fill:none" points="1695.68,167.794 1842.09,167.794 1842.09,126.322 1695.68,126.322 1695.68,167.794 "></polyline>
<path clip-path="url(#clip530)" d="M1870.78 160.449 L1870.78 174.199 L1866.49 174.199 L1866.49 138.412 L1870.78 138.412 L1870.78 142.347 Q1872.12 140.032 1874.16 138.921 Q1876.22 137.787 1879.06 137.787 Q1883.79 137.787 1886.72 141.537 Q1889.69 145.287 1889.69 151.398 Q1889.69 157.509 1886.72 161.259 Q1883.79 165.009 1879.06 165.009 Q1876.22 165.009 1874.16 163.898 Q1872.12 162.763 1870.78 160.449 M1885.27 151.398 Q1885.27 146.699 1883.32 144.037 Q1881.4 141.352 1878.02 141.352 Q1874.64 141.352 1872.7 144.037 Q1870.78 146.699 1870.78 151.398 Q1870.78 156.097 1872.7 158.782 Q1874.64 161.444 1878.02 161.444 Q1881.4 161.444 1883.32 158.782 Q1885.27 156.097 1885.27 151.398 Z" fill="#000000" fill-rule="nonzero" fill-opacity="1"></path><path clip-path="url(#clip530)" d="M1906.79 141.398 Q1903.37 141.398 1901.38 144.083 Q1899.39 146.745 1899.39 151.398 Q1899.39 156.051 1901.35 158.736 Q1903.35 161.398 1906.79 161.398 Q1910.2 161.398 1912.19 158.713 Q1914.18 156.027 1914.18 151.398 Q1914.18 146.791 1912.19 144.106 Q1910.2 141.398 1906.79 141.398 M1906.79 137.787 Q1912.35 137.787 1915.52 141.398 Q1918.69 145.009 1918.69 151.398 Q1918.69 157.764 1915.52 161.398 Q1912.35 165.009 1906.79 165.009 Q1901.22 165.009 1898.04 161.398 Q1894.9 157.764 1894.9 151.398 Q1894.9 145.009 1898.04 141.398 Q1901.22 137.787 1906.79 137.787 Z" fill="#000000" fill-rule="nonzero" fill-opacity="1"></path><path clip-path="url(#clip530)" d="M1942.28 139.176 L1942.28 143.203 Q1940.47 142.277 1938.53 141.815 Q1936.59 141.352 1934.5 141.352 Q1931.33 141.352 1929.73 142.324 Q1928.16 143.296 1928.16 145.24 Q1928.16 146.722 1929.29 147.578 Q1930.43 148.412 1933.85 149.176 L1935.31 149.5 Q1939.85 150.472 1941.75 152.254 Q1943.67 154.014 1943.67 157.185 Q1943.67 160.796 1940.8 162.902 Q1937.95 165.009 1932.95 165.009 Q1930.87 165.009 1928.6 164.592 Q1926.35 164.199 1923.85 163.388 L1923.85 158.99 Q1926.22 160.217 1928.51 160.842 Q1930.8 161.444 1933.04 161.444 Q1936.05 161.444 1937.67 160.426 Q1939.29 159.384 1939.29 157.509 Q1939.29 155.773 1938.11 154.847 Q1936.96 153.921 1933 153.064 L1931.52 152.717 Q1927.56 151.884 1925.8 150.171 Q1924.04 148.435 1924.04 145.426 Q1924.04 141.768 1926.63 139.778 Q1929.22 137.787 1933.99 137.787 Q1936.35 137.787 1938.44 138.134 Q1940.52 138.481 1942.28 139.176 Z" fill="#000000" fill-rule="nonzero" fill-opacity="1"></path><path clip-path="url(#clip530)" d="M1954.66 131.051 L1954.66 138.412 L1963.44 138.412 L1963.44 141.722 L1954.66 141.722 L1954.66 155.796 Q1954.66 158.967 1955.52 159.87 Q1956.4 160.773 1959.06 160.773 L1963.44 160.773 L1963.44 164.338 L1959.06 164.338 Q1954.13 164.338 1952.26 162.509 Q1950.38 160.657 1950.38 155.796 L1950.38 141.722 L1947.26 141.722 L1947.26 138.412 L1950.38 138.412 L1950.38 131.051 L1954.66 131.051 Z" fill="#000000" fill-rule="nonzero" fill-opacity="1"></path><path clip-path="url(#clip530)" d="M1991.22 150.31 L1991.22 152.393 L1971.63 152.393 Q1971.91 156.791 1974.27 159.106 Q1976.66 161.398 1980.89 161.398 Q1983.34 161.398 1985.64 160.796 Q1987.95 160.194 1990.22 158.99 L1990.22 163.018 Q1987.93 163.99 1985.52 164.5 Q1983.11 165.009 1980.64 165.009 Q1974.43 165.009 1970.8 161.398 Q1967.19 157.787 1967.19 151.629 Q1967.19 145.264 1970.61 141.537 Q1974.06 137.787 1979.9 137.787 Q1985.13 137.787 1988.16 141.166 Q1991.22 144.523 1991.22 150.31 M1986.96 149.06 Q1986.91 145.565 1984.99 143.481 Q1983.09 141.398 1979.94 141.398 Q1976.38 141.398 1974.22 143.412 Q1972.09 145.426 1971.77 149.083 L1986.96 149.06 Z" fill="#000000" fill-rule="nonzero" fill-opacity="1"></path><path clip-path="url(#clip530)" d="M2013.23 142.393 Q2012.51 141.977 2011.65 141.791 Q2010.82 141.583 2009.8 141.583 Q2006.19 141.583 2004.25 143.944 Q2002.33 146.282 2002.33 150.68 L2002.33 164.338 L1998.04 164.338 L1998.04 138.412 L2002.33 138.412 L2002.33 142.44 Q2003.67 140.078 2005.82 138.944 Q2007.97 137.787 2011.05 137.787 Q2011.49 137.787 2012.03 137.856 Q2012.56 137.903 2013.21 138.018 L2013.23 142.393 Z" fill="#000000" fill-rule="nonzero" fill-opacity="1"></path><path clip-path="url(#clip530)" d="M2017.7 138.412 L2021.96 138.412 L2021.96 164.338 L2017.7 164.338 L2017.7 138.412 M2017.7 128.319 L2021.96 128.319 L2021.96 133.713 L2017.7 133.713 L2017.7 128.319 Z" fill="#000000" fill-rule="nonzero" fill-opacity="1"></path><path clip-path="url(#clip530)" d="M2040.91 141.398 Q2037.49 141.398 2035.5 144.083 Q2033.51 146.745 2033.51 151.398 Q2033.51 156.051 2035.47 158.736 Q2037.46 161.398 2040.91 161.398 Q2044.32 161.398 2046.31 158.713 Q2048.3 156.027 2048.3 151.398 Q2048.3 146.791 2046.31 144.106 Q2044.32 141.398 2040.91 141.398 M2040.91 137.787 Q2046.47 137.787 2049.64 141.398 Q2052.81 145.009 2052.81 151.398 Q2052.81 157.764 2049.64 161.398 Q2046.47 165.009 2040.91 165.009 Q2035.34 165.009 2032.16 161.398 Q2029.02 157.764 2029.02 151.398 Q2029.02 145.009 2032.16 141.398 Q2035.34 137.787 2040.91 137.787 Z" fill="#000000" fill-rule="nonzero" fill-opacity="1"></path><path clip-path="url(#clip530)" d="M2074.9 142.393 Q2074.18 141.977 2073.32 141.791 Q2072.49 141.583 2071.47 141.583 Q2067.86 141.583 2065.91 143.944 Q2063.99 146.282 2063.99 150.68 L2063.99 164.338 L2059.71 164.338 L2059.71 138.412 L2063.99 138.412 L2063.99 142.44 Q2065.34 140.078 2067.49 138.944 Q2069.64 137.787 2072.72 137.787 Q2073.16 137.787 2073.69 137.856 Q2074.22 137.903 2074.87 138.018 L2074.9 142.393 Z" fill="#000000" fill-rule="nonzero" fill-opacity="1"></path><path clip-path="url(#clip530)" d="M2110.96 139.176 L2110.96 143.203 Q2109.15 142.277 2107.21 141.815 Q2105.27 141.352 2103.18 141.352 Q2100.01 141.352 2098.41 142.324 Q2096.84 143.296 2096.84 145.24 Q2096.84 146.722 2097.97 147.578 Q2099.11 148.412 2102.53 149.176 L2103.99 149.5 Q2108.53 150.472 2110.43 152.254 Q2112.35 154.014 2112.35 157.185 Q2112.35 160.796 2109.48 162.902 Q2106.63 165.009 2101.63 165.009 Q2099.55 165.009 2097.28 164.592 Q2095.03 164.199 2092.53 163.388 L2092.53 158.99 Q2094.9 160.217 2097.19 160.842 Q2099.48 161.444 2101.72 161.444 Q2104.73 161.444 2106.35 160.426 Q2107.97 159.384 2107.97 157.509 Q2107.97 155.773 2106.79 154.847 Q2105.64 153.921 2101.68 153.064 L2100.2 152.717 Q2096.24 151.884 2094.48 150.171 Q2092.72 148.435 2092.72 145.426 Q2092.72 141.768 2095.31 139.778 Q2097.9 137.787 2102.67 137.787 Q2105.03 137.787 2107.12 138.134 Q2109.2 138.481 2110.96 139.176 Z" fill="#000000" fill-rule="nonzero" fill-opacity="1"></path><path clip-path="url(#clip530)" d="M2123.25 160.449 L2123.25 174.199 L2118.97 174.199 L2118.97 138.412 L2123.25 138.412 L2123.25 142.347 Q2124.59 140.032 2126.63 138.921 Q2128.69 137.787 2131.54 137.787 Q2136.26 137.787 2139.2 141.537 Q2142.16 145.287 2142.16 151.398 Q2142.16 157.509 2139.2 161.259 Q2136.26 165.009 2131.54 165.009 Q2128.69 165.009 2126.63 163.898 Q2124.59 162.763 2123.25 160.449 M2137.74 151.398 Q2137.74 146.699 2135.8 144.037 Q2133.88 141.352 2130.5 141.352 Q2127.12 141.352 2125.17 144.037 Q2123.25 146.699 2123.25 151.398 Q2123.25 156.097 2125.17 158.782 Q2127.12 161.444 2130.5 161.444 Q2133.88 161.444 2135.8 158.782 Q2137.74 156.097 2137.74 151.398 Z" fill="#000000" fill-rule="nonzero" fill-opacity="1"></path><path clip-path="url(#clip530)" d="M2159.27 141.398 Q2155.84 141.398 2153.85 144.083 Q2151.86 146.745 2151.86 151.398 Q2151.86 156.051 2153.83 158.736 Q2155.82 161.398 2159.27 161.398 Q2162.67 161.398 2164.66 158.713 Q2166.65 156.027 2166.65 151.398 Q2166.65 146.791 2164.66 144.106 Q2162.67 141.398 2159.27 141.398 M2159.27 137.787 Q2164.83 137.787 2168 141.398 Q2171.17 145.009 2171.17 151.398 Q2171.17 157.764 2168 161.398 Q2164.83 165.009 2159.27 165.009 Q2153.69 165.009 2150.52 161.398 Q2147.37 157.764 2147.37 151.398 Q2147.37 145.009 2150.52 141.398 Q2153.69 137.787 2159.27 137.787 Z" fill="#000000" fill-rule="nonzero" fill-opacity="1"></path><path clip-path="url(#clip530)" d="M2177.79 154.106 L2177.79 138.412 L2182.05 138.412 L2182.05 153.944 Q2182.05 157.625 2183.48 159.476 Q2184.92 161.305 2187.79 161.305 Q2191.24 161.305 2193.23 159.106 Q2195.24 156.907 2195.24 153.111 L2195.24 138.412 L2199.5 138.412 L2199.5 164.338 L2195.24 164.338 L2195.24 160.356 Q2193.69 162.717 2191.63 163.875 Q2189.59 165.009 2186.89 165.009 Q2182.42 165.009 2180.1 162.231 Q2177.79 159.453 2177.79 154.106 M2188.51 137.787 L2188.51 137.787 Z" fill="#000000" fill-rule="nonzero" fill-opacity="1"></path><path clip-path="url(#clip530)" d="M2224.8 139.176 L2224.8 143.203 Q2223 142.277 2221.05 141.815 Q2219.11 141.352 2217.02 141.352 Q2213.85 141.352 2212.26 142.324 Q2210.68 143.296 2210.68 145.24 Q2210.68 146.722 2211.82 147.578 Q2212.95 148.412 2216.38 149.176 L2217.83 149.5 Q2222.37 150.472 2224.27 152.254 Q2226.19 154.014 2226.19 157.185 Q2226.19 160.796 2223.32 162.902 Q2220.47 165.009 2215.47 165.009 Q2213.39 165.009 2211.12 164.592 Q2208.88 164.199 2206.38 163.388 L2206.38 158.99 Q2208.74 160.217 2211.03 160.842 Q2213.32 161.444 2215.57 161.444 Q2218.58 161.444 2220.2 160.426 Q2221.82 159.384 2221.82 157.509 Q2221.82 155.773 2220.64 154.847 Q2219.48 153.921 2215.52 153.064 L2214.04 152.717 Q2210.08 151.884 2208.32 150.171 Q2206.56 148.435 2206.56 145.426 Q2206.56 141.768 2209.15 139.778 Q2211.75 137.787 2216.51 137.787 Q2218.88 137.787 2220.96 138.134 Q2223.04 138.481 2224.8 139.176 Z" fill="#000000" fill-rule="nonzero" fill-opacity="1"></path><path clip-path="url(#clip530)" d="M2255.15 150.31 L2255.15 152.393 L2235.57 152.393 Q2235.84 156.791 2238.2 159.106 Q2240.59 161.398 2244.82 161.398 Q2247.28 161.398 2249.57 160.796 Q2251.89 160.194 2254.15 158.99 L2254.15 163.018 Q2251.86 163.99 2249.45 164.5 Q2247.05 165.009 2244.57 165.009 Q2238.37 165.009 2234.73 161.398 Q2231.12 157.787 2231.12 151.629 Q2231.12 145.264 2234.55 141.537 Q2238 137.787 2243.83 137.787 Q2249.06 137.787 2252.09 141.166 Q2255.15 144.523 2255.15 150.31 M2250.89 149.06 Q2250.84 145.565 2248.92 143.481 Q2247.02 141.398 2243.88 141.398 Q2240.31 141.398 2238.16 143.412 Q2236.03 145.426 2235.7 149.083 L2250.89 149.06 Z" fill="#000000" fill-rule="nonzero" fill-opacity="1"></path></svg>